<svg width="147" height="32" viewBox="0 0 147 32" fill="none" xmlns="http://www.w3.org/2000/svg">
<g clip-path="url(#clip0_32328_172)">
<path d="M12.6804 7.44123L12.0541 13.1544L9.69008 10.4462C9.66887 10.422 9.64175 10.4037 9.6114 10.393C9.58105 10.3824 9.54851 10.3798 9.517 10.3855C9.48548 10.3912 9.45607 10.405 9.43167 10.4256C9.40726 10.4461 9.3887 10.4727 9.37781 10.5027L5.52303 20.8355C5.47598 20.9639 5.51715 21.0493 5.64652 21.0917C5.71591 21.114 5.81824 21.1011 5.95349 21.0528C6.18519 20.9692 7.68065 20.3638 10.4399 19.2368C11.2208 18.9176 11.92 18.9806 12.5375 19.4258C13.6648 20.2402 13.7019 21.8142 12.6628 22.724C12.5063 22.8606 12.1764 23.032 11.673 23.2381C9.07613 24.3016 7.29782 25.0223 6.33809 25.4004C5.65123 25.6701 5.13725 25.8197 4.79617 25.8491C4.22928 25.8974 3.69649 25.8261 3.19781 25.6353C2.39333 25.3256 1.78821 24.8404 1.38244 24.1797C0.727331 23.1127 0.613834 22.0109 1.04195 20.8744C3.39069 14.6324 4.7703 10.9397 5.18077 9.7961C5.57125 8.70552 5.93409 7.96591 6.26929 7.57726C7.10434 6.61035 8.22344 6.08508 9.62657 6.00146C9.85709 5.98733 10.2717 6.07566 10.8703 6.26645C11.5866 6.49257 12.19 6.88417 12.6804 7.44123Z" fill="#F25345"/>
<path d="M56.9425 10.7942C58.2472 10.7942 59.3048 9.73517 59.3048 8.42876C59.3048 7.12235 58.2472 6.06329 56.9425 6.06329C55.6379 6.06329 54.5803 7.12235 54.5803 8.42876C54.5803 9.73517 55.6379 10.7942 56.9425 10.7942Z" fill="#020202"/>
<path d="M112.339 6.43958H108.676C108.565 6.43958 108.475 6.52974 108.475 6.64097V25.2962C108.475 25.4074 108.565 25.4975 108.676 25.4975H112.339C112.45 25.4975 112.54 25.4074 112.54 25.2962V6.64097C112.54 6.52974 112.45 6.43958 112.339 6.43958Z" fill="#020202"/>
<path d="M118.305 6.44309H114.625C114.525 6.44309 114.443 6.52456 114.443 6.62505V25.3156C114.443 25.4161 114.525 25.4975 114.625 25.4975H118.305C118.405 25.4975 118.487 25.4161 118.487 25.3156V6.62505C118.487 6.52456 118.405 6.44309 118.305 6.44309Z" fill="#020202"/>
<path d="M40.7789 21.7047C40.6901 21.7047 40.6035 21.7323 40.5311 21.7835C40.4587 21.8348 40.4041 21.9073 40.3749 21.9909L39.2017 25.3121C39.1822 25.3684 39.1456 25.4172 39.0969 25.4517C39.0482 25.4862 38.9898 25.5047 38.93 25.5046H34.987C34.9534 25.5044 34.9205 25.4959 34.8909 25.48C34.8613 25.4641 34.836 25.4412 34.8172 25.4133C34.7983 25.3853 34.7864 25.3532 34.7825 25.3196C34.7785 25.286 34.7827 25.2519 34.7947 25.2202L41.7316 7.04198C41.7548 6.98071 41.7961 6.92796 41.85 6.89073C41.9039 6.8535 41.9678 6.83355 42.0332 6.83352H46.4561C46.5255 6.83343 46.5934 6.85467 46.6507 6.89442C46.7081 6.93418 46.7522 6.99057 46.7772 7.05612C50.1774 16.0834 52.3668 21.8861 53.3453 24.4641C53.4418 24.7161 53.5288 24.9994 53.6064 25.3138C53.612 25.3362 53.6125 25.3595 53.6078 25.3821C53.6031 25.4046 53.5933 25.4258 53.5792 25.444C53.5651 25.4623 53.547 25.477 53.5263 25.4872C53.5057 25.4974 53.483 25.5027 53.46 25.5028L49.3141 25.5046C49.261 25.5047 49.2089 25.4882 49.1651 25.4572C49.1212 25.4263 49.0876 25.3824 49.0689 25.3315L47.841 21.8902C47.8214 21.8358 47.7856 21.7888 47.7386 21.7556C47.6915 21.7224 47.6355 21.7046 47.5781 21.7047H40.7789ZM41.9397 17.7387C41.9323 17.7586 41.9298 17.78 41.9324 17.801C41.9351 17.8221 41.9428 17.8422 41.955 17.8596C41.9672 17.877 41.9834 17.8912 42.0022 17.9009C42.0211 17.9106 42.042 17.9156 42.0632 17.9153L46.2585 17.9295C46.2795 17.9296 46.3002 17.9246 46.3189 17.915C46.3375 17.9054 46.3536 17.8914 46.3657 17.8742C46.3778 17.8571 46.3856 17.8372 46.3885 17.8164C46.3913 17.7956 46.3891 17.7744 46.382 17.7546L44.3038 11.8524C44.2948 11.8272 44.2782 11.8053 44.2564 11.7898C44.2346 11.7743 44.2085 11.7659 44.1818 11.7657C44.155 11.7655 44.1288 11.7735 44.1068 11.7887C44.0848 11.8039 44.0679 11.8255 44.0585 11.8506L41.9397 17.7387Z" fill="#020202"/>
<path d="M12.6804 7.44123L19.4038 15.4368C19.4401 15.4804 19.4895 15.5111 19.5447 15.5245C19.6 15.5378 19.6582 15.5331 19.7108 15.511C21.7149 14.6595 23.7208 13.8433 25.7285 13.0625C26.9105 12.6032 28.0149 12.6962 29.0416 13.3416C30.4795 14.2444 31.194 16.0021 30.6241 17.6062C30.5312 17.8688 29.9561 19.4405 28.8987 22.3212C28.5306 23.3235 28.1731 24.0236 27.8261 24.4217C27.1745 25.1684 26.3018 25.6459 25.208 25.8544C24.6435 25.9622 24.4018 25.9145 23.7914 25.7678C22.8681 25.5464 22.1665 25.1519 21.6867 24.5842C18.4641 20.7754 15.2532 16.9655 12.0541 13.1544L12.6804 7.44123ZM22.6058 18.8004C22.5747 18.8126 22.5469 18.8322 22.5249 18.8573C22.5028 18.8825 22.487 18.9126 22.4789 18.9451C22.4708 18.9776 22.4706 19.0115 22.4782 19.0441C22.4859 19.0767 22.5012 19.107 22.5229 19.1325L24.4494 21.3796C24.4732 21.4074 24.5038 21.4286 24.5383 21.4409C24.5727 21.4532 24.6098 21.4563 24.6458 21.4499C24.6818 21.4435 24.7155 21.4278 24.7436 21.4043C24.7716 21.3808 24.7931 21.3504 24.8058 21.316L26.1042 17.8005C26.1182 17.7625 26.121 17.7212 26.1121 17.6817C26.1032 17.6422 26.0832 17.606 26.0543 17.5777C26.0254 17.5493 25.9889 17.5299 25.9493 17.5218C25.9096 17.5137 25.8685 17.5172 25.8308 17.532L22.6058 18.8004Z" fill="#F57942"/>
<path d="M102.568 24.321C102.566 24.0113 102.481 23.9865 102.314 24.2468C101.953 24.8062 101.451 25.2231 100.808 25.4975C100.161 25.7743 99.5028 25.9086 98.8336 25.9003C98.2714 25.8921 97.6221 25.7737 96.8859 25.5452C95.0217 24.9658 93.7021 23.7274 92.927 21.8301C92.533 20.8655 92.3613 19.7714 92.4119 18.5478C92.4589 17.4113 92.6983 16.4067 93.1299 15.534C94.4425 12.8841 97.0764 11.6528 100.007 12.1421C100.965 12.3023 101.727 12.7645 102.293 13.5289C102.487 13.7903 102.572 13.7591 102.549 13.4353L102.498 12.6792C102.486 12.5072 102.566 12.4212 102.738 12.4212L106.275 12.4124C106.3 12.4124 106.326 12.4174 106.349 12.4272C106.373 12.437 106.394 12.4513 106.412 12.4693C106.43 12.4874 106.445 12.5088 106.454 12.5324C106.464 12.5559 106.469 12.5812 106.469 12.6067L106.474 25.2856C106.474 25.3147 106.469 25.3436 106.458 25.3705C106.446 25.3974 106.43 25.4218 106.41 25.4423C106.389 25.4629 106.365 25.4791 106.338 25.4901C106.311 25.5011 106.283 25.5066 106.254 25.5064L102.727 25.5028C102.696 25.5027 102.666 25.4961 102.637 25.4835C102.609 25.4708 102.584 25.4524 102.563 25.4293C102.542 25.4062 102.526 25.379 102.516 25.3494C102.506 25.3198 102.502 25.2884 102.505 25.2573C102.547 24.7591 102.568 24.447 102.568 24.321ZM99.5258 22.4378C100.337 22.4335 101.112 22.0617 101.682 21.404C102.252 20.7464 102.57 19.8568 102.565 18.931C102.562 18.4726 102.481 18.0191 102.325 17.5964C102.169 17.1737 101.942 16.79 101.656 16.4674C101.371 16.1447 101.032 15.8894 100.661 15.7159C100.289 15.5424 99.8907 15.4542 99.4892 15.4563C98.6784 15.4605 97.9027 15.8324 97.3327 16.49C96.7628 17.1477 96.4453 18.0372 96.4502 18.963C96.4526 19.4215 96.534 19.875 96.6899 20.2977C96.8457 20.7204 97.0729 21.104 97.3585 21.4267C97.6441 21.7493 97.9825 22.0047 98.3544 22.1782C98.7262 22.3517 99.1243 22.4399 99.5258 22.4378Z" fill="#020202"/>
<path d="M124.011 19.9893C123.82 19.9893 123.748 20.0812 123.795 20.2649C124.005 21.0764 124.439 21.6676 125.099 22.0386C126.327 22.7275 127.957 22.6763 128.95 21.6322C129.227 21.3425 129.37 21.3796 129.769 21.3708C130.629 21.3508 131.608 21.3508 132.706 21.3708C132.723 21.371 132.74 21.3746 132.755 21.3815C132.77 21.3884 132.784 21.3984 132.795 21.4108C132.806 21.4232 132.815 21.4379 132.82 21.4538C132.826 21.4697 132.828 21.4865 132.826 21.5033C132.799 21.8625 132.72 22.1769 132.59 22.4466C131.839 23.993 130.721 25.0029 129.234 25.4763C128.259 25.7873 127.408 25.9616 126.68 25.9993C126.463 26.0099 125.915 25.908 125.036 25.6936C122.532 25.0842 120.731 23.413 120.08 20.945C119.883 20.2007 119.813 19.3304 119.868 18.334C120.029 15.4686 121.805 13.165 124.54 12.3064C125.627 11.9649 126.847 11.9301 128.202 12.2022C132.004 12.9671 133.431 16.3236 133.006 19.9027C133.004 19.9271 132.992 19.9496 132.974 19.9659C132.956 19.9822 132.933 19.9912 132.909 19.9911L124.011 19.9893ZM123.933 17.3924L129.123 17.3642C129.129 17.3642 129.135 17.3617 129.139 17.3574C129.144 17.3531 129.146 17.3473 129.146 17.3412V17.3341C129.143 16.7651 128.871 16.2208 128.39 15.821C127.909 15.4211 127.258 15.1984 126.581 15.2018H126.454C126.118 15.2035 125.786 15.2608 125.477 15.3703C125.167 15.4798 124.886 15.6394 124.65 15.8401C124.414 16.0407 124.227 16.2784 124.1 16.5396C123.973 16.8008 123.908 17.0804 123.91 17.3624V17.3695C123.91 17.3755 123.912 17.3814 123.917 17.3857C123.921 17.39 123.927 17.3924 123.933 17.3924Z" fill="#020202"/>
<path d="M64.8709 13.7338C64.8697 13.9882 64.9438 14.0141 65.0931 13.8115C65.2996 13.5307 65.5342 13.2197 65.8341 13.0272C66.8503 12.3794 67.9676 12.1562 69.1861 12.3576C69.2388 12.3664 69.2866 12.3936 69.3212 12.4343C69.3557 12.4751 69.3748 12.5268 69.3749 12.5802L69.3907 16.1222C69.3909 16.1516 69.3846 16.1807 69.3724 16.2074C69.3603 16.2341 69.3425 16.2578 69.3203 16.2768C69.2981 16.2958 69.272 16.3097 69.244 16.3175C69.2159 16.3253 69.1865 16.3268 69.1579 16.3219C66.7374 15.9191 65.109 17.0373 65.0385 19.5282C65.0173 20.2973 65.0149 22.2134 65.0314 25.2767C65.0314 25.3362 65.0076 25.3933 64.9653 25.4354C64.9229 25.4774 64.8655 25.5011 64.8056 25.5011H61.1837C61.1219 25.5011 61.0627 25.4765 61.019 25.4328C60.9753 25.389 60.9508 25.3297 60.9508 25.2679V12.6421C60.9508 12.489 61.0267 12.4124 61.1784 12.4124L64.6556 12.4159C64.6845 12.4159 64.7131 12.4217 64.7397 12.433C64.7664 12.4443 64.7906 12.4609 64.8109 12.4817C64.8313 12.5026 64.8474 12.5274 64.8582 12.5546C64.8691 12.5818 64.8746 12.6109 64.8744 12.6403L64.8709 13.7338Z" fill="#020202"/>
<path d="M58.8002 12.4159H55.0989C55.0015 12.4159 54.9225 12.495 54.9225 12.5926V25.3262C54.9225 25.4237 55.0015 25.5028 55.0989 25.5028H58.8002C58.8977 25.5028 58.9766 25.4237 58.9766 25.3262V12.5926C58.9766 12.495 58.8977 12.4159 58.8002 12.4159Z" fill="#020202"/>
<path d="M86.2795 19.7561C86.3277 19.9033 86.373 19.9022 86.4153 19.7526L88.4477 12.6103C88.4634 12.5548 88.4964 12.5061 88.5416 12.4713C88.5868 12.4366 88.6418 12.4177 88.6982 12.4177L92.2425 12.4142C92.272 12.4141 92.3012 12.4209 92.3276 12.4339C92.354 12.447 92.377 12.4661 92.3945 12.4895C92.4121 12.513 92.4238 12.5401 92.4286 12.5688C92.4335 12.5975 92.4313 12.6268 92.4224 12.6544L88.4477 25.3138C88.4065 25.4434 88.3183 25.5081 88.1831 25.5081L84.4712 25.5028C84.4358 25.5028 84.4013 25.4915 84.3725 25.4706C84.3437 25.4497 84.322 25.4202 84.3106 25.3863L81.5885 17.3889C81.5846 17.3778 81.5784 17.3676 81.5702 17.3591C81.5619 17.3505 81.5519 17.3438 81.5408 17.3394C81.4526 17.3053 81.3891 17.3453 81.3503 17.4596C80.5834 19.7667 79.7061 22.3901 78.7181 25.3297C78.7 25.3823 78.6664 25.4278 78.622 25.4599C78.5777 25.4919 78.5249 25.5088 78.4711 25.5081L74.6675 25.4993C74.6326 25.4993 74.5988 25.4885 74.5708 25.4685C74.5429 25.4485 74.5224 25.4203 74.5122 25.388L70.474 12.6862C70.4643 12.6556 70.4618 12.6231 70.4669 12.5913C70.472 12.5596 70.4844 12.5295 70.5031 12.5035C70.5218 12.4775 70.5463 12.4564 70.5747 12.4418C70.603 12.4272 70.6344 12.4196 70.6663 12.4195L74.4522 12.4142C74.4999 12.4137 74.5464 12.4292 74.5847 12.4583C74.6229 12.4873 74.6508 12.5283 74.664 12.5749C75.3308 14.9598 76.0089 17.323 76.6981 19.6643C76.7228 19.7479 76.7569 19.805 76.8004 19.8356C76.8115 19.8437 76.8244 19.849 76.838 19.8512C76.8516 19.8533 76.8655 19.8522 76.8787 19.8479C76.8919 19.8436 76.904 19.8363 76.914 19.8265C76.924 19.8167 76.9316 19.8047 76.9362 19.7915L79.3444 12.6403C79.395 12.4907 79.4979 12.416 79.6531 12.416L83.5009 12.4195C83.5999 12.4195 83.696 12.4495 83.7755 12.5054C83.855 12.5612 83.9138 12.6399 83.9437 12.7304C84.8505 15.4356 85.6291 17.7776 86.2795 19.7561Z" fill="#020202"/>
<path d="M139.777 15.8096C139.791 15.8303 139.809 15.8473 139.831 15.8589C139.853 15.8706 139.878 15.8765 139.903 15.8761C139.928 15.8758 139.952 15.8692 139.974 15.8569C139.996 15.8447 140.014 15.8272 140.028 15.806L142.139 12.5272C142.161 12.4941 142.19 12.4669 142.225 12.4481C142.259 12.4293 142.297 12.4195 142.335 12.4195L146.384 12.4089C146.421 12.4089 146.457 12.4192 146.488 12.4384C146.519 12.4577 146.544 12.4852 146.561 12.5181C146.577 12.5509 146.585 12.5877 146.582 12.6246C146.579 12.6614 146.566 12.6968 146.545 12.7269L142.311 18.6343C142.272 18.6879 142.251 18.7522 142.251 18.8181C142.25 18.884 142.271 18.9482 142.309 19.0018L146.763 25.2855C146.778 25.3053 146.786 25.3286 146.788 25.3529C146.79 25.3771 146.784 25.4015 146.773 25.4232C146.762 25.4449 146.745 25.4631 146.724 25.4759C146.703 25.4888 146.679 25.4956 146.654 25.4958L142.296 25.5064C142.255 25.5064 142.214 25.4959 142.178 25.4758C142.141 25.4558 142.11 25.4268 142.087 25.3915L139.832 21.9944C139.819 21.9749 139.801 21.9589 139.781 21.9478C139.76 21.9367 139.737 21.9309 139.714 21.9309C139.691 21.9309 139.668 21.9367 139.647 21.9478C139.627 21.9589 139.61 21.9749 139.597 21.9944L137.397 25.3597C137.367 25.4059 137.326 25.4438 137.279 25.47C137.232 25.4962 137.18 25.5099 137.127 25.5099L133.253 25.494C133.029 25.4928 132.967 25.3939 133.068 25.1972C133.129 25.0794 133.235 24.9128 133.386 24.6973C134.094 23.6938 135.39 21.8407 137.274 19.1378C137.307 19.0908 137.325 19.0346 137.325 18.9771C137.325 18.9195 137.307 18.8633 137.274 18.8163C135.577 16.4055 134.362 14.6901 133.631 13.6702C133.314 13.2297 133.089 12.8841 132.955 12.6332C132.943 12.6117 132.938 12.5876 132.938 12.5632C132.939 12.5388 132.945 12.515 132.958 12.494C132.97 12.473 132.988 12.4556 133.009 12.4435C133.03 12.4313 133.054 12.4249 133.079 12.4248L137.306 12.4106C137.38 12.4101 137.454 12.4283 137.52 12.4635C137.585 12.4987 137.641 12.5498 137.681 12.612L139.777 15.8096Z" fill="#020202"/>
</g>
<defs>
<clipPath id="clip0_32328_172">
<rect width="146" height="32" fill="white" transform="translate(0.788147)"/>
</clipPath>
</defs>
</svg>
