<svg width="110" height="32" viewBox="0 0 110 32" fill="none" xmlns="http://www.w3.org/2000/svg">
<g clip-path="url(#clip0_27590_76384)">
<path d="M32.5355 32.02H0.515472V0H32.5355V32.02ZM2.17651 30.3723H30.8611V1.68772H2.17651V30.3723Z" fill="#231F20"/>
<path d="M23.1296 7.42029H26.1515V23.9973H23.1296V7.42029Z" fill="#231F20"/>
<path d="M17.6061 20.0546C16.7469 20.6562 15.7197 20.9714 14.6709 20.9552C13.2644 20.9552 11.9155 20.3964 10.9209 19.4019C9.92636 18.4073 9.36762 17.0584 9.36762 15.6519C9.36762 14.2453 9.92636 12.8964 10.9209 11.9019C11.9155 10.9073 13.2644 10.3486 14.6709 10.3486C15.8413 10.3491 16.9779 10.7413 17.8996 11.4626L20.5346 9.26121C19.2599 8.06736 17.6575 7.28183 15.9331 7.00549C14.2086 6.72915 12.4409 6.97463 10.8571 7.7104C9.27318 8.44617 7.94542 9.63863 7.0443 11.1346C6.14319 12.6306 5.70988 14.3619 5.80001 16.106C5.89014 17.8501 6.49959 19.5274 7.55011 20.9226C8.60063 22.3177 10.0442 23.367 11.6955 23.9355C13.3468 24.5041 15.1304 24.5661 16.8171 24.1135C18.5039 23.6609 20.0168 22.7143 21.1617 21.3955C21.0883 21.2954 19.3472 18.6938 17.6061 20.0546Z" fill="#231F20"/>
<path d="M44.9567 17.3329L44.0094 14.9381H40.5139L39.5666 17.3329H37.6921L41.7613 7.32666H42.862L46.9112 17.3329H44.9567ZM42.6286 11.2758C42.5218 10.9823 42.3817 10.5754 42.2683 10.2018C42.1664 10.5656 42.0462 10.9241 41.9081 11.2758L41.0876 13.4038H43.4824L42.6286 11.2758Z" fill="#231F20"/>
<path d="M52.1545 17.4397C51.2324 17.456 50.3227 17.2257 49.5195 16.7726L49.3127 14.8648C50.1264 15.4549 51.1027 15.7788 52.1078 15.792C53.075 15.792 53.7088 15.3117 53.7088 14.5646C53.7088 13.8174 53.2752 13.4172 52.2345 13.1103C50.3867 12.5633 49.4861 11.5694 49.4861 10.1085C49.4861 8.64754 50.6068 7.30003 52.7148 7.30003C53.5216 7.28601 54.3185 7.47893 55.0296 7.86039L54.656 9.46138C54.0847 9.1242 53.4378 8.93609 52.7748 8.91437C51.8609 8.91437 51.3673 9.41469 51.3673 10.0017C51.3673 10.5888 51.8276 10.949 52.7015 11.2291C54.4893 11.7895 55.6366 12.6567 55.6366 14.4111C55.6366 16.1656 54.4426 17.4397 52.1545 17.4397Z" fill="#231F20"/>
<path d="M61.407 17.4397C60.4737 17.462 59.5517 17.2315 58.7387 16.7726L58.5319 14.8648C59.3455 15.4549 60.3219 15.7788 61.3269 15.792C62.2942 15.792 62.9279 15.3117 62.9279 14.5646C62.9279 13.8174 62.4943 13.4172 61.4537 13.1103C59.6059 12.5633 58.7053 11.5694 58.7053 10.1085C58.7053 8.64754 59.826 7.30003 61.934 7.30003C62.7408 7.28601 63.5377 7.47893 64.2488 7.86039L63.8752 9.46138C63.306 9.12501 62.6615 8.93692 62.0007 8.91437C61.0801 8.91437 60.5865 9.41469 60.5865 10.0017C60.5865 10.5888 61.0468 10.949 61.954 11.2291C63.7351 11.7895 64.8825 12.6567 64.8825 14.4111C64.8825 16.1656 63.7084 17.4397 61.407 17.4397Z" fill="#231F20"/>
<path d="M74.4618 17.3329L73.5012 14.9381H70.0123L69.0651 17.3329H67.1839L71.2531 7.32666H72.3538L76.4097 17.3329H74.4618ZM72.167 11.2758C72.0603 10.9823 71.9202 10.5754 71.8135 10.2018C71.7136 10.5655 71.5956 10.9239 71.4599 11.2758L70.6327 13.4038H73.0276L72.167 11.2758Z" fill="#231F20"/>
<path d="M87.61 17.4864L83.3407 12.8168C82.6736 12.0563 81.8864 11.1558 81.2594 10.422V12.7034V17.2996H79.3515V7.42676H80.8391L84.6615 11.6027C85.1885 12.1764 85.9956 13.077 86.5226 13.744H86.556C86.5227 13.077 86.5226 12.3165 86.5226 11.6427V7.4401H88.4305V17.4997L87.61 17.4864Z" fill="#231F20"/>
<path d="M96.5223 9.05444V17.3329H94.5677V9.05444H91.5525V7.42676H99.5575V9.05444H96.5223Z" fill="#231F20"/>
<path d="M102.633 17.3329V7.42676H108.189V9.05444H104.601V11.536H107.582V13.1837H104.601V15.6986H108.69V17.3329H102.633Z" fill="#231F20"/>
<path d="M41.9015 25.0844H41.6813L40.9008 22.843C40.7941 22.5228 40.674 22.1759 40.5406 21.7223C40.4072 22.1759 40.2938 22.5295 40.1804 22.843L39.3999 25.0844H39.1797L37.6988 20.8351H38.3325L38.9996 22.763C39.093 23.0431 39.2198 23.3833 39.3065 23.7236C39.3999 23.3833 39.5066 23.0565 39.6067 22.763L40.2738 20.8351H40.8141L41.4812 22.763C41.5746 23.0365 41.6813 23.3833 41.7747 23.7236C41.8614 23.39 41.9882 23.0565 42.0816 22.763L42.7486 20.8351H43.329L41.9015 25.0844Z" fill="#231F20"/>
<path d="M44.0161 25.0244V20.8351H46.2775V21.3821H44.6498V22.6495H45.984V23.1899H44.6498V24.4774H46.5043V25.0244H44.0161Z" fill="#231F20"/>
<path d="M50.1532 25.0244L49.6996 23.9437H48.0719L47.6183 25.0244H46.9979L48.7857 20.775H49.0125L50.8003 25.0244H50.1532ZM49.0726 22.4094C49.0023 22.2419 48.9421 22.0704 48.8924 21.8957C48.8509 22.072 48.7928 22.244 48.719 22.4094L48.3054 23.4367H49.4861L49.0726 22.4094Z" fill="#231F20"/>
<path d="M51.554 25.0244V20.8351H52.2211V24.4774H54.0622V25.0244H51.554Z" fill="#231F20"/>
<path d="M56.0236 21.3821V25.0244H55.3565V21.3821H54.0223V20.8351H57.3578V21.3821H56.0236Z" fill="#231F20"/>
<path d="M60.9533 25.0244V23.1899H58.8253V25.0244H58.1582V20.8351H58.8253V22.6495H60.9867V20.8351H61.6204V25.0244H60.9533Z" fill="#231F20"/>
<path d="M69.1985 25.0244L69.0251 23.1365C69.0251 22.8497 68.9717 22.4694 68.9584 22.1826C68.8249 22.4761 68.6248 22.883 68.4847 23.1565L67.4974 25.0577H67.2573L66.27 23.1565C66.1299 22.8764 65.9498 22.4894 65.8097 22.1959C65.8097 22.5161 65.763 22.863 65.743 23.1365L65.5762 25.0244H65.0092L65.3761 20.8351H65.7697L66.8837 22.9898C67.0505 23.31 67.2706 23.7436 67.4107 24.0638C67.5375 23.7436 67.7443 23.3366 67.9244 22.9898L69.0251 20.8351H69.4186L69.7922 25.0244H69.1985Z" fill="#231F20"/>
<path d="M73.7147 25.0244L73.2611 23.9437H71.6334L71.1798 25.0244H70.5527L72.3405 20.775H72.574L74.3551 25.0244H73.7147ZM72.6273 22.4094C72.574 22.276 72.5073 22.0758 72.4539 21.8957C72.4072 22.0713 72.347 22.2431 72.2738 22.4094L71.8602 23.4367H73.0609L72.6273 22.4094Z" fill="#231F20"/>
<path d="M78.6776 25.1178L76.7164 22.9898C76.4029 22.6496 76.0493 22.2293 75.7491 21.8891V22.9431V25.0444H75.0821V20.8551H75.5223L77.3168 22.823C77.5636 23.0965 77.9439 23.4901 78.1973 23.8303C78.1973 23.5101 78.1973 23.1632 78.1973 22.843V20.8418H78.8644V25.1245L78.6776 25.1178Z" fill="#231F20"/>
<path d="M82.7869 25.0244L82.3333 23.9437H80.7056L80.252 25.0244H79.6249L81.4127 20.775H81.6395L83.4273 25.0244H82.7869ZM81.6996 22.4094C81.6287 22.2428 81.5707 22.0711 81.5261 21.8957C81.4794 22.0713 81.4192 22.2431 81.346 22.4094L80.9324 23.4367H82.1265L81.6996 22.4094Z" fill="#231F20"/>
<path d="M85.9222 25.1044C85.6263 25.1233 85.3297 25.0816 85.0504 24.982C84.7712 24.8824 84.5152 24.727 84.298 24.5251C84.0809 24.3232 83.9072 24.0792 83.7875 23.808C83.6678 23.5367 83.6047 23.244 83.602 22.9475C83.5992 22.651 83.657 22.3571 83.7717 22.0837C83.8863 21.8103 84.0555 21.5632 84.2689 21.3574C84.4823 21.1515 84.7354 20.9914 85.0128 20.8867C85.2902 20.782 85.586 20.7349 85.8821 20.7483C86.3489 20.7365 86.81 20.8518 87.2163 21.0819L87.0962 21.6489C86.7476 21.4327 86.3458 21.3172 85.9355 21.3154C85.7155 21.3044 85.4955 21.3387 85.2893 21.4162C85.0831 21.4938 84.8951 21.6129 84.7368 21.7661C84.5785 21.9194 84.4535 22.1035 84.3693 22.3071C84.2852 22.5107 84.2438 22.7294 84.2478 22.9497C84.273 23.2407 84.3707 23.5206 84.532 23.7641C84.6933 24.0076 84.913 24.2067 85.1711 24.3434C85.4292 24.4801 85.7174 24.5499 86.0094 24.5465C86.3014 24.5431 86.5879 24.4666 86.8427 24.3239V23.3967H85.8755V22.883H87.4498V24.6241C87.0115 24.9562 86.4716 25.126 85.9222 25.1044Z" fill="#231F20"/>
<path d="M88.5705 25.0244V20.8351H90.8453V21.3821H89.2176V22.6495H90.5517V23.1899H89.2176V24.4774H91.0721V25.0244H88.5705Z" fill="#231F20"/>
<path d="M96.182 25.0244L96.0086 23.1365C96.0086 22.8497 95.9619 22.4694 95.9486 22.1826C95.8151 22.4761 95.6083 22.883 95.4749 23.1565L94.501 25.0577H94.2675L93.2802 23.1565C93.1335 22.8764 92.96 22.4894 92.8133 22.1959C92.8133 22.5161 92.7666 22.863 92.7466 23.1365L92.5864 25.0244H92.0194L92.3797 20.8351H92.7732L93.8939 22.9898C94.054 23.31 94.2809 23.7436 94.4143 24.0638C94.5477 23.7436 94.7478 23.3366 94.9279 22.9898L96.0286 20.8351H96.4289L96.8024 25.0244H96.182Z" fill="#231F20"/>
<path d="M97.823 25.0244V20.8351H100.084V21.3821H98.4634V22.6495H99.7976V23.1899H98.4634V24.4774H100.311V25.0244H97.823Z" fill="#231F20"/>
<path d="M104.801 25.1178L102.853 22.9898C102.539 22.6496 102.186 22.2293 101.892 21.8891V22.9431V25.0444H101.225V20.8551H101.665L103.467 22.823C103.707 23.0965 104.087 23.4901 104.347 23.8303C104.347 23.5101 104.347 23.1632 104.347 22.843V20.8418H104.981V25.1245L104.801 25.1178Z" fill="#231F20"/>
<path d="M107.763 21.3821V25.0244H107.095V21.3821H105.761V20.8351H109.097V21.3821H107.763Z" fill="#231F20"/>
</g>
<defs>
<clipPath id="clip0_27590_76384">
<rect width="108.568" height="32" fill="white" transform="translate(0.515442)"/>
</clipPath>
</defs>
</svg>
