<svg width="100" height="32" viewBox="0 0 100 32" fill="none" xmlns="http://www.w3.org/2000/svg">
<path d="M8.99061 7.08205C8.92732 7.08996 8.70185 7.11765 8.49616 7.14138C5.75888 7.45388 3.31828 8.89371 1.89822 11.0337C0.628472 12.9442 0.165667 15.3611 0.604739 17.7582C1.3207 21.6466 4.38629 24.4155 8.53967 24.9218C9.16861 25.0009 10.4858 25.0088 11.1227 24.9416C13.0016 24.7398 14.4335 24.1702 15.7586 23.0943C16.1621 22.766 16.7554 22.1924 17.0521 21.8325C18.041 20.6458 17.6929 18.8341 16.3362 18.1221C15.5965 17.7305 14.837 17.7266 14.0735 18.0984C13.7967 18.2368 13.6622 18.3397 13.2627 18.7273C12.4399 19.5264 11.803 19.9259 11.004 20.1395C10.652 20.2344 10.5412 20.2423 9.90039 20.2463C9.04994 20.2502 8.71371 20.179 8.08082 19.8745C7.22641 19.4591 6.62911 18.755 6.30475 17.778C6.09906 17.1649 6.03182 16.7139 6.03182 15.998C6.03182 15.1159 6.17422 14.4355 6.48671 13.8026C7.13147 12.5052 8.29838 11.8248 9.86084 11.8327C11.1662 11.8406 12.3291 12.4458 13.1598 13.5495C14.0894 14.7876 15.8417 14.9181 16.9216 13.8263C17.4437 13.3042 17.6534 12.786 17.6494 12.0424C17.6415 11.2038 17.4042 10.7489 16.4034 9.69275C15.2365 8.46255 13.8679 7.66352 12.3212 7.31939C11.5182 7.13743 11.1029 7.09392 10.0784 7.07809C9.54439 7.07018 9.05785 7.07414 8.99061 7.08205Z" fill="#75B709"/>
<path d="M44.2548 7.10218C40.2083 7.52148 37.0517 10.1163 36.1261 13.7792C35.8096 15.0371 35.7622 16.4374 35.9876 17.6913C36.5414 20.7213 38.535 23.1144 41.482 24.2853C43.9067 25.2465 46.917 25.2307 49.314 24.2418C52.2056 23.0472 54.1557 20.6422 54.6739 17.6399C54.8914 16.3939 54.8321 14.9896 54.5157 13.7278C54.2467 12.6638 53.7127 11.5562 53.0323 10.6504C52.6921 10.1955 51.7903 9.30545 51.3156 8.9534C49.9074 7.90913 48.246 7.2881 46.3553 7.09823C45.8766 7.05076 44.7374 7.05472 44.2548 7.10218ZM46.2129 11.8252C47.7595 12.1218 48.8236 13.2808 49.136 15.0134C49.322 16.0497 49.2072 17.272 48.8394 18.1423C48.4517 19.052 47.7634 19.7522 46.917 20.1003C46.4106 20.306 46.0586 20.3653 45.3426 20.3653C44.7651 20.3653 44.6187 20.3534 44.3142 20.2743C42.7873 19.8788 41.8063 18.7435 41.5017 17.0149C41.4147 16.5284 41.4147 15.5869 41.5017 15.0925C41.8498 13.1542 43.0365 11.9794 44.868 11.7658C45.2081 11.7263 45.841 11.754 46.2129 11.8252Z" fill="#75B709"/>
<path d="M65.8919 7.11769C63.6411 7.39854 61.7978 8.23317 60.3422 9.6295C58.1863 11.6943 57.2805 14.7718 57.9055 17.9086C58.2931 19.8547 59.3097 21.5873 60.797 22.8293C61.4893 23.4068 62.4663 23.9764 63.3405 24.3166C64.6775 24.8348 66.3309 25.0801 67.8499 24.9772C69.9226 24.8427 71.3466 24.3522 72.7944 23.2803C73.277 22.9243 74.2936 21.9195 74.4953 21.6031C74.9067 20.9465 75.0016 20.1632 74.7524 19.4512C74.3964 18.4386 73.3679 17.7582 72.2999 17.8334C71.5958 17.8809 71.2438 18.0549 70.5634 18.7036C69.535 19.6807 68.8506 20.0644 67.8578 20.2147C67.0588 20.3373 66.1015 20.2265 65.4409 19.9338C64.369 19.4592 63.6253 18.4109 63.3761 17.0265C63.293 16.5637 63.2812 15.5194 63.3563 15.0684C63.6174 13.4704 64.5826 12.3351 65.9868 11.9673C67.6402 11.5321 69.3293 12.1136 70.3617 13.4704C70.6742 13.8778 70.9432 14.1112 71.3269 14.2971C72.0586 14.661 72.8181 14.661 73.5459 14.3011C74.4043 13.8738 74.9146 13.059 74.9225 12.1017C74.9265 11.4451 74.7405 10.9507 74.2896 10.3969C72.9605 8.77113 71.5602 7.82179 69.8158 7.37085C69.0089 7.16121 68.4353 7.09396 67.3357 7.07814C66.6316 7.06627 66.2162 7.07814 65.8919 7.11769Z" fill="#75B709"/>
<path d="M83.7712 7.08629C82.5054 7.20496 81.647 7.41856 80.8203 7.81412C79.3528 8.51426 78.4825 9.59018 78.1107 11.1724C78.0079 11.6036 77.9643 12.8456 78.0316 13.3599C78.2927 15.3297 79.4872 16.7379 81.5956 17.5726C82.0979 17.7703 82.7585 17.9642 83.8701 18.2332C86.2474 18.8067 86.5519 18.9175 86.7379 19.2814C86.8447 19.4871 86.8447 19.8629 86.7418 20.0646C86.5203 20.4958 86.0417 20.6579 84.8708 20.6935C83.2372 20.745 82.2166 20.4246 80.7728 19.3961C80.2309 19.0084 79.9857 18.8977 79.5189 18.8384C78.5498 18.7078 77.5727 19.3328 77.2326 20.3019C77.1139 20.6421 77.1139 21.3066 77.2365 21.6627C77.3235 21.9079 77.5371 22.2758 77.7072 22.4656C77.992 22.786 78.9335 23.4704 79.5584 23.8105C81.3503 24.7876 83.8384 25.1871 86.4016 24.9142C89.1982 24.6135 90.9743 23.3992 91.6151 21.3581C91.8169 20.7133 91.9197 20.025 91.9197 19.2933C91.9197 17.8732 91.4767 16.7735 90.5431 15.8717C89.5503 14.9144 88.2608 14.3329 86.0535 13.8385C84.0599 13.3955 83.6367 13.2728 83.2648 13.0355C82.9444 12.8259 82.8456 12.6399 82.8416 12.2562C82.8416 12.0189 82.8574 11.9556 82.9524 11.8132C83.1462 11.5166 83.4864 11.3662 84.1272 11.2871C85.4246 11.1289 86.8012 11.5759 88.0037 12.545C88.51 12.9524 88.9174 13.1107 89.4672 13.1107C90.1753 13.1107 90.7765 12.7982 91.1919 12.2167C91.6468 11.5798 91.7101 10.8006 91.3699 10.0846C91.1998 9.72467 90.9348 9.41613 90.4166 8.97706C89.135 7.88927 87.6358 7.29198 85.7134 7.09815C85.3415 7.06255 84.1034 7.05069 83.7712 7.08629Z" fill="#75B709"/>
<path d="M22.9617 7.33527C21.9886 7.48953 21.2331 8.05123 20.8138 8.93333C20.5448 9.49898 20.5567 9.09946 20.5685 16.2472L20.5804 22.7028L20.6991 23.039C20.9957 23.8894 21.688 24.5461 22.578 24.8269C22.9538 24.9416 23.642 24.9535 24.0416 24.8467C24.8089 24.645 25.5012 24.0753 25.8414 23.3752C26.1143 22.8096 26.1103 22.8768 26.138 20.2107C26.1618 17.9719 26.1697 17.7662 26.2488 17.3271C26.3556 16.7614 26.4268 16.4806 26.5613 16.1048C27.1151 14.5661 28.2068 13.5456 29.6308 13.2449C30.0264 13.1619 30.3745 13.1777 30.9283 13.2963C31.6086 13.4388 32.3246 13.4467 32.7241 13.3161C33.1474 13.1737 33.5192 12.9364 33.8712 12.5804C34.4092 12.0345 34.6584 11.4254 34.6584 10.658C34.6544 10.1556 34.5832 9.84707 34.3657 9.41195C34.0611 8.80279 33.6853 8.44283 33.001 8.10265C32.3206 7.76643 32.0833 7.715 31.1616 7.715C30.2795 7.715 29.8563 7.77434 29.1759 7.9919C28.1791 8.3123 27.1784 8.90168 26.407 9.6216C26.2646 9.75609 26.138 9.86685 26.1222 9.86685C26.1103 9.86685 26.0985 9.81147 26.0985 9.74422C26.0985 9.38822 25.786 8.68017 25.4577 8.29252C25.0977 7.86927 24.5677 7.537 24.0336 7.39856C23.733 7.3234 23.2425 7.29176 22.9617 7.33527Z" fill="#75B709"/>
<path d="M93.2881 8.0251H93.3667V7.59954C93.3667 7.48537 93.3698 7.39585 93.3759 7.33097C93.382 7.2661 93.3991 7.21031 93.427 7.1636C93.455 7.11517 93.4951 7.07581 93.5476 7.04553C93.6 7.01526 93.6585 7.00013 93.7232 7.00012C93.814 7.00013 93.8961 7.03386 93.9695 7.10132C94.0184 7.1463 94.0494 7.20123 94.0626 7.2661C94.0757 7.33097 94.0822 7.42309 94.0822 7.54245V8.0251H94.3443C94.4456 8.02511 94.5229 8.04889 94.5762 8.09646C94.6295 8.14404 94.6562 8.20502 94.6562 8.2794C94.6562 8.37455 94.6182 8.44116 94.5422 8.47921C94.4662 8.51727 94.3574 8.5363 94.2159 8.5363H94.0822V9.83894C94.0822 9.94965 94.0862 10.0349 94.094 10.0945C94.1019 10.1542 94.1228 10.2027 94.1569 10.2398C94.191 10.277 94.2464 10.2956 94.3233 10.2956C94.3653 10.2956 94.422 10.2883 94.4937 10.2736C94.5653 10.2589 94.6212 10.2515 94.6614 10.2515C94.7191 10.2515 94.771 10.2744 94.8173 10.3203C94.8636 10.3661 94.8868 10.4228 94.8868 10.4903C94.8868 10.6044 94.8239 10.6918 94.6981 10.7523C94.5723 10.8129 94.3915 10.8432 94.1556 10.8432C93.932 10.8432 93.7625 10.806 93.6472 10.7316C93.5318 10.6572 93.4563 10.5543 93.4205 10.4228C93.3846 10.2913 93.3667 10.1157 93.3667 9.89602V8.5363H93.2724C93.1693 8.5363 93.0907 8.51208 93.0365 8.46364C92.9823 8.41521 92.9553 8.35379 92.9553 8.2794C92.9553 8.20502 92.9837 8.14404 93.0404 8.09646C93.0972 8.04889 93.1798 8.02511 93.2881 8.0251Z" fill="#75B709"/>
<path d="M97.5259 9.45532V10.3973C97.5259 10.546 97.4918 10.6576 97.4237 10.732C97.3555 10.8064 97.2655 10.8436 97.1537 10.8436C97.0454 10.8436 96.9576 10.8064 96.8903 10.732C96.8231 10.6576 96.7894 10.546 96.7894 10.3973V9.26849C96.7894 9.09031 96.7833 8.95191 96.7711 8.8533C96.7589 8.7547 96.7257 8.67383 96.6715 8.61068C96.6173 8.54754 96.5317 8.51597 96.4147 8.51597C96.1805 8.51597 96.0263 8.59555 95.9521 8.7547C95.8778 8.91385 95.8407 9.1422 95.8407 9.43975V10.3973C95.8407 10.5443 95.8071 10.6555 95.7398 10.7307C95.6725 10.806 95.5839 10.8436 95.4738 10.8436C95.3655 10.8436 95.2768 10.806 95.2078 10.7307C95.1388 10.6555 95.1042 10.5443 95.1042 10.3973V8.37065C95.1042 8.23745 95.1353 8.13625 95.1973 8.06705C95.2593 7.99786 95.341 7.96326 95.4423 7.96326C95.5402 7.96326 95.6219 7.9957 95.6874 8.06057C95.7529 8.12544 95.7857 8.21496 95.7857 8.32914V8.3966C95.9097 8.24956 96.0425 8.14144 96.184 8.07224C96.3255 8.00305 96.4828 7.96845 96.6558 7.96845C96.8357 7.96845 96.9904 8.00391 97.1197 8.07484C97.2489 8.14577 97.3555 8.25302 97.4394 8.3966C97.5599 8.25129 97.6892 8.1436 97.8273 8.07354C97.9653 8.00348 98.1182 7.96845 98.2859 7.96845C98.4816 7.96845 98.6502 8.00651 98.7917 8.08262C98.9332 8.15874 99.039 8.26773 99.1088 8.40958C99.17 8.5376 99.2006 8.73913 99.2006 9.01419V10.3973C99.2006 10.546 99.1665 10.6576 99.0984 10.732C99.0302 10.8064 98.9402 10.8436 98.8284 10.8436C98.7201 10.8436 98.6314 10.806 98.5624 10.7307C98.4934 10.6555 98.4589 10.5443 98.4589 10.3973V9.20621C98.4589 9.05398 98.4523 8.93202 98.4392 8.84033C98.4261 8.74865 98.3907 8.67167 98.3331 8.60939C98.2754 8.54711 98.1881 8.51597 98.071 8.51597C97.9767 8.51597 97.8871 8.54365 97.8024 8.59901C97.7176 8.65437 97.6517 8.72875 97.6045 8.82217C97.5521 8.94153 97.5259 9.15258 97.5259 9.45532Z" fill="#75B709"/>
</svg>
