<svg width="131" height="32" viewBox="0 0 131 32" fill="none" xmlns="http://www.w3.org/2000/svg">
<path d="M126.838 14.8045V23.2809H123.726V15.3646C123.726 13.4367 122.896 12.3596 121.281 12.3596C119.665 12.3596 118.599 13.4905 118.297 15.3861C118.211 15.8385 118.189 16.5386 118.189 18.0141V23.2701H115.077V9.80699H117.834C117.845 9.92547 117.909 11.1318 117.909 11.2072C117.909 11.3041 118.028 11.3579 118.103 11.2933C119.245 10.3886 120.505 9.5485 122.261 9.5485C125.147 9.5485 126.838 11.498 126.838 14.8045Z" fill="black"/>
<path d="M110.058 9.81776L109.961 11.3579C109.95 11.4549 109.832 11.5087 109.767 11.4441C109.39 11.0887 108.001 9.55927 105.642 9.55927C102.26 9.55927 99.7719 12.4781 99.7719 16.4416C99.7719 20.459 102.238 23.3886 105.642 23.3886C107.914 23.3886 109.304 21.913 109.562 21.5899C109.638 21.5038 109.778 21.5576 109.778 21.6653C109.745 22.0746 109.692 23.0978 109.347 23.9702C108.916 25.0688 107.947 26.092 105.997 26.092C104.392 26.092 102.971 25.4781 101.624 24.1641L99.9981 26.3936C101.474 28.063 103.8 29 106.331 29C110.402 29 112.847 26.2105 112.847 21.6545V9.81776H110.058ZM106.31 20.5667C104.296 20.5667 102.874 18.8219 102.874 16.4416C102.874 14.0613 104.296 12.3596 106.31 12.3596C108.324 12.3596 109.745 14.0506 109.745 16.4416C109.735 18.8327 108.313 20.5667 106.31 20.5667Z" fill="black"/>
<path d="M93.2665 19.285C93.2665 21.8376 91.1232 23.5502 87.9782 23.5502C85.5117 23.5502 83.3146 22.5916 82.0006 21.2237L83.0238 18.7896C84.0146 19.6835 85.6087 20.9652 87.8813 20.9652C89.4645 20.9652 90.38 20.2652 90.38 19.382C90.38 18.3588 89.1199 18.0895 87.612 17.7987C85.4687 17.3463 82.6253 16.6139 82.6253 13.6951C82.6253 11.2502 84.607 9.57004 87.5366 9.57004C89.7876 9.57004 91.7263 10.4317 93.0619 11.5518L91.5325 13.6951C90.24 12.6719 88.8829 12.1657 87.5366 12.1657C86.1903 12.1657 85.5225 12.7258 85.5225 13.5336C85.5225 14.6645 86.9765 14.9553 88.0428 15.1707C90.7247 15.6877 93.2665 16.4955 93.2665 19.285Z" fill="black"/>
<path d="M47.7503 9.5485C43.9484 9.5485 41.2127 12.4996 41.2127 16.5493C41.2127 20.599 43.9484 23.5502 47.7503 23.5502C51.5523 23.5502 54.2988 20.599 54.2988 16.5493C54.2988 12.4996 51.5631 9.5485 47.7503 9.5485ZM47.7503 20.7283C45.7363 20.7283 44.3146 19.0158 44.3146 16.5386C44.3146 14.0721 45.704 12.3488 47.7503 12.3488C49.786 12.3488 51.1861 14.0613 51.1861 16.5386C51.1861 19.0158 49.7644 20.7283 47.7503 20.7283Z" fill="black"/>
<path d="M55.3974 16.5493C55.3974 12.5535 58.1331 9.5485 61.7843 9.5485C64.6816 9.5485 66.8034 11.0025 67.7943 13.7382L65.037 14.783C64.2831 13.092 63.2922 12.3704 61.7951 12.3704C59.921 12.3704 58.5209 14.1367 58.5209 16.5601C58.5209 18.9727 59.9102 20.7498 61.7951 20.7498C63.303 20.7498 64.2831 20.0282 65.037 18.3372L67.7943 19.382C66.8034 22.1177 64.6816 23.5717 61.7843 23.5717C58.1331 23.5502 55.3974 20.5452 55.3974 16.5493Z" fill="black"/>
<path d="M38.757 3.5601C38.7031 3.5601 38.6385 3.57087 38.5847 3.60318L36.5598 4.68023C36.5167 4.70177 36.4952 4.74485 36.4952 4.78793V11.1964C36.4952 11.3041 36.3659 11.3472 36.2905 11.2825C35.989 11.0241 35.2889 10.3671 34.3195 9.91469C33.8133 9.67774 33.0702 9.5485 32.3916 9.5485C28.9881 9.5485 26.5217 12.4996 26.5217 16.5493C26.5217 20.599 28.9881 23.5502 32.3916 23.5502C34.1795 23.5502 35.5258 22.6131 36.3444 21.773C36.3982 21.7192 36.4305 21.6869 36.4844 21.633C36.5598 21.5576 36.689 21.6007 36.689 21.7084L36.7967 23.2809H39.6078V3.64626C39.6078 3.60318 39.5755 3.5601 39.5217 3.5601H38.757ZM33.0594 20.7283C31.0238 20.7283 29.6236 19.0158 29.6236 16.5386C29.6236 14.0613 31.0561 12.3596 33.0594 12.3596C35.0735 12.3596 36.4952 14.0721 36.4952 16.5493C36.4952 19.0158 35.1058 20.7283 33.0594 20.7283Z" fill="black"/>
<path d="M96.9285 9.86084L94.979 10.8948C94.9359 10.9164 94.9144 10.9594 94.9144 11.0025V23.2809H98.0271V9.89315C98.0271 9.85007 97.9948 9.80699 97.9409 9.80699H97.1008C97.0362 9.81776 96.9823 9.82853 96.9285 9.86084Z" fill="black"/>
<path d="M96.4653 7.63135C97.4993 7.63135 98.3394 6.79125 98.3394 5.75728C98.3394 4.72331 97.4993 3.88321 96.4653 3.88321C95.4314 3.88321 94.5913 4.72331 94.5913 5.75728C94.5913 6.79125 95.4314 7.63135 96.4653 7.63135Z" fill="black"/>
<path d="M80.8804 9.80699V17.1202C80.8804 22.667 77.7785 23.5394 75.0105 23.5394C72.2425 23.5394 69.1406 22.6562 69.1406 17.1202V9.80699H72.2425V17.8956C72.2425 18.6819 72.4364 20.7283 75.0105 20.7283C77.5847 20.7283 77.7785 18.6927 77.7785 17.8956V9.80699H80.8804Z" fill="black"/>
<path d="M128.615 21.9023V22.0961H128.174V23.2701H127.958V22.0961H127.517V21.9023H128.615ZM130.155 23.2701H129.94V22.1931L129.52 23.0009H129.402L128.982 22.2038V23.2701H128.766V21.9023H129.046L129.455 22.6885L129.865 21.9023H130.145L130.155 23.2701Z" fill="black"/>
<path d="M15.9343 18.0141V23.3455C15.9343 23.6255 15.7081 23.8517 15.4281 23.8517H1.41564C1.1356 23.8517 0.909424 23.6255 0.909424 23.3455V9.34386C0.909424 9.06382 1.1356 8.83764 1.41564 8.83764H6.73627V17.5079C6.73627 17.7879 6.96245 18.0141 7.24248 18.0141H15.9343Z" fill="#4C00FF"/>
<path d="M21.7719 10.4963C21.7719 14.9768 19.1547 18.0033 15.9343 18.0141L15.9343 12.3704C15.9343 12.2088 15.8697 12.0473 15.7512 11.9395L12.8216 9.00997C12.7031 8.8915 12.5523 8.82687 12.3908 8.82687H6.74704V3.50624C6.74704 3.22621 6.97322 3.00003 7.25325 3.00003H15.148C18.8962 2.98926 21.7719 6.005 21.7719 10.4963Z" fill="#FF5252"/>
<path d="M15.7512 11.9288C15.8697 12.0473 15.9343 12.198 15.9343 12.3596V18.0033H7.25325C6.97322 18.0033 6.74704 17.7772 6.74704 17.4971V8.82687H12.3908C12.5523 8.82687 12.7139 8.8915 12.8216 9.00997L15.7512 11.9288Z" fill="black"/>
</svg>
