<svg xmlns="http://www.w3.org/2000/svg" width="28" height="29" fill="none" viewBox="0 0 28 29" class="sc-95163c4c-1 cJxZKY chrome-logo"><path fill="#EF3F36" d="M14 .004s8.253-.37 12.628 7.896h-13.33s-2.515-.08-4.664 2.96c-.617 1.276-1.28 2.591-.536 5.182-1.073-1.81-5.695-9.83-5.695-9.83S5.663.331 14 .004Z"></path><path fill="#FCD900" d="M26.2 20.986s-3.808 7.308-13.176 6.946c1.158-1.995 6.667-11.502 6.667-11.502s1.331-2.13-.24-5.505c-.798-1.172-1.612-2.399-4.235-3.052 2.11-.02 11.389 0 11.389 0s3.476 5.755-.406 13.113Z"></path><path fill="#61BC5B" d="M1.86 21.043s-4.449-6.938.551-14.842c1.154 1.995 6.663 11.502 6.663 11.502s1.188 2.214 4.903 2.544c1.416-.103 2.89-.192 4.773-2.125-1.038 1.83-5.695 9.826-5.695 9.826s-6.744.123-11.196-6.905Z"></path><path fill="#5AB055" d="m13.02 28.001 1.876-7.796s2.06-.161 3.788-2.049c-1.073 1.88-5.664 9.845-5.664 9.845Z"></path><path fill="#fff" d="M7.72 14.089c0-3.437 2.797-6.224 6.246-6.224 3.449 0 6.246 2.787 6.246 6.224 0 3.437-2.797 6.224-6.246 6.224-3.45-.004-6.246-2.787-6.246-6.224Z"></path><path fill="url(#chrome_svg__a)" d="M8.766 14.09c0-2.861 2.326-5.183 5.2-5.183 2.87 0 5.2 2.318 5.2 5.182 0 2.86-2.325 5.182-5.2 5.182-2.87 0-5.2-2.322-5.2-5.182Z"></path><path fill="#EACA05" d="m26.6 7.877-7.72 2.256s-1.164-1.703-3.668-2.256c2.172-.012 11.389 0 11.389 0Z"></path><path fill="#DF3A32" d="M7.947 15.758c-1.084-1.872-5.544-9.546-5.544-9.546l5.718 5.636s-.587 1.203-.367 2.925l.193.985Z"></path><defs><linearGradient id="chrome_svg__a" x1="13.966" x2="13.966" y1="8.98" y2="18.959" gradientUnits="userSpaceOnUse"><stop stop-color="#86BBE5"></stop><stop offset="1" stop-color="#1072BA"></stop></linearGradient></defs></svg>