<svg xmlns="http://www.w3.org/2000/svg" xmlns:xlink="http://www.w3.org/1999/xlink" viewBox="0 0 282 232" width="282" height="232" preserveAspectRatio="xMidYMid meet" style="width: 100%; height: 100%; transform: translate3d(0px, 0px, 0px); content-visibility: visible;"><defs><clipPath id="__lottie_element_46"><rect width="282" height="232" x="0" y="0"></rect></clipPath><clipPath id="__lottie_element_48"><path d="M0,0 L282,0 L282,232 L0,232z"></path></clipPath><clipPath id="__lottie_element_55"><path d="M0,0 L282,0 L282,232 L0,232z"></path></clipPath><clipPath id="__lottie_element_71"><path d="M0,0 L282,0 L282,232 L0,232z"></path></clipPath><clipPath id="__lottie_element_90"><path d="M0,0 L282,0 L282,232 L0,232z"></path></clipPath><clipPath id="__lottie_element_91"><path fill="#ffffff" clip-rule="nonzero" d=" M20,0 C20,0 20,20 20,20 C20,20 0,20 0,20 C0,20 0,0 0,0 C0,0 20,0 20,0" fill-opacity="1"></path></clipPath><clipPath id="__lottie_element_94"><path d="M0,0 L282,0 L282,232 L0,232z"></path></clipPath><clipPath id="__lottie_element_119"><path d="M0,0 L282,0 L282,232 L0,232z"></path></clipPath><clipPath id="__lottie_element_123"><path d="M0,0 L282,0 L282,232 L0,232z"></path></clipPath><clipPath id="__lottie_element_127"><path d="M0,0 L282,0 L282,232 L0,232z"></path></clipPath><clipPath id="__lottie_element_140"><path d="M0,0 L282,0 L282,232 L0,232z"></path></clipPath><clipPath id="__lottie_element_144"><path d="M0,0 L282,0 L282,232 L0,232z"></path></clipPath><clipPath id="__lottie_element_154"><path d="M0,0 L282,0 L282,232 L0,232z"></path></clipPath><clipPath id="__lottie_element_167"><path d="M0,0 L282,0 L282,232 L0,232z"></path></clipPath></defs><g clip-path="url(#__lottie_element_46)"><g transform="matrix(1,0,0,1,0,0)" opacity="1" style="display: block;"><path fill="rgb(255,255,255)" fill-opacity="1" d=" M282,0 C282,0 282,232 282,232 C282,232 0,232 0,232 C0,232 0,0 0,0 C0,0 282,0 282,0z"></path></g><g transform="matrix(-0.9743700623512268,0.22495105862617493,-0.22495105862617493,-0.9743700623512268,385.55450439453125,182.999755859375)" opacity="1" style="display: block;"><path fill="rgb(231,236,246)" fill-opacity="1" d=" M0,94.83000183105469 C0,94.83000183105469 0,16.280000686645508 0,16.280000686645508 C0,7.300000190734863 6.960000038146973,0 15.5600004196167,0 C15.5600004196167,0 183.27000427246094,0 183.27000427246094,0 C191.86000061035156,0 198.80999755859375,7.28000020980835 198.80999755859375,16.280000686645508 C198.80999755859375,16.280000686645508 198.80999755859375,94.83000183105469 198.80999755859375,94.83000183105469 C198.80999755859375,152.25 154.30999755859375,198.80999755859375 99.41000366210938,198.80999755859375 C44.5,198.80999755859375 0,152.25 0,94.83000183105469 C0,94.83000183105469 0,94.83000183105469 0,94.83000183105469z"></path></g><g transform="matrix(-0.5,0.8660253882408142,-0.8660253882408142,-0.5,125.08570861816406,121.24429321289062)" opacity="1" style="mix-blend-mode: multiply; display: block;"><path fill="rgb(231,236,246)" fill-opacity="1" d=" M0,72.33999633789062 C0,72.33999633789062 0,12.420000076293945 0,12.420000076293945 C0,5.570000171661377 5.309999942779541,0 11.869999885559082,0 C11.869999885559082,0 139.80999755859375,0 139.80999755859375,0 C146.36000061035156,0 151.6699981689453,5.550000190734863 151.6699981689453,12.420000076293945 C151.6699981689453,12.420000076293945 151.6699981689453,72.33999633789062 151.6699981689453,72.33999633789062 C151.6699981689453,116.1500015258789 117.72000122070312,151.6699981689453 75.83999633789062,151.6699981689453 C33.95000076293945,151.6699981689453 0,116.1500015258789 0,72.33999633789062 C0,72.33999633789062 0,72.33999633789062 0,72.33999633789062z"></path></g><g transform="matrix(1,0,0,1,17,23)" opacity="1" style="display: block;"><path fill="rgb(211,223,236)" fill-opacity="0.3" d=" M248,24 C248,24 248,162 248,162 C248,175.25 237.25,186 224,186 C224,186 24,186 24,186 C10.75,186 0,175.25 0,162 C0,162 0,24 0,24 C0,10.75 10.75,0 24,0 C24,0 224,0 224,0 C237.25,0 248,10.75 248,24z"></path></g><g transform="matrix(1,0,0,1,25,31)" opacity="1" style="display: block;"><path fill="rgb(249,249,249)" fill-opacity="0.75" d=" M232,16 C232,16 232,154 232,154 C232,162.8300018310547 224.8300018310547,170 216,170 C216,170 16,170 16,170 C7.170000076293945,170 0,162.8300018310547 0,154 C0,154 0,16 0,16 C0,7.170000076293945 7.170000076293945,0 16,0 C16,0 216,0 216,0 C224.8300018310547,0 232,7.170000076293945 232,16z"></path></g><g clip-path="url(#__lottie_element_167)" transform="matrix(1,0,0,1,25,45)" opacity="1" style="display: block;"><g transform="matrix(1,0,0,1,0,0)" opacity="1" style="display: block;"><path fill="rgb(255,255,255)" fill-opacity="1" d=" M0,0 C0,0 43,0 43,0 C49.630001068115234,0 55,5.369999885559082 55,12 C55,12 55,52 55,52 C55,58.630001068115234 49.630001068115234,64 43,64 C43,64 0,64 0,64 C0,64 0,0 0,0 C0,0 0,0 0,0z"></path></g><g transform="matrix(1,0,0,1,69,0)" opacity="1" style="display: block;"><path fill="rgb(255,255,255)" fill-opacity="1" d=" M64,12 C64,12 64,52 64,52 C64,58.619998931884766 58.619998931884766,64 52,64 C52,64 12,64 12,64 C5.380000114440918,64 0,58.619998931884766 0,52 C0,52 0,12 0,12 C0,5.380000114440918 5.380000114440918,0 12,0 C12,0 52,0 52,0 C58.619998931884766,0 64,5.380000114440918 64,12z"></path></g><g transform="matrix(1,0,0,1,147,0)" opacity="1" style="display: block;"><path fill="rgb(255,255,255)" fill-opacity="1" d=" M64,12 C64,12 64,52 64,52 C64,58.619998931884766 58.619998931884766,64 52,64 C52,64 12,64 12,64 C5.380000114440918,64 0,58.619998931884766 0,52 C0,52 0,12 0,12 C0,5.380000114440918 5.380000114440918,0 12,0 C12,0 52,0 52,0 C58.619998931884766,0 64,5.380000114440918 64,12z"></path></g><g transform="matrix(1,0,0,1,225,0)" opacity="1" style="display: block;"><path fill="rgb(255,255,255)" fill-opacity="1" d=" M0,7 C0,3.130000114440918 3.130000114440918,0 7,0 C7,0 7,0 7,0 C7,0 7,64 7,64 C7,64 7,64 7,64 C3.130000114440918,64 0,60.869998931884766 0,57 C0,57 0,7 0,7 C0,7 0,7 0,7z"></path></g><g transform="matrix(1,0,0,1,21,78)" opacity="1" style="display: block;"><path fill="rgb(255,255,255)" fill-opacity="1" d=" M64,12 C64,12 64,52 64,52 C64,58.619998931884766 58.619998931884766,64 52,64 C52,64 12,64 12,64 C5.380000114440918,64 0,58.619998931884766 0,52 C0,52 0,12 0,12 C0,5.380000114440918 5.380000114440918,0 12,0 C12,0 52,0 52,0 C58.619998931884766,0 64,5.380000114440918 64,12z"></path></g><g transform="matrix(1,0,0,1,99,78)" opacity="1" style="display: block;"><path fill="rgb(255,255,255)" fill-opacity="1" d=" M64,12 C64,12 64,52 64,52 C64,58.619998931884766 58.619998931884766,64 52,64 C52,64 12,64 12,64 C5.380000114440918,64 0,58.619998931884766 0,52 C0,52 0,12 0,12 C0,5.380000114440918 5.380000114440918,0 12,0 C12,0 52,0 52,0 C58.619998931884766,0 64,5.380000114440918 64,12z"></path></g><g transform="matrix(1,0,0,1,177,78)" opacity="1" style="display: block;"><path fill="rgb(255,255,255)" fill-opacity="1" d=" M0,12 C0,5.369999885559082 5.369999885559082,0 12,0 C12,0 55,0 55,0 C55,0 55,64 55,64 C55,64 12,64 12,64 C5.369999885559082,64 0,58.630001068115234 0,52 C0,52 0,12 0,12 C0,12 0,12 0,12z"></path></g><g transform="matrix(1,0,0,1,0,78)" opacity="1" style="display: block;"><path fill="rgb(255,255,255)" fill-opacity="1" d=" M0,0 C0,0 0,0 0,0 C3.869999885559082,0 7,3.130000114440918 7,7 C7,7 7,57 7,57 C7,60.869998931884766 3.869999885559082,64 0,64 C0,64 0,64 0,64 C0,64 0,0 0,0 C0,0 0,0 0,0z"></path></g></g><g clip-path="url(#__lottie_element_48)" transform="matrix(1,0,0,1,35,59.30000305175781)" opacity="1" style="display: block;"><g transform="matrix(1,0,0,1,73.5,28.40999984741211)" opacity="1" style="display: block;"><path fill="rgb(10,53,87)" fill-opacity="1" d=" M31.440000534057617,2.690000057220459 C30.5,2.690000057220459 29.850000381469727,3.2699999809265137 29.709999084472656,4.139999866485596 C29.709999084472656,4.139999866485596 33.04999923706055,4.139999866485596 33.04999923706055,4.139999866485596 C32.900001525878906,3.1500000953674316 32.189998626708984,2.690000057220459 31.440000534057617,2.690000057220459 C31.440000534057617,2.690000057220459 31.440000534057617,2.690000057220459 31.440000534057617,2.690000057220459z M29.709999084472656,4.900000095367432 C29.8799991607666,5.800000190734863 30.59000015258789,6.309999942779541 31.520000457763672,6.309999942779541 C32.209999084472656,6.309999942779541 32.709999084472656,5.989999771118164 32.959999084472656,5.579999923706055 C32.959999084472656,5.579999923706055 33.70000076293945,6 33.70000076293945,6 C33.2599983215332,6.679999828338623 32.5,7.130000114440918 31.5,7.130000114440918 C29.889999389648438,7.130000114440918 28.81999969482422,6 28.81999969482422,4.5 C28.81999969482422,3.0199999809265137 29.8799991607666,1.8700000047683716 31.440000534057617,1.8700000047683716 C32.95000076293945,1.8700000047683716 33.93000030517578,3.109999895095825 33.93000030517578,4.510000228881836 C33.93000030517578,4.639999866485596 33.91999816894531,4.769999980926514 33.900001525878906,4.900000095367432 C33.900001525878906,4.900000095367432 29.709999084472656,4.900000095367432 29.709999084472656,4.900000095367432 C29.709999084472656,4.900000095367432 29.709999084472656,4.900000095367432 29.709999084472656,4.900000095367432z M26.899999618530273,7 C26.899999618530273,7 26.899999618530273,-0.30000001192092896 26.899999618530273,-0.30000001192092896 C26.899999618530273,-0.30000001192092896 27.770000457763672,-0.30000001192092896 27.770000457763672,-0.30000001192092896 C27.770000457763672,-0.30000001192092896 27.770000457763672,7 27.770000457763672,7 C27.770000457763672,7 26.899999618530273,7 26.899999618530273,7 C26.899999618530273,7 26.899999618530273,7 26.899999618530273,7z M22.940000534057617,6.25 C23.950000762939453,6.25 24.719999313354492,5.480000019073486 24.719999313354492,4.46999979019165 C24.719999313354492,3.4700000286102295 23.950000762939453,2.700000047683716 22.940000534057617,2.700000047683716 C21.93000030517578,2.700000047683716 21.15999984741211,3.4700000286102295 21.15999984741211,4.46999979019165 C21.15999984741211,5.480000019073486 21.93000030517578,6.25 22.940000534057617,6.25 C22.940000534057617,6.25 22.940000534057617,6.25 22.940000534057617,6.25z M24.719999313354492,2 C24.719999313354492,2 25.579999923706055,2 25.579999923706055,2 C25.579999923706055,2 25.579999923706055,6.789999961853027 25.579999923706055,6.789999961853027 C25.579999923706055,8.350000381469727 24.329999923706055,9.130000114440918 23.030000686645508,9.130000114440918 C21.90999984741211,9.130000114440918 21.06999969482422,8.699999809265137 20.65999984741211,7.909999847412109 C20.65999984741211,7.909999847412109 21.420000076293945,7.480000019073486 21.420000076293945,7.480000019073486 C21.649999618530273,7.949999809265137 22.06999969482422,8.319999694824219 23.049999237060547,8.319999694824219 C24.09000015258789,8.319999694824219 24.719999313354492,7.730000019073486 24.719999313354492,6.789999961853027 C24.719999313354492,6.789999961853027 24.719999313354492,6.079999923706055 24.719999313354492,6.079999923706055 C24.31999969482422,6.690000057220459 23.68000030517578,7.079999923706055 22.84000015258789,7.079999923706055 C21.420000076293945,7.079999923706055 20.290000915527344,5.929999828338623 20.290000915527344,4.46999979019165 C20.290000915527344,3.0199999809265137 21.420000076293945,1.8700000047683716 22.84000015258789,1.8700000047683716 C23.68000030517578,1.8700000047683716 24.31999969482422,2.25 24.719999313354492,2.859999895095825 C24.719999313354492,2.859999895095825 24.719999313354492,2 24.719999313354492,2 C24.719999313354492,2 24.719999313354492,2 24.719999313354492,2z M16.90999984741211,6.28000020980835 C17.90999984741211,6.28000020980835 18.68000030517578,5.510000228881836 18.68000030517578,4.5 C18.68000030517578,3.490000009536743 17.90999984741211,2.7200000286102295 16.90999984741211,2.7200000286102295 C15.920000076293945,2.7200000286102295 15.149999618530273,3.490000009536743 15.149999618530273,4.5 C15.149999618530273,5.510000228881836 15.920000076293945,6.28000020980835 16.90999984741211,6.28000020980835 C16.90999984741211,6.28000020980835 16.90999984741211,6.28000020980835 16.90999984741211,6.28000020980835z M16.90999984741211,7.130000114440918 C15.449999809265137,7.130000114440918 14.279999732971191,5.980000019073486 14.279999732971191,4.5 C14.279999732971191,3.0199999809265137 15.449999809265137,1.8700000047683716 16.90999984741211,1.8700000047683716 C18.3700008392334,1.8700000047683716 19.549999237060547,3.0199999809265137 19.549999237060547,4.5 C19.549999237060547,5.980000019073486 18.3700008392334,7.130000114440918 16.90999984741211,7.130000114440918 C16.90999984741211,7.130000114440918 16.90999984741211,7.130000114440918 16.90999984741211,7.130000114440918z M10.890000343322754,6.28000020980835 C11.890000343322754,6.28000020980835 12.65999984741211,5.510000228881836 12.65999984741211,4.5 C12.65999984741211,3.490000009536743 11.890000343322754,2.7200000286102295 10.890000343322754,2.7200000286102295 C9.899999618530273,2.7200000286102295 9.130000114440918,3.490000009536743 9.130000114440918,4.5 C9.130000114440918,5.510000228881836 9.899999618530273,6.28000020980835 10.890000343322754,6.28000020980835 C10.890000343322754,6.28000020980835 10.890000343322754,6.28000020980835 10.890000343322754,6.28000020980835z M10.890000343322754,7.130000114440918 C9.430000305175781,7.130000114440918 8.260000228881836,5.980000019073486 8.260000228881836,4.5 C8.260000228881836,3.0199999809265137 9.430000305175781,1.8700000047683716 10.890000343322754,1.8700000047683716 C12.350000381469727,1.8700000047683716 13.529999732971191,3.0199999809265137 13.529999732971191,4.5 C13.529999732971191,5.980000019073486 12.350000381469727,7.130000114440918 10.890000343322754,7.130000114440918 C10.890000343322754,7.130000114440918 10.890000343322754,7.130000114440918 10.890000343322754,7.130000114440918z M7.5,3.5299999713897705 C7.5,3.5299999713897705 7.5,3.950000047683716 7.5,3.950000047683716 C7.5,5.730000019073486 6.179999828338623,7.130000114440918 4.070000171661377,7.130000114440918 C1.909999966621399,7.130000114440918 0.3799999952316284,5.5 0.3799999952316284,3.5 C0.3799999952316284,1.4900000095367432 1.9199999570846558,-0.12999999523162842 4.050000190734863,-0.12999999523162842 C5.360000133514404,-0.12999999523162842 6.5,0.5600000023841858 7.079999923706055,1.559999942779541 C7.079999923706055,1.559999942779541 6.28000020980835,2.0299999713897705 6.28000020980835,2.0299999713897705 C5.880000114440918,1.2799999713897705 5.03000020980835,0.7699999809265137 4.039999961853027,0.7699999809265137 C2.4200000762939453,0.7699999809265137 1.2999999523162842,1.9700000286102295 1.2999999523162842,3.5 C1.2999999523162842,5.019999980926514 2.4100000858306885,6.21999979019165 4.079999923706055,6.21999979019165 C5.53000020980835,6.21999979019165 6.389999866485596,5.420000076293945 6.570000171661377,4.369999885559082 C6.570000171661377,4.369999885559082 4,4.369999885559082 4,4.369999885559082 C4,4.369999885559082 4,3.5299999713897705 4,3.5299999713897705 C4,3.5299999713897705 7.5,3.5299999713897705 7.5,3.5299999713897705 C7.5,3.5299999713897705 7.5,3.5299999713897705 7.5,3.5299999713897705z"></path></g><g clip-path="url(#__lottie_element_154)" transform="matrix(1,0,0,1,33,78.19999694824219)" opacity="1" style="display: block;"><g transform="matrix(1,0,0,1,0,0)" opacity="1" style="display: block;"><path fill="rgb(255,79,0)" fill-opacity="1" d=" M18,0 C18,0 2,0 2,0 C0.8999999761581421,0 0,0.8999999761581421 0,2 C0,2 0,18 0,18 C0,19.100000381469727 0.8999999761581421,20 2,20 C2,20 18,20 18,20 C19.100000381469727,20 20,19.100000381469727 20,18 C20,18 20,2 20,2 C20,0.8999999761581421 19.100000381469727,0 18,0 C18,0 18,0 18,0z"></path></g><g transform="matrix(1,0,0,1,2.479999542236328,13.760000228881836)" opacity="1" style="display: block;"><path fill="rgb(255,255,255)" fill-opacity="1" d=" M0,0 C0,0 15,0 15,0 C15,0 15,3.740000009536743 15,3.740000009536743 C15,3.740000009536743 0,3.740000009536743 0,3.740000009536743 C0,3.740000009536743 0,0 0,0 C0,0 0,0 0,0z"></path></g></g><g clip-path="url(#__lottie_element_140)" transform="matrix(1,0,0,1,111,78.19999694824219)" opacity="1" style="display: block;"><g transform="matrix(1,0,0,1,0,0)" opacity="1" style="display: block;"><path fill="rgb(98,91,255)" fill-opacity="1" d=" M20,2.5 C20,2.5 20,17.5 20,17.5 C20,18.8799991607666 18.8799991607666,20 17.5,20 C17.5,20 2.5,20 2.5,20 C1.1200000047683716,20 0,18.8799991607666 0,17.5 C0,17.5 0,2.5 0,2.5 C0,1.1200000047683716 1.1200000047683716,0 2.5,0 C2.5,0 17.5,0 17.5,0 C18.8799991607666,0 20,1.1200000047683716 20,2.5z"></path></g><g clip-path="url(#__lottie_element_144)" transform="matrix(1,0,0,1,5,3.119999885559082)" opacity="1" style="display: block;"><g transform="matrix(1,0,0,1,0,0)" opacity="1" style="display: block;"><path fill-rule="evenodd" fill="rgb(255,255,255)" fill-opacity="1" d=" M4.050000190734863,3.9200000762939453 C4.050000190734863,3.359999895095825 4.570000171661377,3.140000104904175 5.420000076293945,3.140000104904175 C6.639999866485596,3.140000104904175 8.170000076293945,3.4800000190734863 9.390000343322754,4.070000171661377 C9.390000343322754,4.070000171661377 9.390000343322754,0.6700000166893005 9.390000343322754,0.6700000166893005 C8.0600004196167,0.1899999976158142 6.75,0 5.420000076293945,0 C2.1700000762939453,0 0,1.5399999618530273 0,4.099999904632568 C0,8.100000381469727 6.090000152587891,7.460000038146973 6.090000152587891,9.180000305175781 C6.090000152587891,9.850000381469727 5.449999809265137,10.0600004196167 4.550000190734863,10.0600004196167 C3.2200000286102295,10.0600004196167 1.5299999713897705,9.579999923706055 0.18000000715255737,8.90999984741211 C0.18000000715255737,8.90999984741211 0.18000000715255737,12.350000381469727 0.18000000715255737,12.350000381469727 C1.6699999570846558,12.930000305175781 3.1700000762939453,13.180000305175781 4.550000190734863,13.180000305175781 C7.880000114440918,13.180000305175781 10.180000305175781,11.680000305175781 10.180000305175781,9.09000015258789 C10.15999984741211,4.769999980926514 4.050000190734863,5.539999961853027 4.050000190734863,3.9200000762939453 C4.050000190734863,3.9200000762939453 4.050000190734863,3.9200000762939453 4.050000190734863,3.9200000762939453z"></path></g></g></g><g clip-path="url(#__lottie_element_119)" transform="matrix(1,0,0,1,190.83999633789062,78.19999694824219)" opacity="1" style="display: block;"><g clip-path="url(#__lottie_element_123)" transform="matrix(1,0,0,1,0,0)" opacity="1" style="display: block;"><g clip-path="url(#__lottie_element_127)" transform="matrix(1,0,0,1,0,0)" opacity="1" style="display: block;"><g transform="matrix(1,0,0,1,0,0)" opacity="1" style="display: block;"><path fill="rgb(0,41,145)" fill-opacity="1" d=" M14.220000267028809,4.599999904632568 C14.220000267028809,7.079999923706055 11.920000076293945,10 8.449999809265137,10 C8.449999809265137,10 5.099999904632568,10 5.099999904632568,10 C5.099999904632568,10 4.940000057220459,11.029999732971191 4.940000057220459,11.029999732971191 C4.940000057220459,11.029999732971191 4.159999847412109,16 4.159999847412109,16 C4.159999847412109,16 0,16 0,16 C0,16 2.5,0 2.5,0 C2.5,0 9.239999771118164,0 9.239999771118164,0 C11.510000228881836,0 13.289999961853027,1.2599999904632568 13.949999809265137,3.009999990463257 C14.140000343322754,3.5199999809265137 14.229999542236328,4.059999942779541 14.220000267028809,4.599999904632568 C14.220000267028809,4.599999904632568 14.220000267028809,4.599999904632568 14.220000267028809,4.599999904632568z"></path></g><g transform="matrix(1,0,0,1,3.489999771118164,4.600000381469727)" opacity="1" style="display: block;"><path fill="rgb(96,205,255)" fill-opacity="1" d=" M13.119999885559082,4.599999904632568 C12.899999618530273,5.940000057220459 12.199999809265137,7.159999847412109 11.15999984741211,8.039999961853027 C10.119999885559082,8.920000076293945 8.800000190734863,9.399999618530273 7.429999828338623,9.399999618530273 C7.429999828338623,9.399999618530273 5.099999904632568,9.399999618530273 5.099999904632568,9.399999618530273 C5.099999904632568,9.399999618530273 4.139999866485596,15.399999618530273 4.139999866485596,15.399999618530273 C4.139999866485596,15.399999618530273 0,15.399999618530273 0,15.399999618530273 C0,15.399999618530273 0.6600000262260437,11.399999618530273 0.6600000262260437,11.399999618530273 C0.6600000262260437,11.399999618530273 1.440000057220459,6.429999828338623 1.440000057220459,6.429999828338623 C1.440000057220459,6.429999828338623 1.6100000143051147,5.400000095367432 1.6100000143051147,5.400000095367432 C1.6100000143051147,5.400000095367432 4.949999809265137,5.400000095367432 4.949999809265137,5.400000095367432 C8.420000076293945,5.400000095367432 10.720000267028809,2.4800000190734863 10.720000267028809,0 C12.430000305175781,0.8799999952316284 13.430000305175781,2.6500000953674316 13.119999885559082,4.599999904632568 C13.119999885559082,4.599999904632568 13.119999885559082,4.599999904632568 13.119999885559082,4.599999904632568z"></path></g><g transform="matrix(1,0,0,1,5.099999904632568,4)" opacity="1" style="display: block;"><path fill="rgb(0,139,255)" fill-opacity="1" d=" M9.109999656677246,0.6000000238418579 C8.390000343322754,0.23000000417232513 7.53000020980835,0 6.590000152587891,0 C6.590000152587891,0 0.949999988079071,0 0.949999988079071,0 C0.949999988079071,0 0,6 0,6 C0,6 3.3499999046325684,6 3.3499999046325684,6 C6.820000171661377,6 9.109999656677246,3.0799999237060547 9.109999656677246,0.6000000238418579 C9.109999656677246,0.6000000238418579 9.109999656677246,0.6000000238418579 9.109999656677246,0.6000000238418579z"></path></g></g></g></g><g transform="matrix(1,0,0,1,28,106.19999694824219)" opacity="1" style="display: block;"><path fill="rgb(10,53,87)" fill-opacity="1" d=" M27.270000457763672,2.8399999141693115 C27.59000015258789,2.140000104904175 28.200000762939453,1.909999966621399 28.829999923706055,1.909999966621399 C28.829999923706055,1.909999966621399 28.829999923706055,2.819999933242798 28.829999923706055,2.819999933242798 C28.079999923706055,2.7899999618530273 27.270000457763672,3.1700000762939453 27.270000457763672,4.349999904632568 C27.270000457763672,4.349999904632568 27.270000457763672,7 27.270000457763672,7 C27.270000457763672,7 26.399999618530273,7 26.399999618530273,7 C26.399999618530273,7 26.399999618530273,2 26.399999618530273,2 C26.399999618530273,2 27.270000457763672,2 27.270000457763672,2 C27.270000457763672,2 27.270000457763672,2.8399999141693115 27.270000457763672,2.8399999141693115 C27.270000457763672,2.8399999141693115 27.270000457763672,2.8399999141693115 27.270000457763672,2.8399999141693115z M22.90999984741211,2.690000057220459 C21.969999313354492,2.690000057220459 21.31999969482422,3.2699999809265137 21.18000030517578,4.139999866485596 C21.18000030517578,4.139999866485596 24.520000457763672,4.139999866485596 24.520000457763672,4.139999866485596 C24.3700008392334,3.1500000953674316 23.65999984741211,2.690000057220459 22.90999984741211,2.690000057220459 C22.90999984741211,2.690000057220459 22.90999984741211,2.690000057220459 22.90999984741211,2.690000057220459z M21.18000030517578,4.900000095367432 C21.350000381469727,5.800000190734863 22.059999465942383,6.309999942779541 22.989999771118164,6.309999942779541 C23.68000030517578,6.309999942779541 24.18000030517578,5.989999771118164 24.43000030517578,5.579999923706055 C24.43000030517578,5.579999923706055 25.170000076293945,6 25.170000076293945,6 C24.729999542236328,6.679999828338623 23.969999313354492,7.130000114440918 22.969999313354492,7.130000114440918 C21.360000610351562,7.130000114440918 20.290000915527344,6 20.290000915527344,4.5 C20.290000915527344,3.0199999809265137 21.350000381469727,1.8700000047683716 22.90999984741211,1.8700000047683716 C24.420000076293945,1.8700000047683716 25.399999618530273,3.109999895095825 25.399999618530273,4.510000228881836 C25.399999618530273,4.639999866485596 25.389999389648438,4.769999980926514 25.3700008392334,4.900000095367432 C25.3700008392334,4.900000095367432 21.18000030517578,4.900000095367432 21.18000030517578,4.900000095367432 C21.18000030517578,4.900000095367432 21.18000030517578,4.900000095367432 21.18000030517578,4.900000095367432z M18.3700008392334,7 C18.3700008392334,7 18.3700008392334,2 18.3700008392334,2 C18.3700008392334,2 19.239999771118164,2 19.239999771118164,2 C19.239999771118164,2 19.239999771118164,7 19.239999771118164,7 C19.239999771118164,7 18.3700008392334,7 18.3700008392334,7 C18.3700008392334,7 18.3700008392334,7 18.3700008392334,7z M18.809999465942383,1.090000033378601 C18.479999542236328,1.090000033378601 18.219999313354492,0.8299999833106995 18.219999313354492,0.5099999904632568 C18.219999313354492,0.1899999976158142 18.479999542236328,-0.07999999821186066 18.809999465942383,-0.07999999821186066 C19.1299991607666,-0.07999999821186066 19.389999389648438,0.1899999976158142 19.389999389648438,0.5099999904632568 C19.389999389648438,0.8299999833106995 19.1299991607666,1.090000033378601 18.809999465942383,1.090000033378601 C18.809999465942383,1.090000033378601 18.809999465942383,1.090000033378601 18.809999465942383,1.090000033378601z M14.699999809265137,6.289999961853027 C15.699999809265137,6.289999961853027 16.469999313354492,5.519999980926514 16.469999313354492,4.5 C16.469999313354492,3.4800000190734863 15.699999809265137,2.7100000381469727 14.699999809265137,2.7100000381469727 C13.6899995803833,2.7100000381469727 12.920000076293945,3.4800000190734863 12.920000076293945,4.5 C12.920000076293945,5.519999980926514 13.6899995803833,6.289999961853027 14.699999809265137,6.289999961853027 C14.699999809265137,6.289999961853027 14.699999809265137,6.289999961853027 14.699999809265137,6.289999961853027z M14.8100004196167,1.8700000047683716 C16.200000762939453,1.8700000047683716 17.34000015258789,3.0199999809265137 17.34000015258789,4.5 C17.34000015258789,5.980000019073486 16.200000762939453,7.130000114440918 14.8100004196167,7.130000114440918 C13.960000038146973,7.130000114440918 13.319999694824219,6.75 12.920000076293945,6.139999866485596 C12.920000076293945,6.139999866485596 12.920000076293945,9 12.920000076293945,9 C12.920000076293945,9 12.050000190734863,9 12.050000190734863,9 C12.050000190734863,9 12.050000190734863,2 12.050000190734863,2 C12.050000190734863,2 12.920000076293945,2 12.920000076293945,2 C12.920000076293945,2 12.920000076293945,2.859999895095825 12.920000076293945,2.859999895095825 C13.319999694824219,2.25 13.960000038146973,1.8700000047683716 14.8100004196167,1.8700000047683716 C14.8100004196167,1.8700000047683716 14.8100004196167,1.8700000047683716 14.8100004196167,1.8700000047683716z M8.079999923706055,6.289999961853027 C9.09000015258789,6.289999961853027 9.859999656677246,5.519999980926514 9.859999656677246,4.5 C9.859999656677246,3.4800000190734863 9.09000015258789,2.7100000381469727 8.079999923706055,2.7100000381469727 C7.079999923706055,2.7100000381469727 6.309999942779541,3.4800000190734863 6.309999942779541,4.5 C6.309999942779541,5.519999980926514 7.079999923706055,6.289999961853027 8.079999923706055,6.289999961853027 C8.079999923706055,6.289999961853027 8.079999923706055,6.289999961853027 8.079999923706055,6.289999961853027z M9.859999656677246,2 C9.859999656677246,2 10.729999542236328,2 10.729999542236328,2 C10.729999542236328,2 10.729999542236328,7 10.729999542236328,7 C10.729999542236328,7 9.859999656677246,7 9.859999656677246,7 C9.859999656677246,7 9.859999656677246,6.139999866485596 9.859999656677246,6.139999866485596 C9.460000038146973,6.75 8.819999694824219,7.130000114440918 7.96999979019165,7.130000114440918 C6.579999923706055,7.130000114440918 5.440000057220459,5.980000019073486 5.440000057220459,4.5 C5.440000057220459,3.0199999809265137 6.579999923706055,1.8700000047683716 7.96999979019165,1.8700000047683716 C8.819999694824219,1.8700000047683716 9.460000038146973,2.25 9.859999656677246,2.859999895095825 C9.859999656677246,2.859999895095825 9.859999656677246,2 9.859999656677246,2 C9.859999656677246,2 9.859999656677246,2 9.859999656677246,2z M1.4900000095367432,6.119999885559082 C1.4900000095367432,6.119999885559082 4.960000038146973,6.119999885559082 4.960000038146973,6.119999885559082 C4.960000038146973,6.119999885559082 4.960000038146973,7 4.960000038146973,7 C4.960000038146973,7 0.38999998569488525,7 0.38999998569488525,7 C0.38999998569488525,7 0.38999998569488525,6.190000057220459 0.38999998569488525,6.190000057220459 C0.38999998569488525,6.190000057220459 3.7699999809265137,0.8799999952316284 3.7699999809265137,0.8799999952316284 C3.7699999809265137,0.8799999952316284 0.47999998927116394,0.8799999952316284 0.47999998927116394,0.8799999952316284 C0.47999998927116394,0.8799999952316284 0.47999998927116394,0 0.47999998927116394,0 C0.47999998927116394,0 4.880000114440918,0 4.880000114440918,0 C4.880000114440918,0 4.880000114440918,0.800000011920929 4.880000114440918,0.800000011920929 C4.880000114440918,0.800000011920929 1.4900000095367432,6.119999885559082 1.4900000095367432,6.119999885559082 C1.4900000095367432,6.119999885559082 1.4900000095367432,6.119999885559082 1.4900000095367432,6.119999885559082z"></path></g><g transform="matrix(1,0,0,1,107,106.19999694824219)" opacity="1" style="display: block;"><path fill="rgb(10,53,87)" fill-opacity="1" d=" M24.219999313354492,2.690000057220459 C23.280000686645508,2.690000057220459 22.6299991607666,3.2699999809265137 22.489999771118164,4.139999866485596 C22.489999771118164,4.139999866485596 25.829999923706055,4.139999866485596 25.829999923706055,4.139999866485596 C25.68000030517578,3.1500000953674316 24.969999313354492,2.690000057220459 24.219999313354492,2.690000057220459 C24.219999313354492,2.690000057220459 24.219999313354492,2.690000057220459 24.219999313354492,2.690000057220459z M22.489999771118164,4.900000095367432 C22.65999984741211,5.800000190734863 23.3700008392334,6.309999942779541 24.299999237060547,6.309999942779541 C24.989999771118164,6.309999942779541 25.489999771118164,5.989999771118164 25.739999771118164,5.579999923706055 C25.739999771118164,5.579999923706055 26.479999542236328,6 26.479999542236328,6 C26.040000915527344,6.679999828338623 25.280000686645508,7.130000114440918 24.280000686645508,7.130000114440918 C22.670000076293945,7.130000114440918 21.600000381469727,6 21.600000381469727,4.5 C21.600000381469727,3.0199999809265137 22.65999984741211,1.8700000047683716 24.219999313354492,1.8700000047683716 C25.729999542236328,1.8700000047683716 26.709999084472656,3.109999895095825 26.709999084472656,4.510000228881836 C26.709999084472656,4.639999866485596 26.700000762939453,4.769999980926514 26.68000030517578,4.900000095367432 C26.68000030517578,4.900000095367432 22.489999771118164,4.900000095367432 22.489999771118164,4.900000095367432 C22.489999771118164,4.900000095367432 22.489999771118164,4.900000095367432 22.489999771118164,4.900000095367432z M18.200000762939453,6.289999961853027 C19.200000762939453,6.289999961853027 19.969999313354492,5.519999980926514 19.969999313354492,4.5 C19.969999313354492,3.4800000190734863 19.200000762939453,2.7100000381469727 18.200000762939453,2.7100000381469727 C17.190000534057617,2.7100000381469727 16.420000076293945,3.4800000190734863 16.420000076293945,4.5 C16.420000076293945,5.519999980926514 17.190000534057617,6.289999961853027 18.200000762939453,6.289999961853027 C18.200000762939453,6.289999961853027 18.200000762939453,6.289999961853027 18.200000762939453,6.289999961853027z M18.309999465942383,1.8700000047683716 C19.700000762939453,1.8700000047683716 20.84000015258789,3.0199999809265137 20.84000015258789,4.5 C20.84000015258789,5.980000019073486 19.700000762939453,7.130000114440918 18.309999465942383,7.130000114440918 C17.459999084472656,7.130000114440918 16.81999969482422,6.75 16.420000076293945,6.139999866485596 C16.420000076293945,6.139999866485596 16.420000076293945,9 16.420000076293945,9 C16.420000076293945,9 15.550000190734863,9 15.550000190734863,9 C15.550000190734863,9 15.550000190734863,2 15.550000190734863,2 C15.550000190734863,2 16.420000076293945,2 16.420000076293945,2 C16.420000076293945,2 16.420000076293945,2.859999895095825 16.420000076293945,2.859999895095825 C16.81999969482422,2.25 17.459999084472656,1.8700000047683716 18.309999465942383,1.8700000047683716 C18.309999465942383,1.8700000047683716 18.309999465942383,1.8700000047683716 18.309999465942383,1.8700000047683716z M13.359999656677246,7 C13.359999656677246,7 13.359999656677246,2 13.359999656677246,2 C13.359999656677246,2 14.229999542236328,2 14.229999542236328,2 C14.229999542236328,2 14.229999542236328,7 14.229999542236328,7 C14.229999542236328,7 13.359999656677246,7 13.359999656677246,7 C13.359999656677246,7 13.359999656677246,7 13.359999656677246,7z M13.800000190734863,1.090000033378601 C13.470000267028809,1.090000033378601 13.210000038146973,0.8299999833106995 13.210000038146973,0.5099999904632568 C13.210000038146973,0.1899999976158142 13.470000267028809,-0.07999999821186066 13.800000190734863,-0.07999999821186066 C14.119999885559082,-0.07999999821186066 14.380000114440918,0.1899999976158142 14.380000114440918,0.5099999904632568 C14.380000114440918,0.8299999833106995 14.119999885559082,1.090000033378601 13.800000190734863,1.090000033378601 C13.800000190734863,1.090000033378601 13.800000190734863,1.090000033378601 13.800000190734863,1.090000033378601z M10.9399995803833,2.8399999141693115 C11.260000228881836,2.140000104904175 11.869999885559082,1.909999966621399 12.5,1.909999966621399 C12.5,1.909999966621399 12.5,2.819999933242798 12.5,2.819999933242798 C11.75,2.7899999618530273 10.9399995803833,3.1700000762939453 10.9399995803833,4.349999904632568 C10.9399995803833,4.349999904632568 10.9399995803833,7 10.9399995803833,7 C10.9399995803833,7 10.069999694824219,7 10.069999694824219,7 C10.069999694824219,7 10.069999694824219,2 10.069999694824219,2 C10.069999694824219,2 10.9399995803833,2 10.9399995803833,2 C10.9399995803833,2 10.9399995803833,2.8399999141693115 10.9399995803833,2.8399999141693115 C10.9399995803833,2.8399999141693115 10.9399995803833,2.8399999141693115 10.9399995803833,2.8399999141693115z M9.010000228881836,2.8399999141693115 C9.010000228881836,2.8399999141693115 7.679999828338623,2.8399999141693115 7.679999828338623,2.8399999141693115 C7.679999828338623,2.8399999141693115 7.679999828338623,5.550000190734863 7.679999828338623,5.550000190734863 C7.679999828338623,6.309999942779541 8.119999885559082,6.260000228881836 9.010000228881836,6.21999979019165 C9.010000228881836,6.21999979019165 9.010000228881836,7 9.010000228881836,7 C7.510000228881836,7.199999809265137 6.809999942779541,6.800000190734863 6.809999942779541,5.550000190734863 C6.809999942779541,5.550000190734863 6.809999942779541,2.8399999141693115 6.809999942779541,2.8399999141693115 C6.809999942779541,2.8399999141693115 5.820000171661377,2.8399999141693115 5.820000171661377,2.8399999141693115 C5.820000171661377,2.8399999141693115 5.820000171661377,2 5.820000171661377,2 C5.820000171661377,2 6.809999942779541,2 6.809999942779541,2 C6.809999942779541,2 6.809999942779541,0.8600000143051147 6.809999942779541,0.8600000143051147 C6.809999942779541,0.8600000143051147 7.679999828338623,0.6000000238418579 7.679999828338623,0.6000000238418579 C7.679999828338623,0.6000000238418579 7.679999828338623,2 7.679999828338623,2 C7.679999828338623,2 9.010000228881836,2 9.010000228881836,2 C9.010000228881836,2 9.010000228881836,2.8399999141693115 9.010000228881836,2.8399999141693115 C9.010000228881836,2.8399999141693115 9.010000228881836,2.8399999141693115 9.010000228881836,2.8399999141693115z M3.009999990463257,7.130000114440918 C1.6799999475479126,7.130000114440918 0.7300000190734863,6.460000038146973 0.36000001430511475,5.409999847412109 C0.36000001430511475,5.409999847412109 1.159999966621399,4.949999809265137 1.159999966621399,4.949999809265137 C1.409999966621399,5.71999979019165 2.009999990463257,6.21999979019165 3.0299999713897705,6.21999979019165 C4.019999980926514,6.21999979019165 4.510000228881836,5.769999980926514 4.510000228881836,5.139999866485596 C4.510000228881836,4.420000076293945 3.890000104904175,4.179999828338623 2.859999895095825,3.859999895095825 C1.7400000095367432,3.5 0.6600000262260437,3.1500000953674316 0.6600000262260437,1.850000023841858 C0.6600000262260437,0.5899999737739563 1.690000057220459,-0.12999999523162842 2.859999895095825,-0.12999999523162842 C4.010000228881836,-0.12999999523162842 4.840000152587891,0.5199999809265137 5.230000019073486,1.399999976158142 C5.230000019073486,1.399999976158142 4.449999809265137,1.850000023841858 4.449999809265137,1.850000023841858 C4.199999809265137,1.25 3.7100000381469727,0.7699999809265137 2.859999895095825,0.7699999809265137 C2.109999895095825,0.7699999809265137 1.590000033378601,1.1699999570846558 1.590000033378601,1.809999942779541 C1.590000033378601,2.4600000381469727 2.0799999237060547,2.700000047683716 3.059999942779541,3.009999990463257 C4.28000020980835,3.4100000858306885 5.429999828338623,3.7699999809265137 5.429999828338623,5.119999885559082 C5.429999828338623,6.349999904632568 4.440000057220459,7.130000114440918 3.009999990463257,7.130000114440918 C3.009999990463257,7.130000114440918 3.009999990463257,7.130000114440918 3.009999990463257,7.130000114440918z"></path></g><g transform="matrix(1,0,0,1,183,106.19999694824219)" opacity="1" style="display: block;"><path fill="rgb(10,53,87)" fill-opacity="1" d=" M29.5,7 C29.5,7 29.5,-0.30000001192092896 29.5,-0.30000001192092896 C29.5,-0.30000001192092896 30.3700008392334,-0.30000001192092896 30.3700008392334,-0.30000001192092896 C30.3700008392334,-0.30000001192092896 30.3700008392334,7 30.3700008392334,7 C30.3700008392334,7 29.5,7 29.5,7 C29.5,7 29.5,7 29.5,7z M25.530000686645508,6.289999961853027 C26.540000915527344,6.289999961853027 27.309999465942383,5.519999980926514 27.309999465942383,4.5 C27.309999465942383,3.4800000190734863 26.540000915527344,2.7100000381469727 25.530000686645508,2.7100000381469727 C24.530000686645508,2.7100000381469727 23.760000228881836,3.4800000190734863 23.760000228881836,4.5 C23.760000228881836,5.519999980926514 24.530000686645508,6.289999961853027 25.530000686645508,6.289999961853027 C25.530000686645508,6.289999961853027 25.530000686645508,6.289999961853027 25.530000686645508,6.289999961853027z M27.309999465942383,2 C27.309999465942383,2 28.18000030517578,2 28.18000030517578,2 C28.18000030517578,2 28.18000030517578,7 28.18000030517578,7 C28.18000030517578,7 27.309999465942383,7 27.309999465942383,7 C27.309999465942383,7 27.309999465942383,6.139999866485596 27.309999465942383,6.139999866485596 C26.90999984741211,6.75 26.270000457763672,7.130000114440918 25.420000076293945,7.130000114440918 C24.030000686645508,7.130000114440918 22.889999389648438,5.980000019073486 22.889999389648438,4.5 C22.889999389648438,3.0199999809265137 24.030000686645508,1.8700000047683716 25.420000076293945,1.8700000047683716 C26.270000457763672,1.8700000047683716 26.90999984741211,2.25 27.309999465942383,2.859999895095825 C27.309999465942383,2.859999895095825 27.309999465942383,2 27.309999465942383,2 C27.309999465942383,2 27.309999465942383,2 27.309999465942383,2z M20.280000686645508,3.630000114440918 C21.049999237060547,3.630000114440918 21.6200008392334,3.0399999618530273 21.6200008392334,2.25 C21.6200008392334,1.4500000476837158 21.049999237060547,0.8700000047683716 20.280000686645508,0.8700000047683716 C20.280000686645508,0.8700000047683716 18.670000076293945,0.8700000047683716 18.670000076293945,0.8700000047683716 C18.670000076293945,0.8700000047683716 18.670000076293945,3.630000114440918 18.670000076293945,3.630000114440918 C18.670000076293945,3.630000114440918 20.280000686645508,3.630000114440918 20.280000686645508,3.630000114440918 C20.280000686645508,3.630000114440918 20.280000686645508,3.630000114440918 20.280000686645508,3.630000114440918z M20.280000686645508,0 C21.56999969482422,0 22.540000915527344,0.9700000286102295 22.540000915527344,2.25 C22.540000915527344,3.5199999809265137 21.56999969482422,4.5 20.280000686645508,4.5 C20.280000686645508,4.5 18.670000076293945,4.5 18.670000076293945,4.5 C18.670000076293945,4.5 18.670000076293945,7 18.670000076293945,7 C18.670000076293945,7 17.739999771118164,7 17.739999771118164,7 C17.739999771118164,7 17.739999771118164,0 17.739999771118164,0 C17.739999771118164,0 20.280000686645508,0 20.280000686645508,0 C20.280000686645508,0 20.280000686645508,0 20.280000686645508,0z M16,2 C16,2 16.93000030517578,2 16.93000030517578,2 C16.93000030517578,2 14.890000343322754,7.309999942779541 14.890000343322754,7.309999942779541 C14.470000267028809,8.430000305175781 13.6899995803833,9.069999694824219 12.670000076293945,9 C12.670000076293945,9 12.670000076293945,8.1899995803833 12.670000076293945,8.1899995803833 C13.34000015258789,8.239999771118164 13.760000228881836,7.829999923706055 14.020000457763672,7.170000076293945 C14.020000457763672,7.170000076293945 14.109999656677246,6.980000019073486 14.109999656677246,6.980000019073486 C14.109999656677246,6.980000019073486 11.930000305175781,2 11.930000305175781,2 C11.930000305175781,2 12.859999656677246,2 12.859999656677246,2 C12.859999656677246,2 14.5600004196167,5.920000076293945 14.5600004196167,5.920000076293945 C14.5600004196167,5.920000076293945 16,2 16,2 C16,2 16,2 16,2z M8.539999961853027,6.289999961853027 C9.550000190734863,6.289999961853027 10.319999694824219,5.519999980926514 10.319999694824219,4.5 C10.319999694824219,3.4800000190734863 9.550000190734863,2.7100000381469727 8.539999961853027,2.7100000381469727 C7.539999961853027,2.7100000381469727 6.769999980926514,3.4800000190734863 6.769999980926514,4.5 C6.769999980926514,5.519999980926514 7.539999961853027,6.289999961853027 8.539999961853027,6.289999961853027 C8.539999961853027,6.289999961853027 8.539999961853027,6.289999961853027 8.539999961853027,6.289999961853027z M10.319999694824219,2 C10.319999694824219,2 11.1899995803833,2 11.1899995803833,2 C11.1899995803833,2 11.1899995803833,7 11.1899995803833,7 C11.1899995803833,7 10.319999694824219,7 10.319999694824219,7 C10.319999694824219,7 10.319999694824219,6.139999866485596 10.319999694824219,6.139999866485596 C9.920000076293945,6.75 9.279999732971191,7.130000114440918 8.430000305175781,7.130000114440918 C7.039999961853027,7.130000114440918 5.900000095367432,5.980000019073486 5.900000095367432,4.5 C5.900000095367432,3.0199999809265137 7.039999961853027,1.8700000047683716 8.430000305175781,1.8700000047683716 C9.279999732971191,1.8700000047683716 9.920000076293945,2.25 10.319999694824219,2.859999895095825 C10.319999694824219,2.859999895095825 10.319999694824219,2 10.319999694824219,2 C10.319999694824219,2 10.319999694824219,2 10.319999694824219,2z M3.2899999618530273,3.630000114440918 C4.059999942779541,3.630000114440918 4.630000114440918,3.0399999618530273 4.630000114440918,2.25 C4.630000114440918,1.4500000476837158 4.059999942779541,0.8700000047683716 3.2899999618530273,0.8700000047683716 C3.2899999618530273,0.8700000047683716 1.6799999475479126,0.8700000047683716 1.6799999475479126,0.8700000047683716 C1.6799999475479126,0.8700000047683716 1.6799999475479126,3.630000114440918 1.6799999475479126,3.630000114440918 C1.6799999475479126,3.630000114440918 3.2899999618530273,3.630000114440918 3.2899999618530273,3.630000114440918 C3.2899999618530273,3.630000114440918 3.2899999618530273,3.630000114440918 3.2899999618530273,3.630000114440918z M3.2899999618530273,0 C4.579999923706055,0 5.550000190734863,0.9700000286102295 5.550000190734863,2.25 C5.550000190734863,3.5199999809265137 4.579999923706055,4.5 3.2899999618530273,4.5 C3.2899999618530273,4.5 1.6799999475479126,4.5 1.6799999475479126,4.5 C1.6799999475479126,4.5 1.6799999475479126,7 1.6799999475479126,7 C1.6799999475479126,7 0.75,7 0.75,7 C0.75,7 0.75,0 0.75,0 C0.75,0 3.2899999618530273,0 3.2899999618530273,0 C3.2899999618530273,0 3.2899999618530273,0 3.2899999618530273,0z"></path></g><g clip-path="url(#__lottie_element_90)" transform="matrix(1,0,0,1,3,0.19999980926513672)" opacity="1" style="display: block;"><g clip-path="url(#__lottie_element_91)"><g transform="matrix(1,0,0,1,-35,-59.29999923706055)" opacity="1" style="display: block;"><path fill="rgb(255,255,255)" fill-opacity="0" d=" M20,0 C20,0 20,20 20,20 C20,20 0,20 0,20 C0,20 0,0 0,0 C0,0 20,0 20,0z"></path></g><g clip-path="url(#__lottie_element_94)" transform="matrix(1,0,0,1,0,-0.14999961853027344)" opacity="1" style="display: block;"><g transform="matrix(1,0,0,1,0,0)" opacity="1" style="display: block;"></g><g transform="matrix(1,0,0,1,0,0)" opacity="1" style="display: block;"><path fill="rgb(64,135,251)" fill-opacity="1" d=" M0,6.860000133514404 C0,4.460000038146973 0,3.259999990463257 0.4699999988079071,2.3399999141693115 C0.8799999952316284,1.5299999713897705 1.5299999713897705,0.8799999952316284 2.3399999141693115,0.4699999988079071 C3.259999990463257,0 4.460000038146973,0 6.860000133514404,0 C6.860000133514404,0 13.140000343322754,0 13.140000343322754,0 C15.539999961853027,0 16.739999771118164,0 17.65999984741211,0.4699999988079071 C18.469999313354492,0.8799999952316284 19.1200008392334,1.5299999713897705 19.530000686645508,2.3399999141693115 C20,3.259999990463257 20,4.460000038146973 20,6.860000133514404 C20,6.860000133514404 20,13.140000343322754 20,13.140000343322754 C20,15.539999961853027 20,16.739999771118164 19.530000686645508,17.65999984741211 C19.1200008392334,18.469999313354492 18.469999313354492,19.1200008392334 17.65999984741211,19.530000686645508 C16.739999771118164,20 15.539999961853027,20 13.140000343322754,20 C13.140000343322754,20 6.860000133514404,20 6.860000133514404,20 C4.460000038146973,20 3.259999990463257,20 2.3399999141693115,19.530000686645508 C1.5299999713897705,19.1200008392334 0.8799999952316284,18.469999313354492 0.4699999988079071,17.65999984741211 C0,16.739999771118164 0,15.539999961853027 0,13.140000343322754 C0,13.140000343322754 0,6.860000133514404 0,6.860000133514404 C0,6.860000133514404 0,6.860000133514404 0,6.860000133514404z"></path></g><g transform="matrix(1,0,0,1,3.750000476837158,5.619999885559082)" opacity="1" style="display: block;"><path fill="rgb(255,255,255)" fill-opacity="1" d=" M9.789999961853027,1.9500000476837158 C9.470000267028809,2.2699999809265137 9.289999961853027,2.7300000190734863 9.289999961853027,3.2100000381469727 C9.289999961853027,3.2100000381469727 9.289999961853027,5.289999961853027 9.289999961853027,5.289999961853027 C9.289999961853027,5.769999980926514 9.470000267028809,6.230000019073486 9.789999961853027,6.550000190734863 C9.789999961853027,6.550000190734863 11.8100004196167,8.319999694824219 11.8100004196167,8.319999694824219 C12.220000267028809,8.720000267028809 12.859999656677246,8.399999618530273 12.859999656677246,7.789999961853027 C12.859999656677246,7.789999961853027 12.859999656677246,0.8100000023841858 12.859999656677246,0.8100000023841858 C12.859999656677246,0.20000000298023224 12.220000267028809,-0.12999999523162842 11.8100004196167,0.27000001072883606 C11.8100004196167,0.27000001072883606 9.789999961853027,1.9500000476837158 9.789999961853027,1.9500000476837158 C9.789999961853027,1.9500000476837158 9.789999961853027,1.9500000476837158 9.789999961853027,1.9500000476837158z M0.8999999761581421,0 C0.4000000059604645,0 0,0.46000000834465027 0,1.0199999809265137 C0,1.0199999809265137 0,5.96999979019165 0,5.96999979019165 C0,7.409999847412109 1.0399999618530273,8.569999694824219 2.309999942779541,8.569999694824219 C2.309999942779541,8.569999694824219 7.670000076293945,8.520000457763672 7.670000076293945,8.520000457763672 C8.170000076293945,8.520000457763672 8.569999694824219,8.0600004196167 8.569999694824219,7.5 C8.569999694824219,7.5 8.569999694824219,2.5 8.569999694824219,2.5 C8.569999694824219,1.059999942779541 7.340000152587891,0 6.070000171661377,0 C6.070000171661377,0 0.8999999761581421,0 0.8999999761581421,0 C0.8999999761581421,0 0.8999999761581421,0 0.8999999761581421,0z"></path></g></g></g></g><g transform="matrix(1,0,0,1,0,28.200000762939453)" opacity="1" style="display: block;"><path fill="rgb(10,53,87)" fill-opacity="1" d=" M23.149999618530273,1.8700000047683716 C24.260000228881836,1.8700000047683716 25.030000686645508,2.640000104904175 25.030000686645508,3.890000104904175 C25.030000686645508,3.890000104904175 25.030000686645508,7 25.030000686645508,7 C25.030000686645508,7 24.15999984741211,7 24.15999984741211,7 C24.15999984741211,7 24.15999984741211,3.9200000762939453 24.15999984741211,3.9200000762939453 C24.15999984741211,3.130000114440918 23.719999313354492,2.700000047683716 23.059999465942383,2.700000047683716 C22.360000610351562,2.700000047683716 21.829999923706055,3.140000104904175 21.829999923706055,4.21999979019165 C21.829999923706055,4.21999979019165 21.829999923706055,7 21.829999923706055,7 C21.829999923706055,7 20.959999084472656,7 20.959999084472656,7 C20.959999084472656,7 20.959999084472656,3.9200000762939453 20.959999084472656,3.9200000762939453 C20.959999084472656,3.130000114440918 20.549999237060547,2.700000047683716 19.899999618530273,2.700000047683716 C19.229999542236328,2.700000047683716 18.6200008392334,3.140000104904175 18.6200008392334,4.21999979019165 C18.6200008392334,4.21999979019165 18.6200008392334,7 18.6200008392334,7 C18.6200008392334,7 17.75,7 17.75,7 C17.75,7 17.75,2 17.75,2 C17.75,2 18.6200008392334,2 18.6200008392334,2 C18.6200008392334,2 18.6200008392334,2.6700000762939453 18.6200008392334,2.6700000762939453 C18.979999542236328,2.109999895095825 19.5,1.8700000047683716 20.110000610351562,1.8700000047683716 C20.790000915527344,1.8700000047683716 21.290000915527344,2.180000066757202 21.579999923706055,2.7200000286102295 C21.93000030517578,2.1500000953674316 22.5,1.8700000047683716 23.149999618530273,1.8700000047683716 C23.149999618530273,1.8700000047683716 23.149999618530273,1.8700000047683716 23.149999618530273,1.8700000047683716z M14.079999923706055,6.28000020980835 C15.079999923706055,6.28000020980835 15.850000381469727,5.510000228881836 15.850000381469727,4.5 C15.850000381469727,3.490000009536743 15.079999923706055,2.7200000286102295 14.079999923706055,2.7200000286102295 C13.09000015258789,2.7200000286102295 12.319999694824219,3.490000009536743 12.319999694824219,4.5 C12.319999694824219,5.510000228881836 13.09000015258789,6.28000020980835 14.079999923706055,6.28000020980835 C14.079999923706055,6.28000020980835 14.079999923706055,6.28000020980835 14.079999923706055,6.28000020980835z M14.079999923706055,7.130000114440918 C12.619999885559082,7.130000114440918 11.449999809265137,5.980000019073486 11.449999809265137,4.5 C11.449999809265137,3.0199999809265137 12.619999885559082,1.8700000047683716 14.079999923706055,1.8700000047683716 C15.539999961853027,1.8700000047683716 16.719999313354492,3.0199999809265137 16.719999313354492,4.5 C16.719999313354492,5.980000019073486 15.539999961853027,7.130000114440918 14.079999923706055,7.130000114440918 C14.079999923706055,7.130000114440918 14.079999923706055,7.130000114440918 14.079999923706055,7.130000114440918z M8.069999694824219,6.28000020980835 C9.069999694824219,6.28000020980835 9.84000015258789,5.510000228881836 9.84000015258789,4.5 C9.84000015258789,3.490000009536743 9.069999694824219,2.7200000286102295 8.069999694824219,2.7200000286102295 C7.079999923706055,2.7200000286102295 6.309999942779541,3.490000009536743 6.309999942779541,4.5 C6.309999942779541,5.510000228881836 7.079999923706055,6.28000020980835 8.069999694824219,6.28000020980835 C8.069999694824219,6.28000020980835 8.069999694824219,6.28000020980835 8.069999694824219,6.28000020980835z M8.069999694824219,7.130000114440918 C6.610000133514404,7.130000114440918 5.440000057220459,5.980000019073486 5.440000057220459,4.5 C5.440000057220459,3.0199999809265137 6.610000133514404,1.8700000047683716 8.069999694824219,1.8700000047683716 C9.529999732971191,1.8700000047683716 10.710000038146973,3.0199999809265137 10.710000038146973,4.5 C10.710000038146973,5.980000019073486 9.529999732971191,7.130000114440918 8.069999694824219,7.130000114440918 C8.069999694824219,7.130000114440918 8.069999694824219,7.130000114440918 8.069999694824219,7.130000114440918z M1.4900000095367432,6.119999885559082 C1.4900000095367432,6.119999885559082 4.960000038146973,6.119999885559082 4.960000038146973,6.119999885559082 C4.960000038146973,6.119999885559082 4.960000038146973,7 4.960000038146973,7 C4.960000038146973,7 0.38999998569488525,7 0.38999998569488525,7 C0.38999998569488525,7 0.38999998569488525,6.190000057220459 0.38999998569488525,6.190000057220459 C0.38999998569488525,6.190000057220459 3.7699999809265137,0.8799999952316284 3.7699999809265137,0.8799999952316284 C3.7699999809265137,0.8799999952316284 0.47999998927116394,0.8799999952316284 0.47999998927116394,0.8799999952316284 C0.47999998927116394,0.8799999952316284 0.47999998927116394,0 0.47999998927116394,0 C0.47999998927116394,0 4.880000114440918,0 4.880000114440918,0 C4.880000114440918,0 4.880000114440918,0.800000011920929 4.880000114440918,0.800000011920929 C4.880000114440918,0.800000011920929 1.4900000095367432,6.119999885559082 1.4900000095367432,6.119999885559082 C1.4900000095367432,6.119999885559082 1.4900000095367432,6.119999885559082 1.4900000095367432,6.119999885559082z"></path></g><g clip-path="url(#__lottie_element_71)" transform="matrix(1,0,0,1,81,0)" opacity="1" style="display: block;"><g transform="matrix(1,0,0,1,10.200000762939453,8.350000381469727)" opacity="1" style="display: block;"><path fill="rgb(66,133,244)" fill-opacity="1" d=" M9.800000190734863,2.0899999141693115 C9.800000190734863,1.3700000047683716 9.729999542236328,0.6700000166893005 9.609999656677246,0 C9.609999656677246,0 0,0 0,0 C0,0 0,3.950000047683716 0,3.950000047683716 C0,3.950000047683716 5.489999771118164,3.950000047683716 5.489999771118164,3.950000047683716 C5.25,5.230000019073486 4.539999961853027,6.309999942779541 3.4600000381469727,7.03000020980835 C3.4600000381469727,7.03000020980835 3.4600000381469727,9.59000015258789 3.4600000381469727,9.59000015258789 C3.4600000381469727,9.59000015258789 6.75,9.59000015258789 6.75,9.59000015258789 C8.680000305175781,7.809999942779541 9.800000190734863,5.199999809265137 9.800000190734863,2.0899999141693115 C9.800000190734863,2.0899999141693115 9.800000190734863,2.0899999141693115 9.800000190734863,2.0899999141693115z"></path></g><g transform="matrix(1,0,0,1,1.080000400543213,12.15000057220459)" opacity="1" style="display: block;"><path fill="rgb(52,168,83)" fill-opacity="1" d=" M9.119999885559082,8.270000457763672 C11.880000114440918,8.270000457763672 14.180000305175781,7.349999904632568 15.869999885559082,5.789999961853027 C15.869999885559082,5.789999961853027 12.569999694824219,3.2300000190734863 12.569999694824219,3.2300000190734863 C11.65999984741211,3.8399999141693115 10.489999771118164,4.210000038146973 9.119999885559082,4.210000038146973 C6.460000038146973,4.210000038146973 4.210000038146973,2.4100000858306885 3.4100000858306885,0 C3.4100000858306885,0 0,0 0,0 C0,0 0,2.640000104904175 0,2.640000104904175 C1.6799999475479126,5.96999979019165 5.130000114440918,8.270000457763672 9.119999885559082,8.270000457763672 C9.119999885559082,8.270000457763672 9.119999885559082,8.270000457763672 9.119999885559082,8.270000457763672z"></path></g><g transform="matrix(1,0,0,1,0,5.619999885559082)" opacity="1" style="display: block;"><path fill="rgb(250,187,5)" fill-opacity="1" d=" M4.489999771118164,6.519999980926514 C4.289999961853027,5.909999847412109 4.170000076293945,5.25 4.170000076293945,4.579999923706055 C4.170000076293945,3.9100000858306885 4.289999961853027,3.25 4.489999771118164,2.640000104904175 C4.489999771118164,2.640000104904175 4.489999771118164,0 4.489999771118164,0 C4.489999771118164,0 1.090000033378601,0 1.090000033378601,0 C0.3799999952316284,1.4199999570846558 0,2.990000009536743 0,4.579999923706055 C0,6.230000019073486 0.4000000059604645,7.789999961853027 1.090000033378601,9.170000076293945 C1.090000033378601,9.170000076293945 4.489999771118164,6.519999980926514 4.489999771118164,6.519999980926514 C4.489999771118164,6.519999980926514 4.489999771118164,6.519999980926514 4.489999771118164,6.519999980926514z"></path></g><g transform="matrix(1,0,0,1,1.0900006294250488,0)" opacity="1" style="display: block;"><path fill="rgb(234,67,53)" fill-opacity="1" d=" M9.119999885559082,4.059999942779541 C10.619999885559082,4.059999942779541 11.960000038146973,4.570000171661377 13.020000457763672,5.579999923706055 C13.020000457763672,5.579999923706055 15.949999809265137,2.6600000858306885 15.949999809265137,2.6600000858306885 C14.180000305175781,1.0099999904632568 11.869999885559082,0 9.119999885559082,0 C5.130000114440918,0 1.6799999475479126,2.2899999618530273 0,5.619999885559082 C0,5.619999885559082 3.4100000858306885,8.270000457763672 3.4100000858306885,8.270000457763672 C4.210000038146973,5.860000133514404 6.460000038146973,4.059999942779541 9.119999885559082,4.059999942779541 C9.119999885559082,4.059999942779541 9.119999885559082,4.059999942779541 9.119999885559082,4.059999942779541z"></path></g></g><g clip-path="url(#__lottie_element_55)" transform="matrix(1,0,0,1,159,0.19999980926513672)" opacity="1" style="display: block;"><g transform="matrix(1,0,0,1,0,0)" opacity="1" style="display: block;"><path fill="rgb(240,81,27)" fill-opacity="1" d=" M9.5,9.5 C9.5,9.5 0,9.5 0,9.5 C0,9.5 0,0 0,0 C0,0 9.5,0 9.5,0 C9.5,0 9.5,9.5 9.5,9.5 C9.5,9.5 9.5,9.5 9.5,9.5z"></path></g><g transform="matrix(1,0,0,1,10.5,0)" opacity="1" style="display: block;"><path fill="rgb(128,204,40)" fill-opacity="1" d=" M9.510000228881836,9.5 C9.510000228881836,9.5 0,9.5 0,9.5 C0,9.5 0,0 0,0 C0,0 9.5,0 9.5,0 C9.5,0 9.5,9.5 9.5,9.5 C9.5,9.5 9.510000228881836,9.5 9.510000228881836,9.5 C9.510000228881836,9.5 9.510000228881836,9.5 9.510000228881836,9.5z"></path></g><g transform="matrix(1,0,0,1,0,10.5)" opacity="1" style="display: block;"><path fill="rgb(0,172,238)" fill-opacity="1" d=" M9.5,9.5 C9.5,9.5 0,9.5 0,9.5 C0,9.5 0,0 0,0 C0,0 9.5,0 9.5,0 C9.5,0 9.5,9.5 9.5,9.5 C9.5,9.5 9.5,9.5 9.5,9.5z"></path></g><g transform="matrix(1,0,0,1,10.5,10.5)" opacity="1" style="display: block;"><path fill="rgb(250,187,8)" fill-opacity="1" d=" M9.510000228881836,9.5 C9.510000228881836,9.5 0,9.5 0,9.5 C0,9.5 0,0 0,0 C0,0 9.5,0 9.5,0 C9.5,0 9.5,9.5 9.5,9.5 C9.5,9.5 9.510000228881836,9.5 9.510000228881836,9.5 C9.510000228881836,9.5 9.510000228881836,9.5 9.510000228881836,9.5z"></path></g></g><g transform="matrix(1,0,0,1,147.5,28.200000762939453)" opacity="1" style="display: block;"><path fill="rgb(10,53,87)" fill-opacity="1" d=" M41.70000076293945,2.8399999141693115 C41.70000076293945,2.8399999141693115 40.369998931884766,2.8399999141693115 40.369998931884766,2.8399999141693115 C40.369998931884766,2.8399999141693115 40.369998931884766,5.550000190734863 40.369998931884766,5.550000190734863 C40.369998931884766,6.309999942779541 40.810001373291016,6.260000228881836 41.70000076293945,6.21999979019165 C41.70000076293945,6.21999979019165 41.70000076293945,7 41.70000076293945,7 C40.20000076293945,7.199999809265137 39.5,6.800000190734863 39.5,5.550000190734863 C39.5,5.550000190734863 39.5,2.8399999141693115 39.5,2.8399999141693115 C39.5,2.8399999141693115 38.5099983215332,2.8399999141693115 38.5099983215332,2.8399999141693115 C38.5099983215332,2.8399999141693115 38.5099983215332,2 38.5099983215332,2 C38.5099983215332,2 39.5,2 39.5,2 C39.5,2 39.5,0.8600000143051147 39.5,0.8600000143051147 C39.5,0.8600000143051147 40.369998931884766,0.6000000238418579 40.369998931884766,0.6000000238418579 C40.369998931884766,0.6000000238418579 40.369998931884766,2 40.369998931884766,2 C40.369998931884766,2 41.70000076293945,2 41.70000076293945,2 C41.70000076293945,2 41.70000076293945,2.8399999141693115 41.70000076293945,2.8399999141693115 C41.70000076293945,2.8399999141693115 41.70000076293945,2.8399999141693115 41.70000076293945,2.8399999141693115z M38.130001068115234,0.7099999785423279 C37.2599983215332,0.6399999856948853 36.810001373291016,0.9800000190734863 36.810001373291016,1.850000023841858 C36.810001373291016,1.850000023841858 36.810001373291016,2 36.810001373291016,2 C36.810001373291016,2 38.130001068115234,2 38.130001068115234,2 C38.130001068115234,2 38.130001068115234,2.8399999141693115 38.130001068115234,2.8399999141693115 C38.130001068115234,2.8399999141693115 36.810001373291016,2.8399999141693115 36.810001373291016,2.8399999141693115 C36.810001373291016,2.8399999141693115 36.810001373291016,7 36.810001373291016,7 C36.810001373291016,7 35.939998626708984,7 35.939998626708984,7 C35.939998626708984,7 35.939998626708984,2.8399999141693115 35.939998626708984,2.8399999141693115 C35.939998626708984,2.8399999141693115 35.13999938964844,2.8399999141693115 35.13999938964844,2.8399999141693115 C35.13999938964844,2.8399999141693115 35.13999938964844,2 35.13999938964844,2 C35.13999938964844,2 35.939998626708984,2 35.939998626708984,2 C35.939998626708984,2 35.939998626708984,1.850000023841858 35.939998626708984,1.850000023841858 C35.939998626708984,0.5199999809265137 36.70000076293945,-0.23000000417232513 38.130001068115234,-0.12999999523162842 C38.130001068115234,-0.12999999523162842 38.130001068115234,0.7099999785423279 38.130001068115234,0.7099999785423279 C38.130001068115234,0.7099999785423279 38.130001068115234,0.7099999785423279 38.130001068115234,0.7099999785423279z M32.08000183105469,6.28000020980835 C33.08000183105469,6.28000020980835 33.849998474121094,5.510000228881836 33.849998474121094,4.5 C33.849998474121094,3.490000009536743 33.08000183105469,2.7200000286102295 32.08000183105469,2.7200000286102295 C31.09000015258789,2.7200000286102295 30.31999969482422,3.490000009536743 30.31999969482422,4.5 C30.31999969482422,5.510000228881836 31.09000015258789,6.28000020980835 32.08000183105469,6.28000020980835 C32.08000183105469,6.28000020980835 32.08000183105469,6.28000020980835 32.08000183105469,6.28000020980835z M32.08000183105469,7.130000114440918 C30.6200008392334,7.130000114440918 29.450000762939453,5.980000019073486 29.450000762939453,4.5 C29.450000762939453,3.0199999809265137 30.6200008392334,1.8700000047683716 32.08000183105469,1.8700000047683716 C33.540000915527344,1.8700000047683716 34.720001220703125,3.0199999809265137 34.720001220703125,4.5 C34.720001220703125,5.980000019073486 33.540000915527344,7.130000114440918 32.08000183105469,7.130000114440918 C32.08000183105469,7.130000114440918 32.08000183105469,7.130000114440918 32.08000183105469,7.130000114440918z M26.040000915527344,3.3499999046325684 C26.040000915527344,4.420000076293945 28.84000015258789,3.7899999618530273 28.84000015258789,5.630000114440918 C28.84000015258789,6.559999942779541 28.040000915527344,7.130000114440918 26.969999313354492,7.130000114440918 C25.969999313354492,7.130000114440918 25.270000457763672,6.650000095367432 24.979999542236328,5.960000038146973 C24.979999542236328,5.960000038146973 25.729999542236328,5.53000020980835 25.729999542236328,5.53000020980835 C25.889999389648438,6.010000228881836 26.350000381469727,6.309999942779541 26.969999313354492,6.309999942779541 C27.5,6.309999942779541 27.959999084472656,6.119999885559082 27.959999084472656,5.630000114440918 C27.959999084472656,4.559999942779541 25.15999984741211,5.170000076293945 25.15999984741211,3.359999895095825 C25.15999984741211,2.4800000190734863 25.920000076293945,1.8700000047683716 26.93000030517578,1.8700000047683716 C27.75,1.8700000047683716 28.40999984741211,2.259999990463257 28.729999542236328,2.9100000858306885 C28.729999542236328,2.9100000858306885 28,3.319999933242798 28,3.319999933242798 C27.809999465942383,2.869999885559082 27.3700008392334,2.680000066757202 26.93000030517578,2.680000066757202 C26.479999542236328,2.680000066757202 26.040000915527344,2.9000000953674316 26.040000915527344,3.3499999046325684 C26.040000915527344,3.3499999046325684 26.040000915527344,3.3499999046325684 26.040000915527344,3.3499999046325684z M21.729999542236328,6.28000020980835 C22.729999542236328,6.28000020980835 23.5,5.510000228881836 23.5,4.5 C23.5,3.490000009536743 22.729999542236328,2.7200000286102295 21.729999542236328,2.7200000286102295 C20.739999771118164,2.7200000286102295 19.969999313354492,3.490000009536743 19.969999313354492,4.5 C19.969999313354492,5.510000228881836 20.739999771118164,6.28000020980835 21.729999542236328,6.28000020980835 C21.729999542236328,6.28000020980835 21.729999542236328,6.28000020980835 21.729999542236328,6.28000020980835z M21.729999542236328,7.130000114440918 C20.270000457763672,7.130000114440918 19.100000381469727,5.980000019073486 19.100000381469727,4.5 C19.100000381469727,3.0199999809265137 20.270000457763672,1.8700000047683716 21.729999542236328,1.8700000047683716 C23.190000534057617,1.8700000047683716 24.3700008392334,3.0199999809265137 24.3700008392334,4.5 C24.3700008392334,5.980000019073486 23.190000534057617,7.130000114440918 21.729999542236328,7.130000114440918 C21.729999542236328,7.130000114440918 21.729999542236328,7.130000114440918 21.729999542236328,7.130000114440918z M17.239999771118164,2.8399999141693115 C17.559999465942383,2.140000104904175 18.170000076293945,1.909999966621399 18.799999237060547,1.909999966621399 C18.799999237060547,1.909999966621399 18.799999237060547,2.819999933242798 18.799999237060547,2.819999933242798 C18.049999237060547,2.7899999618530273 17.239999771118164,3.1700000762939453 17.239999771118164,4.349999904632568 C17.239999771118164,4.349999904632568 17.239999771118164,7 17.239999771118164,7 C17.239999771118164,7 16.3700008392334,7 16.3700008392334,7 C16.3700008392334,7 16.3700008392334,2 16.3700008392334,2 C16.3700008392334,2 17.239999771118164,2 17.239999771118164,2 C17.239999771118164,2 17.239999771118164,2.8399999141693115 17.239999771118164,2.8399999141693115 C17.239999771118164,2.8399999141693115 17.239999771118164,2.8399999141693115 17.239999771118164,2.8399999141693115z M13.25,7.130000114440918 C11.739999771118164,7.130000114440918 10.619999885559082,5.980000019073486 10.619999885559082,4.5 C10.619999885559082,3.0199999809265137 11.739999771118164,1.8700000047683716 13.25,1.8700000047683716 C14.239999771118164,1.8700000047683716 15.079999923706055,2.390000104904175 15.460000038146973,3.180000066757202 C15.460000038146973,3.180000066757202 14.729999542236328,3.5999999046325684 14.729999542236328,3.5999999046325684 C14.479999542236328,3.069999933242798 13.920000076293945,2.7200000286102295 13.25,2.7200000286102295 C12.25,2.7200000286102295 11.489999771118164,3.490000009536743 11.489999771118164,4.5 C11.489999771118164,5.5 12.25,6.269999980926514 13.25,6.269999980926514 C13.930000305175781,6.269999980926514 14.479999542236328,5.920000076293945 14.760000228881836,5.400000095367432 C14.760000228881836,5.400000095367432 15.5,5.829999923706055 15.5,5.829999923706055 C15.079999923706055,6.610000133514404 14.229999542236328,7.130000114440918 13.25,7.130000114440918 C13.25,7.130000114440918 13.25,7.130000114440918 13.25,7.130000114440918z M8.710000038146973,7 C8.710000038146973,7 8.710000038146973,2 8.710000038146973,2 C8.710000038146973,2 9.579999923706055,2 9.579999923706055,2 C9.579999923706055,2 9.579999923706055,7 9.579999923706055,7 C9.579999923706055,7 8.710000038146973,7 8.710000038146973,7 C8.710000038146973,7 8.710000038146973,7 8.710000038146973,7z M9.149999618530273,1.090000033378601 C8.819999694824219,1.090000033378601 8.5600004196167,0.8299999833106995 8.5600004196167,0.5099999904632568 C8.5600004196167,0.1899999976158142 8.819999694824219,-0.07999999821186066 9.149999618530273,-0.07999999821186066 C9.470000267028809,-0.07999999821186066 9.729999542236328,0.1899999976158142 9.729999542236328,0.5099999904632568 C9.729999542236328,0.8299999833106995 9.470000267028809,1.090000033378601 9.149999618530273,1.090000033378601 C9.149999618530273,1.090000033378601 9.149999618530273,1.090000033378601 9.149999618530273,1.090000033378601z M7.300000190734863,0 C7.300000190734863,0 7.300000190734863,7 7.300000190734863,7 C7.300000190734863,7 6.380000114440918,7 6.380000114440918,7 C6.380000114440918,7 6.380000114440918,1.5299999713897705 6.380000114440918,1.5299999713897705 C6.380000114440918,1.5299999713897705 4.090000152587891,5.340000152587891 4.090000152587891,5.340000152587891 C4.090000152587891,5.340000152587891 3.9700000286102295,5.340000152587891 3.9700000286102295,5.340000152587891 C3.9700000286102295,5.340000152587891 1.6799999475479126,1.5399999618530273 1.6799999475479126,1.5399999618530273 C1.6799999475479126,1.5399999618530273 1.6799999475479126,7 1.6799999475479126,7 C1.6799999475479126,7 0.75,7 0.75,7 C0.75,7 0.75,0 0.75,0 C0.75,0 1.7999999523162842,0 1.7999999523162842,0 C1.7999999523162842,0 4.03000020980835,3.700000047683716 4.03000020980835,3.700000047683716 C4.03000020980835,3.700000047683716 6.25,0 6.25,0 C6.25,0 7.300000190734863,0 7.300000190734863,0 C7.300000190734863,0 7.300000190734863,0 7.300000190734863,0z"></path></g></g></g></svg>