<svg xmlns="http://www.w3.org/2000/svg" width="20" height="20" fill="none" viewBox="0 0 20 20" class="outlook-logo"><rect width="12.5" height="17.5" x="6.25" y="1.25" fill="#1066B5" rx="2"></rect><rect width="12.5" height="17.5" x="6.25" y="1.25" fill="url(#outlook_svg__a)" rx="2"></rect><path fill="#32A9E7" d="M6.25 3.125h6.25v6.25H6.25z"></path><path fill="#167EB4" d="M6.25 9.375h6.25v6.25H6.25z"></path><path fill="#32A9E7" d="M12.5 9.375h6.25v6.25H12.5z"></path><path fill="#58D9FD" d="M12.5 3.125h6.25v6.25H12.5z"></path><mask id="outlook_svg__c" width="15" height="11" x="5" y="8" maskUnits="userSpaceOnUse" style="mask-type:alpha"><path fill="url(#outlook_svg__b)" d="M5 8.75h13a2 2 0 0 1 2 2v6a2 2 0 0 1-2 2H7a2 2 0 0 1-2-2v-8Z"></path></mask><g mask="url(#outlook_svg__c)"><path fill="#135298" d="M20 8.75v2.5h-1.25v-2.5H20Z"></path><path fill="url(#outlook_svg__d)" d="M20 18.75V10L4.375 18.75H20Z"></path><path fill="url(#outlook_svg__e)" d="M5 18.75V10l15.625 8.75H5Z"></path></g><path fill="#000" fill-opacity="0.3" d="M5 8.625a3 3 0 0 1 3-3h1.5a3 3 0 0 1 3 3v5.25a3 3 0 0 1-3 3H5v-8.25Z"></path><rect width="11.25" height="11.25" y="4.375" fill="url(#outlook_svg__f)" rx="2"></rect><path fill="#fff" d="M8.75 10.043V9.94c0-1.8-1.295-3.064-3.115-3.064-1.83 0-3.135 1.273-3.135 3.082v.104c0 1.8 1.295 3.064 3.125 3.064 1.82 0 3.125-1.273 3.125-3.082Zm-1.473.018c0 1.194-.673 1.913-1.642 1.913-.97 0-1.652-.736-1.652-1.93v-.105c0-1.194.673-1.913 1.642-1.913.96 0 1.652.736 1.652 1.93v.105Z"></path><defs><linearGradient id="outlook_svg__a" x1="6.25" x2="18.75" y1="10" y2="10" gradientUnits="userSpaceOnUse"><stop stop-color="#064484"></stop><stop offset="1" stop-color="#0F65B5"></stop></linearGradient><linearGradient id="outlook_svg__b" x1="5" x2="20" y1="16.731" y2="16.731" gradientUnits="userSpaceOnUse"><stop stop-color="#1B366F"></stop><stop offset="1" stop-color="#2657B0"></stop></linearGradient><linearGradient id="outlook_svg__d" x1="20" x2="5" y1="14.375" y2="14.375" gradientUnits="userSpaceOnUse"><stop stop-color="#44DCFD"></stop><stop offset="0.453" stop-color="#259ED0"></stop></linearGradient><linearGradient id="outlook_svg__e" x1="5" x2="20" y1="14.375" y2="14.375" gradientUnits="userSpaceOnUse"><stop stop-color="#259ED0"></stop><stop offset="1" stop-color="#44DCFD"></stop></linearGradient><linearGradient id="outlook_svg__f" x1="0" x2="11.25" y1="10" y2="10" gradientUnits="userSpaceOnUse"><stop stop-color="#064484"></stop><stop offset="1" stop-color="#0F65B5"></stop></linearGradient></defs></svg>