<svg xmlns="http://www.w3.org/2000/svg" width="32" height="32" fill="none" viewBox="0 0 32 32" class="sc-95163c4c-4 eeREbd firefox-logo"><path fill="url(#firefox_svg__a)" d="M28.99 10.726c-.608-1.469-1.843-3.055-2.812-3.556.789 1.55 1.245 3.105 1.42 4.264 0 0 0 .009.003.024-1.585-3.96-4.273-5.557-6.468-9.034-.112-.175-.223-.35-.331-.538a4.027 4.027 0 0 1-.154-.293 2.554 2.554 0 0 1-.218-.578.037.037 0 0 0-.023-.013.05.05 0 0 0-.026 0 .027.027 0 0 0-.007.004c-.003 0-.007.004-.01.005l.006-.007c-3.522 2.067-4.716 5.89-4.826 7.804a7.007 7.007 0 0 0-3.861 1.49 4.138 4.138 0 0 0-.363-.275 6.525 6.525 0 0 1-.039-3.434c-1.44.658-2.56 1.696-3.374 2.614H7.9c-.556-.706-.517-3.033-.485-3.519-.007-.03-.414.213-.467.25-.49.35-.949.744-1.37 1.176A12.28 12.28 0 0 0 4.27 8.683a11.872 11.872 0 0 0-1.881 4.257l-.019.093c-.026.123-.121.742-.138.877v.03c-.124.64-.201 1.288-.231 1.94v.071C2 23.71 8.276 30 16.018 30c6.934 0 12.69-5.045 13.818-11.672.024-.18.043-.36.064-.542.279-2.41-.031-4.942-.91-7.06ZM12.834 21.724c.065.03.127.065.194.096l.01.006a9.155 9.155 0 0 1-.204-.102Zm14.769-10.26v-.013.015-.002Z"></path><path fill="url(#firefox_svg__b)" d="M28.99 10.726c-.608-1.469-1.842-3.055-2.811-3.556.788 1.55 1.244 3.105 1.419 4.264v.03c1.323 3.593.602 7.248-.436 9.481-1.607 3.455-5.496 6.997-11.584 6.824-6.572-.187-12.366-5.08-13.448-11.485-.197-1.01 0-1.523.099-2.343-.12.631-.167.814-.227 1.938v.072C2.002 23.71 8.278 30 16.02 30c6.934 0 12.69-5.045 13.818-11.672.024-.18.043-.36.064-.542.277-2.41-.033-4.942-.911-7.06Z"></path><path fill="url(#firefox_svg__c)" d="M28.99 10.726c-.608-1.469-1.842-3.055-2.811-3.556.788 1.55 1.244 3.105 1.419 4.264v.03c1.323 3.593.602 7.248-.436 9.481-1.607 3.455-5.496 6.997-11.584 6.824-6.572-.187-12.366-5.08-13.448-11.485-.197-1.01 0-1.523.099-2.343-.12.631-.167.814-.227 1.938v.072C2.002 23.71 8.278 30 16.02 30c6.934 0 12.69-5.045 13.818-11.672.024-.18.043-.36.064-.542.277-2.41-.033-4.942-.911-7.06Z"></path><path fill="url(#firefox_svg__d)" d="m22.178 12.377.087.065a7.624 7.624 0 0 0-1.302-1.702c-4.357-4.367-1.142-9.47-.6-9.729l.006-.007c-3.522 2.067-4.716 5.89-4.826 7.804.163-.011.326-.025.492-.025 2.628 0 4.917 1.448 6.143 3.594Z"></path><path fill="url(#firefox_svg__e)" d="M16.045 13.25c-.023.35-1.255 1.555-1.686 1.555-3.986 0-4.633 2.416-4.633 2.416.175 2.036 1.59 3.712 3.302 4.599.078.04.157.076.233.113.137.058.275.116.412.169a6.223 6.223 0 0 0 1.824.35c6.987.329 8.341-8.372 3.299-10.899 1.29-.225 2.63.296 3.38.823C20.95 10.23 18.66 8.78 16.032 8.78c-.166 0-.329.014-.492.025a7.007 7.007 0 0 0-3.858 1.492c.214.182.456.424.964.925.953.943 3.392 1.913 3.398 2.027Z"></path><path fill="url(#firefox_svg__f)" d="M16.045 13.25c-.023.35-1.255 1.555-1.686 1.555-3.986 0-4.633 2.416-4.633 2.416.175 2.036 1.59 3.712 3.302 4.599.078.04.157.076.233.113.137.058.275.116.412.169a6.223 6.223 0 0 0 1.824.35c6.987.329 8.341-8.372 3.299-10.899 1.29-.225 2.63.296 3.38.823C20.95 10.23 18.66 8.78 16.032 8.78c-.166 0-.329.014-.492.025a7.007 7.007 0 0 0-3.858 1.492c.214.182.456.424.964.925.953.943 3.392 1.913 3.398 2.027Z"></path><path fill="url(#firefox_svg__g)" d="m11.031 9.83.292.193a6.526 6.526 0 0 1-.04-3.434c-1.44.658-2.56 1.696-3.374 2.614.066-.002 2.1-.039 3.122.628Z"></path><path fill="url(#firefox_svg__h)" d="M2.13 16.284C3.212 22.69 9.006 27.582 15.583 27.77c6.088.173 9.974-3.369 11.583-6.824 1.038-2.233 1.76-5.888.436-9.482v-.027l.003.024c.497 3.254-1.154 6.407-3.736 8.539a.58.58 0 0 0-.007.018c-5.031 4.105-9.845 2.477-10.82 1.812a8.042 8.042 0 0 1-.204-.102c-2.933-1.403-4.145-4.083-3.885-6.38-2.476 0-3.321-2.094-3.321-2.094s2.224-1.589 5.154-.207c2.714 1.28 5.263.208 5.263.207-.005-.114-2.444-1.087-3.396-2.026-.508-.502-.75-.744-.963-.925a4.138 4.138 0 0 0-.363-.275c-.084-.059-.175-.117-.292-.193-1.022-.666-3.056-.63-3.123-.627h-.006c-.556-.706-.517-3.033-.486-3.52-.006-.03-.414.213-.466.25-.49.35-.95.744-1.37 1.176-.48.487-.918 1.013-1.31 1.573a11.872 11.872 0 0 0-1.88 4.257c-.012.027-.51 2.21-.264 3.341Z"></path><path fill="url(#firefox_svg__i)" d="M20.963 10.74c.512.503.95 1.076 1.302 1.702.073.055.143.114.21.176 3.178 2.932 1.516 7.083 1.39 7.381 2.581-2.132 4.232-5.284 3.735-8.539-1.585-3.962-4.272-5.56-6.468-9.036-.11-.175-.222-.35-.33-.538a4.108 4.108 0 0 1-.154-.293 2.565 2.565 0 0 1-.218-.578.037.037 0 0 0-.023-.013.05.05 0 0 0-.026 0 .028.028 0 0 0-.007.004c-.003 0-.007.004-.01.005-.543.26-3.758 5.362.6 9.729Z"></path><path fill="url(#firefox_svg__j)" d="M22.474 12.615a2.704 2.704 0 0 0-.21-.176l-.087-.065c-.749-.526-2.089-1.047-3.38-.822 5.042 2.527 3.688 11.228-3.299 10.9a6.225 6.225 0 0 1-1.824-.352 7.712 7.712 0 0 1-.411-.169 4.089 4.089 0 0 1-.234-.112l.01.005c.974.667 5.788 2.296 10.82-1.812l.007-.018c.125-.293 1.787-4.444-1.392-7.38Z"></path><path fill="url(#firefox_svg__k)" d="M9.725 17.221s.647-2.416 4.634-2.416c.43 0 1.663-1.206 1.685-1.555.023-.35-2.549 1.073-5.263-.207-2.93-1.382-5.154.207-5.154.207s.845 2.094 3.32 2.094c-.259 2.296.953 4.975 3.886 6.38.066.03.127.065.194.096-1.712-.885-3.125-2.563-3.302-4.599Z"></path><path fill="url(#firefox_svg__l)" d="M28.99 10.726c-.608-1.469-1.843-3.055-2.812-3.556.789 1.55 1.245 3.105 1.42 4.264 0 0 0 .009.003.024-1.585-3.96-4.273-5.557-6.468-9.034-.112-.175-.223-.35-.331-.538a4.027 4.027 0 0 1-.154-.293 2.554 2.554 0 0 1-.218-.578.037.037 0 0 0-.023-.013.05.05 0 0 0-.026 0 .027.027 0 0 0-.007.004c-.003 0-.007.004-.01.005l.006-.007c-3.522 2.067-4.716 5.89-4.826 7.804.163-.011.326-.025.492-.025 2.628 0 4.917 1.448 6.143 3.594-.749-.526-2.09-1.047-3.38-.822 5.042 2.527 3.688 11.228-3.299 10.899a6.224 6.224 0 0 1-1.824-.35 7.678 7.678 0 0 1-.412-.17 4.089 4.089 0 0 1-.233-.113l.01.006a8.042 8.042 0 0 1-.204-.101c.065.03.127.065.194.096-1.716-.887-3.129-2.565-3.306-4.6 0 0 .647-2.417 4.634-2.417.43 0 1.663-1.206 1.685-1.555-.005-.114-2.444-1.087-3.396-2.027-.508-.501-.75-.743-.963-.925a4.154 4.154 0 0 0-.363-.275 6.526 6.526 0 0 1-.04-3.434c-1.44.658-2.56 1.696-3.374 2.614h-.006c-.556-.706-.517-3.033-.485-3.519-.007-.03-.414.213-.467.25-.49.35-.95.744-1.37 1.176a12.28 12.28 0 0 0-1.31 1.573 11.872 11.872 0 0 0-1.88 4.257l-.019.093c-.026.123-.145.75-.162.885 0 .01 0-.01 0 0-.109.65-.179 1.304-.209 1.961v.072C2 23.71 8.276 30 16.018 30c6.934 0 12.69-5.045 13.818-11.672.024-.18.043-.36.064-.542.279-2.41-.031-4.942-.91-7.06Zm-1.39.722v.015-.015Z"></path><defs><radialGradient id="firefox_svg__b" cx="0" cy="0" r="1" gradientTransform="matrix(29.2246 0 0 29.2888 26.06 4.219)" gradientUnits="userSpaceOnUse"><stop offset="0.13" stop-color="#FFBD4F"></stop><stop offset="0.19" stop-color="#FFAC31"></stop><stop offset="0.25" stop-color="#FF9D17"></stop><stop offset="0.28" stop-color="#FF980E"></stop><stop offset="0.4" stop-color="#FF563B"></stop><stop offset="0.47" stop-color="#FF3750"></stop><stop offset="0.71" stop-color="#F5156C"></stop><stop offset="0.78" stop-color="#EB0878"></stop><stop offset="0.86" stop-color="#E50080"></stop></radialGradient><radialGradient id="firefox_svg__c" cx="0" cy="0" r="1" gradientTransform="matrix(29.2246 0 0 29.2888 15.38 16.192)" gradientUnits="userSpaceOnUse"><stop offset="0.3" stop-color="#960E18"></stop><stop offset="0.35" stop-color="#B11927" stop-opacity="0.74"></stop><stop offset="0.43" stop-color="#DB293D" stop-opacity="0.34"></stop><stop offset="0.5" stop-color="#F5334B" stop-opacity="0.09"></stop><stop offset="0.53" stop-color="#FF3750" stop-opacity="0"></stop></radialGradient><radialGradient id="firefox_svg__d" cx="0" cy="0" r="1" gradientTransform="matrix(21.172 0 0 21.2184 18.904 -2.428)" gradientUnits="userSpaceOnUse"><stop offset="0.13" stop-color="#FFF44F"></stop><stop offset="0.25" stop-color="#FFDC3E"></stop><stop offset="0.51" stop-color="#FF9D12"></stop><stop offset="0.53" stop-color="#FF980E"></stop></radialGradient><radialGradient id="firefox_svg__e" cx="0" cy="0" r="1" gradientTransform="matrix(13.915 0 0 13.9455 12.149 23.843)" gradientUnits="userSpaceOnUse"><stop offset="0.35" stop-color="#3A8EE6"></stop><stop offset="0.47" stop-color="#5C79F0"></stop><stop offset="0.67" stop-color="#9059FF"></stop><stop offset="1" stop-color="#C139E6"></stop></radialGradient><radialGradient id="firefox_svg__f" cx="0" cy="0" r="1" gradientTransform="matrix(7.15643 -1.77455 2.08872 8.42342 15.8 12.712)" gradientUnits="userSpaceOnUse"><stop offset="0.21" stop-color="#9059FF" stop-opacity="0"></stop><stop offset="0.28" stop-color="#8C4FF3" stop-opacity="0.06"></stop><stop offset="0.75" stop-color="#7716A8" stop-opacity="0.45"></stop><stop offset="0.97" stop-color="#6E008B" stop-opacity="0.6"></stop></radialGradient><radialGradient id="firefox_svg__g" cx="0" cy="0" r="1" gradientTransform="matrix(10.0108 0 0 10.0328 15.011 3.02)" gradientUnits="userSpaceOnUse"><stop stop-color="#FFE226"></stop><stop offset="0.12" stop-color="#FFDB27"></stop><stop offset="0.3" stop-color="#FFC82A"></stop><stop offset="0.5" stop-color="#FFA930"></stop><stop offset="0.73" stop-color="#FF7E37"></stop><stop offset="0.79" stop-color="#FF7139"></stop></radialGradient><radialGradient id="firefox_svg__h" cx="0" cy="0" r="1" gradientTransform="matrix(42.7109 0 0 42.8046 22.88 -3.343)" gradientUnits="userSpaceOnUse"><stop offset="0.11" stop-color="#FFF44F"></stop><stop offset="0.46" stop-color="#FF980E"></stop><stop offset="0.62" stop-color="#FF5634"></stop><stop offset="0.72" stop-color="#FF3647"></stop><stop offset="0.9" stop-color="#E31587"></stop></radialGradient><radialGradient id="firefox_svg__i" cx="0" cy="0" r="1" gradientTransform="rotate(84.245 8.638 11.035) scale(31.1996 20.4543)" gradientUnits="userSpaceOnUse"><stop stop-color="#FFF44F"></stop><stop offset="0.06" stop-color="#FFE847"></stop><stop offset="0.17" stop-color="#FFC830"></stop><stop offset="0.3" stop-color="#FF980E"></stop><stop offset="0.36" stop-color="#FF8B16"></stop><stop offset="0.45" stop-color="#FF672A"></stop><stop offset="0.57" stop-color="#FF3647"></stop><stop offset="0.74" stop-color="#E31587"></stop></radialGradient><radialGradient id="firefox_svg__j" cx="0" cy="0" r="1" gradientTransform="matrix(26.6644 0 0 26.723 14.776 6.736)" gradientUnits="userSpaceOnUse"><stop offset="0.14" stop-color="#FFF44F"></stop><stop offset="0.48" stop-color="#FF980E"></stop><stop offset="0.59" stop-color="#FF5634"></stop><stop offset="0.66" stop-color="#FF3647"></stop><stop offset="0.9" stop-color="#E31587"></stop></radialGradient><radialGradient id="firefox_svg__k" cx="0" cy="0" r="1" gradientTransform="matrix(29.1844 0 0 29.2484 21.814 8.3)" gradientUnits="userSpaceOnUse"><stop offset="0.09" stop-color="#FFF44F"></stop><stop offset="0.23" stop-color="#FFE141"></stop><stop offset="0.51" stop-color="#FFAF1E"></stop><stop offset="0.63" stop-color="#FF980E"></stop></radialGradient><linearGradient id="firefox_svg__a" x1="27.135" x2="3.814" y1="5.493" y2="27.944" gradientUnits="userSpaceOnUse"><stop offset="0.05" stop-color="#FFF44F"></stop><stop offset="0.11" stop-color="#FFE847"></stop><stop offset="0.22" stop-color="#FFC830"></stop><stop offset="0.37" stop-color="#FF980E"></stop><stop offset="0.4" stop-color="#FF8B16"></stop><stop offset="0.46" stop-color="#FF672A"></stop><stop offset="0.53" stop-color="#FF3647"></stop><stop offset="0.7" stop-color="#E31587"></stop></linearGradient><linearGradient id="firefox_svg__l" x1="26.855" x2="7.01" y1="5.372" y2="25.174" gradientUnits="userSpaceOnUse"><stop offset="0.17" stop-color="#FFF44F" stop-opacity="0.8"></stop><stop offset="0.27" stop-color="#FFF44F" stop-opacity="0.63"></stop><stop offset="0.49" stop-color="#FFF44F" stop-opacity="0.22"></stop><stop offset="0.6" stop-color="#FFF44F" stop-opacity="0"></stop></linearGradient></defs></svg>