<svg xmlns="http://www.w3.org/2000/svg" width="32" height="32" fill="none" viewBox="0 0 32 32" class="sc-95163c4c-2 irMTTD edge-logo"><g clip-path="url(#clip0_30013_20141)"><path fill="url(#edge_svg__a)" d="M28.882 23.814c-.426.223-.866.42-1.317.589a12.73 12.73 0 0 1-4.488.807c-5.914 0-11.066-4.069-11.066-9.289a3.934 3.934 0 0 1 2.053-3.413c-5.35.225-6.724 5.799-6.724 9.065 0 9.234 8.51 10.17 10.344 10.17.99 0 2.48-.287 3.375-.57l.163-.054a16.04 16.04 0 0 0 8.325-6.6.5.5 0 0 0-.665-.705Z"></path><path fill="url(#edge_svg__b)" d="M28.882 23.814c-.426.223-.866.42-1.317.589a12.73 12.73 0 0 1-4.488.807c-5.914 0-11.066-4.069-11.066-9.289a3.934 3.934 0 0 1 2.053-3.413c-5.35.225-6.724 5.799-6.724 9.065 0 9.234 8.51 10.17 10.344 10.17.99 0 2.48-.287 3.375-.57l.163-.054a16.04 16.04 0 0 0 8.325-6.6.5.5 0 0 0-.665-.705Z" opacity="0.35"></path><path fill="url(#edge_svg__c)" d="M13.215 30.174a9.903 9.903 0 0 1-2.842-2.668c-3.286-4.5-2.3-10.812 2.201-14.098.47-.342.968-.644 1.49-.901.39-.184 1.056-.516 1.942-.5 1.265.01 2.454.61 3.211 1.625.505.675.783 1.49.795 2.333 0-.027 3.057-9.95-10-9.95-5.486 0-9.999 5.207-9.999 9.776a16.268 16.268 0 0 0 1.514 7c3.444 7.349 11.847 10.954 19.546 8.388a9.444 9.444 0 0 1-7.847-1l-.011-.005Z"></path><path fill="url(#edge_svg__d)" d="M13.215 30.174a9.903 9.903 0 0 1-2.842-2.668c-3.286-4.5-2.3-10.812 2.201-14.098.47-.342.968-.644 1.49-.901.39-.184 1.056-.516 1.942-.5 1.265.01 2.454.61 3.211 1.625.505.675.783 1.49.795 2.333 0-.027 3.057-9.95-10-9.95-5.486 0-9.999 5.207-9.999 9.776a16.268 16.268 0 0 0 1.514 7c3.444 7.349 11.847 10.954 19.546 8.388a9.444 9.444 0 0 1-7.847-1l-.011-.005Z" opacity="0.41"></path><path fill="url(#edge_svg__e)" d="M19.04 18.604c-.102.132-.413.313-.413.708 0 .326.213.64.59.903 1.798 1.25 5.187 1.085 5.195 1.085a7.447 7.447 0 0 0 3.784-1.044 7.673 7.673 0 0 0 3.803-6.609c.033-2.801-1-4.664-1.417-5.488C27.933 2.977 22.216-.002 16-.002 7.249-.002.123 7.024 0 15.772c.06-4.567 4.6-8.256 10-8.256.437 0 2.932.043 5.25 1.259 2.042 1.073 3.112 2.367 3.856 3.65.772 1.334.91 3.02.91 3.69 0 .671-.342 1.666-.975 2.489h-.001Z"></path><path fill="url(#edge_svg__f)" d="M19.04 18.604c-.102.132-.413.313-.413.708 0 .326.213.64.59.903 1.798 1.25 5.187 1.085 5.195 1.085a7.447 7.447 0 0 0 3.784-1.044 7.673 7.673 0 0 0 3.803-6.609c.033-2.801-1-4.664-1.417-5.488C27.933 2.977 22.216-.002 16-.002 7.249-.002.123 7.024 0 15.772c.06-4.567 4.6-8.256 10-8.256.437 0 2.932.043 5.25 1.259 2.042 1.073 3.112 2.367 3.856 3.65.772 1.334.91 3.02.91 3.69 0 .671-.342 1.666-.975 2.489h-.001Z"></path></g><defs><radialGradient id="edge_svg__b" cx="0" cy="0" r="1" gradientTransform="matrix(11.9215 0 0 11.3254 19.652 22.303)" gradientUnits="userSpaceOnUse"><stop offset="0.72" stop-opacity="0"></stop><stop offset="0.95" stop-opacity="0.53"></stop><stop offset="1"></stop></radialGradient><radialGradient id="edge_svg__d" cx="0" cy="0" r="1" gradientTransform="matrix(2.68346 -17.70176 14.33848 2.17361 8.857 24.88)" gradientUnits="userSpaceOnUse"><stop offset="0.76" stop-opacity="0"></stop><stop offset="0.95" stop-opacity="0.5"></stop><stop offset="1"></stop></radialGradient><radialGradient id="edge_svg__e" cx="0" cy="0" r="1" gradientTransform="matrix(-1.011 25.2818 -53.85026 -2.15344 3.226 5.933)" gradientUnits="userSpaceOnUse"><stop stop-color="#35C1F1"></stop><stop offset="0.11" stop-color="#34C1ED"></stop><stop offset="0.23" stop-color="#2FC2DF"></stop><stop offset="0.31" stop-color="#2BC3D2"></stop><stop offset="0.67" stop-color="#36C752"></stop></radialGradient><radialGradient id="edge_svg__f" cx="0" cy="0" r="1" gradientTransform="rotate(73.74 8.49 24.841) scale(12.1667 9.85504)" gradientUnits="userSpaceOnUse"><stop stop-color="#66EB6E"></stop><stop offset="1" stop-color="#66EB6E" stop-opacity="0"></stop></radialGradient><linearGradient id="edge_svg__a" x1="7.34" x2="29.625" y1="22.125" y2="22.125" gradientUnits="userSpaceOnUse"><stop stop-color="#0C59A4"></stop><stop offset="1" stop-color="#114A8B"></stop></linearGradient><linearGradient id="edge_svg__c" x1="19.099" x2="5.175" y1="12.465" y2="27.631" gradientUnits="userSpaceOnUse"><stop stop-color="#1B9DE2"></stop><stop offset="0.16" stop-color="#1595DF"></stop><stop offset="0.67" stop-color="#0680D7"></stop><stop offset="1" stop-color="#0078D4"></stop></linearGradient></defs></svg>