<svg xmlns="http://www.w3.org/2000/svg" width="24" height="24" fill="none" stroke="currentColor" viewBox="0 0 24 24"><path stroke-linecap="round" stroke-linejoin="round" stroke-width="1.825" d="M22.54 7.514a2.641 2.641 0 0 0-.702-1.21 2.805 2.805 0 0 0-1.238-.71c-1.72-.403-8.6-.403-8.6-.403s-6.88 0-8.6.442c-.47.128-.898.373-1.238.71-.34.337-.583.754-.701 1.21A26.756 26.756 0 0 0 1 12.63a26.756 26.756 0 0 0 .46 5.117c.13.441.378.842.718 1.165.34.323.76.556 1.221.678 1.72.441 8.6.441 8.6.441s6.88 0 8.6-.441c.47-.128.897-.373 1.238-.71.34-.337.583-.755.701-1.21.313-1.663.467-3.35.46-5.04a26.75 26.75 0 0 0-.46-5.117v0Z"></path><path stroke="#0B3558" stroke-linecap="round" stroke-linejoin="round" stroke-width="1.825" d="m9.75 15.77 5.75-3.139-5.75-3.14v6.279Z"></path></svg>