<svg xmlns="http://www.w3.org/2000/svg" width="24" height="24" fill="currentColor" viewBox="0 0 24 24"><g clip-path="url(#instagram_svg__a)"><path d="M12 3.833c2.667 0 3 0 4.083.084 2.75.083 4 1.416 4.084 4.083.083 1.083.083 1.333.083 4s0 3-.083 4c-.084 2.667-1.417 4-4.084 4.083-1.083.084-1.333.084-4.083.084-2.667 0-3 0-4-.084C5.25 20 4 18.667 3.917 16c-.084-1.083-.084-1.333-.084-4s0-3 .084-4C4 5.333 5.333 4 8 3.917c1-.084 1.333-.084 4-.084ZM12 2c-2.75 0-3.083 0-4.083.083C4.25 2.25 2.25 4.25 2.083 7.917 2 8.917 2 9.25 2 12s0 3.083.083 4.083c.167 3.667 2.167 5.667 5.834 5.834C8.917 22 9.25 22 12 22s3.083 0 4.083-.083c3.667-.167 5.667-2.167 5.834-5.834C22 15.083 22 14.75 22 12s0-3.083-.083-4.083C21.75 4.25 19.75 2.25 16.083 2.083 15.083 2 14.75 2 12 2Zm0 4.833c-2.833 0-5.167 2.334-5.167 5.167 0 2.833 2.334 5.167 5.167 5.167 2.833 0 5.167-2.334 5.167-5.167 0-2.833-2.334-5.167-5.167-5.167Zm0 8.5A3.343 3.343 0 0 1 8.667 12c0-1.833 1.5-3.333 3.333-3.333 1.833 0 3.333 1.5 3.333 3.333 0 1.833-1.5 3.333-3.333 3.333ZM17.333 5.5c-.666 0-1.166.5-1.166 1.167 0 .666.5 1.166 1.166 1.166.667 0 1.167-.5 1.167-1.166C18.5 6 18 5.5 17.333 5.5Z"></path></g><defs><clipPath id="instagram_svg__a"><path fill="#fff" d="M2 2h20v20H2z"></path></clipPath></defs></svg>