<svg xmlns="http://www.w3.org/2000/svg" xmlns:xlink="http://www.w3.org/1999/xlink" viewBox="0 0 282 232" width="282" height="232" preserveAspectRatio="xMidYMid meet" style="width: 100%; height: 100%; transform: translate3d(0px, 0px, 0px); content-visibility: visible;"><defs><clipPath id="__lottie_element_2"><rect width="282" height="232" x="0" y="0"></rect></clipPath><filter id="__lottie_element_14" x="-50%" y="-50%" width="200%" height="200%"><feGaussianBlur in="SourceAlpha" result="filter_result_0_drop_shadow_1" stdDeviation="4"></feGaussianBlur><feOffset dx="1.8369701987210297e-16" dy="3" in="filter_result_0_drop_shadow_1" result="filter_result_0_drop_shadow_2"></feOffset><feFlood flood-color="#476788" flood-opacity="0.15058823529411763" result="filter_result_0_drop_shadow_3"></feFlood><feComposite in="filter_result_0_drop_shadow_3" in2="filter_result_0_drop_shadow_2" operator="in" result="filter_result_0_drop_shadow_4"></feComposite><feMerge result="filter_result_0"><feMergeNode in="filter_result_0_drop_shadow_4"></feMergeNode><feMergeNode in="SourceGraphic"></feMergeNode></feMerge></filter><filter id="__lottie_element_26" x="-50%" y="-50%" width="200%" height="200%"><feGaussianBlur in="SourceAlpha" result="filter_result_0_drop_shadow_1" stdDeviation="4"></feGaussianBlur><feOffset dx="1.8369701987210297e-16" dy="3" in="filter_result_0_drop_shadow_1" result="filter_result_0_drop_shadow_2"></feOffset><feFlood flood-color="#476788" flood-opacity="0.15058823529411763" result="filter_result_0_drop_shadow_3"></feFlood><feComposite in="filter_result_0_drop_shadow_3" in2="filter_result_0_drop_shadow_2" operator="in" result="filter_result_0_drop_shadow_4"></feComposite><feMerge result="filter_result_0"><feMergeNode in="filter_result_0_drop_shadow_4"></feMergeNode><feMergeNode in="SourceGraphic"></feMergeNode></feMerge></filter><filter id="__lottie_element_32" x="-50%" y="-50%" width="200%" height="200%"><feGaussianBlur in="SourceAlpha" result="filter_result_0_drop_shadow_1" stdDeviation="2.5"></feGaussianBlur><feOffset dx="2.4492935982947064e-16" dy="4" in="filter_result_0_drop_shadow_1" result="filter_result_0_drop_shadow_2"></feOffset><feFlood flood-color="#476788" flood-opacity="0.04015686274509804" result="filter_result_0_drop_shadow_3"></feFlood><feComposite in="filter_result_0_drop_shadow_3" in2="filter_result_0_drop_shadow_2" operator="in" result="filter_result_0_drop_shadow_4"></feComposite><feMerge result="filter_result_0"><feMergeNode in="filter_result_0_drop_shadow_4"></feMergeNode><feMergeNode in="SourceGraphic"></feMergeNode></feMerge><feGaussianBlur in="SourceAlpha" result="filter_result_1_drop_shadow_1" stdDeviation="7.5"></feGaussianBlur><feOffset dx="4.898587196589413e-16" dy="8" in="filter_result_1_drop_shadow_1" result="filter_result_1_drop_shadow_2"></feOffset><feFlood flood-color="#476788" flood-opacity="0.030117647058823527" result="filter_result_1_drop_shadow_3"></feFlood><feComposite in="filter_result_1_drop_shadow_3" in2="filter_result_1_drop_shadow_2" operator="in" result="filter_result_1_drop_shadow_4"></feComposite><feMerge result="filter_result_1"><feMergeNode in="filter_result_1_drop_shadow_4"></feMergeNode><feMergeNode in="filter_result_0"></feMergeNode></feMerge><feGaussianBlur in="SourceAlpha" result="filter_result_2_drop_shadow_1" stdDeviation="25"></feGaussianBlur><feOffset dx="1.83697019872103e-15" dy="30" in="filter_result_2_drop_shadow_1" result="filter_result_2_drop_shadow_2"></feOffset><feFlood flood-color="#476788" flood-opacity="0.08031372549019608" result="filter_result_2_drop_shadow_3"></feFlood><feComposite in="filter_result_2_drop_shadow_3" in2="filter_result_2_drop_shadow_2" operator="in" result="filter_result_2_drop_shadow_4"></feComposite><feMerge result="filter_result_2"><feMergeNode in="filter_result_2_drop_shadow_4"></feMergeNode><feMergeNode in="filter_result_1"></feMergeNode></feMerge></filter></defs><g clip-path="url(#__lottie_element_2)"><g transform="matrix(1,0,0,1,0,0)" opacity="1" style="display: block;"><path fill="rgb(255,255,255)" fill-opacity="1" d=" M282,0 C282,0 282,232 282,232 C282,232 0,232 0,232 C0,232 0,0 0,0 C0,0 282,0 282,0z"></path></g><g transform="matrix(1,0,0,1,-44,-42)" opacity="1" style="display: block;"><path fill="rgb(255,255,255)" fill-opacity="0" d=" M370,0 C370,0 370,320 370,320 C370,320 0,320 0,320 C0,320 0,0 0,0 C0,0 370,0 370,0z"></path></g><g transform="matrix(-0.9396926164627075,-0.3420201539993286,0.3420201539993286,-0.9396926164627075,360.0457458496094,349.345703125)" opacity="1" style="mix-blend-mode: multiply; display: block;"><path fill="rgb(231,237,246)" fill-opacity="1" d=" M217.0800018310547,52.40999984741211 C204.41000366210938,52.40999984741211 192.72000122070312,45.65999984741211 186.38999938964844,34.68000030517578 C186.38999938964844,34.68000030517578 176.61000061035156,17.729999542236328 176.61000061035156,17.729999542236328 C170.27999877929688,6.769999980926514 158.5800018310547,0 145.91000366210938,0 C145.91000366210938,0 72.2699966430664,0 72.2699966430664,0 C59.599998474121094,0 47.90999984741211,6.760000228881836 41.58000183105469,17.729999542236328 C41.58000183105469,17.729999542236328 4.75,81.51000213623047 4.75,81.51000213623047 C-1.5800000429153442,92.47000122070312 -1.5800000429153442,105.98999786376953 4.75,116.94000244140625 C4.75,116.94000244140625 41.58000183105469,180.72000122070312 41.58000183105469,180.72000122070312 C47.90999984741211,191.67999267578125 59.599998474121094,198.4499969482422 72.2699966430664,198.4499969482422 C84.94000244140625,198.4499969482422 96.63999938964844,205.1999969482422 102.97000122070312,216.1699981689453 C102.97000122070312,216.1699981689453 112.75,233.1199951171875 112.75,233.1199951171875 C119.08000183105469,244.0800018310547 130.77000427246094,250.85000610351562 143.44000244140625,250.85000610351562 C143.44000244140625,250.85000610351562 217.0800018310547,250.85000610351562 217.0800018310547,250.85000610351562 C229.75,250.85000610351562 241.44000244140625,244.08999633789062 247.77000427246094,233.1199951171875 C247.77000427246094,233.1199951171875 284.5799865722656,169.35000610351562 284.5799865722656,169.35000610351562 C290.9100036621094,158.3800048828125 290.9100036621094,144.8699951171875 284.5799865722656,133.91000366210938 C284.5799865722656,133.91000366210938 247.77000427246094,70.12999725341797 247.77000427246094,70.12999725341797 C241.44000244140625,59.150001525878906 229.75,52.40999984741211 217.0800018310547,52.40999984741211 C217.0800018310547,52.40999984741211 217.0800018310547,52.40999984741211 217.0800018310547,52.40999984741211z"></path></g><g transform="matrix(0.3420201539993286,-0.9396926164627075,0.9396926164627075,0.3420201539993286,-68.8974609375,147.25979614257812)" opacity="1" style="mix-blend-mode: multiply; display: block;"><path fill="rgb(231,237,246)" fill-opacity="1" d=" M139.35000610351562,33.63999938964844 C131.22000122070312,33.63999938964844 123.72000122070312,29.309999465942383 119.6500015258789,22.260000228881836 C119.6500015258789,22.260000228881836 113.37000274658203,11.380000114440918 113.37000274658203,11.380000114440918 C109.30000305175781,4.349999904632568 101.80000305175781,0 93.66999816894531,0 C93.66999816894531,0 46.400001525878906,0 46.400001525878906,0 C38.27000045776367,0 30.760000228881836,4.329999923706055 26.690000534057617,11.380000114440918 C26.690000534057617,11.380000114440918 3.049999952316284,52.31999969482422 3.049999952316284,52.31999969482422 C-1.0199999809265137,59.349998474121094 -1.0199999809265137,68.04000091552734 3.049999952316284,75.06999969482422 C3.049999952316284,75.06999969482422 26.690000534057617,116.01000213623047 26.690000534057617,116.01000213623047 C30.760000228881836,123.04000091552734 38.27000045776367,127.38999938964844 46.400001525878906,127.38999938964844 C54.529998779296875,127.38999938964844 62.029998779296875,131.72000122070312 66.0999984741211,138.77000427246094 C66.0999984741211,138.77000427246094 72.37999725341797,149.64999389648438 72.37999725341797,149.64999389648438 C76.44999694824219,156.67999267578125 83.94999694824219,161.02999877929688 92.08000183105469,161.02999877929688 C92.08000183105469,161.02999877929688 139.35000610351562,161.02999877929688 139.35000610351562,161.02999877929688 C147.47999572753906,161.02999877929688 154.99000549316406,156.69000244140625 159.05999755859375,149.64999389648438 C159.05999755859375,149.64999389648438 182.67999267578125,108.70999908447266 182.67999267578125,108.70999908447266 C186.75,101.66000366210938 186.75,92.98999786376953 182.67999267578125,85.95999908447266 C182.67999267578125,85.95999908447266 159.05999755859375,45.02000045776367 159.05999755859375,45.02000045776367 C154.99000549316406,37.970001220703125 147.47999572753906,33.63999938964844 139.35000610351562,33.63999938964844 C139.35000610351562,33.63999938964844 139.35000610351562,33.63999938964844 139.35000610351562,33.63999938964844z"></path></g><g filter="url(#__lottie_element_32)" transform="matrix(1,0,0,1,17,23)" opacity="1" style="display: block;"><path fill="rgb(211,224,237)" fill-opacity="0.25" d=" M248,24 C248,24 248,162 248,162 C248,175.25 237.25,186 224,186 C224,186 24,186 24,186 C10.75,186 0,175.25 0,162 C0,162 0,24 0,24 C0,10.75 10.75,0 24,0 C24,0 224,0 224,0 C237.25,0 248,10.75 248,24z"></path></g><g transform="matrix(1,0,0,1,25,31)" opacity="1" style="display: block;"><path fill="rgb(249,249,249)" fill-opacity="0.75" d=" M232,16 C232,16 232,154 232,154 C232,162.8300018310547 224.8300018310547,170 216,170 C216,170 16,170 16,170 C7.170000076293945,170 0,162.8300018310547 0,154 C0,154 0,16 0,16 C0,7.170000076293945 7.170000076293945,0 16,0 C16,0 216,0 216,0 C224.8300018310547,0 232,7.170000076293945 232,16z"></path></g><g filter="url(#__lottie_element_26)" transform="matrix(1,0,0,1,41,46)" opacity="1" style="display: block;"><path fill="rgb(255,255,255)" fill-opacity="1" d=" M200,8 C200,8 200,55 200,55 C200,59.41999816894531 196.4199981689453,63 192,63 C192,63 8,63 8,63 C3.5799999237060547,63 0,59.41999816894531 0,55 C0,55 0,8 0,8 C0,3.5799999237060547 3.5799999237060547,0 8,0 C8,0 192,0 192,0 C196.4199981689453,0 200,3.5799999237060547 200,8z"></path></g><g transform="matrix(1,0,0,1,41,46)" opacity="1" style="display: block;"><path fill="rgb(130,71,245)" fill-opacity="1" d=" M0,8 C0,3.5799999237060547 3.5799999237060547,0 8,0 C8,0 8,0 8,0 C8,0 8,63 8,63 C8,63 8,63 8,63 C3.5799999237060547,63 0,59.41999816894531 0,55 C0,55 0,8 0,8 C0,8 0,8 0,8z"></path></g><g transform="matrix(1,0,0,1,63.839996337890625,56)" opacity="1" style="display: block;"><path fill="rgb(10,53,87)" fill-opacity="1" d=" M99.12000274658203,16 C99.12000274658203,16 99.12000274658203,4.320000171661377 99.12000274658203,4.320000171661377 C99.12000274658203,4.320000171661377 101.18000030517578,4.320000171661377 101.18000030517578,4.320000171661377 C101.18000030517578,4.320000171661377 101.18000030517578,16 101.18000030517578,16 C101.18000030517578,16 99.12000274658203,16 99.12000274658203,16 C99.12000274658203,16 99.12000274658203,16 99.12000274658203,16z M95.16000366210938,16 C95.16000366210938,16 95.16000366210938,4.320000171661377 95.16000366210938,4.320000171661377 C95.16000366210938,4.320000171661377 97.2300033569336,4.320000171661377 97.2300033569336,4.320000171661377 C97.2300033569336,4.320000171661377 97.2300033569336,16 97.2300033569336,16 C97.2300033569336,16 95.16000366210938,16 95.16000366210938,16 C95.16000366210938,16 95.16000366210938,16 95.16000366210938,16z M89,14.260000228881836 C90.27999877929688,14.260000228881836 91.2300033569336,13.34000015258789 91.2300033569336,12 C91.2300033569336,10.65999984741211 90.27999877929688,9.739999771118164 89,9.739999771118164 C87.73999786376953,9.739999771118164 86.80000305175781,10.65999984741211 86.80000305175781,12 C86.80000305175781,13.34000015258789 87.73999786376953,14.260000228881836 89,14.260000228881836 C89,14.260000228881836 89,14.260000228881836 89,14.260000228881836z M91.2300033569336,8 C91.2300033569336,8 93.29000091552734,8 93.29000091552734,8 C93.29000091552734,8 93.29000091552734,16 93.29000091552734,16 C93.29000091552734,16 91.2300033569336,16 91.2300033569336,16 C91.2300033569336,16 91.2300033569336,15.0600004196167 91.2300033569336,15.0600004196167 C90.6500015258789,15.779999732971191 89.79000091552734,16.219999313354492 88.62000274658203,16.219999313354492 C86.48999786376953,16.219999313354492 84.7300033569336,14.380000114440918 84.7300033569336,12 C84.7300033569336,9.619999885559082 86.48999786376953,7.78000020980835 88.62000274658203,7.78000020980835 C89.79000091552734,7.78000020980835 90.6500015258789,8.220000267028809 91.2300033569336,8.9399995803833 C91.2300033569336,8.9399995803833 91.2300033569336,8 91.2300033569336,8 C91.2300033569336,8 91.2300033569336,8 91.2300033569336,8z M80.55999755859375,16.219999313354492 C78.12999725341797,16.219999313354492 76.33999633789062,14.380000114440918 76.33999633789062,12 C76.33999633789062,9.619999885559082 78.12999725341797,7.78000020980835 80.55999755859375,7.78000020980835 C82.12999725341797,7.78000020980835 83.48999786376953,8.609999656677246 84.1500015258789,9.84000015258789 C84.1500015258789,9.84000015258789 82.37000274658203,10.880000114440918 82.37000274658203,10.880000114440918 C82.05000305175781,10.220000267028809 81.37000274658203,9.8100004196167 80.55000305175781,9.8100004196167 C79.31999969482422,9.8100004196167 78.4000015258789,10.720000267028809 78.4000015258789,12 C78.4000015258789,13.260000228881836 79.31999969482422,14.180000305175781 80.55000305175781,14.180000305175781 C81.37999725341797,14.180000305175781 82.06999969482422,13.779999732971191 82.38999938964844,13.119999885559082 C82.38999938964844,13.119999885559082 84.18000030517578,14.140000343322754 84.18000030517578,14.140000343322754 C83.48999786376953,15.390000343322754 82.12999725341797,16.219999313354492 80.55999755859375,16.219999313354492 C80.55999755859375,16.219999313354492 80.55999755859375,16.219999313354492 80.55999755859375,16.219999313354492z M69.12000274658203,9.380000114440918 C69.54000091552734,8.289999961853027 70.54000091552734,7.840000152587891 71.55000305175781,7.840000152587891 C71.55000305175781,7.840000152587891 71.55000305175781,10.140000343322754 71.55000305175781,10.140000343322754 C70.4800033569336,10.010000228881836 69.12000274658203,10.5 69.12000274658203,12.180000305175781 C69.12000274658203,12.180000305175781 69.12000274658203,16 69.12000274658203,16 C69.12000274658203,16 67.05000305175781,16 67.05000305175781,16 C67.05000305175781,16 67.05000305175781,8 67.05000305175781,8 C67.05000305175781,8 69.12000274658203,8 69.12000274658203,8 C69.12000274658203,8 69.12000274658203,9.380000114440918 69.12000274658203,9.380000114440918 C69.12000274658203,9.380000114440918 69.12000274658203,9.380000114440918 69.12000274658203,9.380000114440918z M59.470001220703125,11.25 C59.470001220703125,11.25 63.54999923706055,11.25 63.54999923706055,11.25 C63.290000915527344,10.100000381469727 62.41999816894531,9.630000114440918 61.560001373291016,9.630000114440918 C60.459999084472656,9.630000114440918 59.709999084472656,10.229999542236328 59.470001220703125,11.25 C59.470001220703125,11.25 59.470001220703125,11.25 59.470001220703125,11.25z M59.5,12.850000381469727 C59.790000915527344,13.90999984741211 60.66999816894531,14.350000381469727 61.7599983215332,14.350000381469727 C62.560001373291016,14.350000381469727 63.20000076293945,14.010000228881836 63.54999923706055,13.550000190734863 C63.54999923706055,13.550000190734863 65.20999908447266,14.510000228881836 65.20999908447266,14.510000228881836 C64.45999908447266,15.600000381469727 63.2599983215332,16.219999313354492 61.720001220703125,16.219999313354492 C59.029998779296875,16.219999313354492 57.34000015258789,14.380000114440918 57.34000015258789,12 C57.34000015258789,9.619999885559082 59.04999923706055,7.78000020980835 61.560001373291016,7.78000020980835 C63.93000030517578,7.78000020980835 65.61000061035156,9.649999618530273 65.61000061035156,12 C65.61000061035156,12.300000190734863 65.58000183105469,12.579999923706055 65.52999877929688,12.850000381469727 C65.52999877929688,12.850000381469727 59.5,12.850000381469727 59.5,12.850000381469727 C59.5,12.850000381469727 59.5,12.850000381469727 59.5,12.850000381469727z M52.97999954223633,7.78000020980835 C54.79999923706055,7.78000020980835 56,9.069999694824219 56,11.069999694824219 C56,11.069999694824219 56,16 56,16 C56,16 53.939998626708984,16 53.939998626708984,16 C53.939998626708984,16 53.939998626708984,11.220000267028809 53.939998626708984,11.220000267028809 C53.939998626708984,10.279999732971191 53.459999084472656,9.699999809265137 52.599998474121094,9.699999809265137 C51.689998626708984,9.699999809265137 51.11000061035156,10.300000190734863 51.11000061035156,11.5 C51.11000061035156,11.5 51.11000061035156,16 51.11000061035156,16 C51.11000061035156,16 49.040000915527344,16 49.040000915527344,16 C49.040000915527344,16 49.040000915527344,11.220000267028809 49.040000915527344,11.220000267028809 C49.040000915527344,10.279999732971191 48.560001373291016,9.699999809265137 47.70000076293945,9.699999809265137 C46.81999969482422,9.699999809265137 46.20000076293945,10.300000190734863 46.20000076293945,11.5 C46.20000076293945,11.5 46.20000076293945,16 46.20000076293945,16 C46.20000076293945,16 44.130001068115234,16 44.130001068115234,16 C44.130001068115234,16 44.130001068115234,8 44.130001068115234,8 C44.130001068115234,8 46.20000076293945,8 46.20000076293945,8 C46.20000076293945,8 46.20000076293945,8.850000381469727 46.20000076293945,8.850000381469727 C46.650001525878906,8.180000305175781 47.400001525878906,7.78000020980835 48.41999816894531,7.78000020980835 C49.40999984741211,7.78000020980835 50.150001525878906,8.1899995803833 50.599998474121094,8.930000305175781 C51.099998474121094,8.210000038146973 51.88999938964844,7.78000020980835 52.97999954223633,7.78000020980835 C52.97999954223633,7.78000020980835 52.97999954223633,7.78000020980835 52.97999954223633,7.78000020980835z M38.439998626708984,14.210000038146973 C39.66999816894531,14.210000038146973 40.619998931884766,13.300000190734863 40.619998931884766,12 C40.619998931884766,10.699999809265137 39.66999816894531,9.789999961853027 38.439998626708984,9.789999961853027 C37.220001220703125,9.789999961853027 36.279998779296875,10.699999809265137 36.279998779296875,12 C36.279998779296875,13.300000190734863 37.220001220703125,14.210000038146973 38.439998626708984,14.210000038146973 C38.439998626708984,14.210000038146973 38.439998626708984,14.210000038146973 38.439998626708984,14.210000038146973z M38.439998626708984,16.219999313354492 C36.09000015258789,16.219999313354492 34.220001220703125,14.380000114440918 34.220001220703125,12 C34.220001220703125,9.619999885559082 36.09000015258789,7.78000020980835 38.439998626708984,7.78000020980835 C40.790000915527344,7.78000020980835 42.68000030517578,9.619999885559082 42.68000030517578,12 C42.68000030517578,14.380000114440918 40.790000915527344,16.219999313354492 38.439998626708984,16.219999313354492 C38.439998626708984,16.219999313354492 38.439998626708984,16.219999313354492 38.439998626708984,16.219999313354492z M33.43000030517578,9.979999542236328 C33.43000030517578,9.979999542236328 31.6200008392334,9.979999542236328 31.6200008392334,9.979999542236328 C31.6200008392334,9.979999542236328 31.6200008392334,13.3100004196167 31.6200008392334,13.3100004196167 C31.6200008392334,14.170000076293945 32.25,14.1899995803833 33.43000030517578,14.130000114440918 C33.43000030517578,14.130000114440918 33.43000030517578,16 33.43000030517578,16 C30.530000686645508,16.31999969482422 29.549999237060547,15.470000267028809 29.549999237060547,13.3100004196167 C29.549999237060547,13.3100004196167 29.549999237060547,9.979999542236328 29.549999237060547,9.979999542236328 C29.549999237060547,9.979999542236328 28.15999984741211,9.979999542236328 28.15999984741211,9.979999542236328 C28.15999984741211,9.979999542236328 28.15999984741211,8 28.15999984741211,8 C28.15999984741211,8 29.549999237060547,8 29.549999237060547,8 C29.549999237060547,8 29.549999237060547,6.380000114440918 29.549999237060547,6.380000114440918 C29.549999237060547,6.380000114440918 31.6200008392334,5.760000228881836 31.6200008392334,5.760000228881836 C31.6200008392334,5.760000228881836 31.6200008392334,8 31.6200008392334,8 C31.6200008392334,8 33.43000030517578,8 33.43000030517578,8 C33.43000030517578,8 33.43000030517578,9.979999542236328 33.43000030517578,9.979999542236328 C33.43000030517578,9.979999542236328 33.43000030517578,9.979999542236328 33.43000030517578,9.979999542236328z M23.6299991607666,10.270000457763672 C23.6299991607666,11.449999809265137 27.760000228881836,10.720000267028809 27.760000228881836,13.65999984741211 C27.760000228881836,15.390000343322754 26.25,16.219999313354492 24.540000915527344,16.219999313354492 C22.940000534057617,16.219999313354492 21.760000228881836,15.550000190734863 21.18000030517578,14.319999694824219 C21.18000030517578,14.319999694824219 22.969999313354492,13.3100004196167 22.969999313354492,13.3100004196167 C23.190000534057617,13.970000267028809 23.739999771118164,14.350000381469727 24.540000915527344,14.350000381469727 C25.200000762939453,14.350000381469727 25.649999618530273,14.119999885559082 25.649999618530273,13.65999984741211 C25.649999618530273,12.489999771118164 21.520000457763672,13.140000343322754 21.520000457763672,10.319999694824219 C21.520000457763672,8.6899995803833 22.90999984741211,7.78000020980835 24.559999465942383,7.78000020980835 C25.860000610351562,7.78000020980835 26.979999542236328,8.369999885559082 27.600000381469727,9.470000267028809 C27.600000381469727,9.470000267028809 25.84000015258789,10.430000305175781 25.84000015258789,10.430000305175781 C25.600000381469727,9.920000076293945 25.149999618530273,9.619999885559082 24.559999465942383,9.619999885559082 C24.049999237060547,9.619999885559082 23.6299991607666,9.84000015258789 23.6299991607666,10.270000457763672 C23.6299991607666,10.270000457763672 23.6299991607666,10.270000457763672 23.6299991607666,10.270000457763672z M17.829999923706055,8 C17.829999923706055,8 19.899999618530273,8 19.899999618530273,8 C19.899999618530273,8 19.899999618530273,16 19.899999618530273,16 C19.899999618530273,16 17.829999923706055,16 17.829999923706055,16 C17.829999923706055,16 17.829999923706055,15.100000381469727 17.829999923706055,15.100000381469727 C17.350000381469727,15.819999694824219 16.520000457763672,16.219999313354492 15.449999809265137,16.219999313354492 C13.75,16.219999313354492 12.430000305175781,15.039999961853027 12.430000305175781,12.90999984741211 C12.430000305175781,12.90999984741211 12.430000305175781,8 12.430000305175781,8 C12.430000305175781,8 14.489999771118164,8 14.489999771118164,8 C14.489999771118164,8 14.489999771118164,12.65999984741211 14.489999771118164,12.65999984741211 C14.489999771118164,13.75 15.140000343322754,14.300000190734863 16.06999969482422,14.300000190734863 C17.079999923706055,14.300000190734863 17.829999923706055,13.710000038146973 17.829999923706055,12.319999694824219 C17.829999923706055,12.319999694824219 17.829999923706055,8 17.829999923706055,8 C17.829999923706055,8 17.829999923706055,8 17.829999923706055,8z M6.349999904632568,16.219999313354492 C2.9600000381469727,16.219999313354492 0.5299999713897705,13.65999984741211 0.5299999713897705,10.399999618530273 C0.5299999713897705,7.119999885559082 2.9600000381469727,4.579999923706055 6.349999904632568,4.579999923706055 C8.399999618530273,4.579999923706055 10.210000038146973,5.619999885559082 11.170000076293945,7.21999979019165 C11.170000076293945,7.21999979019165 9.260000228881836,8.319999694824219 9.260000228881836,8.319999694824219 C8.720000267028809,7.329999923706055 7.630000114440918,6.71999979019165 6.349999904632568,6.71999979019165 C4.159999847412109,6.71999979019165 2.7200000286102295,8.239999771118164 2.7200000286102295,10.399999618530273 C2.7200000286102295,12.539999961853027 4.159999847412109,14.0600004196167 6.349999904632568,14.0600004196167 C7.630000114440918,14.0600004196167 8.729999542236328,13.460000038146973 9.260000228881836,12.479999542236328 C9.260000228881836,12.479999542236328 11.170000076293945,13.579999923706055 11.170000076293945,13.579999923706055 C10.229999542236328,15.180000305175781 8.40999984741211,16.219999313354492 6.349999904632568,16.219999313354492 C6.349999904632568,16.219999313354492 6.349999904632568,16.219999313354492 6.349999904632568,16.219999313354492z"></path></g><g transform="matrix(1,0,0,1,65,82)" opacity="1" style="display: block;"><path fill="rgb(71,103,135)" fill-opacity="1" d=" M102.6500015258789,6.840000152587891 C104.05000305175781,6.840000152587891 104.9800033569336,7.78000020980835 104.9800033569336,9.319999694824219 C104.9800033569336,9.319999694824219 104.9800033569336,13 104.9800033569336,13 C104.9800033569336,13 103.94000244140625,13 103.94000244140625,13 C103.94000244140625,13 103.94000244140625,9.380000114440918 103.94000244140625,9.380000114440918 C103.94000244140625,8.399999618530273 103.37000274658203,7.840000152587891 102.44999694824219,7.840000152587891 C101.48999786376953,7.840000152587891 100.70999908447266,8.399999618530273 100.70999908447266,9.819999694824219 C100.70999908447266,9.819999694824219 100.70999908447266,13 100.70999908447266,13 C100.70999908447266,13 99.66000366210938,13 99.66000366210938,13 C99.66000366210938,13 99.66000366210938,7 99.66000366210938,7 C99.66000366210938,7 100.70999908447266,7 100.70999908447266,7 C100.70999908447266,7 100.70999908447266,7.860000133514404 100.70999908447266,7.860000133514404 C101.1500015258789,7.150000095367432 101.80999755859375,6.840000152587891 102.6500015258789,6.840000152587891 C102.6500015258789,6.840000152587891 102.6500015258789,6.840000152587891 102.6500015258789,6.840000152587891z M97.02999877929688,13 C97.02999877929688,13 97.02999877929688,7 97.02999877929688,7 C97.02999877929688,7 98.06999969482422,7 98.06999969482422,7 C98.06999969482422,7 98.06999969482422,13 98.06999969482422,13 C98.06999969482422,13 97.02999877929688,13 97.02999877929688,13 C97.02999877929688,13 97.02999877929688,13 97.02999877929688,13z M97.55000305175781,5.909999847412109 C97.1500015258789,5.909999847412109 96.8499984741211,5.590000152587891 96.8499984741211,5.210000038146973 C96.8499984741211,4.829999923706055 97.1500015258789,4.5 97.55000305175781,4.5 C97.93000030517578,4.5 98.25,4.829999923706055 98.25,5.210000038146973 C98.25,5.590000152587891 97.93000030517578,5.909999847412109 97.55000305175781,5.909999847412109 C97.55000305175781,5.909999847412109 97.55000305175781,5.909999847412109 97.55000305175781,5.909999847412109z M92.61000061035156,12.149999618530273 C93.80999755859375,12.149999618530273 94.73999786376953,11.220000267028809 94.73999786376953,10 C94.73999786376953,8.779999732971191 93.80999755859375,7.849999904632568 92.61000061035156,7.849999904632568 C91.4000015258789,7.849999904632568 90.4800033569336,8.779999732971191 90.4800033569336,10 C90.4800033569336,11.220000267028809 91.4000015258789,12.149999618530273 92.61000061035156,12.149999618530273 C92.61000061035156,12.149999618530273 92.61000061035156,12.149999618530273 92.61000061035156,12.149999618530273z M92.73999786376953,6.840000152587891 C94.41000366210938,6.840000152587891 95.77999877929688,8.220000267028809 95.77999877929688,10 C95.77999877929688,11.779999732971191 94.41000366210938,13.15999984741211 92.73999786376953,13.15999984741211 C91.72000122070312,13.15999984741211 90.95999908447266,12.699999809265137 90.4800033569336,11.970000267028809 C90.4800033569336,11.970000267028809 90.4800033569336,13 90.4800033569336,13 C90.4800033569336,13 89.43000030517578,13 89.43000030517578,13 C89.43000030517578,13 89.43000030517578,4.599999904632568 89.43000030517578,4.599999904632568 C89.43000030517578,4.599999904632568 90.4800033569336,4.599999904632568 90.4800033569336,4.599999904632568 C90.4800033569336,4.599999904632568 90.4800033569336,8.029999732971191 90.4800033569336,8.029999732971191 C90.95999908447266,7.300000190734863 91.72000122070312,6.840000152587891 92.73999786376953,6.840000152587891 C92.73999786376953,6.840000152587891 92.73999786376953,6.840000152587891 92.73999786376953,6.840000152587891z M85.02999877929688,12.140000343322754 C86.2300033569336,12.140000343322754 87.16000366210938,11.210000038146973 87.16000366210938,10 C87.16000366210938,8.789999961853027 86.2300033569336,7.860000133514404 85.02999877929688,7.860000133514404 C83.83999633789062,7.860000133514404 82.91999816894531,8.789999961853027 82.91999816894531,10 C82.91999816894531,11.210000038146973 83.83999633789062,12.140000343322754 85.02999877929688,12.140000343322754 C85.02999877929688,12.140000343322754 85.02999877929688,12.140000343322754 85.02999877929688,12.140000343322754z M85.02999877929688,13.15999984741211 C83.27999877929688,13.15999984741211 81.87999725341797,11.779999732971191 81.87999725341797,10 C81.87999725341797,8.220000267028809 83.27999877929688,6.840000152587891 85.02999877929688,6.840000152587891 C86.77999877929688,6.840000152587891 88.19999694824219,8.220000267028809 88.19999694824219,10 C88.19999694824219,11.779999732971191 86.77999877929688,13.15999984741211 85.02999877929688,13.15999984741211 C85.02999877929688,13.15999984741211 85.02999877929688,13.15999984741211 85.02999877929688,13.15999984741211z M79.6500015258789,8.010000228881836 C80.02999877929688,7.170000076293945 80.76000213623047,6.889999866485596 81.5199966430664,6.889999866485596 C81.5199966430664,6.889999866485596 81.5199966430664,7.980000019073486 81.5199966430664,7.980000019073486 C80.62000274658203,7.940000057220459 79.6500015258789,8.399999618530273 79.6500015258789,9.819999694824219 C79.6500015258789,9.819999694824219 79.6500015258789,13 79.6500015258789,13 C79.6500015258789,13 78.5999984741211,13 78.5999984741211,13 C78.5999984741211,13 78.5999984741211,7 78.5999984741211,7 C78.5999984741211,7 79.6500015258789,7 79.6500015258789,7 C79.6500015258789,7 79.6500015258789,8.010000228881836 79.6500015258789,8.010000228881836 C79.6500015258789,8.010000228881836 79.6500015258789,8.010000228881836 79.6500015258789,8.010000228881836z M70.83999633789062,12.149999618530273 C72.05000305175781,12.149999618530273 72.9800033569336,11.220000267028809 72.9800033569336,10 C72.9800033569336,8.779999732971191 72.05000305175781,7.849999904632568 70.83999633789062,7.849999904632568 C69.63999938964844,7.849999904632568 68.72000122070312,8.779999732971191 68.72000122070312,10 C68.72000122070312,11.220000267028809 69.63999938964844,12.149999618530273 70.83999633789062,12.149999618530273 C70.83999633789062,12.149999618530273 70.83999633789062,12.149999618530273 70.83999633789062,12.149999618530273z M72.9800033569336,4.599999904632568 C72.9800033569336,4.599999904632568 74.0199966430664,4.599999904632568 74.0199966430664,4.599999904632568 C74.0199966430664,4.599999904632568 74.0199966430664,13 74.0199966430664,13 C74.0199966430664,13 72.9800033569336,13 72.9800033569336,13 C72.9800033569336,13 72.9800033569336,11.970000267028809 72.9800033569336,11.970000267028809 C72.5,12.699999809265137 71.7300033569336,13.15999984741211 70.70999908447266,13.15999984741211 C69.04000091552734,13.15999984741211 67.66999816894531,11.779999732971191 67.66999816894531,10 C67.66999816894531,8.220000267028809 69.04000091552734,6.840000152587891 70.70999908447266,6.840000152587891 C71.7300033569336,6.840000152587891 72.5,7.300000190734863 72.9800033569336,8.029999732971191 C72.9800033569336,8.029999732971191 72.9800033569336,4.599999904632568 72.9800033569336,4.599999904632568 C72.9800033569336,4.599999904632568 72.9800033569336,4.599999904632568 72.9800033569336,4.599999904632568z M64.2300033569336,6.840000152587891 C65.62999725341797,6.840000152587891 66.55000305175781,7.78000020980835 66.55000305175781,9.319999694824219 C66.55000305175781,9.319999694824219 66.55000305175781,13 66.55000305175781,13 C66.55000305175781,13 65.51000213623047,13 65.51000213623047,13 C65.51000213623047,13 65.51000213623047,9.380000114440918 65.51000213623047,9.380000114440918 C65.51000213623047,8.399999618530273 64.94000244140625,7.840000152587891 64.0199966430664,7.840000152587891 C63.060001373291016,7.840000152587891 62.279998779296875,8.399999618530273 62.279998779296875,9.819999694824219 C62.279998779296875,9.819999694824219 62.279998779296875,13 62.279998779296875,13 C62.279998779296875,13 61.2400016784668,13 61.2400016784668,13 C61.2400016784668,13 61.2400016784668,7 61.2400016784668,7 C61.2400016784668,7 62.279998779296875,7 62.279998779296875,7 C62.279998779296875,7 62.279998779296875,7.860000133514404 62.279998779296875,7.860000133514404 C62.720001220703125,7.150000095367432 63.38999938964844,6.840000152587891 64.2300033569336,6.840000152587891 C64.2300033569336,6.840000152587891 64.2300033569336,6.840000152587891 64.2300033569336,6.840000152587891z M58.599998474121094,7 C58.599998474121094,7 59.650001525878906,7 59.650001525878906,7 C59.650001525878906,7 59.650001525878906,13 59.650001525878906,13 C59.650001525878906,13 58.599998474121094,13 58.599998474121094,13 C58.599998474121094,13 58.599998474121094,12.140000343322754 58.599998474121094,12.140000343322754 C58.15999984741211,12.850000381469727 57.5,13.15999984741211 56.65999984741211,13.15999984741211 C55.2599983215332,13.15999984741211 54.33000183105469,12.220000267028809 54.33000183105469,10.680000305175781 C54.33000183105469,10.680000305175781 54.33000183105469,7 54.33000183105469,7 C54.33000183105469,7 55.380001068115234,7 55.380001068115234,7 C55.380001068115234,7 55.380001068115234,10.619999885559082 55.380001068115234,10.619999885559082 C55.380001068115234,11.600000381469727 55.939998626708984,12.15999984741211 56.86000061035156,12.15999984741211 C57.81999969482422,12.15999984741211 58.599998474121094,11.600000381469727 58.599998474121094,10.180000305175781 C58.599998474121094,10.180000305175781 58.599998474121094,7 58.599998474121094,7 C58.599998474121094,7 58.599998474121094,7 58.599998474121094,7z M50.06999969482422,12.140000343322754 C51.27000045776367,12.140000343322754 52.189998626708984,11.210000038146973 52.189998626708984,10 C52.189998626708984,8.789999961853027 51.27000045776367,7.860000133514404 50.06999969482422,7.860000133514404 C48.880001068115234,7.860000133514404 47.95000076293945,8.789999961853027 47.95000076293945,10 C47.95000076293945,11.210000038146973 48.880001068115234,12.140000343322754 50.06999969482422,12.140000343322754 C50.06999969482422,12.140000343322754 50.06999969482422,12.140000343322754 50.06999969482422,12.140000343322754z M50.06999969482422,13.15999984741211 C48.31999969482422,13.15999984741211 46.90999984741211,11.779999732971191 46.90999984741211,10 C46.90999984741211,8.220000267028809 48.31999969482422,6.840000152587891 50.06999969482422,6.840000152587891 C51.81999969482422,6.840000152587891 53.22999954223633,8.220000267028809 53.22999954223633,10 C53.22999954223633,11.779999732971191 51.81999969482422,13.15999984741211 50.06999969482422,13.15999984741211 C50.06999969482422,13.15999984741211 50.06999969482422,13.15999984741211 50.06999969482422,13.15999984741211z M41.439998626708984,5.639999866485596 C41.439998626708984,5.639999866485596 41.439998626708984,8.779999732971191 41.439998626708984,8.779999732971191 C41.439998626708984,8.779999732971191 43.68000030517578,8.779999732971191 43.68000030517578,8.779999732971191 C44.5099983215332,8.779999732971191 45.18000030517578,8.0600004196167 45.18000030517578,7.199999809265137 C45.18000030517578,6.340000152587891 44.5099983215332,5.639999866485596 43.68000030517578,5.639999866485596 C43.68000030517578,5.639999866485596 41.439998626708984,5.639999866485596 41.439998626708984,5.639999866485596 C41.439998626708984,5.639999866485596 41.439998626708984,5.639999866485596 41.439998626708984,5.639999866485596z M45.29999923706055,13 C45.29999923706055,13 43.41999816894531,9.779999732971191 43.41999816894531,9.779999732971191 C43.41999816894531,9.779999732971191 41.439998626708984,9.779999732971191 41.439998626708984,9.779999732971191 C41.439998626708984,9.779999732971191 41.439998626708984,13 41.439998626708984,13 C41.439998626708984,13 40.31999969482422,13 40.31999969482422,13 C40.31999969482422,13 40.31999969482422,4.599999904632568 40.31999969482422,4.599999904632568 C40.31999969482422,4.599999904632568 43.68000030517578,4.599999904632568 43.68000030517578,4.599999904632568 C45.119998931884766,4.599999904632568 46.29999923706055,5.760000228881836 46.29999923706055,7.199999809265137 C46.29999923706055,8.300000190734863 45.56999969482422,9.279999732971191 44.560001373291016,9.640000343322754 C44.560001373291016,9.640000343322754 46.540000915527344,13 46.540000915527344,13 C46.540000915527344,13 45.29999923706055,13 45.29999923706055,13 C45.29999923706055,13 45.29999923706055,13 45.29999923706055,13z M35.7400016784668,11.760000228881836 C35.7400016784668,11.760000228881836 34.959999084472656,14.680000305175781 34.959999084472656,14.680000305175781 C34.959999084472656,14.680000305175781 34.060001373291016,14.680000305175781 34.060001373291016,14.680000305175781 C34.060001373291016,14.680000305175781 34.540000915527344,11.760000228881836 34.540000915527344,11.760000228881836 C34.540000915527344,11.760000228881836 35.7400016784668,11.760000228881836 35.7400016784668,11.760000228881836 C35.7400016784668,11.760000228881836 35.7400016784668,11.760000228881836 35.7400016784668,11.760000228881836z M30.389999389648438,6.840000152587891 C31.790000915527344,6.840000152587891 32.720001220703125,7.78000020980835 32.720001220703125,9.319999694824219 C32.720001220703125,9.319999694824219 32.720001220703125,13 32.720001220703125,13 C32.720001220703125,13 31.68000030517578,13 31.68000030517578,13 C31.68000030517578,13 31.68000030517578,9.380000114440918 31.68000030517578,9.380000114440918 C31.68000030517578,8.399999618530273 31.110000610351562,7.840000152587891 30.190000534057617,7.840000152587891 C29.229999542236328,7.840000152587891 28.450000762939453,8.399999618530273 28.450000762939453,9.819999694824219 C28.450000762939453,9.819999694824219 28.450000762939453,13 28.450000762939453,13 C28.450000762939453,13 27.40999984741211,13 27.40999984741211,13 C27.40999984741211,13 27.40999984741211,7 27.40999984741211,7 C27.40999984741211,7 28.450000762939453,7 28.450000762939453,7 C28.450000762939453,7 28.450000762939453,7.860000133514404 28.450000762939453,7.860000133514404 C28.889999389648438,7.150000095367432 29.549999237060547,6.840000152587891 30.389999389648438,6.840000152587891 C30.389999389648438,6.840000152587891 30.389999389648438,6.840000152587891 30.389999389648438,6.840000152587891z M24.770000457763672,13 C24.770000457763672,13 24.770000457763672,7 24.770000457763672,7 C24.770000457763672,7 25.809999465942383,7 25.809999465942383,7 C25.809999465942383,7 25.809999465942383,13 25.809999465942383,13 C25.809999465942383,13 24.770000457763672,13 24.770000457763672,13 C24.770000457763672,13 24.770000457763672,13 24.770000457763672,13z M25.299999237060547,5.909999847412109 C24.899999618530273,5.909999847412109 24.59000015258789,5.590000152587891 24.59000015258789,5.210000038146973 C24.59000015258789,4.829999923706055 24.899999618530273,4.5 25.299999237060547,4.5 C25.68000030517578,4.5 25.989999771118164,4.829999923706055 25.989999771118164,5.210000038146973 C25.989999771118164,5.590000152587891 25.68000030517578,5.909999847412109 25.299999237060547,5.909999847412109 C25.299999237060547,5.909999847412109 25.299999237060547,5.909999847412109 25.299999237060547,5.909999847412109z M21.06999969482422,6.840000152587891 C22.399999618530273,6.840000152587891 23.31999969482422,7.769999980926514 23.31999969482422,9.270000457763672 C23.31999969482422,9.270000457763672 23.31999969482422,13 23.31999969482422,13 C23.31999969482422,13 22.280000686645508,13 22.280000686645508,13 C22.280000686645508,13 22.280000686645508,9.300000190734863 22.280000686645508,9.300000190734863 C22.280000686645508,8.350000381469727 21.75,7.840000152587891 20.959999084472656,7.840000152587891 C20.1200008392334,7.840000152587891 19.479999542236328,8.359999656677246 19.479999542236328,9.65999984741211 C19.479999542236328,9.65999984741211 19.479999542236328,13 19.479999542236328,13 C19.479999542236328,13 18.440000534057617,13 18.440000534057617,13 C18.440000534057617,13 18.440000534057617,9.300000190734863 18.440000534057617,9.300000190734863 C18.440000534057617,8.350000381469727 17.950000762939453,7.840000152587891 17.170000076293945,7.840000152587891 C16.3700008392334,7.840000152587891 15.630000114440918,8.359999656677246 15.630000114440918,9.65999984741211 C15.630000114440918,9.65999984741211 15.630000114440918,13 15.630000114440918,13 C15.630000114440918,13 14.59000015258789,13 14.59000015258789,13 C14.59000015258789,13 14.59000015258789,7 14.59000015258789,7 C14.59000015258789,7 15.630000114440918,7 15.630000114440918,7 C15.630000114440918,7 15.630000114440918,7.800000190734863 15.630000114440918,7.800000190734863 C16.059999465942383,7.130000114440918 16.690000534057617,6.840000152587891 17.420000076293945,6.840000152587891 C18.239999771118164,6.840000152587891 18.829999923706055,7.210000038146973 19.18000030517578,7.860000133514404 C19.600000381469727,7.179999828338623 20.290000915527344,6.840000152587891 21.06999969482422,6.840000152587891 C21.06999969482422,6.840000152587891 21.06999969482422,6.840000152587891 21.06999969482422,6.840000152587891z M7.519999980926514,7.880000114440918 C9.020000457763672,7.880000114440918 10.350000381469727,8.800000190734863 10.350000381469727,10.520000457763672 C10.350000381469727,12.220000267028809 8.979999542236328,13.15999984741211 7.46999979019165,13.15999984741211 C6.230000019073486,13.15999984741211 5.110000133514404,12.5600004196167 4.699999809265137,11.359999656677246 C4.699999809265137,11.359999656677246 5.650000095367432,10.819999694824219 5.650000095367432,10.819999694824219 C5.880000114440918,11.649999618530273 6.559999942779541,12.0600004196167 7.46999979019165,12.0600004196167 C8.489999771118164,12.0600004196167 9.25,11.520000457763672 9.25,10.520000457763672 C9.25,9.510000228881836 8.489999771118164,8.960000038146973 7.489999771118164,8.960000038146973 C7.489999771118164,8.960000038146973 5.119999885559082,8.960000038146973 5.119999885559082,8.960000038146973 C5.119999885559082,8.960000038146973 5.429999828338623,4.599999904632568 5.429999828338623,4.599999904632568 C5.429999828338623,4.599999904632568 10.029999732971191,4.599999904632568 10.029999732971191,4.599999904632568 C10.029999732971191,4.599999904632568 10.029999732971191,5.639999866485596 10.029999732971191,5.639999866485596 C10.029999732971191,5.639999866485596 6.440000057220459,5.639999866485596 6.440000057220459,5.639999866485596 C6.440000057220459,5.639999866485596 6.289999961853027,7.880000114440918 6.289999961853027,7.880000114440918 C6.289999961853027,7.880000114440918 7.519999980926514,7.880000114440918 7.519999980926514,7.880000114440918 C7.519999980926514,7.880000114440918 7.519999980926514,7.880000114440918 7.519999980926514,7.880000114440918z M2.380000114440918,4.599999904632568 C2.380000114440918,4.599999904632568 3.3399999141693115,4.599999904632568 3.3399999141693115,4.599999904632568 C3.3399999141693115,4.599999904632568 3.3399999141693115,13 3.3399999141693115,13 C3.3399999141693115,13 2.2300000190734863,13 2.2300000190734863,13 C2.2300000190734863,13 2.2300000190734863,5.800000190734863 2.2300000190734863,5.800000190734863 C2.2300000190734863,5.800000190734863 0.4399999976158142,6.329999923706055 0.4399999976158142,6.329999923706055 C0.4399999976158142,6.329999923706055 0.17000000178813934,5.369999885559082 0.17000000178813934,5.369999885559082 C0.17000000178813934,5.369999885559082 2.380000114440918,4.599999904632568 2.380000114440918,4.599999904632568 C2.380000114440918,4.599999904632568 2.380000114440918,4.599999904632568 2.380000114440918,4.599999904632568z"></path></g><g filter="url(#__lottie_element_14)" transform="matrix(1,0,0,1,41,123)" opacity="1" style="display: block;"><path fill="rgb(255,255,255)" fill-opacity="1" d=" M200,8 C200,8 200,55 200,55 C200,59.41999816894531 196.4199981689453,63 192,63 C192,63 8,63 8,63 C3.5799999237060547,63 0,59.41999816894531 0,55 C0,55 0,8 0,8 C0,3.5799999237060547 3.5799999237060547,0 8,0 C8,0 192,0 192,0 C196.4199981689453,0 200,3.5799999237060547 200,8z"></path></g><g transform="matrix(1,0,0,1,41,123)" opacity="1" style="display: block;"><path fill="rgb(0,153,255)" fill-opacity="1" d=" M0,8 C0,3.5799999237060547 3.5799999237060547,0 8,0 C8,0 8,0 8,0 C8,0 8,63 8,63 C8,63 8,63 8,63 C3.5799999237060547,63 0,59.41999816894531 0,55 C0,55 0,8 0,8 C0,8 0,8 0,8z"></path></g><g transform="matrix(1,0,0,1,63.839996337890625,133)" opacity="1" style="display: block;"><path fill="rgb(10,53,87)" fill-opacity="1" d=" M136.72000122070312,8 C136.72000122070312,8 138.91000366210938,8 138.91000366210938,8 C138.91000366210938,8 136.3699951171875,16 136.3699951171875,16 C136.3699951171875,16 134.39999389648438,16 134.39999389648438,16 C134.39999389648438,16 132.92999267578125,11.149999618530273 132.92999267578125,11.149999618530273 C132.92999267578125,11.149999618530273 131.4499969482422,16 131.4499969482422,16 C131.4499969482422,16 129.49000549316406,16 129.49000549316406,16 C129.49000549316406,16 126.94000244140625,8 126.94000244140625,8 C126.94000244140625,8 129.1300048828125,8 129.1300048828125,8 C129.1300048828125,8 130.49000549316406,12.90999984741211 130.49000549316406,12.90999984741211 C130.49000549316406,12.90999984741211 131.9499969482422,8 131.9499969482422,8 C131.9499969482422,8 133.89999389648438,8 133.89999389648438,8 C133.89999389648438,8 135.36000061035156,12.930000305175781 135.36000061035156,12.930000305175781 C135.36000061035156,12.930000305175781 136.72000122070312,8 136.72000122070312,8 C136.72000122070312,8 136.72000122070312,8 136.72000122070312,8z M120.44000244140625,11.25 C120.44000244140625,11.25 124.5199966430664,11.25 124.5199966430664,11.25 C124.26000213623047,10.100000381469727 123.38999938964844,9.630000114440918 122.52999877929688,9.630000114440918 C121.43000030517578,9.630000114440918 120.68000030517578,10.229999542236328 120.44000244140625,11.25 C120.44000244140625,11.25 120.44000244140625,11.25 120.44000244140625,11.25z M120.47000122070312,12.850000381469727 C120.76000213623047,13.90999984741211 121.63999938964844,14.350000381469727 122.7300033569336,14.350000381469727 C123.52999877929688,14.350000381469727 124.16999816894531,14.010000228881836 124.5199966430664,13.550000190734863 C124.5199966430664,13.550000190734863 126.18000030517578,14.510000228881836 126.18000030517578,14.510000228881836 C125.43000030517578,15.600000381469727 124.2300033569336,16.219999313354492 122.69000244140625,16.219999313354492 C120,16.219999313354492 118.30999755859375,14.380000114440918 118.30999755859375,12 C118.30999755859375,9.619999885559082 120.0199966430664,7.78000020980835 122.52999877929688,7.78000020980835 C124.9000015258789,7.78000020980835 126.58000183105469,9.649999618530273 126.58000183105469,12 C126.58000183105469,12.300000190734863 126.55000305175781,12.579999923706055 126.5,12.850000381469727 C126.5,12.850000381469727 120.47000122070312,12.850000381469727 120.47000122070312,12.850000381469727 C120.47000122070312,12.850000381469727 120.47000122070312,12.850000381469727 120.47000122070312,12.850000381469727z M114.7699966430664,16 C114.7699966430664,16 114.7699966430664,8 114.7699966430664,8 C114.7699966430664,8 116.83999633789062,8 116.83999633789062,8 C116.83999633789062,8 116.83999633789062,16 116.83999633789062,16 C116.83999633789062,16 114.7699966430664,16 114.7699966430664,16 C114.7699966430664,16 114.7699966430664,16 114.7699966430664,16z M115.80000305175781,7.039999961853027 C115.11000061035156,7.039999961853027 114.52999877929688,6.46999979019165 114.52999877929688,5.78000020980835 C114.52999877929688,5.090000152587891 115.11000061035156,4.5 115.80000305175781,4.5 C116.5,4.5 117.08000183105469,5.090000152587891 117.08000183105469,5.78000020980835 C117.08000183105469,6.46999979019165 116.5,7.039999961853027 115.80000305175781,7.039999961853027 C115.80000305175781,7.039999961853027 115.80000305175781,7.039999961853027 115.80000305175781,7.039999961853027z M111.51000213623047,8 C111.51000213623047,8 113.77999877929688,8 113.77999877929688,8 C113.77999877929688,8 110.73999786376953,16 110.73999786376953,16 C110.73999786376953,16 108.38999938964844,16 108.38999938964844,16 C108.38999938964844,16 105.3499984741211,8 105.3499984741211,8 C105.3499984741211,8 107.62000274658203,8 107.62000274658203,8 C107.62000274658203,8 109.55000305175781,13.600000381469727 109.55000305175781,13.600000381469727 C109.55000305175781,13.600000381469727 111.51000213623047,8 111.51000213623047,8 C111.51000213623047,8 111.51000213623047,8 111.51000213623047,8z M102.5999984741211,9.380000114440918 C103.0199966430664,8.289999961853027 104.0199966430664,7.840000152587891 105.02999877929688,7.840000152587891 C105.02999877929688,7.840000152587891 105.02999877929688,10.140000343322754 105.02999877929688,10.140000343322754 C103.95999908447266,10.010000228881836 102.5999984741211,10.5 102.5999984741211,12.180000305175781 C102.5999984741211,12.180000305175781 102.5999984741211,16 102.5999984741211,16 C102.5999984741211,16 100.54000091552734,16 100.54000091552734,16 C100.54000091552734,16 100.54000091552734,8 100.54000091552734,8 C100.54000091552734,8 102.5999984741211,8 102.5999984741211,8 C102.5999984741211,8 102.5999984741211,9.380000114440918 102.5999984741211,9.380000114440918 C102.5999984741211,9.380000114440918 102.5999984741211,9.380000114440918 102.5999984741211,9.380000114440918z M92.94999694824219,11.25 C92.94999694824219,11.25 97.02999877929688,11.25 97.02999877929688,11.25 C96.7699966430664,10.100000381469727 95.91000366210938,9.630000114440918 95.05000305175781,9.630000114440918 C93.94999694824219,9.630000114440918 93.19000244140625,10.229999542236328 92.94999694824219,11.25 C92.94999694824219,11.25 92.94999694824219,11.25 92.94999694824219,11.25z M92.9800033569336,12.850000381469727 C93.2699966430664,13.90999984741211 94.1500015258789,14.350000381469727 95.23999786376953,14.350000381469727 C96.04000091552734,14.350000381469727 96.68000030517578,14.010000228881836 97.02999877929688,13.550000190734863 C97.02999877929688,13.550000190734863 98.69999694824219,14.510000228881836 98.69999694824219,14.510000228881836 C97.94999694824219,15.600000381469727 96.75,16.219999313354492 95.20999908447266,16.219999313354492 C92.5199966430664,16.219999313354492 90.81999969482422,14.380000114440918 90.81999969482422,12 C90.81999969482422,9.619999885559082 92.54000091552734,7.78000020980835 95.05000305175781,7.78000020980835 C97.41999816894531,7.78000020980835 99.0999984741211,9.649999618530273 99.0999984741211,12 C99.0999984741211,12.300000190734863 99.06999969482422,12.579999923706055 99.0199966430664,12.850000381469727 C99.0199966430664,12.850000381469727 92.9800033569336,12.850000381469727 92.9800033569336,12.850000381469727 C92.9800033569336,12.850000381469727 92.9800033569336,12.850000381469727 92.9800033569336,12.850000381469727z M90.04000091552734,9.979999542236328 C90.04000091552734,9.979999542236328 88.2300033569336,9.979999542236328 88.2300033569336,9.979999542236328 C88.2300033569336,9.979999542236328 88.2300033569336,13.3100004196167 88.2300033569336,13.3100004196167 C88.2300033569336,14.170000076293945 88.86000061035156,14.1899995803833 90.04000091552734,14.130000114440918 C90.04000091552734,14.130000114440918 90.04000091552734,16 90.04000091552734,16 C87.13999938964844,16.31999969482422 86.16000366210938,15.470000267028809 86.16000366210938,13.3100004196167 C86.16000366210938,13.3100004196167 86.16000366210938,9.979999542236328 86.16000366210938,9.979999542236328 C86.16000366210938,9.979999542236328 84.7699966430664,9.979999542236328 84.7699966430664,9.979999542236328 C84.7699966430664,9.979999542236328 84.7699966430664,8 84.7699966430664,8 C84.7699966430664,8 86.16000366210938,8 86.16000366210938,8 C86.16000366210938,8 86.16000366210938,6.380000114440918 86.16000366210938,6.380000114440918 C86.16000366210938,6.380000114440918 88.2300033569336,5.760000228881836 88.2300033569336,5.760000228881836 C88.2300033569336,5.760000228881836 88.2300033569336,8 88.2300033569336,8 C88.2300033569336,8 90.04000091552734,8 90.04000091552734,8 C90.04000091552734,8 90.04000091552734,9.979999542236328 90.04000091552734,9.979999542236328 C90.04000091552734,9.979999542236328 90.04000091552734,9.979999542236328 90.04000091552734,9.979999542236328z M80.66999816894531,7.78000020980835 C82.37000274658203,7.78000020980835 83.69999694824219,8.960000038146973 83.69999694824219,11.09000015258789 C83.69999694824219,11.09000015258789 83.69999694824219,16 83.69999694824219,16 C83.69999694824219,16 81.62999725341797,16 81.62999725341797,16 C81.62999725341797,16 81.62999725341797,11.34000015258789 81.62999725341797,11.34000015258789 C81.62999725341797,10.25 80.9800033569336,9.699999809265137 80.05000305175781,9.699999809265137 C79.04000091552734,9.699999809265137 78.29000091552734,10.289999961853027 78.29000091552734,11.680000305175781 C78.29000091552734,11.680000305175781 78.29000091552734,16 78.29000091552734,16 C78.29000091552734,16 76.2300033569336,16 76.2300033569336,16 C76.2300033569336,16 76.2300033569336,8 76.2300033569336,8 C76.2300033569336,8 78.29000091552734,8 78.29000091552734,8 C78.29000091552734,8 78.29000091552734,8.899999618530273 78.29000091552734,8.899999618530273 C78.7699966430664,8.180000305175781 79.5999984741211,7.78000020980835 80.66999816894531,7.78000020980835 C80.66999816894531,7.78000020980835 80.66999816894531,7.78000020980835 80.66999816894531,7.78000020980835z M72.2699966430664,16 C72.2699966430664,16 72.2699966430664,8 72.2699966430664,8 C72.2699966430664,8 74.33999633789062,8 74.33999633789062,8 C74.33999633789062,8 74.33999633789062,16 74.33999633789062,16 C74.33999633789062,16 72.2699966430664,16 72.2699966430664,16 C72.2699966430664,16 72.2699966430664,16 72.2699966430664,16z M73.30000305175781,7.039999961853027 C72.61000061035156,7.039999961853027 72.02999877929688,6.46999979019165 72.02999877929688,5.78000020980835 C72.02999877929688,5.090000152587891 72.61000061035156,4.5 73.30000305175781,4.5 C74,4.5 74.58000183105469,5.090000152587891 74.58000183105469,5.78000020980835 C74.58000183105469,6.46999979019165 74,7.039999961853027 73.30000305175781,7.039999961853027 C73.30000305175781,7.039999961853027 73.30000305175781,7.039999961853027 73.30000305175781,7.039999961853027z M64.62999725341797,9.380000114440918 C65.05000305175781,8.289999961853027 66.05999755859375,7.840000152587891 67.06999969482422,7.840000152587891 C67.06999969482422,7.840000152587891 67.06999969482422,10.140000343322754 67.06999969482422,10.140000343322754 C66,10.010000228881836 64.62999725341797,10.5 64.62999725341797,12.180000305175781 C64.62999725341797,12.180000305175781 64.62999725341797,16 64.62999725341797,16 C64.62999725341797,16 62.56999969482422,16 62.56999969482422,16 C62.56999969482422,16 62.56999969482422,8 62.56999969482422,8 C62.56999969482422,8 64.62999725341797,8 64.62999725341797,8 C64.62999725341797,8 64.62999725341797,9.380000114440918 64.62999725341797,9.380000114440918 C64.62999725341797,9.380000114440918 64.62999725341797,9.380000114440918 64.62999725341797,9.380000114440918z M54.97999954223633,11.25 C54.97999954223633,11.25 59.060001373291016,11.25 59.060001373291016,11.25 C58.79999923706055,10.100000381469727 57.939998626708984,9.630000114440918 57.08000183105469,9.630000114440918 C55.97999954223633,9.630000114440918 55.220001220703125,10.229999542236328 54.97999954223633,11.25 C54.97999954223633,11.25 54.97999954223633,11.25 54.97999954223633,11.25z M55.02000045776367,12.850000381469727 C55.310001373291016,13.90999984741211 56.18000030517578,14.350000381469727 57.27000045776367,14.350000381469727 C58.06999969482422,14.350000381469727 58.709999084472656,14.010000228881836 59.060001373291016,13.550000190734863 C59.060001373291016,13.550000190734863 60.72999954223633,14.510000228881836 60.72999954223633,14.510000228881836 C59.97999954223633,15.600000381469727 58.779998779296875,16.219999313354492 57.2400016784668,16.219999313354492 C54.54999923706055,16.219999313354492 52.86000061035156,14.380000114440918 52.86000061035156,12 C52.86000061035156,9.619999885559082 54.56999969482422,7.78000020980835 57.08000183105469,7.78000020980835 C59.45000076293945,7.78000020980835 61.130001068115234,9.649999618530273 61.130001068115234,12 C61.130001068115234,12.300000190734863 61.099998474121094,12.579999923706055 61.04999923706055,12.850000381469727 C61.04999923706055,12.850000381469727 55.02000045776367,12.850000381469727 55.02000045776367,12.850000381469727 C55.02000045776367,12.850000381469727 55.02000045776367,12.850000381469727 55.02000045776367,12.850000381469727z M47.13999938964844,14.0600004196167 C48.439998626708984,14.0600004196167 49.380001068115234,13.149999618530273 49.380001068115234,11.869999885559082 C49.380001068115234,10.609999656677246 48.439998626708984,9.699999809265137 47.13999938964844,9.699999809265137 C45.84000015258789,9.699999809265137 44.900001525878906,10.609999656677246 44.900001525878906,11.869999885559082 C44.900001525878906,13.149999618530273 45.84000015258789,14.0600004196167 47.13999938964844,14.0600004196167 C47.13999938964844,14.0600004196167 47.13999938964844,14.0600004196167 47.13999938964844,14.0600004196167z M49.380001068115234,8 C49.380001068115234,8 51.400001525878906,8 51.400001525878906,8 C51.400001525878906,8 51.400001525878906,15.619999885559082 51.400001525878906,15.619999885559082 C51.400001525878906,18.239999771118164 49.33000183105469,19.420000076293945 47.220001220703125,19.420000076293945 C45.5099983215332,19.420000076293945 44.130001068115234,18.770000457763672 43.43000030517578,17.469999313354492 C43.43000030517578,17.469999313354492 45.189998626708984,16.459999084472656 45.189998626708984,16.459999084472656 C45.529998779296875,17.079999923706055 46.060001373291016,17.579999923706055 47.290000915527344,17.579999923706055 C48.59000015258789,17.579999923706055 49.380001068115234,16.8799991607666 49.380001068115234,15.619999885559082 C49.380001068115234,15.619999885559082 49.380001068115234,14.75 49.380001068115234,14.75 C48.81999969482422,15.5 47.959999084472656,15.970000267028809 46.81999969482422,15.970000267028809 C44.54999923706055,15.970000267028809 42.84000015258789,14.130000114440918 42.84000015258789,11.869999885559082 C42.84000015258789,9.630000114440918 44.54999923706055,7.78000020980835 46.81999969482422,7.78000020980835 C47.959999084472656,7.78000020980835 48.81999969482422,8.239999771118164 49.380001068115234,8.989999771118164 C49.380001068115234,8.989999771118164 49.380001068115234,8 49.380001068115234,8 C49.380001068115234,8 49.380001068115234,8 49.380001068115234,8z M37.099998474121094,14.260000228881836 C38.380001068115234,14.260000228881836 39.31999969482422,13.34000015258789 39.31999969482422,12 C39.31999969482422,10.65999984741211 38.380001068115234,9.739999771118164 37.099998474121094,9.739999771118164 C35.84000015258789,9.739999771118164 34.88999938964844,10.65999984741211 34.88999938964844,12 C34.88999938964844,13.34000015258789 35.84000015258789,14.260000228881836 37.099998474121094,14.260000228881836 C37.099998474121094,14.260000228881836 37.099998474121094,14.260000228881836 37.099998474121094,14.260000228881836z M39.31999969482422,8 C39.31999969482422,8 41.380001068115234,8 41.380001068115234,8 C41.380001068115234,8 41.380001068115234,16 41.380001068115234,16 C41.380001068115234,16 39.31999969482422,16 39.31999969482422,16 C39.31999969482422,16 39.31999969482422,15.0600004196167 39.31999969482422,15.0600004196167 C38.7400016784668,15.779999732971191 37.880001068115234,16.219999313354492 36.709999084472656,16.219999313354492 C34.58000183105469,16.219999313354492 32.81999969482422,14.380000114440918 32.81999969482422,12 C32.81999969482422,9.619999885559082 34.58000183105469,7.78000020980835 36.709999084472656,7.78000020980835 C37.880001068115234,7.78000020980835 38.7400016784668,8.220000267028809 39.31999969482422,8.9399995803833 C39.31999969482422,8.9399995803833 39.31999969482422,8 39.31999969482422,8 C39.31999969482422,8 39.31999969482422,8 39.31999969482422,8z M28.450000762939453,7.78000020980835 C30.149999618530273,7.78000020980835 31.479999542236328,8.960000038146973 31.479999542236328,11.09000015258789 C31.479999542236328,11.09000015258789 31.479999542236328,16 31.479999542236328,16 C31.479999542236328,16 29.40999984741211,16 29.40999984741211,16 C29.40999984741211,16 29.40999984741211,11.34000015258789 29.40999984741211,11.34000015258789 C29.40999984741211,10.25 28.760000228881836,9.699999809265137 27.829999923706055,9.699999809265137 C26.81999969482422,9.699999809265137 26.06999969482422,10.289999961853027 26.06999969482422,11.680000305175781 C26.06999969482422,11.680000305175781 26.06999969482422,16 26.06999969482422,16 C26.06999969482422,16 24.010000228881836,16 24.010000228881836,16 C24.010000228881836,16 24.010000228881836,8 24.010000228881836,8 C24.010000228881836,8 26.06999969482422,8 26.06999969482422,8 C26.06999969482422,8 26.06999969482422,8.899999618530273 26.06999969482422,8.899999618530273 C26.549999237060547,8.180000305175781 27.3799991607666,7.78000020980835 28.450000762939453,7.78000020980835 C28.450000762939453,7.78000020980835 28.450000762939453,7.78000020980835 28.450000762939453,7.78000020980835z M17.850000381469727,14.260000228881836 C19.1299991607666,14.260000228881836 20.06999969482422,13.34000015258789 20.06999969482422,12 C20.06999969482422,10.65999984741211 19.1299991607666,9.739999771118164 17.850000381469727,9.739999771118164 C16.59000015258789,9.739999771118164 15.640000343322754,10.65999984741211 15.640000343322754,12 C15.640000343322754,13.34000015258789 16.59000015258789,14.260000228881836 17.850000381469727,14.260000228881836 C17.850000381469727,14.260000228881836 17.850000381469727,14.260000228881836 17.850000381469727,14.260000228881836z M20.06999969482422,8 C20.06999969482422,8 22.1299991607666,8 22.1299991607666,8 C22.1299991607666,8 22.1299991607666,16 22.1299991607666,16 C22.1299991607666,16 20.06999969482422,16 20.06999969482422,16 C20.06999969482422,16 20.06999969482422,15.0600004196167 20.06999969482422,15.0600004196167 C19.489999771118164,15.779999732971191 18.6299991607666,16.219999313354492 17.459999084472656,16.219999313354492 C15.329999923706055,16.219999313354492 13.569999694824219,14.380000114440918 13.569999694824219,12 C13.569999694824219,9.619999885559082 15.329999923706055,7.78000020980835 17.459999084472656,7.78000020980835 C18.6299991607666,7.78000020980835 19.489999771118164,8.220000267028809 20.06999969482422,8.9399995803833 C20.06999969482422,8.9399995803833 20.06999969482422,8 20.06999969482422,8 C20.06999969482422,8 20.06999969482422,8 20.06999969482422,8z M12,4.800000190734863 C12,4.800000190734863 12,16 12,16 C12,16 9.8100004196167,16 9.8100004196167,16 C9.8100004196167,16 9.8100004196167,8.739999771118164 9.8100004196167,8.739999771118164 C9.8100004196167,8.739999771118164 6.659999847412109,13.9399995803833 6.659999847412109,13.9399995803833 C6.659999847412109,13.9399995803833 6.400000095367432,13.9399995803833 6.400000095367432,13.9399995803833 C6.400000095367432,13.9399995803833 3.25,8.75 3.25,8.75 C3.25,8.75 3.25,16 3.25,16 C3.25,16 1.0399999618530273,16 1.0399999618530273,16 C1.0399999618530273,16 1.0399999618530273,4.800000190734863 1.0399999618530273,4.800000190734863 C1.0399999618530273,4.800000190734863 3.309999942779541,4.800000190734863 3.309999942779541,4.800000190734863 C3.309999942779541,4.800000190734863 6.53000020980835,10.100000381469727 6.53000020980835,10.100000381469727 C6.53000020980835,10.100000381469727 9.729999542236328,4.800000190734863 9.729999542236328,4.800000190734863 C9.729999542236328,4.800000190734863 12,4.800000190734863 12,4.800000190734863 C12,4.800000190734863 12,4.800000190734863 12,4.800000190734863z"></path></g><g transform="matrix(1,0,0,1,65,159)" opacity="1" style="display: block;"><path fill="rgb(71,103,135)" fill-opacity="1" d=" M109.41000366210938,7.829999923706055 C108.27999877929688,7.829999923706055 107.5,8.529999732971191 107.33000183105469,9.569999694824219 C107.33000183105469,9.569999694824219 111.33999633789062,9.569999694824219 111.33999633789062,9.569999694824219 C111.16000366210938,8.380000114440918 110.30999755859375,7.829999923706055 109.41000366210938,7.829999923706055 C109.41000366210938,7.829999923706055 109.41000366210938,7.829999923706055 109.41000366210938,7.829999923706055z M107.33000183105469,10.479999542236328 C107.52999877929688,11.5600004196167 108.38999938964844,12.170000076293945 109.51000213623047,12.170000076293945 C110.33999633789062,12.170000076293945 110.93000030517578,11.789999961853027 111.2300033569336,11.300000190734863 C111.2300033569336,11.300000190734863 112.12000274658203,11.800000190734863 112.12000274658203,11.800000190734863 C111.58999633789062,12.619999885559082 110.68000030517578,13.15999984741211 109.4800033569336,13.15999984741211 C107.55000305175781,13.15999984741211 106.2699966430664,11.800000190734863 106.2699966430664,10 C106.2699966430664,8.220000267028809 107.54000091552734,6.840000152587891 109.41000366210938,6.840000152587891 C111.22000122070312,6.840000152587891 112.4000015258789,8.329999923706055 112.4000015258789,10.010000228881836 C112.4000015258789,10.170000076293945 112.37999725341797,10.319999694824219 112.36000061035156,10.479999542236328 C112.36000061035156,10.479999542236328 107.33000183105469,10.479999542236328 107.33000183105469,10.479999542236328 C107.33000183105469,10.479999542236328 107.33000183105469,10.479999542236328 107.33000183105469,10.479999542236328z M102.81999969482422,6.840000152587891 C104.22000122070312,6.840000152587891 105.13999938964844,7.78000020980835 105.13999938964844,9.319999694824219 C105.13999938964844,9.319999694824219 105.13999938964844,13 105.13999938964844,13 C105.13999938964844,13 104.0999984741211,13 104.0999984741211,13 C104.0999984741211,13 104.0999984741211,9.380000114440918 104.0999984741211,9.380000114440918 C104.0999984741211,8.399999618530273 103.52999877929688,7.840000152587891 102.61000061035156,7.840000152587891 C101.6500015258789,7.840000152587891 100.87000274658203,8.399999618530273 100.87000274658203,9.819999694824219 C100.87000274658203,9.819999694824219 100.87000274658203,13 100.87000274658203,13 C100.87000274658203,13 99.83000183105469,13 99.83000183105469,13 C99.83000183105469,13 99.83000183105469,7 99.83000183105469,7 C99.83000183105469,7 100.87000274658203,7 100.87000274658203,7 C100.87000274658203,7 100.87000274658203,7.860000133514404 100.87000274658203,7.860000133514404 C101.30999755859375,7.150000095367432 101.9800033569336,6.840000152587891 102.81999969482422,6.840000152587891 C102.81999969482422,6.840000152587891 102.81999969482422,6.840000152587891 102.81999969482422,6.840000152587891z M95.43000030517578,12.140000343322754 C96.62999725341797,12.140000343322754 97.55000305175781,11.210000038146973 97.55000305175781,10 C97.55000305175781,8.789999961853027 96.62999725341797,7.860000133514404 95.43000030517578,7.860000133514404 C94.23999786376953,7.860000133514404 93.31999969482422,8.789999961853027 93.31999969482422,10 C93.31999969482422,11.210000038146973 94.23999786376953,12.140000343322754 95.43000030517578,12.140000343322754 C95.43000030517578,12.140000343322754 95.43000030517578,12.140000343322754 95.43000030517578,12.140000343322754z M95.43000030517578,13.15999984741211 C93.68000030517578,13.15999984741211 92.2699966430664,11.779999732971191 92.2699966430664,10 C92.2699966430664,8.220000267028809 93.68000030517578,6.840000152587891 95.43000030517578,6.840000152587891 C97.18000030517578,6.840000152587891 98.5999984741211,8.220000267028809 98.5999984741211,10 C98.5999984741211,11.779999732971191 97.18000030517578,13.15999984741211 95.43000030517578,13.15999984741211 C95.43000030517578,13.15999984741211 95.43000030517578,13.15999984741211 95.43000030517578,13.15999984741211z M86.54000091552734,9.819999694824219 C86.54000091552734,9.819999694824219 86.54000091552734,8.8100004196167 86.54000091552734,8.8100004196167 C86.54000091552734,8.8100004196167 90.91999816894531,8.8100004196167 90.91999816894531,8.8100004196167 C90.91999816894531,8.8100004196167 90.91999816894531,9.819999694824219 90.91999816894531,9.819999694824219 C90.91999816894531,9.819999694824219 86.54000091552734,9.819999694824219 86.54000091552734,9.819999694824219 C86.54000091552734,9.819999694824219 86.54000091552734,9.819999694824219 86.54000091552734,9.819999694824219z M82.6500015258789,6.840000152587891 C84.05000305175781,6.840000152587891 84.9800033569336,7.78000020980835 84.9800033569336,9.319999694824219 C84.9800033569336,9.319999694824219 84.9800033569336,13 84.9800033569336,13 C84.9800033569336,13 83.93000030517578,13 83.93000030517578,13 C83.93000030517578,13 83.93000030517578,9.380000114440918 83.93000030517578,9.380000114440918 C83.93000030517578,8.399999618530273 83.36000061035156,7.840000152587891 82.44000244140625,7.840000152587891 C81.4800033569336,7.840000152587891 80.69999694824219,8.399999618530273 80.69999694824219,9.819999694824219 C80.69999694824219,9.819999694824219 80.69999694824219,13 80.69999694824219,13 C80.69999694824219,13 79.66000366210938,13 79.66000366210938,13 C79.66000366210938,13 79.66000366210938,7 79.66000366210938,7 C79.66000366210938,7 80.69999694824219,7 80.69999694824219,7 C80.69999694824219,7 80.69999694824219,7.860000133514404 80.69999694824219,7.860000133514404 C81.13999938964844,7.150000095367432 81.80999755859375,6.840000152587891 82.6500015258789,6.840000152587891 C82.6500015258789,6.840000152587891 82.6500015258789,6.840000152587891 82.6500015258789,6.840000152587891z M75.26000213623047,12.140000343322754 C76.45999908447266,12.140000343322754 77.37999725341797,11.210000038146973 77.37999725341797,10 C77.37999725341797,8.789999961853027 76.45999908447266,7.860000133514404 75.26000213623047,7.860000133514404 C74.06999969482422,7.860000133514404 73.1500015258789,8.789999961853027 73.1500015258789,10 C73.1500015258789,11.210000038146973 74.06999969482422,12.140000343322754 75.26000213623047,12.140000343322754 C75.26000213623047,12.140000343322754 75.26000213623047,12.140000343322754 75.26000213623047,12.140000343322754z M75.26000213623047,13.15999984741211 C73.51000213623047,13.15999984741211 72.0999984741211,11.779999732971191 72.0999984741211,10 C72.0999984741211,8.220000267028809 73.51000213623047,6.840000152587891 75.26000213623047,6.840000152587891 C77.01000213623047,6.840000152587891 78.43000030517578,8.220000267028809 78.43000030517578,10 C78.43000030517578,11.779999732971191 77.01000213623047,13.15999984741211 75.26000213623047,13.15999984741211 C75.26000213623047,13.15999984741211 75.26000213623047,13.15999984741211 75.26000213623047,13.15999984741211z M66.37000274658203,9.819999694824219 C66.37000274658203,9.819999694824219 66.37000274658203,8.8100004196167 66.37000274658203,8.8100004196167 C66.37000274658203,8.8100004196167 70.75,8.8100004196167 70.75,8.8100004196167 C70.75,8.8100004196167 70.75,9.819999694824219 70.75,9.819999694824219 C70.75,9.819999694824219 66.37000274658203,9.819999694824219 66.37000274658203,9.819999694824219 C66.37000274658203,9.819999694824219 66.37000274658203,9.819999694824219 66.37000274658203,9.819999694824219z M62.08000183105469,7.829999923706055 C60.95000076293945,7.829999923706055 60.16999816894531,8.529999732971191 60,9.569999694824219 C60,9.569999694824219 64.01000213623047,9.569999694824219 64.01000213623047,9.569999694824219 C63.83000183105469,8.380000114440918 62.97999954223633,7.829999923706055 62.08000183105469,7.829999923706055 C62.08000183105469,7.829999923706055 62.08000183105469,7.829999923706055 62.08000183105469,7.829999923706055z M60,10.479999542236328 C60.20000076293945,11.5600004196167 61.04999923706055,12.170000076293945 62.16999816894531,12.170000076293945 C63,12.170000076293945 63.599998474121094,11.789999961853027 63.900001525878906,11.300000190734863 C63.900001525878906,11.300000190734863 64.79000091552734,11.800000190734863 64.79000091552734,11.800000190734863 C64.26000213623047,12.619999885559082 63.349998474121094,13.15999984741211 62.150001525878906,13.15999984741211 C60.220001220703125,13.15999984741211 58.93000030517578,11.800000190734863 58.93000030517578,10 C58.93000030517578,8.220000267028809 60.209999084472656,6.840000152587891 62.08000183105469,6.840000152587891 C63.88999938964844,6.840000152587891 65.05999755859375,8.329999923706055 65.05999755859375,10.010000228881836 C65.05999755859375,10.170000076293945 65.05000305175781,10.319999694824219 65.02999877929688,10.479999542236328 C65.02999877929688,10.479999542236328 60,10.479999542236328 60,10.479999542236328 C60,10.479999542236328 60,10.479999542236328 60,10.479999542236328z M55.47999954223633,6.840000152587891 C56.880001068115234,6.840000152587891 57.810001373291016,7.78000020980835 57.810001373291016,9.319999694824219 C57.810001373291016,9.319999694824219 57.810001373291016,13 57.810001373291016,13 C57.810001373291016,13 56.77000045776367,13 56.77000045776367,13 C56.77000045776367,13 56.77000045776367,9.380000114440918 56.77000045776367,9.380000114440918 C56.77000045776367,8.399999618530273 56.20000076293945,7.840000152587891 55.279998779296875,7.840000152587891 C54.31999969482422,7.840000152587891 53.540000915527344,8.399999618530273 53.540000915527344,9.819999694824219 C53.540000915527344,9.819999694824219 53.540000915527344,13 53.540000915527344,13 C53.540000915527344,13 52.5,13 52.5,13 C52.5,13 52.5,7 52.5,7 C52.5,7 53.540000915527344,7 53.540000915527344,7 C53.540000915527344,7 53.540000915527344,7.860000133514404 53.540000915527344,7.860000133514404 C53.97999954223633,7.150000095367432 54.63999938964844,6.840000152587891 55.47999954223633,6.840000152587891 C55.47999954223633,6.840000152587891 55.47999954223633,6.840000152587891 55.47999954223633,6.840000152587891z M46.90999984741211,12.0600004196167 C48.75,12.0600004196167 50.150001525878906,10.640000343322754 50.150001525878906,8.800000190734863 C50.150001525878906,6.949999809265137 48.75,5.519999980926514 46.90999984741211,5.519999980926514 C45.06999969482422,5.519999980926514 43.66999816894531,6.949999809265137 43.66999816894531,8.800000190734863 C43.66999816894531,10.640000343322754 45.06999969482422,12.0600004196167 46.90999984741211,12.0600004196167 C46.90999984741211,12.0600004196167 46.90999984741211,12.0600004196167 46.90999984741211,12.0600004196167z M46.90999984741211,13.15999984741211 C44.470001220703125,13.15999984741211 42.560001373291016,11.210000038146973 42.560001373291016,8.800000190734863 C42.560001373291016,6.380000114440918 44.470001220703125,4.440000057220459 46.90999984741211,4.440000057220459 C49.349998474121094,4.440000057220459 51.2599983215332,6.380000114440918 51.2599983215332,8.800000190734863 C51.2599983215332,11.210000038146973 49.349998474121094,13.15999984741211 46.90999984741211,13.15999984741211 C46.90999984741211,13.15999984741211 46.90999984741211,13.15999984741211 46.90999984741211,13.15999984741211z M38.41999816894531,11.760000228881836 C38.41999816894531,11.760000228881836 37.63999938964844,14.680000305175781 37.63999938964844,14.680000305175781 C37.63999938964844,14.680000305175781 36.7400016784668,14.680000305175781 36.7400016784668,14.680000305175781 C36.7400016784668,14.680000305175781 37.220001220703125,11.760000228881836 37.220001220703125,11.760000228881836 C37.220001220703125,11.760000228881836 38.41999816894531,11.760000228881836 38.41999816894531,11.760000228881836 C38.41999816894531,11.760000228881836 38.41999816894531,11.760000228881836 38.41999816894531,11.760000228881836z M33.08000183105469,6.840000152587891 C34.47999954223633,6.840000152587891 35.400001525878906,7.78000020980835 35.400001525878906,9.319999694824219 C35.400001525878906,9.319999694824219 35.400001525878906,13 35.400001525878906,13 C35.400001525878906,13 34.36000061035156,13 34.36000061035156,13 C34.36000061035156,13 34.36000061035156,9.380000114440918 34.36000061035156,9.380000114440918 C34.36000061035156,8.399999618530273 33.790000915527344,7.840000152587891 32.869998931884766,7.840000152587891 C31.90999984741211,7.840000152587891 31.1299991607666,8.399999618530273 31.1299991607666,9.819999694824219 C31.1299991607666,9.819999694824219 31.1299991607666,13 31.1299991607666,13 C31.1299991607666,13 30.09000015258789,13 30.09000015258789,13 C30.09000015258789,13 30.09000015258789,7 30.09000015258789,7 C30.09000015258789,7 31.1299991607666,7 31.1299991607666,7 C31.1299991607666,7 31.1299991607666,7.860000133514404 31.1299991607666,7.860000133514404 C31.56999969482422,7.150000095367432 32.2400016784668,6.840000152587891 33.08000183105469,6.840000152587891 C33.08000183105469,6.840000152587891 33.08000183105469,6.840000152587891 33.08000183105469,6.840000152587891z M27.450000762939453,13 C27.450000762939453,13 27.450000762939453,7 27.450000762939453,7 C27.450000762939453,7 28.5,7 28.5,7 C28.5,7 28.5,13 28.5,13 C28.5,13 27.450000762939453,13 27.450000762939453,13 C27.450000762939453,13 27.450000762939453,13 27.450000762939453,13z M27.979999542236328,5.909999847412109 C27.579999923706055,5.909999847412109 27.270000457763672,5.590000152587891 27.270000457763672,5.210000038146973 C27.270000457763672,4.829999923706055 27.579999923706055,4.5 27.979999542236328,4.5 C28.360000610351562,4.5 28.68000030517578,4.829999923706055 28.68000030517578,5.210000038146973 C28.68000030517578,5.590000152587891 28.360000610351562,5.909999847412109 27.979999542236328,5.909999847412109 C27.979999542236328,5.909999847412109 27.979999542236328,5.909999847412109 27.979999542236328,5.909999847412109z M23.75,6.840000152587891 C25.079999923706055,6.840000152587891 26,7.769999980926514 26,9.270000457763672 C26,9.270000457763672 26,13 26,13 C26,13 24.959999084472656,13 24.959999084472656,13 C24.959999084472656,13 24.959999084472656,9.300000190734863 24.959999084472656,9.300000190734863 C24.959999084472656,8.350000381469727 24.43000030517578,7.840000152587891 23.639999389648438,7.840000152587891 C22.799999237060547,7.840000152587891 22.15999984741211,8.359999656677246 22.15999984741211,9.65999984741211 C22.15999984741211,9.65999984741211 22.15999984741211,13 22.15999984741211,13 C22.15999984741211,13 21.1200008392334,13 21.1200008392334,13 C21.1200008392334,13 21.1200008392334,9.300000190734863 21.1200008392334,9.300000190734863 C21.1200008392334,8.350000381469727 20.6299991607666,7.840000152587891 19.850000381469727,7.840000152587891 C19.049999237060547,7.840000152587891 18.309999465942383,8.359999656677246 18.309999465942383,9.65999984741211 C18.309999465942383,9.65999984741211 18.309999465942383,13 18.309999465942383,13 C18.309999465942383,13 17.270000457763672,13 17.270000457763672,13 C17.270000457763672,13 17.270000457763672,7 17.270000457763672,7 C17.270000457763672,7 18.309999465942383,7 18.309999465942383,7 C18.309999465942383,7 18.309999465942383,7.800000190734863 18.309999465942383,7.800000190734863 C18.739999771118164,7.130000114440918 19.3700008392334,6.840000152587891 20.100000381469727,6.840000152587891 C20.920000076293945,6.840000152587891 21.510000228881836,7.210000038146973 21.860000610351562,7.860000133514404 C22.280000686645508,7.179999828338623 22.969999313354492,6.840000152587891 23.75,6.840000152587891 C23.75,6.840000152587891 23.75,6.840000152587891 23.75,6.840000152587891z M10.199999809265137,7.880000114440918 C11.699999809265137,7.880000114440918 13.029999732971191,8.800000190734863 13.029999732971191,10.520000457763672 C13.029999732971191,12.220000267028809 11.65999984741211,13.15999984741211 10.149999618530273,13.15999984741211 C8.90999984741211,13.15999984741211 7.789999961853027,12.5600004196167 7.380000114440918,11.359999656677246 C7.380000114440918,11.359999656677246 8.329999923706055,10.819999694824219 8.329999923706055,10.819999694824219 C8.5600004196167,11.649999618530273 9.239999771118164,12.0600004196167 10.149999618530273,12.0600004196167 C11.170000076293945,12.0600004196167 11.930000305175781,11.520000457763672 11.930000305175781,10.520000457763672 C11.930000305175781,9.510000228881836 11.180000305175781,8.960000038146973 10.180000305175781,8.960000038146973 C10.180000305175781,8.960000038146973 7.800000190734863,8.960000038146973 7.800000190734863,8.960000038146973 C7.800000190734863,8.960000038146973 8.109999656677246,4.599999904632568 8.109999656677246,4.599999904632568 C8.109999656677246,4.599999904632568 12.710000038146973,4.599999904632568 12.710000038146973,4.599999904632568 C12.710000038146973,4.599999904632568 12.710000038146973,5.639999866485596 12.710000038146973,5.639999866485596 C12.710000038146973,5.639999866485596 9.119999885559082,5.639999866485596 9.119999885559082,5.639999866485596 C9.119999885559082,5.639999866485596 8.979999542236328,7.880000114440918 8.979999542236328,7.880000114440918 C8.979999542236328,7.880000114440918 10.199999809265137,7.880000114440918 10.199999809265137,7.880000114440918 C10.199999809265137,7.880000114440918 10.199999809265137,7.880000114440918 10.199999809265137,7.880000114440918z M6.710000038146973,10.359999656677246 C6.710000038146973,10.359999656677246 6.710000038146973,11.399999618530273 6.710000038146973,11.399999618530273 C6.710000038146973,11.399999618530273 5.690000057220459,11.399999618530273 5.690000057220459,11.399999618530273 C5.690000057220459,11.399999618530273 5.690000057220459,13 5.690000057220459,13 C5.690000057220459,13 4.570000171661377,13 4.570000171661377,13 C4.570000171661377,13 4.570000171661377,11.399999618530273 4.570000171661377,11.399999618530273 C4.570000171661377,11.399999618530273 0.28999999165534973,11.399999618530273 0.28999999165534973,11.399999618530273 C0.28999999165534973,11.399999618530273 0.28999999165534973,10.359999656677246 0.28999999165534973,10.359999656677246 C0.28999999165534973,10.359999656677246 3.299999952316284,4.599999904632568 3.299999952316284,4.599999904632568 C3.299999952316284,4.599999904632568 4.5,4.599999904632568 4.5,4.599999904632568 C4.5,4.599999904632568 1.4900000095367432,10.359999656677246 1.4900000095367432,10.359999656677246 C1.4900000095367432,10.359999656677246 4.570000171661377,10.359999656677246 4.570000171661377,10.359999656677246 C4.570000171661377,10.359999656677246 4.570000171661377,7.980000019073486 4.570000171661377,7.980000019073486 C4.570000171661377,7.980000019073486 5.690000057220459,7.980000019073486 5.690000057220459,7.980000019073486 C5.690000057220459,7.980000019073486 5.690000057220459,10.359999656677246 5.690000057220459,10.359999656677246 C5.690000057220459,10.359999656677246 6.710000038146973,10.359999656677246 6.710000038146973,10.359999656677246 C6.710000038146973,10.359999656677246 6.710000038146973,10.359999656677246 6.710000038146973,10.359999656677246z"></path></g></g></svg>