<svg xmlns="http://www.w3.org/2000/svg" width="20" height="20" fill="none" viewBox="0 0 20 20" class="sc-95163c4c-0 hnYhRN apple-brand-icon"><path fill="#000" d="M17.369 14.287a9.97 9.97 0 0 1-.986 1.773c-.518.739-.942 1.25-1.27 1.534-.506.466-1.05.705-1.631.719-.418 0-.921-.12-1.508-.36-.588-.24-1.128-.359-1.623-.359-.518 0-1.074.119-1.668.359-.596.24-1.075.367-1.442.379-.558.024-1.114-.222-1.669-.738-.354-.309-.797-.838-1.328-1.589-.57-.8-1.038-1.73-1.404-2.79-.393-1.143-.59-2.251-.59-3.324 0-1.228.265-2.288.797-3.176a4.677 4.677 0 0 1 1.67-1.69 4.492 4.492 0 0 1 2.257-.636c.443 0 1.024.137 1.746.406.72.27 1.183.408 1.385.408.152 0 .665-.16 1.536-.48.823-.296 1.518-.42 2.087-.37 1.543.124 2.702.732 3.472 1.827-1.38.836-2.062 2.007-2.048 3.509.012 1.17.437 2.143 1.27 2.916.379.358.8.636 1.27.833-.101.295-.209.578-.323.85ZM13.83.367c0 .917-.335 1.773-1.002 2.565-.806.942-1.78 1.487-2.837 1.4a2.854 2.854 0 0 1-.022-.347c0-.88.383-1.822 1.064-2.592.34-.39.772-.714 1.296-.973.522-.255 1.017-.396 1.482-.42.014.123.02.245.02.367Z"></path></svg>