<svg xmlns="http://www.w3.org/2000/svg" xmlns:xlink="http://www.w3.org/1999/xlink" viewBox="0 0 282 232" width="282" height="232" preserveAspectRatio="xMidYMid meet" style="width: 100%; height: 100%; transform: translate3d(0px, 0px, 0px); content-visibility: visible;"><defs><clipPath id="__lottie_element_335"><rect width="282" height="232" x="0" y="0"></rect></clipPath><filter id="__lottie_element_341" x="-50%" y="-50%" width="200%" height="200%"><feGaussianBlur in="SourceAlpha" result="filter_result_0_drop_shadow_1" stdDeviation="2.2275"></feGaussianBlur><feOffset dx="2.4431703642989695e-16" dy="3.99" in="filter_result_0_drop_shadow_1" result="filter_result_0_drop_shadow_2"></feOffset><feFlood flood-color="#476788" flood-opacity="0.040549019607843136" result="filter_result_0_drop_shadow_3"></feFlood><feComposite in="filter_result_0_drop_shadow_3" in2="filter_result_0_drop_shadow_2" operator="in" result="filter_result_0_drop_shadow_4"></feComposite><feMerge result="filter_result_0"><feMergeNode in="filter_result_0_drop_shadow_4"></feMergeNode><feMergeNode in="SourceGraphic"></feMergeNode></feMerge><feGaussianBlur in="SourceAlpha" result="filter_result_1_drop_shadow_1" stdDeviation="5"></feGaussianBlur><feOffset dx="3.6739403974420594e-16" dy="6" in="filter_result_1_drop_shadow_1" result="filter_result_1_drop_shadow_2"></feOffset><feFlood flood-color="#476788" flood-opacity="0.050196078431372554" result="filter_result_1_drop_shadow_3"></feFlood><feComposite in="filter_result_1_drop_shadow_3" in2="filter_result_1_drop_shadow_2" operator="in" result="filter_result_1_drop_shadow_4"></feComposite><feMerge result="filter_result_1"><feMergeNode in="filter_result_1_drop_shadow_4"></feMergeNode><feMergeNode in="filter_result_0"></feMergeNode></feMerge></filter><filter id="__lottie_element_350" x="-50%" y="-50%" width="200%" height="200%"><feGaussianBlur in="SourceAlpha" result="filter_result_0_drop_shadow_1" stdDeviation="2.2275"></feGaussianBlur><feOffset dx="2.4431703642989695e-16" dy="3.99" in="filter_result_0_drop_shadow_1" result="filter_result_0_drop_shadow_2"></feOffset><feFlood flood-color="#476788" flood-opacity="0.040549019607843136" result="filter_result_0_drop_shadow_3"></feFlood><feComposite in="filter_result_0_drop_shadow_3" in2="filter_result_0_drop_shadow_2" operator="in" result="filter_result_0_drop_shadow_4"></feComposite><feMerge result="filter_result_0"><feMergeNode in="filter_result_0_drop_shadow_4"></feMergeNode><feMergeNode in="SourceGraphic"></feMergeNode></feMerge><feGaussianBlur in="SourceAlpha" result="filter_result_1_drop_shadow_1" stdDeviation="5"></feGaussianBlur><feOffset dx="3.6739403974420594e-16" dy="6" in="filter_result_1_drop_shadow_1" result="filter_result_1_drop_shadow_2"></feOffset><feFlood flood-color="#476788" flood-opacity="0.050196078431372554" result="filter_result_1_drop_shadow_3"></feFlood><feComposite in="filter_result_1_drop_shadow_3" in2="filter_result_1_drop_shadow_2" operator="in" result="filter_result_1_drop_shadow_4"></feComposite><feMerge result="filter_result_1"><feMergeNode in="filter_result_1_drop_shadow_4"></feMergeNode><feMergeNode in="filter_result_0"></feMergeNode></feMerge></filter><filter id="__lottie_element_359" x="-50%" y="-50%" width="200%" height="200%"><feGaussianBlur in="SourceAlpha" result="filter_result_0_drop_shadow_1" stdDeviation="2.2275"></feGaussianBlur><feOffset dx="2.4431703642989695e-16" dy="3.99" in="filter_result_0_drop_shadow_1" result="filter_result_0_drop_shadow_2"></feOffset><feFlood flood-color="#476788" flood-opacity="0.040549019607843136" result="filter_result_0_drop_shadow_3"></feFlood><feComposite in="filter_result_0_drop_shadow_3" in2="filter_result_0_drop_shadow_2" operator="in" result="filter_result_0_drop_shadow_4"></feComposite><feMerge result="filter_result_0"><feMergeNode in="filter_result_0_drop_shadow_4"></feMergeNode><feMergeNode in="SourceGraphic"></feMergeNode></feMerge><feGaussianBlur in="SourceAlpha" result="filter_result_1_drop_shadow_1" stdDeviation="5"></feGaussianBlur><feOffset dx="3.6739403974420594e-16" dy="6" in="filter_result_1_drop_shadow_1" result="filter_result_1_drop_shadow_2"></feOffset><feFlood flood-color="#476788" flood-opacity="0.050196078431372554" result="filter_result_1_drop_shadow_3"></feFlood><feComposite in="filter_result_1_drop_shadow_3" in2="filter_result_1_drop_shadow_2" operator="in" result="filter_result_1_drop_shadow_4"></feComposite><feMerge result="filter_result_1"><feMergeNode in="filter_result_1_drop_shadow_4"></feMergeNode><feMergeNode in="filter_result_0"></feMergeNode></feMerge></filter><filter id="__lottie_element_380" x="-50%" y="-50%" width="200%" height="200%"><feGaussianBlur in="SourceAlpha" result="filter_result_0_drop_shadow_1" stdDeviation="2.5"></feGaussianBlur><feOffset dx="2.4492935982947064e-16" dy="4" in="filter_result_0_drop_shadow_1" result="filter_result_0_drop_shadow_2"></feOffset><feFlood flood-color="#476788" flood-opacity="0.04015686274509804" result="filter_result_0_drop_shadow_3"></feFlood><feComposite in="filter_result_0_drop_shadow_3" in2="filter_result_0_drop_shadow_2" operator="in" result="filter_result_0_drop_shadow_4"></feComposite><feMerge result="filter_result_0"><feMergeNode in="filter_result_0_drop_shadow_4"></feMergeNode><feMergeNode in="SourceGraphic"></feMergeNode></feMerge><feGaussianBlur in="SourceAlpha" result="filter_result_1_drop_shadow_1" stdDeviation="7.5"></feGaussianBlur><feOffset dx="4.898587196589413e-16" dy="8" in="filter_result_1_drop_shadow_1" result="filter_result_1_drop_shadow_2"></feOffset><feFlood flood-color="#476788" flood-opacity="0.030117647058823527" result="filter_result_1_drop_shadow_3"></feFlood><feComposite in="filter_result_1_drop_shadow_3" in2="filter_result_1_drop_shadow_2" operator="in" result="filter_result_1_drop_shadow_4"></feComposite><feMerge result="filter_result_1"><feMergeNode in="filter_result_1_drop_shadow_4"></feMergeNode><feMergeNode in="filter_result_0"></feMergeNode></feMerge><feGaussianBlur in="SourceAlpha" result="filter_result_2_drop_shadow_1" stdDeviation="25"></feGaussianBlur><feOffset dx="1.83697019872103e-15" dy="30" in="filter_result_2_drop_shadow_1" result="filter_result_2_drop_shadow_2"></feOffset><feFlood flood-color="#476788" flood-opacity="0.08031372549019608" result="filter_result_2_drop_shadow_3"></feFlood><feComposite in="filter_result_2_drop_shadow_3" in2="filter_result_2_drop_shadow_2" operator="in" result="filter_result_2_drop_shadow_4"></feComposite><feMerge result="filter_result_2"><feMergeNode in="filter_result_2_drop_shadow_4"></feMergeNode><feMergeNode in="filter_result_1"></feMergeNode></feMerge></filter></defs><g clip-path="url(#__lottie_element_335)"><g transform="matrix(1,0,0,1,0,0)" opacity="1" style="display: block;"><path fill="rgb(255,255,255)" fill-opacity="1" d=" M282,0 C282,0 282,232 282,232 C282,232 0,232 0,232 C0,232 0,0 0,0 C0,0 282,0 282,0z"></path></g><g transform="matrix(1,0,0,1,158.39999389648438,0.1699981689453125)" opacity="1" style="mix-blend-mode: multiply; display: block;"><path fill="rgb(231,237,246)" fill-opacity="1" d=" M209.88999938964844,0 C209.88999938964844,0 103.33999633789062,0 103.33999633789062,0 C85.44999694824219,0 68.91999816894531,9.550000190734863 59.9900016784668,25.030000686645508 C59.9900016784668,25.030000686645508 6.699999809265137,117.30000305175781 6.699999809265137,117.30000305175781 C-2.2300000190734863,132.77999877929688 -2.2300000190734863,151.8800048828125 6.699999809265137,167.36000061035156 C6.699999809265137,167.36000061035156 59.9900016784668,259.6400146484375 59.9900016784668,259.6400146484375 C68.91999816894531,275.1199951171875 85.44999694824219,284.6700134277344 103.33999633789062,284.6700134277344 C103.33999633789062,284.6700134277344 209.88999938964844,284.6700134277344 209.88999938964844,284.6700134277344 C227.77999877929688,284.6700134277344 244.3000030517578,275.1199951171875 253.24000549316406,259.6400146484375 C253.24000549316406,259.6400146484375 306.510009765625,167.36000061035156 306.510009765625,167.36000061035156 C315.44000244140625,151.8800048828125 315.44000244140625,132.77999877929688 306.510009765625,117.30000305175781 C306.510009765625,117.30000305175781 253.24000549316406,25.030000686645508 253.24000549316406,25.030000686645508 C244.3000030517578,9.550000190734863 227.77999877929688,0 209.88999938964844,0 C209.88999938964844,0 209.88999938964844,0 209.88999938964844,0z"></path></g><g transform="matrix(0.8660253882408142,-0.5,0.5,0.8660253882408142,-77.52547454833984,58.501922607421875)" opacity="1" style="mix-blend-mode: multiply; display: block;"><path fill="rgb(231,237,246)" fill-opacity="1" d=" M90.27999877929688,0 C90.27999877929688,0 44.45000076293945,0 44.45000076293945,0 C36.75,0 29.639999389648438,4.110000133514404 25.799999237060547,10.770000457763672 C25.799999237060547,10.770000457763672 2.880000114440918,50.45000076293945 2.880000114440918,50.45000076293945 C-0.9599999785423279,57.11000061035156 -0.9599999785423279,65.33000183105469 2.880000114440918,71.98999786376953 C2.880000114440918,71.98999786376953 25.799999237060547,111.66999816894531 25.799999237060547,111.66999816894531 C29.639999389648438,118.33000183105469 36.75,122.44000244140625 44.45000076293945,122.44000244140625 C44.45000076293945,122.44000244140625 90.27999877929688,122.44000244140625 90.27999877929688,122.44000244140625 C97.9800033569336,122.44000244140625 105.08000183105469,118.33000183105469 108.91999816894531,111.66999816894531 C108.91999816894531,111.66999816894531 131.8300018310547,71.98999786376953 131.8300018310547,71.98999786376953 C135.6699981689453,65.33000183105469 135.6699981689453,57.11000061035156 131.8300018310547,50.45000076293945 C131.8300018310547,50.45000076293945 108.91999816894531,10.770000457763672 108.91999816894531,10.770000457763672 C105.08000183105469,4.110000133514404 97.9800033569336,0 90.27999877929688,0 C90.27999877929688,0 90.27999877929688,0 90.27999877929688,0z"></path></g><g filter="url(#__lottie_element_380)" transform="matrix(1,0,0,1,17,23)" opacity="1" style="display: block;"><path fill="rgb(211,224,237)" fill-opacity="0.4" d=" M248,24 C248,24 248,162 248,162 C248,175.25 237.25,186 224,186 C224,186 24,186 24,186 C10.75,186 0,175.25 0,162 C0,162 0,24 0,24 C0,10.75 10.75,0 24,0 C24,0 224,0 224,0 C237.25,0 248,10.75 248,24z"></path></g><g transform="matrix(1,0,0,1,25,31)" opacity="1" style="display: block;"><path fill="rgb(255,255,255)" fill-opacity="0.8" d=" M232,16 C232,16 232,154 232,154 C232,162.8300018310547 224.8300018310547,170 216,170 C216,170 16,170 16,170 C7.170000076293945,170 0,162.8300018310547 0,154 C0,154 0,16 0,16 C0,7.170000076293945 7.170000076293945,0 16,0 C16,0 216,0 216,0 C224.8300018310547,0 232,7.170000076293945 232,16z"></path></g><g transform="matrix(1,0,0,1,45,47)" opacity="1" style="display: block;"><path fill="rgb(230,239,255)" fill-opacity="1" d=" M192,15 C192,15 192,15 192,15 C192,23.280000686645508 185.27999877929688,30 177,30 C177,30 15,30 15,30 C6.71999979019165,30 0,23.280000686645508 0,15 C0,15 0,15 0,15 C0,6.71999979019165 6.71999979019165,0 15,0 C15,0 177,0 177,0 C185.27999877929688,0 192,6.71999979019165 192,15z"></path></g><g transform="matrix(1,0,0,1,66.86000061035156,54.36000061035156)" opacity="1" style="display: block;"><path fill="rgb(0,78,186)" fill-opacity="1" d=" M15.289999961853027,3.4800000190734863 C15.289999961853027,3.140000104904175 15.1899995803833,2.799999952316284 15.010000228881836,2.509999990463257 C14.829999923706055,2.2200000286102295 14.579999923706055,1.9800000190734863 14.279999732971191,1.8200000524520874 C13.979999542236328,1.659999966621399 13.640000343322754,1.5800000429153442 13.300000190734863,1.590000033378601 C12.960000038146973,1.600000023841858 12.630000114440918,1.7100000381469727 12.34000015258789,1.899999976158142 C12.050000190734863,2.0899999141693115 11.819999694824219,2.3399999141693115 11.670000076293945,2.6500000953674316 C11.520000457763672,2.9600000381469727 11.449999809265137,3.2899999618530273 11.470000267028809,3.630000114440918 C11.489999771118164,3.9700000286102295 11.609999656677246,4.309999942779541 11.800000190734863,4.590000152587891 C11.989999771118164,4.869999885559082 12.260000228881836,5.099999904632568 12.569999694824219,5.239999771118164 C12.270000457763672,6.119999885559082 11.600000381469727,7.650000095367432 10.510000228881836,7.650000095367432 C9.050000190734863,7.650000095367432 8.600000381469727,5.650000095367432 8.260000228881836,3.7200000286102295 C8.6899995803833,3.569999933242798 9.0600004196167,3.2799999713897705 9.289999961853027,2.890000104904175 C9.520000457763672,2.5 9.600000381469727,2.049999952316284 9.529999732971191,1.600000023841858 C9.460000038146973,1.149999976158142 9.229999542236328,0.7400000095367432 8.880000114440918,0.44999998807907104 C8.529999732971191,0.1599999964237213 8.09000015258789,0 7.639999866485596,0 C7.190000057220459,0 6.760000228881836,0.1599999964237213 6.409999847412109,0.44999998807907104 C6.059999942779541,0.7400000095367432 5.829999923706055,1.149999976158142 5.760000228881836,1.600000023841858 C5.690000057220459,2.049999952316284 5.769999980926514,2.5 6,2.890000104904175 C6.230000019073486,3.2799999713897705 6.599999904632568,3.569999933242798 7.03000020980835,3.7200000286102295 C6.670000076293945,5.690000057220459 6.239999771118164,7.650000095367432 4.78000020980835,7.650000095367432 C3.690000057220459,7.650000095367432 3.009999990463257,6.119999885559082 2.7100000381469727,5.239999771118164 C3.119999885559082,5.050000190734863 3.450000047683716,4.71999979019165 3.640000104904175,4.320000171661377 C3.8299999237060547,3.9200000762939453 3.869999885559082,3.450000047683716 3.759999990463257,3.0199999809265137 C3.6500000953674316,2.5899999141693115 3.390000104904175,2.2100000381469727 3.0299999713897705,1.9500000476837158 C2.6700000762939453,1.690000057220459 2.2300000190734863,1.5700000524520874 1.7799999713897705,1.600000023841858 C1.3300000429153442,1.6299999952316284 0.9100000262260437,1.809999942779541 0.5899999737739563,2.119999885559082 C0.27000001072883606,2.430000066757202 0.05999999865889549,2.8499999046325684 0.009999999776482582,3.2899999618530273 C-0.03999999910593033,3.7300000190734863 0.07000000029802322,4.179999828338623 0.3199999928474426,4.550000190734863 C0.5699999928474426,4.920000076293945 0.9300000071525574,5.199999809265137 1.3600000143051147,5.329999923706055 C1.3600000143051147,5.329999923706055 2.4000000953674316,11.569999694824219 2.4000000953674316,11.569999694824219 C2.4200000762939453,11.720000267028809 2.5,11.859999656677246 2.619999885559082,11.960000038146973 C2.740000009536743,12.0600004196167 2.880000114440918,12.109999656677246 3.0299999713897705,12.109999656677246 C3.0299999713897705,12.109999656677246 12.270000457763672,12.109999656677246 12.270000457763672,12.109999656677246 C12.420000076293945,12.109999656677246 12.569999694824219,12.0600004196167 12.6899995803833,11.960000038146973 C12.8100004196167,11.859999656677246 12.890000343322754,11.720000267028809 12.90999984741211,11.569999694824219 C12.90999984741211,11.569999694824219 13.9399995803833,5.329999923706055 13.9399995803833,5.329999923706055 C14.329999923706055,5.210000038146973 14.680000305175781,4.960000038146973 14.920000076293945,4.630000114440918 C15.15999984741211,4.300000190734863 15.289999961853027,3.890000104904175 15.289999961853027,3.4800000190734863 C15.289999961853027,3.4800000190734863 15.289999961853027,3.4800000190734863 15.289999961853027,3.4800000190734863 C15.289999961853027,3.4800000190734863 15.289999961853027,3.4800000190734863 15.289999961853027,3.4800000190734863z"></path></g><g transform="matrix(1,0,0,1,69.25,67.38999938964844)" opacity="1" style="display: block;"><path fill="rgb(0,78,186)" fill-opacity="1" d=" M9.869999885559082,0 C9.869999885559082,0 0.6399999856948853,0 0.6399999856948853,0 C0.4699999988079071,0 0.3100000023841858,0.07000000029802322 0.1899999976158142,0.1899999976158142 C0.07000000029802322,0.3100000023841858 0,0.4699999988079071 0,0.6399999856948853 C0,0.8100000023841858 0.07000000029802322,0.9700000286102295 0.1899999976158142,1.090000033378601 C0.3100000023841858,1.2100000381469727 0.4699999988079071,1.2699999809265137 0.6399999856948853,1.2699999809265137 C0.6399999856948853,1.2699999809265137 9.869999885559082,1.2699999809265137 9.869999885559082,1.2699999809265137 C10.039999961853027,1.2699999809265137 10.199999809265137,1.2100000381469727 10.319999694824219,1.090000033378601 C10.4399995803833,0.9700000286102295 10.510000228881836,0.8100000023841858 10.510000228881836,0.6399999856948853 C10.510000228881836,0.4699999988079071 10.4399995803833,0.3100000023841858 10.319999694824219,0.1899999976158142 C10.199999809265137,0.07000000029802322 10.039999961853027,0 9.869999885559082,0 C9.869999885559082,0 9.869999885559082,0 9.869999885559082,0z"></path></g><g transform="matrix(1,0,0,1,87.69000244140625,53)" opacity="1" style="display: block;"><path fill="rgb(0,78,186)" fill-opacity="1" d=" M132.13999938964844,7.460000038146973 C132.13999938964844,7.460000038146973 130.41000366210938,7.460000038146973 130.41000366210938,7.460000038146973 C130.41000366210938,7.460000038146973 130.41000366210938,10.819999694824219 130.41000366210938,10.819999694824219 C130.41000366210938,11.720000267028809 130.99000549316406,11.699999809265137 132.13999938964844,11.640000343322754 C132.13999938964844,11.640000343322754 132.13999938964844,13 132.13999938964844,13 C129.82000732421875,13.279999732971191 128.88999938964844,12.640000343322754 128.88999938964844,10.819999694824219 C128.88999938964844,10.819999694824219 128.88999938964844,7.460000038146973 128.88999938964844,7.460000038146973 C128.88999938964844,7.460000038146973 127.61000061035156,7.460000038146973 127.61000061035156,7.460000038146973 C127.61000061035156,7.460000038146973 127.61000061035156,6 127.61000061035156,6 C127.61000061035156,6 128.88999938964844,6 128.88999938964844,6 C128.88999938964844,6 128.88999938964844,4.489999771118164 128.88999938964844,4.489999771118164 C128.88999938964844,4.489999771118164 130.41000366210938,4.039999961853027 130.41000366210938,4.039999961853027 C130.41000366210938,4.039999961853027 130.41000366210938,6 130.41000366210938,6 C130.41000366210938,6 132.13999938964844,6 132.13999938964844,6 C132.13999938964844,6 132.13999938964844,7.460000038146973 132.13999938964844,7.460000038146973 C132.13999938964844,7.460000038146973 132.13999938964844,7.460000038146973 132.13999938964844,7.460000038146973z M123.91999816894531,5.820000171661377 C125.48999786376953,5.820000171661377 126.61000061035156,6.880000114440918 126.61000061035156,8.699999809265137 C126.61000061035156,8.699999809265137 126.61000061035156,13 126.61000061035156,13 C126.61000061035156,13 125.0999984741211,13 125.0999984741211,13 C125.0999984741211,13 125.0999984741211,8.859999656677246 125.0999984741211,8.859999656677246 C125.0999984741211,7.800000190734863 124.4800033569336,7.230000019073486 123.52999877929688,7.230000019073486 C122.54000091552734,7.230000019073486 121.75,7.820000171661377 121.75,9.25 C121.75,9.25 121.75,13 121.75,13 C121.75,13 120.23999786376953,13 120.23999786376953,13 C120.23999786376953,13 120.23999786376953,6 120.23999786376953,6 C120.23999786376953,6 121.75,6 121.75,6 C121.75,6 121.75,6.900000095367432 121.75,6.900000095367432 C122.20999908447266,6.170000076293945 122.97000122070312,5.820000171661377 123.91999816894531,5.820000171661377 C123.91999816894531,5.820000171661377 123.91999816894531,5.820000171661377 123.91999816894531,5.820000171661377z M113.2699966430664,8.90999984741211 C113.2699966430664,8.90999984741211 117.37999725341797,8.90999984741211 117.37999725341797,8.90999984741211 C117.16999816894531,7.710000038146973 116.29000091552734,7.190000057220459 115.37999725341797,7.190000057220459 C114.25,7.190000057220459 113.4800033569336,7.860000133514404 113.2699966430664,8.90999984741211 C113.2699966430664,8.90999984741211 113.2699966430664,8.90999984741211 113.2699966430664,8.90999984741211z M113.27999877929688,10.140000343322754 C113.5199966430664,11.229999542236328 114.4000015258789,11.800000190734863 115.5199966430664,11.800000190734863 C116.36000061035156,11.800000190734863 116.98999786376953,11.420000076293945 117.33000183105469,10.930000305175781 C117.33000183105469,10.930000305175781 118.56999969482422,11.65999984741211 118.56999969482422,11.65999984741211 C117.93000030517578,12.609999656677246 116.87999725341797,13.180000305175781 115.51000213623047,13.180000305175781 C113.19999694824219,13.180000305175781 111.69999694824219,11.600000381469727 111.69999694824219,9.5 C111.69999694824219,7.429999828338623 113.19000244140625,5.820000171661377 115.38999938964844,5.820000171661377 C117.4800033569336,5.820000171661377 118.91000366210938,7.489999771118164 118.91000366210938,9.510000228881836 C118.91000366210938,9.720000267028809 118.87999725341797,9.9399995803833 118.8499984741211,10.140000343322754 C118.8499984741211,10.140000343322754 113.27999877929688,10.140000343322754 113.27999877929688,10.140000343322754 C113.27999877929688,10.140000343322754 113.27999877929688,10.140000343322754 113.27999877929688,10.140000343322754z M107.83000183105469,5.820000171661377 C109.41000366210938,5.820000171661377 110.47000122070312,6.909999847412109 110.47000122070312,8.65999984741211 C110.47000122070312,8.65999984741211 110.47000122070312,13 110.47000122070312,13 C110.47000122070312,13 108.95999908447266,13 108.95999908447266,13 C108.95999908447266,13 108.95999908447266,8.760000228881836 108.95999908447266,8.760000228881836 C108.95999908447266,7.78000020980835 108.43000030517578,7.230000019073486 107.5999984741211,7.230000019073486 C106.69999694824219,7.230000019073486 106.08000183105469,7.809999942779541 106.08000183105469,9.079999923706055 C106.08000183105469,9.079999923706055 106.08000183105469,13 106.08000183105469,13 C106.08000183105469,13 104.55999755859375,13 104.55999755859375,13 C104.55999755859375,13 104.55999755859375,8.760000228881836 104.55999755859375,8.760000228881836 C104.55999755859375,7.78000020980835 104.08000183105469,7.230000019073486 103.25,7.230000019073486 C102.4000015258789,7.230000019073486 101.69000244140625,7.809999942779541 101.69000244140625,9.079999923706055 C101.69000244140625,9.079999923706055 101.69000244140625,13 101.69000244140625,13 C101.69000244140625,13 100.18000030517578,13 100.18000030517578,13 C100.18000030517578,13 100.18000030517578,6 100.18000030517578,6 C100.18000030517578,6 101.69000244140625,6 101.69000244140625,6 C101.69000244140625,6 101.69000244140625,6.840000152587891 101.69000244140625,6.840000152587891 C102.13999938964844,6.150000095367432 102.83000183105469,5.820000171661377 103.69999694824219,5.820000171661377 C104.61000061035156,5.820000171661377 105.2699966430664,6.21999979019165 105.68000030517578,6.920000076293945 C106.13999938964844,6.190000057220459 106.88999938964844,5.820000171661377 107.83000183105469,5.820000171661377 C107.83000183105469,5.820000171661377 107.83000183105469,5.820000171661377 107.83000183105469,5.820000171661377z M93.20999908447266,8.90999984741211 C93.20999908447266,8.90999984741211 97.31999969482422,8.90999984741211 97.31999969482422,8.90999984741211 C97.11000061035156,7.710000038146973 96.2300033569336,7.190000057220459 95.31999969482422,7.190000057220459 C94.19000244140625,7.190000057220459 93.41999816894531,7.860000133514404 93.20999908447266,8.90999984741211 C93.20999908447266,8.90999984741211 93.20999908447266,8.90999984741211 93.20999908447266,8.90999984741211z M93.22000122070312,10.140000343322754 C93.45999908447266,11.229999542236328 94.33999633789062,11.800000190734863 95.45999908447266,11.800000190734863 C96.30000305175781,11.800000190734863 96.93000030517578,11.420000076293945 97.2699966430664,10.930000305175781 C97.2699966430664,10.930000305175781 98.51000213623047,11.65999984741211 98.51000213623047,11.65999984741211 C97.87000274658203,12.609999656677246 96.81999969482422,13.180000305175781 95.44999694824219,13.180000305175781 C93.13999938964844,13.180000305175781 91.63999938964844,11.600000381469727 91.63999938964844,9.5 C91.63999938964844,7.429999828338623 93.13999938964844,5.820000171661377 95.33999633789062,5.820000171661377 C97.43000030517578,5.820000171661377 98.8499984741211,7.489999771118164 98.8499984741211,9.510000228881836 C98.8499984741211,9.720000267028809 98.81999969482422,9.9399995803833 98.79000091552734,10.140000343322754 C98.79000091552734,10.140000343322754 93.22000122070312,10.140000343322754 93.22000122070312,10.140000343322754 C93.22000122070312,10.140000343322754 93.22000122070312,10.140000343322754 93.22000122070312,10.140000343322754z M86.55999755859375,11.630000114440918 C87.83000183105469,11.630000114440918 88.79000091552734,10.6899995803833 88.79000091552734,9.430000305175781 C88.79000091552734,8.170000076293945 87.83000183105469,7.230000019073486 86.55999755859375,7.230000019073486 C85.29000091552734,7.230000019073486 84.33000183105469,8.170000076293945 84.33000183105469,9.430000305175781 C84.33000183105469,10.6899995803833 85.29000091552734,11.630000114440918 86.55999755859375,11.630000114440918 C86.55999755859375,11.630000114440918 86.55999755859375,11.630000114440918 86.55999755859375,11.630000114440918z M88.79000091552734,6 C88.79000091552734,6 90.2699966430664,6 90.2699966430664,6 C90.2699966430664,6 90.2699966430664,12.680000305175781 90.2699966430664,12.680000305175781 C90.2699966430664,14.930000305175781 88.5,15.979999542236328 86.66999816894531,15.979999542236328 C85.12999725341797,15.979999542236328 83.94000244140625,15.40999984741211 83.3499984741211,14.289999961853027 C83.3499984741211,14.289999961853027 84.66000366210938,13.529999732971191 84.66000366210938,13.529999732971191 C84.97000122070312,14.130000114440918 85.4800033569336,14.609999656677246 86.69999694824219,14.609999656677246 C88,14.609999656677246 88.79000091552734,13.899999618530273 88.79000091552734,12.680000305175781 C88.79000091552734,12.680000305175781 88.79000091552734,11.819999694824219 88.79000091552734,11.819999694824219 C88.26000213623047,12.579999923706055 87.43000030517578,13.039999961853027 86.3499984741211,13.039999961853027 C84.37999725341797,13.039999961853027 82.81999969482422,11.430000305175781 82.81999969482422,9.430000305175781 C82.81999969482422,7.429999828338623 84.37999725341797,5.820000171661377 86.3499984741211,5.820000171661377 C87.43000030517578,5.820000171661377 88.26000213623047,6.28000020980835 88.79000091552734,7.039999961853027 C88.79000091552734,7.039999961853027 88.79000091552734,6 88.79000091552734,6 C88.79000091552734,6 88.79000091552734,6 88.79000091552734,6z M77.7300033569336,11.739999771118164 C78.98999786376953,11.739999771118164 79.94000244140625,10.800000190734863 79.94000244140625,9.5 C79.94000244140625,8.199999809265137 78.98999786376953,7.260000228881836 77.7300033569336,7.260000228881836 C76.47000122070312,7.260000228881836 75.5199966430664,8.199999809265137 75.5199966430664,9.5 C75.5199966430664,10.800000190734863 76.47000122070312,11.739999771118164 77.7300033569336,11.739999771118164 C77.7300033569336,11.739999771118164 77.7300033569336,11.739999771118164 77.7300033569336,11.739999771118164z M79.94000244140625,6 C79.94000244140625,6 81.44999694824219,6 81.44999694824219,6 C81.44999694824219,6 81.44999694824219,13 81.44999694824219,13 C81.44999694824219,13 79.94000244140625,13 79.94000244140625,13 C79.94000244140625,13 79.94000244140625,11.989999771118164 79.94000244140625,11.989999771118164 C79.41000366210938,12.729999542236328 78.58000183105469,13.180000305175781 77.48999786376953,13.180000305175781 C75.58999633789062,13.180000305175781 74,11.569999694824219 74,9.5 C74,7.409999847412109 75.58999633789062,5.820000171661377 77.48999786376953,5.820000171661377 C78.58000183105469,5.820000171661377 79.41000366210938,6.260000228881836 79.94000244140625,6.989999771118164 C79.94000244140625,6.989999771118164 79.94000244140625,6 79.94000244140625,6 C79.94000244140625,6 79.94000244140625,6 79.94000244140625,6z M70.08000183105469,5.820000171661377 C71.6500015258789,5.820000171661377 72.7699966430664,6.880000114440918 72.7699966430664,8.699999809265137 C72.7699966430664,8.699999809265137 72.7699966430664,13 72.7699966430664,13 C72.7699966430664,13 71.26000213623047,13 71.26000213623047,13 C71.26000213623047,13 71.26000213623047,8.859999656677246 71.26000213623047,8.859999656677246 C71.26000213623047,7.800000190734863 70.63999938964844,7.230000019073486 69.69000244140625,7.230000019073486 C68.69999694824219,7.230000019073486 67.91000366210938,7.820000171661377 67.91000366210938,9.25 C67.91000366210938,9.25 67.91000366210938,13 67.91000366210938,13 C67.91000366210938,13 66.4000015258789,13 66.4000015258789,13 C66.4000015258789,13 66.4000015258789,6 66.4000015258789,6 C66.4000015258789,6 67.91000366210938,6 67.91000366210938,6 C67.91000366210938,6 67.91000366210938,6.900000095367432 67.91000366210938,6.900000095367432 C68.37000274658203,6.170000076293945 69.12999725341797,5.820000171661377 70.08000183105469,5.820000171661377 C70.08000183105469,5.820000171661377 70.08000183105469,5.820000171661377 70.08000183105469,5.820000171661377z M60.90999984741211,11.739999771118164 C62.16999816894531,11.739999771118164 63.119998931884766,10.800000190734863 63.119998931884766,9.5 C63.119998931884766,8.199999809265137 62.16999816894531,7.260000228881836 60.90999984741211,7.260000228881836 C59.650001525878906,7.260000228881836 58.70000076293945,8.199999809265137 58.70000076293945,9.5 C58.70000076293945,10.800000190734863 59.650001525878906,11.739999771118164 60.90999984741211,11.739999771118164 C60.90999984741211,11.739999771118164 60.90999984741211,11.739999771118164 60.90999984741211,11.739999771118164z M63.119998931884766,6 C63.119998931884766,6 64.63999938964844,6 64.63999938964844,6 C64.63999938964844,6 64.63999938964844,13 64.63999938964844,13 C64.63999938964844,13 63.119998931884766,13 63.119998931884766,13 C63.119998931884766,13 63.119998931884766,11.989999771118164 63.119998931884766,11.989999771118164 C62.59000015258789,12.729999542236328 61.7599983215332,13.180000305175781 60.66999816894531,13.180000305175781 C58.77000045776367,13.180000305175781 57.189998626708984,11.569999694824219 57.189998626708984,9.5 C57.189998626708984,7.409999847412109 58.77000045776367,5.820000171661377 60.66999816894531,5.820000171661377 C61.7599983215332,5.820000171661377 62.59000015258789,6.260000228881836 63.119998931884766,6.989999771118164 C63.119998931884766,6.989999771118164 63.119998931884766,6 63.119998931884766,6 C63.119998931884766,6 63.119998931884766,6 63.119998931884766,6z M53.31999969482422,5.820000171661377 C54.900001525878906,5.820000171661377 55.959999084472656,6.909999847412109 55.959999084472656,8.65999984741211 C55.959999084472656,8.65999984741211 55.959999084472656,13 55.959999084472656,13 C55.959999084472656,13 54.45000076293945,13 54.45000076293945,13 C54.45000076293945,13 54.45000076293945,8.760000228881836 54.45000076293945,8.760000228881836 C54.45000076293945,7.78000020980835 53.91999816894531,7.230000019073486 53.09000015258789,7.230000019073486 C52.189998626708984,7.230000019073486 51.56999969482422,7.809999942779541 51.56999969482422,9.079999923706055 C51.56999969482422,9.079999923706055 51.56999969482422,13 51.56999969482422,13 C51.56999969482422,13 50.04999923706055,13 50.04999923706055,13 C50.04999923706055,13 50.04999923706055,8.760000228881836 50.04999923706055,8.760000228881836 C50.04999923706055,7.78000020980835 49.56999969482422,7.230000019073486 48.7400016784668,7.230000019073486 C47.88999938964844,7.230000019073486 47.18000030517578,7.809999942779541 47.18000030517578,9.079999923706055 C47.18000030517578,9.079999923706055 47.18000030517578,13 47.18000030517578,13 C47.18000030517578,13 45.66999816894531,13 45.66999816894531,13 C45.66999816894531,13 45.66999816894531,6 45.66999816894531,6 C45.66999816894531,6 47.18000030517578,6 47.18000030517578,6 C47.18000030517578,6 47.18000030517578,6.840000152587891 47.18000030517578,6.840000152587891 C47.630001068115234,6.150000095367432 48.31999969482422,5.820000171661377 49.189998626708984,5.820000171661377 C50.099998474121094,5.820000171661377 50.7599983215332,6.21999979019165 51.16999816894531,6.920000076293945 C51.630001068115234,6.190000057220459 52.380001068115234,5.820000171661377 53.31999969482422,5.820000171661377 C53.31999969482422,5.820000171661377 53.31999969482422,5.820000171661377 53.31999969482422,5.820000171661377z M37.849998474121094,5.820000171661377 C39.41999816894531,5.820000171661377 40.540000915527344,6.880000114440918 40.540000915527344,8.699999809265137 C40.540000915527344,8.699999809265137 40.540000915527344,13 40.540000915527344,13 C40.540000915527344,13 39.029998779296875,13 39.029998779296875,13 C39.029998779296875,13 39.029998779296875,8.859999656677246 39.029998779296875,8.859999656677246 C39.029998779296875,7.800000190734863 38.40999984741211,7.230000019073486 37.459999084472656,7.230000019073486 C36.470001220703125,7.230000019073486 35.689998626708984,7.820000171661377 35.689998626708984,9.25 C35.689998626708984,9.25 35.689998626708984,13 35.689998626708984,13 C35.689998626708984,13 34.16999816894531,13 34.16999816894531,13 C34.16999816894531,13 34.16999816894531,6 34.16999816894531,6 C34.16999816894531,6 35.689998626708984,6 35.689998626708984,6 C35.689998626708984,6 35.689998626708984,6.900000095367432 35.689998626708984,6.900000095367432 C36.150001525878906,6.170000076293945 36.900001525878906,5.820000171661377 37.849998474121094,5.820000171661377 C37.849998474121094,5.820000171661377 37.849998474121094,5.820000171661377 37.849998474121094,5.820000171661377z M30.90999984741211,13 C30.90999984741211,13 30.90999984741211,6 30.90999984741211,6 C30.90999984741211,6 32.41999816894531,6 32.41999816894531,6 C32.41999816894531,6 32.41999816894531,13 32.41999816894531,13 C32.41999816894531,13 30.90999984741211,13 30.90999984741211,13 C30.90999984741211,13 30.90999984741211,13 30.90999984741211,13z M31.65999984741211,4.949999809265137 C31.1299991607666,4.949999809265137 30.700000762939453,4.5 30.700000762939453,3.9800000190734863 C30.700000762939453,3.450000047683716 31.1299991607666,3.0199999809265137 31.65999984741211,3.0199999809265137 C32.189998626708984,3.0199999809265137 32.630001068115234,3.450000047683716 32.630001068115234,3.9800000190734863 C32.630001068115234,4.5 32.189998626708984,4.949999809265137 31.65999984741211,4.949999809265137 C31.65999984741211,4.949999809265137 31.65999984741211,4.949999809265137 31.65999984741211,4.949999809265137z M26.639999389648438,5.820000171661377 C28.219999313354492,5.820000171661377 29.290000915527344,6.909999847412109 29.290000915527344,8.65999984741211 C29.290000915527344,8.65999984741211 29.290000915527344,13 29.290000915527344,13 C29.290000915527344,13 27.780000686645508,13 27.780000686645508,13 C27.780000686645508,13 27.780000686645508,8.760000228881836 27.780000686645508,8.760000228881836 C27.780000686645508,7.78000020980835 27.25,7.230000019073486 26.420000076293945,7.230000019073486 C25.520000457763672,7.230000019073486 24.889999389648438,7.809999942779541 24.889999389648438,9.079999923706055 C24.889999389648438,9.079999923706055 24.889999389648438,13 24.889999389648438,13 C24.889999389648438,13 23.3799991607666,13 23.3799991607666,13 C23.3799991607666,13 23.3799991607666,8.760000228881836 23.3799991607666,8.760000228881836 C23.3799991607666,7.78000020980835 22.889999389648438,7.230000019073486 22.059999465942383,7.230000019073486 C21.209999084472656,7.230000019073486 20.510000228881836,7.809999942779541 20.510000228881836,9.079999923706055 C20.510000228881836,9.079999923706055 20.510000228881836,13 20.510000228881836,13 C20.510000228881836,13 19,13 19,13 C19,13 19,6 19,6 C19,6 20.510000228881836,6 20.510000228881836,6 C20.510000228881836,6 20.510000228881836,6.840000152587891 20.510000228881836,6.840000152587891 C20.959999084472656,6.150000095367432 21.639999389648438,5.820000171661377 22.510000228881836,5.820000171661377 C23.420000076293945,5.820000171661377 24.09000015258789,6.21999979019165 24.5,6.920000076293945 C24.959999084472656,6.190000057220459 25.700000762939453,5.820000171661377 26.639999389648438,5.820000171661377 C26.639999389648438,5.820000171661377 26.639999389648438,5.820000171661377 26.639999389648438,5.820000171661377z M13.510000228881836,11.739999771118164 C14.770000457763672,11.739999771118164 15.720000267028809,10.800000190734863 15.720000267028809,9.5 C15.720000267028809,8.199999809265137 14.770000457763672,7.260000228881836 13.510000228881836,7.260000228881836 C12.25,7.260000228881836 11.300000190734863,8.199999809265137 11.300000190734863,9.5 C11.300000190734863,10.800000190734863 12.25,11.739999771118164 13.510000228881836,11.739999771118164 C13.510000228881836,11.739999771118164 13.510000228881836,11.739999771118164 13.510000228881836,11.739999771118164z M15.720000267028809,3.200000047683716 C15.720000267028809,3.200000047683716 17.229999542236328,3.200000047683716 17.229999542236328,3.200000047683716 C17.229999542236328,3.200000047683716 17.229999542236328,13 17.229999542236328,13 C17.229999542236328,13 15.720000267028809,13 15.720000267028809,13 C15.720000267028809,13 15.720000267028809,11.989999771118164 15.720000267028809,11.989999771118164 C15.1899995803833,12.729999542236328 14.359999656677246,13.180000305175781 13.270000457763672,13.180000305175781 C11.369999885559082,13.180000305175781 9.789999961853027,11.569999694824219 9.789999961853027,9.5 C9.789999961853027,7.409999847412109 11.369999885559082,5.820000171661377 13.270000457763672,5.820000171661377 C14.359999656677246,5.820000171661377 15.1899995803833,6.260000228881836 15.720000267028809,6.989999771118164 C15.720000267028809,6.989999771118164 15.720000267028809,3.200000047683716 15.720000267028809,3.200000047683716 C15.720000267028809,3.200000047683716 15.720000267028809,3.200000047683716 15.720000267028809,3.200000047683716z M3.3399999141693115,9.510000228881836 C3.3399999141693115,9.510000228881836 6.449999809265137,9.510000228881836 6.449999809265137,9.510000228881836 C6.449999809265137,9.510000228881836 4.889999866485596,5.090000152587891 4.889999866485596,5.090000152587891 C4.889999866485596,5.090000152587891 3.3399999141693115,9.510000228881836 3.3399999141693115,9.510000228881836 C3.3399999141693115,9.510000228881836 3.3399999141693115,9.510000228881836 3.3399999141693115,9.510000228881836z M7.659999847412109,13 C7.659999847412109,13 6.980000019073486,11.029999732971191 6.980000019073486,11.029999732971191 C6.980000019073486,11.029999732971191 2.809999942779541,11.029999732971191 2.809999942779541,11.029999732971191 C2.809999942779541,11.029999732971191 2.119999885559082,13 2.119999885559082,13 C2.119999885559082,13 0.3700000047683716,13 0.3700000047683716,13 C0.3700000047683716,13 3.930000066757202,3.200000047683716 3.930000066757202,3.200000047683716 C3.930000066757202,3.200000047683716 5.860000133514404,3.200000047683716 5.860000133514404,3.200000047683716 C5.860000133514404,3.200000047683716 9.399999618530273,13 9.399999618530273,13 C9.399999618530273,13 7.659999847412109,13 7.659999847412109,13 C7.659999847412109,13 7.659999847412109,13 7.659999847412109,13z"></path></g><g transform="matrix(1,0,0,1,45,92.5)" opacity="1" style="display: block;"><path fill="rgb(0,153,255)" fill-opacity="1" d=" M36,10 C36,10 36,10 36,10 C36,15.520000457763672 31.520000457763672,20 26,20 C26,20 10,20 10,20 C4.480000019073486,20 0,15.520000457763672 0,10 C0,10 0,10 0,10 C0,4.480000019073486 4.480000019073486,0 10,0 C10,0 26,0 26,0 C31.520000457763672,0 36,4.480000019073486 36,10z"></path></g><g filter="url(#__lottie_element_359)" transform="matrix(1,0,0,1,63,94.5)" opacity="1" style="display: block;"><path fill="rgb(255,255,255)" fill-opacity="1" d=" M16,8 C16,12.420000076293945 12.420000076293945,16 8,16 C3.5799999237060547,16 0,12.420000076293945 0,8 C0,3.5799999237060547 3.5799999237060547,0 8,0 C12.420000076293945,0 16,3.5799999237060547 16,8 C16,8 16,8 16,8z"></path></g><g transform="matrix(1,0,0,1,90.42999267578125,93)" opacity="1" style="display: block;"><path fill="rgb(10,53,87)" fill-opacity="1" d=" M125.0199966430664,13.430000305175781 C126.4800033569336,13.430000305175781 127.55999755859375,12.359999656677246 127.55999755859375,10.920000076293945 C127.55999755859375,9.479999542236328 126.4800033569336,8.40999984741211 125.0199966430664,8.40999984741211 C123.55999755859375,8.40999984741211 122.4800033569336,9.479999542236328 122.4800033569336,10.920000076293945 C122.4800033569336,12.359999656677246 123.55999755859375,13.430000305175781 125.0199966430664,13.430000305175781 C125.0199966430664,13.430000305175781 125.0199966430664,13.430000305175781 125.0199966430664,13.430000305175781z M127.55999755859375,7 C127.55999755859375,7 129.25999450683594,7 129.25999450683594,7 C129.25999450683594,7 129.25999450683594,14.630000114440918 129.25999450683594,14.630000114440918 C129.25999450683594,17.209999084472656 127.25,18.40999984741211 125.1500015258789,18.40999984741211 C123.38999938964844,18.40999984741211 122.02999877929688,17.75 121.36000061035156,16.469999313354492 C121.36000061035156,16.469999313354492 122.83999633789062,15.609999656677246 122.83999633789062,15.609999656677246 C123.19000244140625,16.299999237060547 123.79000091552734,16.84000015258789 125.18000030517578,16.84000015258789 C126.66999816894531,16.84000015258789 127.55999755859375,16.020000457763672 127.55999755859375,14.630000114440918 C127.55999755859375,14.630000114440918 127.55999755859375,13.65999984741211 127.55999755859375,13.65999984741211 C126.94999694824219,14.520000457763672 126.01000213623047,15.050000190734863 124.77999877929688,15.050000190734863 C122.5199966430664,15.050000190734863 120.75,13.210000038146973 120.75,10.920000076293945 C120.75,8.630000114440918 122.5199966430664,6.789999961853027 124.77999877929688,6.789999961853027 C126.01000213623047,6.789999961853027 126.94999694824219,7.320000171661377 127.55999755859375,8.180000305175781 C127.55999755859375,8.180000305175781 127.55999755859375,7 127.55999755859375,7 C127.55999755859375,7 127.55999755859375,7 127.55999755859375,7z M116.26000213623047,6.789999961853027 C118.05000305175781,6.789999961853027 119.33999633789062,8.010000228881836 119.33999633789062,10.09000015258789 C119.33999633789062,10.09000015258789 119.33999633789062,15 119.33999633789062,15 C119.33999633789062,15 117.61000061035156,15 117.61000061035156,15 C117.61000061035156,15 117.61000061035156,10.260000228881836 117.61000061035156,10.260000228881836 C117.61000061035156,9.039999961853027 116.91000366210938,8.40999984741211 115.81999969482422,8.40999984741211 C114.68000030517578,8.40999984741211 113.77999877929688,9.079999923706055 113.77999877929688,10.710000038146973 C113.77999877929688,10.710000038146973 113.77999877929688,15 113.77999877929688,15 C113.77999877929688,15 112.05999755859375,15 112.05999755859375,15 C112.05999755859375,15 112.05999755859375,7 112.05999755859375,7 C112.05999755859375,7 113.77999877929688,7 113.77999877929688,7 C113.77999877929688,7 113.77999877929688,8.020000457763672 113.77999877929688,8.020000457763672 C114.30999755859375,7.190000057220459 115.16999816894531,6.789999961853027 116.26000213623047,6.789999961853027 C116.26000213623047,6.789999961853027 116.26000213623047,6.789999961853027 116.26000213623047,6.789999961853027z M108.31999969482422,15 C108.31999969482422,15 108.31999969482422,7 108.31999969482422,7 C108.31999969482422,7 110.05000305175781,7 110.05000305175781,7 C110.05000305175781,7 110.05000305175781,15 110.05000305175781,15 C110.05000305175781,15 108.31999969482422,15 108.31999969482422,15 C108.31999969482422,15 108.31999969482422,15 108.31999969482422,15z M109.19000244140625,5.800000190734863 C108.58000183105469,5.800000190734863 108.08000183105469,5.289999961853027 108.08000183105469,4.699999809265137 C108.08000183105469,4.090000152587891 108.58000183105469,3.5899999141693115 109.19000244140625,3.5899999141693115 C109.80000305175781,3.5899999141693115 110.29000091552734,4.090000152587891 110.29000091552734,4.699999809265137 C110.29000091552734,5.289999961853027 109.80000305175781,5.800000190734863 109.19000244140625,5.800000190734863 C109.19000244140625,5.800000190734863 109.19000244140625,5.800000190734863 109.19000244140625,5.800000190734863z M103.38999938964844,6.789999961853027 C105.18000030517578,6.789999961853027 106.45999908447266,8.010000228881836 106.45999908447266,10.09000015258789 C106.45999908447266,10.09000015258789 106.45999908447266,15 106.45999908447266,15 C106.45999908447266,15 104.7300033569336,15 104.7300033569336,15 C104.7300033569336,15 104.7300033569336,10.260000228881836 104.7300033569336,10.260000228881836 C104.7300033569336,9.039999961853027 104.02999877929688,8.40999984741211 102.94000244140625,8.40999984741211 C101.80000305175781,8.40999984741211 100.91000366210938,9.079999923706055 100.91000366210938,10.710000038146973 C100.91000366210938,10.710000038146973 100.91000366210938,15 100.91000366210938,15 C100.91000366210938,15 99.18000030517578,15 99.18000030517578,15 C99.18000030517578,15 99.18000030517578,7 99.18000030517578,7 C99.18000030517578,7 100.91000366210938,7 100.91000366210938,7 C100.91000366210938,7 100.91000366210938,8.020000457763672 100.91000366210938,8.020000457763672 C101.44000244140625,7.190000057220459 102.30000305175781,6.789999961853027 103.38999938964844,6.789999961853027 C103.38999938964844,6.789999961853027 103.38999938964844,6.789999961853027 103.38999938964844,6.789999961853027z M93.38999938964844,13.529999732971191 C94.80000305175781,13.529999732971191 95.88999938964844,12.460000038146973 95.88999938964844,11 C95.88999938964844,9.539999961853027 94.80000305175781,8.470000267028809 93.38999938964844,8.470000267028809 C91.9800033569336,8.470000267028809 90.9000015258789,9.539999961853027 90.9000015258789,11 C90.9000015258789,12.460000038146973 91.9800033569336,13.529999732971191 93.38999938964844,13.529999732971191 C93.38999938964844,13.529999732971191 93.38999938964844,13.529999732971191 93.38999938964844,13.529999732971191z M93.38999938964844,15.210000038146973 C91.05000305175781,15.210000038146973 89.16999816894531,13.369999885559082 89.16999816894531,11 C89.16999816894531,8.619999885559082 91.05000305175781,6.789999961853027 93.38999938964844,6.789999961853027 C95.73999786376953,6.789999961853027 97.62000274658203,8.619999885559082 97.62000274658203,11 C97.62000274658203,13.369999885559082 95.73999786376953,15.210000038146973 93.38999938964844,15.210000038146973 C93.38999938964844,15.210000038146973 93.38999938964844,15.210000038146973 93.38999938964844,15.210000038146973z M85.87999725341797,15 C85.87999725341797,15 85.87999725341797,7 85.87999725341797,7 C85.87999725341797,7 87.61000061035156,7 87.61000061035156,7 C87.61000061035156,7 87.61000061035156,15 87.61000061035156,15 C87.61000061035156,15 85.87999725341797,15 85.87999725341797,15 C85.87999725341797,15 85.87999725341797,15 85.87999725341797,15z M86.75,5.800000190734863 C86.13999938964844,5.800000190734863 85.63999938964844,5.289999961853027 85.63999938964844,4.699999809265137 C85.63999938964844,4.090000152587891 86.13999938964844,3.5899999141693115 86.75,3.5899999141693115 C87.36000061035156,3.5899999141693115 87.8499984741211,4.090000152587891 87.8499984741211,4.699999809265137 C87.8499984741211,5.289999961853027 87.36000061035156,5.800000190734863 86.75,5.800000190734863 C86.75,5.800000190734863 86.75,5.800000190734863 86.75,5.800000190734863z M80.1500015258789,9.210000038146973 C80.1500015258789,10.670000076293945 84.45999908447266,9.779999732971191 84.45999908447266,12.739999771118164 C84.45999908447266,14.34000015258789 83.06999969482422,15.210000038146973 81.33999633789062,15.210000038146973 C79.73999786376953,15.210000038146973 78.58000183105469,14.489999771118164 78.06999969482422,13.34000015258789 C78.06999969482422,13.34000015258789 79.55999755859375,12.470000267028809 79.55999755859375,12.470000267028809 C79.81999969482422,13.1899995803833 80.45999908447266,13.619999885559082 81.33999633789062,13.619999885559082 C82.11000061035156,13.619999885559082 82.69999694824219,13.369999885559082 82.69999694824219,12.729999542236328 C82.69999694824219,11.3100004196167 78.38999938964844,12.100000381469727 78.38999938964844,9.239999771118164 C78.38999938964844,7.739999771118164 79.69000244140625,6.789999961853027 81.31999969482422,6.789999961853027 C82.62999725341797,6.789999961853027 83.72000122070312,7.400000095367432 84.27999877929688,8.460000038146973 C84.27999877929688,8.460000038146973 82.83000183105469,9.270000457763672 82.83000183105469,9.270000457763672 C82.54000091552734,8.649999618530273 81.9800033569336,8.359999656677246 81.31999969482422,8.359999656677246 C80.69999694824219,8.359999656677246 80.1500015258789,8.630000114440918 80.1500015258789,9.210000038146973 C80.1500015258789,9.210000038146973 80.1500015258789,9.210000038146973 80.1500015258789,9.210000038146973z M74.91000366210938,15 C74.91000366210938,15 74.91000366210938,7 74.91000366210938,7 C74.91000366210938,7 76.63999938964844,7 76.63999938964844,7 C76.63999938964844,7 76.63999938964844,15 76.63999938964844,15 C76.63999938964844,15 74.91000366210938,15 74.91000366210938,15 C74.91000366210938,15 74.91000366210938,15 74.91000366210938,15z M75.77999877929688,5.800000190734863 C75.16999816894531,5.800000190734863 74.66999816894531,5.289999961853027 74.66999816894531,4.699999809265137 C74.66999816894531,4.090000152587891 75.16999816894531,3.5899999141693115 75.77999877929688,3.5899999141693115 C76.38999938964844,3.5899999141693115 76.87999725341797,4.090000152587891 76.87999725341797,4.699999809265137 C76.87999725341797,5.289999961853027 76.38999938964844,5.800000190734863 75.77999877929688,5.800000190734863 C75.77999877929688,5.800000190734863 75.77999877929688,5.800000190734863 75.77999877929688,5.800000190734863z M71.93000030517578,7 C71.93000030517578,7 73.81999969482422,7 73.81999969482422,7 C73.81999969482422,7 70.69999694824219,15 70.69999694824219,15 C70.69999694824219,15 68.69999694824219,15 68.69999694824219,15 C68.69999694824219,15 65.58000183105469,7 65.58000183105469,7 C65.58000183105469,7 67.47000122070312,7 67.47000122070312,7 C67.47000122070312,7 69.70999908447266,13.079999923706055 69.70999908447266,13.079999923706055 C69.70999908447266,13.079999923706055 71.93000030517578,7 71.93000030517578,7 C71.93000030517578,7 71.93000030517578,7 71.93000030517578,7z M61.029998779296875,13.529999732971191 C62.439998626708984,13.529999732971191 63.529998779296875,12.460000038146973 63.529998779296875,11 C63.529998779296875,9.539999961853027 62.439998626708984,8.470000267028809 61.029998779296875,8.470000267028809 C59.619998931884766,8.470000267028809 58.540000915527344,9.539999961853027 58.540000915527344,11 C58.540000915527344,12.460000038146973 59.619998931884766,13.529999732971191 61.029998779296875,13.529999732971191 C61.029998779296875,13.529999732971191 61.029998779296875,13.529999732971191 61.029998779296875,13.529999732971191z M61.029998779296875,15.210000038146973 C58.689998626708984,15.210000038146973 56.810001373291016,13.369999885559082 56.810001373291016,11 C56.810001373291016,8.619999885559082 58.689998626708984,6.789999961853027 61.029998779296875,6.789999961853027 C63.380001068115234,6.789999961853027 65.26000213623047,8.619999885559082 65.26000213623047,11 C65.26000213623047,13.369999885559082 63.380001068115234,15.210000038146973 61.029998779296875,15.210000038146973 C61.029998779296875,15.210000038146973 61.029998779296875,15.210000038146973 61.029998779296875,15.210000038146973z M53.88999938964844,8.34000015258789 C54.369998931884766,7.25 55.349998474121094,6.860000133514404 56.36000061035156,6.860000133514404 C56.36000061035156,6.860000133514404 56.36000061035156,8.729999542236328 56.36000061035156,8.729999542236328 C55.220001220703125,8.649999618530273 53.88999938964844,9.180000305175781 53.88999938964844,10.970000267028809 C53.88999938964844,10.970000267028809 53.88999938964844,15 53.88999938964844,15 C53.88999938964844,15 52.15999984741211,15 52.15999984741211,15 C52.15999984741211,15 52.15999984741211,7 52.15999984741211,7 C52.15999984741211,7 53.88999938964844,7 53.88999938964844,7 C53.88999938964844,7 53.88999938964844,8.34000015258789 53.88999938964844,8.34000015258789 C53.88999938964844,8.34000015258789 53.88999938964844,8.34000015258789 53.88999938964844,8.34000015258789z M47.119998931884766,9.430000305175781 C48.209999084472656,9.430000305175781 49,8.600000381469727 49,7.480000019073486 C49,6.340000152587891 48.209999084472656,5.53000020980835 47.119998931884766,5.53000020980835 C47.119998931884766,5.53000020980835 44.84000015258789,5.53000020980835 44.84000015258789,5.53000020980835 C44.84000015258789,5.53000020980835 44.84000015258789,9.430000305175781 44.84000015258789,9.430000305175781 C44.84000015258789,9.430000305175781 47.119998931884766,9.430000305175781 47.119998931884766,9.430000305175781 C47.119998931884766,9.430000305175781 47.119998931884766,9.430000305175781 47.119998931884766,9.430000305175781z M47.119998931884766,3.799999952316284 C49.22999954223633,3.799999952316284 50.84000015258789,5.400000095367432 50.84000015258789,7.480000019073486 C50.84000015258789,9.539999961853027 49.22999954223633,11.15999984741211 47.119998931884766,11.15999984741211 C47.119998931884766,11.15999984741211 44.84000015258789,11.15999984741211 44.84000015258789,11.15999984741211 C44.84000015258789,11.15999984741211 44.84000015258789,15 44.84000015258789,15 C44.84000015258789,15 43,15 43,15 C43,15 43,3.799999952316284 43,3.799999952316284 C43,3.799999952316284 47.119998931884766,3.799999952316284 47.119998931884766,3.799999952316284 C47.119998931884766,3.799999952316284 47.119998931884766,3.799999952316284 47.119998931884766,3.799999952316284z M36.7599983215332,3.799999952316284 C36.7599983215332,3.799999952316284 36.7599983215332,15 36.7599983215332,15 C36.7599983215332,15 34.91999816894531,15 34.91999816894531,15 C34.91999816894531,15 34.91999816894531,7.019999980926514 34.91999816894531,7.019999980926514 C34.91999816894531,7.019999980926514 31.510000228881836,12.649999618530273 31.510000228881836,12.649999618530273 C31.510000228881836,12.649999618530273 31.290000915527344,12.649999618530273 31.290000915527344,12.649999618530273 C31.290000915527344,12.649999618530273 27.8799991607666,7 27.8799991607666,7 C27.8799991607666,7 27.8799991607666,15 27.8799991607666,15 C27.8799991607666,15 26.040000915527344,15 26.040000915527344,15 C26.040000915527344,15 26.040000915527344,3.799999952316284 26.040000915527344,3.799999952316284 C26.040000915527344,3.799999952316284 28.030000686645508,3.799999952316284 28.030000686645508,3.799999952316284 C28.030000686645508,3.799999952316284 31.399999618530273,9.399999618530273 31.399999618530273,9.399999618530273 C31.399999618530273,9.399999618530273 34.790000915527344,3.799999952316284 34.790000915527344,3.799999952316284 C34.790000915527344,3.799999952316284 36.7599983215332,3.799999952316284 36.7599983215332,3.799999952316284 C36.7599983215332,3.799999952316284 36.7599983215332,3.799999952316284 36.7599983215332,3.799999952316284z M21.959999084472656,3.799999952316284 C21.959999084472656,3.799999952316284 23.799999237060547,3.799999952316284 23.799999237060547,3.799999952316284 C23.799999237060547,3.799999952316284 23.799999237060547,15 23.799999237060547,15 C23.799999237060547,15 21.959999084472656,15 21.959999084472656,15 C21.959999084472656,15 21.959999084472656,3.799999952316284 21.959999084472656,3.799999952316284 C21.959999084472656,3.799999952316284 21.959999084472656,3.799999952316284 21.959999084472656,3.799999952316284z M15.619999885559082,15.210000038146973 C12.210000038146973,15.210000038146973 9.760000228881836,12.649999618530273 9.760000228881836,9.399999618530273 C9.760000228881836,6.150000095367432 12.210000038146973,3.5899999141693115 15.619999885559082,3.5899999141693115 C17.670000076293945,3.5899999141693115 19.5,4.630000114440918 20.440000534057617,6.260000228881836 C20.440000534057617,6.260000228881836 18.84000015258789,7.190000057220459 18.84000015258789,7.190000057220459 C18.25,6.090000152587891 17.030000686645508,5.380000114440918 15.619999885559082,5.380000114440918 C13.199999809265137,5.380000114440918 11.600000381469727,7.099999904632568 11.600000381469727,9.399999618530273 C11.600000381469727,11.699999809265137 13.199999809265137,13.420000076293945 15.619999885559082,13.420000076293945 C17.030000686645508,13.420000076293945 18.260000228881836,12.710000038146973 18.84000015258789,11.609999656677246 C18.84000015258789,11.609999656677246 20.440000534057617,12.520000457763672 20.440000534057617,12.520000457763672 C19.510000228881836,14.149999618530273 17.68000030517578,15.210000038146973 15.619999885559082,15.210000038146973 C15.619999885559082,15.210000038146973 15.619999885559082,15.210000038146973 15.619999885559082,15.210000038146973z M4.849999904632568,15.210000038146973 C2.640000104904175,15.210000038146973 1.1200000047683716,14.119999885559082 0.5299999713897705,12.460000038146973 C0.5299999713897705,12.460000038146973 2.109999895095825,11.529999732971191 2.109999895095825,11.529999732971191 C2.509999990463257,12.670000076293945 3.380000114440918,13.420000076293945 4.900000095367432,13.420000076293945 C6.360000133514404,13.420000076293945 6.980000019073486,12.760000228881836 6.980000019073486,11.9399995803833 C6.980000019073486,10.949999809265137 6.090000152587891,10.609999656677246 4.429999828338623,10.100000381469727 C2.690000057220459,9.569999694824219 0.9900000095367432,8.930000305175781 0.9900000095367432,6.820000171661377 C0.9900000095367432,4.760000228881836 2.700000047683716,3.5899999141693115 4.590000152587891,3.5899999141693115 C6.429999828338623,3.5899999141693115 7.800000190734863,4.570000171661377 8.5,6.059999942779541 C8.5,6.059999942779541 6.940000057220459,6.949999809265137 6.940000057220459,6.949999809265137 C6.539999961853027,6.050000190734863 5.840000152587891,5.380000114440918 4.590000152587891,5.380000114440918 C3.5199999809265137,5.380000114440918 2.8299999237060547,5.929999828338623 2.8299999237060547,6.78000020980835 C2.8299999237060547,7.639999866485596 3.4600000381469727,8.010000228881836 5.090000152587891,8.520000457763672 C6.949999809265137,9.109999656677246 8.819999694824219,9.6899995803833 8.819999694824219,11.90999984741211 C8.819999694824219,13.960000038146973 7.190000057220459,15.210000038146973 4.849999904632568,15.210000038146973 C4.849999904632568,15.210000038146973 4.849999904632568,15.210000038146973 4.849999904632568,15.210000038146973z"></path></g><g transform="matrix(1,0,0,1,45,128.5)" opacity="1" style="display: block;"><path fill="rgb(0,153,255)" fill-opacity="1" d=" M36,10 C36,10 36,10 36,10 C36,15.520000457763672 31.520000457763672,20 26,20 C26,20 10,20 10,20 C4.480000019073486,20 0,15.520000457763672 0,10 C0,10 0,10 0,10 C0,4.480000019073486 4.480000019073486,0 10,0 C10,0 26,0 26,0 C31.520000457763672,0 36,4.480000019073486 36,10z"></path></g><g filter="url(#__lottie_element_350)" transform="matrix(1,0,0,1,63,130.5)" opacity="1" style="display: block;"><path fill="rgb(255,255,255)" fill-opacity="1" d=" M16,8 C16,12.420000076293945 12.420000076293945,16 8,16 C3.5799999237060547,16 0,12.420000076293945 0,8 C0,3.5799999237060547 3.5799999237060547,0 8,0 C12.420000076293945,0 16,3.5799999237060547 16,8 C16,8 16,8 16,8z"></path></g><g transform="matrix(1,0,0,1,90.42999267578125,129)" opacity="1" style="display: block;"><path fill="rgb(10,53,87)" fill-opacity="1" d=" M107.6500015258789,6.789999961853027 C109.44000244140625,6.789999961853027 110.7300033569336,8.010000228881836 110.7300033569336,10.09000015258789 C110.7300033569336,10.09000015258789 110.7300033569336,15 110.7300033569336,15 C110.7300033569336,15 109,15 109,15 C109,15 109,10.260000228881836 109,10.260000228881836 C109,9.039999961853027 108.30000305175781,8.40999984741211 107.20999908447266,8.40999984741211 C106.06999969482422,8.40999984741211 105.16999816894531,9.079999923706055 105.16999816894531,10.710000038146973 C105.16999816894531,10.710000038146973 105.16999816894531,15 105.16999816894531,15 C105.16999816894531,15 103.44999694824219,15 103.44999694824219,15 C103.44999694824219,15 103.44999694824219,7 103.44999694824219,7 C103.44999694824219,7 105.16999816894531,7 105.16999816894531,7 C105.16999816894531,7 105.16999816894531,8.020000457763672 105.16999816894531,8.020000457763672 C105.69999694824219,7.190000057220459 106.55999755859375,6.789999961853027 107.6500015258789,6.789999961853027 C107.6500015258789,6.789999961853027 107.6500015258789,6.789999961853027 107.6500015258789,6.789999961853027z M96.06999969482422,13.420000076293945 C98.30999755859375,13.420000076293945 100.04000091552734,11.699999809265137 100.04000091552734,9.399999618530273 C100.04000091552734,7.099999904632568 98.30999755859375,5.380000114440918 96.06999969482422,5.380000114440918 C93.83000183105469,5.380000114440918 92.0999984741211,7.099999904632568 92.0999984741211,9.399999618530273 C92.0999984741211,11.699999809265137 93.83000183105469,13.420000076293945 96.06999969482422,13.420000076293945 C96.06999969482422,13.420000076293945 96.06999969482422,13.420000076293945 96.06999969482422,13.420000076293945z M96.06999969482422,15.210000038146973 C92.83999633789062,15.210000038146973 90.26000213623047,12.649999618530273 90.26000213623047,9.399999618530273 C90.26000213623047,6.150000095367432 92.83999633789062,3.5899999141693115 96.06999969482422,3.5899999141693115 C99.31999969482422,3.5899999141693115 101.87999725341797,6.150000095367432 101.87999725341797,9.399999618530273 C101.87999725341797,12.649999618530273 99.31999969482422,15.210000038146973 96.06999969482422,15.210000038146973 C96.06999969482422,15.210000038146973 96.06999969482422,15.210000038146973 96.06999969482422,15.210000038146973z M82.66999816894531,10.970000267028809 C82.66999816894531,10.970000267028809 82.66999816894531,9.300000190734863 82.66999816894531,9.300000190734863 C82.66999816894531,9.300000190734863 88.58999633789062,9.300000190734863 88.58999633789062,9.300000190734863 C88.58999633789062,9.300000190734863 88.58999633789062,10.970000267028809 88.58999633789062,10.970000267028809 C88.58999633789062,10.970000267028809 82.66999816894531,10.970000267028809 82.66999816894531,10.970000267028809 C82.66999816894531,10.970000267028809 82.66999816894531,10.970000267028809 82.66999816894531,10.970000267028809z M77.62000274658203,6.789999961853027 C79.41000366210938,6.789999961853027 80.69000244140625,8.010000228881836 80.69000244140625,10.09000015258789 C80.69000244140625,10.09000015258789 80.69000244140625,15 80.69000244140625,15 C80.69000244140625,15 78.97000122070312,15 78.97000122070312,15 C78.97000122070312,15 78.97000122070312,10.260000228881836 78.97000122070312,10.260000228881836 C78.97000122070312,9.039999961853027 78.26000213623047,8.40999984741211 77.16999816894531,8.40999984741211 C76.02999877929688,8.40999984741211 75.13999938964844,9.079999923706055 75.13999938964844,10.710000038146973 C75.13999938964844,10.710000038146973 75.13999938964844,15 75.13999938964844,15 C75.13999938964844,15 73.41000366210938,15 73.41000366210938,15 C73.41000366210938,15 73.41000366210938,7 73.41000366210938,7 C73.41000366210938,7 75.13999938964844,7 75.13999938964844,7 C75.13999938964844,7 75.13999938964844,8.020000457763672 75.13999938964844,8.020000457763672 C75.66999816894531,7.190000057220459 76.52999877929688,6.789999961853027 77.62000274658203,6.789999961853027 C77.62000274658203,6.789999961853027 77.62000274658203,6.789999961853027 77.62000274658203,6.789999961853027z M67.16000366210938,13.430000305175781 C68.62000274658203,13.430000305175781 69.69999694824219,12.359999656677246 69.69999694824219,10.920000076293945 C69.69999694824219,9.479999542236328 68.62000274658203,8.40999984741211 67.16000366210938,8.40999984741211 C65.69999694824219,8.40999984741211 64.62000274658203,9.479999542236328 64.62000274658203,10.920000076293945 C64.62000274658203,12.359999656677246 65.69999694824219,13.430000305175781 67.16000366210938,13.430000305175781 C67.16000366210938,13.430000305175781 67.16000366210938,13.430000305175781 67.16000366210938,13.430000305175781z M69.69999694824219,7 C69.69999694824219,7 71.4000015258789,7 71.4000015258789,7 C71.4000015258789,7 71.4000015258789,14.630000114440918 71.4000015258789,14.630000114440918 C71.4000015258789,17.209999084472656 69.38999938964844,18.40999984741211 67.29000091552734,18.40999984741211 C65.52999877929688,18.40999984741211 64.16999816894531,17.75 63.5,16.469999313354492 C63.5,16.469999313354492 64.9800033569336,15.609999656677246 64.9800033569336,15.609999656677246 C65.33000183105469,16.299999237060547 65.93000030517578,16.84000015258789 67.31999969482422,16.84000015258789 C68.80999755859375,16.84000015258789 69.69999694824219,16.020000457763672 69.69999694824219,14.630000114440918 C69.69999694824219,14.630000114440918 69.69999694824219,13.65999984741211 69.69999694824219,13.65999984741211 C69.08999633789062,14.520000457763672 68.1500015258789,15.050000190734863 66.91999816894531,15.050000190734863 C64.66000366210938,15.050000190734863 62.88999938964844,13.210000038146973 62.88999938964844,10.920000076293945 C62.88999938964844,8.630000114440918 64.66000366210938,6.789999961853027 66.91999816894531,6.789999961853027 C68.1500015258789,6.789999961853027 69.08999633789062,7.320000171661377 69.69999694824219,8.180000305175781 C69.69999694824219,8.180000305175781 69.69999694824219,7 69.69999694824219,7 C69.69999694824219,7 69.69999694824219,7 69.69999694824219,7z M59.599998474121094,15 C59.599998474121094,15 59.599998474121094,7 59.599998474121094,7 C59.599998474121094,7 61.33000183105469,7 61.33000183105469,7 C61.33000183105469,7 61.33000183105469,15 61.33000183105469,15 C61.33000183105469,15 59.599998474121094,15 59.599998474121094,15 C59.599998474121094,15 59.599998474121094,15 59.599998474121094,15z M60.470001220703125,5.800000190734863 C59.86000061035156,5.800000190734863 59.36000061035156,5.289999961853027 59.36000061035156,4.699999809265137 C59.36000061035156,4.090000152587891 59.86000061035156,3.5899999141693115 60.470001220703125,3.5899999141693115 C61.08000183105469,3.5899999141693115 61.56999969482422,4.090000152587891 61.56999969482422,4.699999809265137 C61.56999969482422,5.289999961853027 61.08000183105469,5.800000190734863 60.470001220703125,5.800000190734863 C60.470001220703125,5.800000190734863 60.470001220703125,5.800000190734863 60.470001220703125,5.800000190734863z M54.13999938964844,15.210000038146973 C51.93000030517578,15.210000038146973 50.40999984741211,14.119999885559082 49.81999969482422,12.460000038146973 C49.81999969482422,12.460000038146973 51.40999984741211,11.529999732971191 51.40999984741211,11.529999732971191 C51.810001373291016,12.670000076293945 52.66999816894531,13.420000076293945 54.189998626708984,13.420000076293945 C55.650001525878906,13.420000076293945 56.27000045776367,12.760000228881836 56.27000045776367,11.9399995803833 C56.27000045776367,10.949999809265137 55.38999938964844,10.609999656677246 53.72999954223633,10.100000381469727 C51.9900016784668,9.569999694824219 50.290000915527344,8.930000305175781 50.290000915527344,6.820000171661377 C50.290000915527344,4.760000228881836 52,3.5899999141693115 53.88999938964844,3.5899999141693115 C55.72999954223633,3.5899999141693115 57.09000015258789,4.570000171661377 57.790000915527344,6.059999942779541 C57.790000915527344,6.059999942779541 56.2400016784668,6.949999809265137 56.2400016784668,6.949999809265137 C55.84000015258789,6.050000190734863 55.13999938964844,5.380000114440918 53.88999938964844,5.380000114440918 C52.81999969482422,5.380000114440918 52.130001068115234,5.929999828338623 52.130001068115234,6.78000020980835 C52.130001068115234,7.639999866485596 52.75,8.010000228881836 54.380001068115234,8.520000457763672 C56.2400016784668,9.109999656677246 58.11000061035156,9.6899995803833 58.11000061035156,11.90999984741211 C58.11000061035156,13.960000038146973 56.47999954223633,15.210000038146973 54.13999938964844,15.210000038146973 C54.13999938964844,15.210000038146973 54.13999938964844,15.210000038146973 54.13999938964844,15.210000038146973z M38.34000015258789,10.329999923706055 C38.34000015258789,10.329999923706055 43.040000915527344,10.329999923706055 43.040000915527344,10.329999923706055 C42.79999923706055,8.949999809265137 41.790000915527344,8.359999656677246 40.75,8.359999656677246 C39.45000076293945,8.359999656677246 38.58000183105469,9.130000114440918 38.34000015258789,10.329999923706055 C38.34000015258789,10.329999923706055 38.34000015258789,10.329999923706055 38.34000015258789,10.329999923706055z M38.349998474121094,11.739999771118164 C38.619998931884766,12.989999771118164 39.630001068115234,13.619999885559082 40.90999984741211,13.619999885559082 C41.869998931884766,13.619999885559082 42.599998474121094,13.1899995803833 42.97999954223633,12.630000114440918 C42.97999954223633,12.630000114440918 44.400001525878906,13.460000038146973 44.400001525878906,13.460000038146973 C43.65999984741211,14.550000190734863 42.470001220703125,15.210000038146973 40.900001525878906,15.210000038146973 C38.2599983215332,15.210000038146973 36.540000915527344,13.399999618530273 36.540000915527344,11 C36.540000915527344,8.630000114440918 38.2599983215332,6.789999961853027 40.77000045776367,6.789999961853027 C43.150001525878906,6.789999961853027 44.779998779296875,8.720000267028809 44.779998779296875,11.020000457763672 C44.779998779296875,11.260000228881836 44.75,11.520000457763672 44.720001220703125,11.739999771118164 C44.720001220703125,11.739999771118164 38.349998474121094,11.739999771118164 38.349998474121094,11.739999771118164 C38.349998474121094,11.739999771118164 38.349998474121094,11.739999771118164 38.349998474121094,11.739999771118164z M33.2599983215332,15 C33.2599983215332,15 33.2599983215332,3.319999933242798 33.2599983215332,3.319999933242798 C33.2599983215332,3.319999933242798 34.9900016784668,3.319999933242798 34.9900016784668,3.319999933242798 C34.9900016784668,3.319999933242798 34.9900016784668,15 34.9900016784668,15 C34.9900016784668,15 33.2599983215332,15 33.2599983215332,15 C33.2599983215332,15 33.2599983215332,15 33.2599983215332,15z M27,13.430000305175781 C28.459999084472656,13.430000305175781 29.549999237060547,12.359999656677246 29.549999237060547,10.920000076293945 C29.549999237060547,9.479999542236328 28.459999084472656,8.40999984741211 27,8.40999984741211 C25.540000915527344,8.40999984741211 24.459999084472656,9.479999542236328 24.459999084472656,10.920000076293945 C24.459999084472656,12.359999656677246 25.540000915527344,13.430000305175781 27,13.430000305175781 C27,13.430000305175781 27,13.430000305175781 27,13.430000305175781z M29.549999237060547,7 C29.549999237060547,7 31.239999771118164,7 31.239999771118164,7 C31.239999771118164,7 31.239999771118164,14.630000114440918 31.239999771118164,14.630000114440918 C31.239999771118164,17.209999084472656 29.229999542236328,18.40999984741211 27.1299991607666,18.40999984741211 C25.3700008392334,18.40999984741211 24.010000228881836,17.75 23.34000015258789,16.469999313354492 C23.34000015258789,16.469999313354492 24.829999923706055,15.609999656677246 24.829999923706055,15.609999656677246 C25.18000030517578,16.299999237060547 25.770000457763672,16.84000015258789 27.15999984741211,16.84000015258789 C28.649999618530273,16.84000015258789 29.549999237060547,16.020000457763672 29.549999237060547,14.630000114440918 C29.549999237060547,14.630000114440918 29.549999237060547,13.65999984741211 29.549999237060547,13.65999984741211 C28.940000534057617,14.520000457763672 27.989999771118164,15.050000190734863 26.760000228881836,15.050000190734863 C24.5,15.050000190734863 22.729999542236328,13.210000038146973 22.729999542236328,10.920000076293945 C22.729999542236328,8.630000114440918 24.5,6.789999961853027 26.760000228881836,6.789999961853027 C27.989999771118164,6.789999961853027 28.940000534057617,7.320000171661377 29.549999237060547,8.180000305175781 C29.549999237060547,8.180000305175781 29.549999237060547,7 29.549999237060547,7 C29.549999237060547,7 29.549999237060547,7 29.549999237060547,7z M18.25,6.789999961853027 C20.040000915527344,6.789999961853027 21.31999969482422,8.010000228881836 21.31999969482422,10.09000015258789 C21.31999969482422,10.09000015258789 21.31999969482422,15 21.31999969482422,15 C21.31999969482422,15 19.59000015258789,15 19.59000015258789,15 C19.59000015258789,15 19.59000015258789,10.260000228881836 19.59000015258789,10.260000228881836 C19.59000015258789,9.039999961853027 18.889999389648438,8.40999984741211 17.799999237060547,8.40999984741211 C16.65999984741211,8.40999984741211 15.770000457763672,9.079999923706055 15.770000457763672,10.710000038146973 C15.770000457763672,10.710000038146973 15.770000457763672,15 15.770000457763672,15 C15.770000457763672,15 14.039999961853027,15 14.039999961853027,15 C14.039999961853027,15 14.039999961853027,7 14.039999961853027,7 C14.039999961853027,7 15.770000457763672,7 15.770000457763672,7 C15.770000457763672,7 15.770000457763672,8.020000457763672 15.770000457763672,8.020000457763672 C16.299999237060547,7.190000057220459 17.15999984741211,6.789999961853027 18.25,6.789999961853027 C18.25,6.789999961853027 18.25,6.789999961853027 18.25,6.789999961853027z M10.300000190734863,15 C10.300000190734863,15 10.300000190734863,7 10.300000190734863,7 C10.300000190734863,7 12.029999732971191,7 12.029999732971191,7 C12.029999732971191,7 12.029999732971191,15 12.029999732971191,15 C12.029999732971191,15 10.300000190734863,15 10.300000190734863,15 C10.300000190734863,15 10.300000190734863,15 10.300000190734863,15z M11.170000076293945,5.800000190734863 C10.5600004196167,5.800000190734863 10.0600004196167,5.289999961853027 10.0600004196167,4.699999809265137 C10.0600004196167,4.090000152587891 10.5600004196167,3.5899999141693115 11.170000076293945,3.5899999141693115 C11.779999732971191,3.5899999141693115 12.270000457763672,4.090000152587891 12.270000457763672,4.699999809265137 C12.270000457763672,5.289999961853027 11.779999732971191,5.800000190734863 11.170000076293945,5.800000190734863 C11.170000076293945,5.800000190734863 11.170000076293945,5.800000190734863 11.170000076293945,5.800000190734863z M4.849999904632568,15.210000038146973 C2.640000104904175,15.210000038146973 1.1200000047683716,14.119999885559082 0.5299999713897705,12.460000038146973 C0.5299999713897705,12.460000038146973 2.109999895095825,11.529999732971191 2.109999895095825,11.529999732971191 C2.509999990463257,12.670000076293945 3.380000114440918,13.420000076293945 4.900000095367432,13.420000076293945 C6.360000133514404,13.420000076293945 6.980000019073486,12.760000228881836 6.980000019073486,11.9399995803833 C6.980000019073486,10.949999809265137 6.090000152587891,10.609999656677246 4.429999828338623,10.100000381469727 C2.690000057220459,9.569999694824219 0.9900000095367432,8.930000305175781 0.9900000095367432,6.820000171661377 C0.9900000095367432,4.760000228881836 2.700000047683716,3.5899999141693115 4.590000152587891,3.5899999141693115 C6.429999828338623,3.5899999141693115 7.800000190734863,4.570000171661377 8.5,6.059999942779541 C8.5,6.059999942779541 6.940000057220459,6.949999809265137 6.940000057220459,6.949999809265137 C6.539999961853027,6.050000190734863 5.840000152587891,5.380000114440918 4.590000152587891,5.380000114440918 C3.5199999809265137,5.380000114440918 2.8299999237060547,5.929999828338623 2.8299999237060547,6.78000020980835 C2.8299999237060547,7.639999866485596 3.4600000381469727,8.010000228881836 5.090000152587891,8.520000457763672 C6.949999809265137,9.109999656677246 8.819999694824219,9.6899995803833 8.819999694824219,11.90999984741211 C8.819999694824219,13.960000038146973 7.190000057220459,15.210000038146973 4.849999904632568,15.210000038146973 C4.849999904632568,15.210000038146973 4.849999904632568,15.210000038146973 4.849999904632568,15.210000038146973z"></path></g><g transform="matrix(1,0,0,1,45,164.5)" opacity="1" style="display: block;"><path fill="rgb(0,153,255)" fill-opacity="1" d=" M36,10 C36,10 36,10 36,10 C36,15.520000457763672 31.520000457763672,20 26,20 C26,20 10,20 10,20 C4.480000019073486,20 0,15.520000457763672 0,10 C0,10 0,10 0,10 C0,4.480000019073486 4.480000019073486,0 10,0 C10,0 26,0 26,0 C31.520000457763672,0 36,4.480000019073486 36,10z"></path></g><g filter="url(#__lottie_element_341)" transform="matrix(1,0,0,1,63,166.5)" opacity="1" style="display: block;"><path fill="rgb(255,255,255)" fill-opacity="1" d=" M16,8 C16,12.420000076293945 12.420000076293945,16 8,16 C3.5799999237060547,16 0,12.420000076293945 0,8 C0,3.5799999237060547 3.5799999237060547,0 8,0 C12.420000076293945,0 16,3.5799999237060547 16,8 C16,8 16,8 16,8z"></path></g><g transform="matrix(1,0,0,1,90.42999267578125,165)" opacity="1" style="display: block;"><path fill="rgb(10,53,87)" fill-opacity="1" d=" M110.54000091552734,15 C110.54000091552734,15 110.54000091552734,3.319999933242798 110.54000091552734,3.319999933242798 C110.54000091552734,3.319999933242798 112.2699966430664,3.319999933242798 112.2699966430664,3.319999933242798 C112.2699966430664,3.319999933242798 112.2699966430664,15 112.2699966430664,15 C112.2699966430664,15 110.54000091552734,15 110.54000091552734,15 C110.54000091552734,15 110.54000091552734,15 110.54000091552734,15z M104.75,13.529999732971191 C106.16000366210938,13.529999732971191 107.25,12.460000038146973 107.25,11 C107.25,9.539999961853027 106.16000366210938,8.470000267028809 104.75,8.470000267028809 C103.33999633789062,8.470000267028809 102.26000213623047,9.539999961853027 102.26000213623047,11 C102.26000213623047,12.460000038146973 103.33999633789062,13.529999732971191 104.75,13.529999732971191 C104.75,13.529999732971191 104.75,13.529999732971191 104.75,13.529999732971191z M104.75,15.210000038146973 C102.41000366210938,15.210000038146973 100.52999877929688,13.369999885559082 100.52999877929688,11 C100.52999877929688,8.619999885559082 102.41000366210938,6.789999961853027 104.75,6.789999961853027 C107.0999984741211,6.789999961853027 108.9800033569336,8.619999885559082 108.9800033569336,11 C108.9800033569336,13.369999885559082 107.0999984741211,15.210000038146973 104.75,15.210000038146973 C104.75,15.210000038146973 104.75,15.210000038146973 104.75,15.210000038146973z M97.61000061035156,8.34000015258789 C98.08999633789062,7.25 99.06999969482422,6.860000133514404 100.08000183105469,6.860000133514404 C100.08000183105469,6.860000133514404 100.08000183105469,8.729999542236328 100.08000183105469,8.729999542236328 C98.94000244140625,8.649999618530273 97.61000061035156,9.180000305175781 97.61000061035156,10.970000267028809 C97.61000061035156,10.970000267028809 97.61000061035156,15 97.61000061035156,15 C97.61000061035156,15 95.87999725341797,15 95.87999725341797,15 C95.87999725341797,15 95.87999725341797,7 95.87999725341797,7 C95.87999725341797,7 97.61000061035156,7 97.61000061035156,7 C97.61000061035156,7 97.61000061035156,8.34000015258789 97.61000061035156,8.34000015258789 C97.61000061035156,8.34000015258789 97.61000061035156,8.34000015258789 97.61000061035156,8.34000015258789z M94.23999786376953,8.65999984741211 C94.23999786376953,8.65999984741211 92.25,8.65999984741211 92.25,8.65999984741211 C92.25,8.65999984741211 92.25,12.5 92.25,12.5 C92.25,13.520000457763672 92.93000030517578,13.510000228881836 94.23999786376953,13.449999809265137 C94.23999786376953,13.449999809265137 94.23999786376953,15 94.23999786376953,15 C91.58000183105469,15.319999694824219 90.52999877929688,14.579999923706055 90.52999877929688,12.5 C90.52999877929688,12.5 90.52999877929688,8.65999984741211 90.52999877929688,8.65999984741211 C90.52999877929688,8.65999984741211 89.05000305175781,8.65999984741211 89.05000305175781,8.65999984741211 C89.05000305175781,8.65999984741211 89.05000305175781,7 89.05000305175781,7 C89.05000305175781,7 90.52999877929688,7 90.52999877929688,7 C90.52999877929688,7 90.52999877929688,5.269999980926514 90.52999877929688,5.269999980926514 C90.52999877929688,5.269999980926514 92.25,4.760000228881836 92.25,4.760000228881836 C92.25,4.760000228881836 92.25,7 92.25,7 C92.25,7 94.23999786376953,7 94.23999786376953,7 C94.23999786376953,7 94.23999786376953,8.65999984741211 94.23999786376953,8.65999984741211 C94.23999786376953,8.65999984741211 94.23999786376953,8.65999984741211 94.23999786376953,8.65999984741211z M84.83999633789062,6.789999961853027 C86.62999725341797,6.789999961853027 87.91000366210938,8.010000228881836 87.91000366210938,10.09000015258789 C87.91000366210938,10.09000015258789 87.91000366210938,15 87.91000366210938,15 C87.91000366210938,15 86.19000244140625,15 86.19000244140625,15 C86.19000244140625,15 86.19000244140625,10.260000228881836 86.19000244140625,10.260000228881836 C86.19000244140625,9.039999961853027 85.4800033569336,8.40999984741211 84.38999938964844,8.40999984741211 C83.25,8.40999984741211 82.36000061035156,9.079999923706055 82.36000061035156,10.710000038146973 C82.36000061035156,10.710000038146973 82.36000061035156,15 82.36000061035156,15 C82.36000061035156,15 80.62999725341797,15 80.62999725341797,15 C80.62999725341797,15 80.62999725341797,7 80.62999725341797,7 C80.62999725341797,7 82.36000061035156,7 82.36000061035156,7 C82.36000061035156,7 82.36000061035156,8.020000457763672 82.36000061035156,8.020000457763672 C82.88999938964844,7.190000057220459 83.75,6.789999961853027 84.83999633789062,6.789999961853027 C84.83999633789062,6.789999961853027 84.83999633789062,6.789999961853027 84.83999633789062,6.789999961853027z M74.8499984741211,13.529999732971191 C76.26000213623047,13.529999732971191 77.33999633789062,12.460000038146973 77.33999633789062,11 C77.33999633789062,9.539999961853027 76.26000213623047,8.470000267028809 74.8499984741211,8.470000267028809 C73.44000244140625,8.470000267028809 72.3499984741211,9.539999961853027 72.3499984741211,11 C72.3499984741211,12.460000038146973 73.44000244140625,13.529999732971191 74.8499984741211,13.529999732971191 C74.8499984741211,13.529999732971191 74.8499984741211,13.529999732971191 74.8499984741211,13.529999732971191z M74.8499984741211,15.210000038146973 C72.51000213623047,15.210000038146973 70.62000274658203,13.369999885559082 70.62000274658203,11 C70.62000274658203,8.619999885559082 72.51000213623047,6.789999961853027 74.8499984741211,6.789999961853027 C77.19999694824219,6.789999961853027 79.06999969482422,8.619999885559082 79.06999969482422,11 C79.06999969482422,13.369999885559082 77.19999694824219,15.210000038146973 74.8499984741211,15.210000038146973 C74.8499984741211,15.210000038146973 74.8499984741211,15.210000038146973 74.8499984741211,15.210000038146973z M66.3499984741211,15.210000038146973 C63.93000030517578,15.210000038146973 62.119998931884766,13.369999885559082 62.119998931884766,11 C62.119998931884766,8.619999885559082 63.93000030517578,6.789999961853027 66.3499984741211,6.789999961853027 C67.91999816894531,6.789999961853027 69.2699966430664,7.610000133514404 69.91000366210938,8.859999656677246 C69.91000366210938,8.859999656677246 68.43000030517578,9.720000267028809 68.43000030517578,9.720000267028809 C68.08000183105469,8.970000267028809 67.29000091552734,8.489999771118164 66.33000183105469,8.489999771118164 C64.91999816894531,8.489999771118164 63.849998474121094,9.5600004196167 63.849998474121094,11 C63.849998474121094,12.4399995803833 64.91999816894531,13.510000228881836 66.33000183105469,13.510000228881836 C67.29000091552734,13.510000228881836 68.08000183105469,13.020000457763672 68.45999908447266,12.279999732971191 C68.45999908447266,12.279999732971191 69.94999694824219,13.130000114440918 69.94999694824219,13.130000114440918 C69.27999877929688,14.390000343322754 67.91999816894531,15.210000038146973 66.3499984741211,15.210000038146973 C66.3499984741211,15.210000038146973 66.3499984741211,15.210000038146973 66.3499984741211,15.210000038146973z M53.63999938964844,6.789999961853027 C55.43000030517578,6.789999961853027 56.709999084472656,8.010000228881836 56.709999084472656,10.09000015258789 C56.709999084472656,10.09000015258789 56.709999084472656,15 56.709999084472656,15 C56.709999084472656,15 54.97999954223633,15 54.97999954223633,15 C54.97999954223633,15 54.97999954223633,10.260000228881836 54.97999954223633,10.260000228881836 C54.97999954223633,9.039999961853027 54.279998779296875,8.40999984741211 53.189998626708984,8.40999984741211 C52.04999923706055,8.40999984741211 51.15999984741211,9.079999923706055 51.15999984741211,10.710000038146973 C51.15999984741211,10.710000038146973 51.15999984741211,15 51.15999984741211,15 C51.15999984741211,15 49.43000030517578,15 49.43000030517578,15 C49.43000030517578,15 49.43000030517578,7 49.43000030517578,7 C49.43000030517578,7 51.15999984741211,7 51.15999984741211,7 C51.15999984741211,7 51.15999984741211,8.020000457763672 51.15999984741211,8.020000457763672 C51.689998626708984,7.190000057220459 52.54999923706055,6.789999961853027 53.63999938964844,6.789999961853027 C53.63999938964844,6.789999961853027 53.63999938964844,6.789999961853027 53.63999938964844,6.789999961853027z M45.70000076293945,15 C45.70000076293945,15 45.70000076293945,7 45.70000076293945,7 C45.70000076293945,7 47.41999816894531,7 47.41999816894531,7 C47.41999816894531,7 47.41999816894531,15 47.41999816894531,15 C47.41999816894531,15 45.70000076293945,15 45.70000076293945,15 C45.70000076293945,15 45.70000076293945,15 45.70000076293945,15z M46.560001373291016,5.800000190734863 C45.95000076293945,5.800000190734863 45.459999084472656,5.289999961853027 45.459999084472656,4.699999809265137 C45.459999084472656,4.090000152587891 45.95000076293945,3.5899999141693115 46.560001373291016,3.5899999141693115 C47.16999816894531,3.5899999141693115 47.65999984741211,4.090000152587891 47.65999984741211,4.699999809265137 C47.65999984741211,5.289999961853027 47.16999816894531,5.800000190734863 46.560001373291016,5.800000190734863 C46.560001373291016,5.800000190734863 46.560001373291016,5.800000190734863 46.560001373291016,5.800000190734863z M39.43000030517578,13.5600004196167 C40.869998931884766,13.5600004196167 41.95000076293945,12.489999771118164 41.95000076293945,11 C41.95000076293945,9.510000228881836 40.869998931884766,8.4399995803833 39.43000030517578,8.4399995803833 C37.9900016784668,8.4399995803833 36.900001525878906,9.510000228881836 36.900001525878906,11 C36.900001525878906,12.489999771118164 37.9900016784668,13.5600004196167 39.43000030517578,13.5600004196167 C39.43000030517578,13.5600004196167 39.43000030517578,13.5600004196167 39.43000030517578,13.5600004196167z M41.95000076293945,7 C41.95000076293945,7 43.68000030517578,7 43.68000030517578,7 C43.68000030517578,7 43.68000030517578,15 43.68000030517578,15 C43.68000030517578,15 41.95000076293945,15 41.95000076293945,15 C41.95000076293945,15 41.95000076293945,13.850000381469727 41.95000076293945,13.850000381469727 C41.34000015258789,14.699999809265137 40.400001525878906,15.210000038146973 39.150001525878906,15.210000038146973 C36.970001220703125,15.210000038146973 35.16999816894531,13.369999885559082 35.16999816894531,11 C35.16999816894531,8.619999885559082 36.970001220703125,6.789999961853027 39.150001525878906,6.789999961853027 C40.400001525878906,6.789999961853027 41.34000015258789,7.309999942779541 41.95000076293945,8.140000343322754 C41.95000076293945,8.140000343322754 41.95000076293945,7 41.95000076293945,7 C41.95000076293945,7 41.95000076293945,7 41.95000076293945,7z M30.739999771118164,6.789999961853027 C32.54999923706055,6.789999961853027 33.77000045776367,8.039999961853027 33.77000045776367,10.039999961853027 C33.77000045776367,10.039999961853027 33.77000045776367,15 33.77000045776367,15 C33.77000045776367,15 32.040000915527344,15 32.040000915527344,15 C32.040000915527344,15 32.040000915527344,10.149999618530273 32.040000915527344,10.149999618530273 C32.040000915527344,9.029999732971191 31.43000030517578,8.40999984741211 30.489999771118164,8.40999984741211 C29.469999313354492,8.40999984741211 28.739999771118164,9.0600004196167 28.739999771118164,10.520000457763672 C28.739999771118164,10.520000457763672 28.739999771118164,15 28.739999771118164,15 C28.739999771118164,15 27.020000457763672,15 27.020000457763672,15 C27.020000457763672,15 27.020000457763672,10.149999618530273 27.020000457763672,10.149999618530273 C27.020000457763672,9.029999732971191 26.450000762939453,8.40999984741211 25.510000228881836,8.40999984741211 C24.530000686645508,8.40999984741211 23.739999771118164,9.0600004196167 23.739999771118164,10.520000457763672 C23.739999771118164,10.520000457763672 23.739999771118164,15 23.739999771118164,15 C23.739999771118164,15 22.010000228881836,15 22.010000228881836,15 C22.010000228881836,15 22.010000228881836,7 22.010000228881836,7 C22.010000228881836,7 23.739999771118164,7 23.739999771118164,7 C23.739999771118164,7 23.739999771118164,7.960000038146973 23.739999771118164,7.960000038146973 C24.25,7.179999828338623 25.030000686645508,6.789999961853027 26.020000457763672,6.789999961853027 C27.059999465942383,6.789999961853027 27.84000015258789,7.260000228881836 28.299999237060547,8.0600004196167 C28.829999923706055,7.230000019073486 29.670000076293945,6.789999961853027 30.739999771118164,6.789999961853027 C30.739999771118164,6.789999961853027 30.739999771118164,6.789999961853027 30.739999771118164,6.789999961853027z M16.219999313354492,13.529999732971191 C17.6299991607666,13.529999732971191 18.719999313354492,12.460000038146973 18.719999313354492,11 C18.719999313354492,9.539999961853027 17.6299991607666,8.470000267028809 16.219999313354492,8.470000267028809 C14.8100004196167,8.470000267028809 13.729999542236328,9.539999961853027 13.729999542236328,11 C13.729999542236328,12.460000038146973 14.8100004196167,13.529999732971191 16.219999313354492,13.529999732971191 C16.219999313354492,13.529999732971191 16.219999313354492,13.529999732971191 16.219999313354492,13.529999732971191z M16.219999313354492,15.210000038146973 C13.880000114440918,15.210000038146973 12,13.369999885559082 12,11 C12,8.619999885559082 13.880000114440918,6.789999961853027 16.219999313354492,6.789999961853027 C18.56999969482422,6.789999961853027 20.450000762939453,8.619999885559082 20.450000762939453,11 C20.450000762939453,13.369999885559082 18.56999969482422,15.210000038146973 16.219999313354492,15.210000038146973 C16.219999313354492,15.210000038146973 16.219999313354492,15.210000038146973 16.219999313354492,15.210000038146973z M5.519999980926514,13.239999771118164 C7.650000095367432,13.239999771118164 9.100000381469727,11.609999656677246 9.100000381469727,9.399999618530273 C9.100000381469727,7.179999828338623 7.650000095367432,5.559999942779541 5.519999980926514,5.559999942779541 C5.519999980926514,5.559999942779541 2.9600000381469727,5.559999942779541 2.9600000381469727,5.559999942779541 C2.9600000381469727,5.559999942779541 2.9600000381469727,13.239999771118164 2.9600000381469727,13.239999771118164 C2.9600000381469727,13.239999771118164 5.519999980926514,13.239999771118164 5.519999980926514,13.239999771118164 C5.519999980926514,13.239999771118164 5.519999980926514,13.239999771118164 5.519999980926514,13.239999771118164z M5.519999980926514,3.799999952316284 C8.609999656677246,3.799999952316284 10.880000114440918,6.260000228881836 10.880000114440918,9.399999618530273 C10.880000114440918,12.520000457763672 8.609999656677246,15 5.519999980926514,15 C5.519999980926514,15 1.1200000047683716,15 1.1200000047683716,15 C1.1200000047683716,15 1.1200000047683716,3.799999952316284 1.1200000047683716,3.799999952316284 C1.1200000047683716,3.799999952316284 5.519999980926514,3.799999952316284 5.519999980926514,3.799999952316284 C5.519999980926514,3.799999952316284 5.519999980926514,3.799999952316284 5.519999980926514,3.799999952316284z"></path></g></g></svg>