<svg enable-background="new 37.917 196.293 424.165 107.414" height="107.414" viewBox="37.917 196.293 424.165 107.414" width="424.165" xmlns="http://www.w3.org/2000/svg"><path d="m0 158.376h37.917v37.917h-37.917z" fill="none"/><path d="m0 303.707h37.917v37.917h-37.917z" fill="none"/><path d="m37.917 196.293h424.125v107.414h-424.125z" fill="none"/><path d="m462.082 158.376h37.918v37.917h-37.918z" fill="none"/><path d="m437.657 303.707h-375.315c-13.492 0-24.384-10.934-24.384-24.385v-58.604c0-13.493 10.933-24.385 24.384-24.385h375.356c13.492 0 24.384 10.933 24.384 24.385v58.604c0 13.492-10.932 24.385-24.425 24.385z" fill="#e00b14"/><path d="m294.928 303.707h-232.626c-13.452 0-24.384-10.934-24.384-24.385v-58.645c0-13.452 10.933-24.384 24.384-24.384h232.626c13.452 0 24.385 10.933 24.385 24.384v58.604c0 13.492-10.933 24.426-24.385 24.426z"/><g fill="#fff"><path d="m428.676 262.416c2.723-4.796 4.349-10.201 4.918-15.444h-8.413c-.203 3.251-.854 6.543-1.95 9.469-1.098 2.886-2.521 5.445-4.349 7.6-2.724 3.17-6.259 5.202-10.241 5.202-4.715 0-7.966-2.032-9.226-5.405h-9.022c-1.463 3.495-4.918 5.283-9.266 5.283-4.796 0-9.714-3.454-10.242-10.484h28.164c.731-3.455 3.455-6.057 7.885-7.723 0 0 4.104-1.503 8.168-3.251 5.608-2.601 9.836-7.234 9.836-13.127 0-8.372-7.153-11.257-13.615-11.257-8.169 0-14.184 4.267-14.184 11.095 0 4.023 2.195 7.803 5.405 11.583-1.707.61-3.332 1.382-4.836 2.357-2.602-7.193-8.575-11.827-16.744-11.827-10.77 0-18.532 8.088-18.532 19.466 0 10.811 6.95 20.077 19.102 20.077 5.567 0 9.794-2.032 12.72-4.877 2.967 3.048 7.438 4.877 12.924 4.877 6.747 0 12.233-2.683 16.46-6.827l5.405 5.893h11.46zm-17.354-32.838c3.089 0 5.608 1.748 5.608 5.202 0 3.17-1.91 6.258-6.177 8.168l-.082-.081c-2.52-2.682-4.917-5.771-4.917-8.697.001-2.885 2.601-4.592 5.568-4.592zm-30.439 13.411c4.917 0 9.429 3.577 9.632 9.47h-19.67c.69-7.153 6.095-9.47 10.038-9.47z"/><path d="m84.654 276.03c-3.089 0-5.853-.528-8.25-1.626-2.398-1.098-4.349-2.561-5.934-4.389-1.585-1.829-2.764-3.982-3.617-6.422-.813-2.438-1.219-5.039-1.219-7.762 0-2.886.447-5.486 1.341-7.884s2.154-4.43 3.739-6.177 3.536-3.089 5.812-4.064 4.796-1.463 7.559-1.463c2.967 0 5.608.569 7.925 1.707 2.316 1.138 4.227 2.682 5.812 4.673 1.544 1.992 2.723 4.308 3.455 7.031.772 2.723 1.016 5.649.853 8.859h-27.92c.041 1.504.325 2.927.894 4.187.528 1.3 1.26 2.397 2.154 3.373.894.935 1.951 1.667 3.129 2.194 1.219.529 2.52.772 3.902.772 4.552 0 7.6-1.747 9.104-5.283h8.25c-.407 1.504-1.098 3.007-1.992 4.47-.894 1.504-2.032 2.805-3.414 3.943-1.382 1.137-3.048 2.072-4.999 2.804-1.869.691-4.064 1.057-6.584 1.057zm-.569-33.203c-1.178 0-2.357.203-3.495.569s-2.195.935-3.089 1.748c-.935.772-1.667 1.748-2.316 2.967-.61 1.219-.935 2.642-.976 4.267h19.345c-.041-1.463-.325-2.804-.853-3.982-.528-1.219-1.219-2.194-2.032-3.007-.854-.813-1.829-1.422-2.967-1.87-1.138-.489-2.316-.692-3.617-.692z"/><path d="m108.388 227.059h8.413v10.038h7.641v6.096h-7.641v20.686c0 1.951.325 3.211.935 3.861.61.649 1.829.934 3.617.934h3.048v6.422h-6.218c-2.032 0-3.658-.162-4.958-.447-1.26-.325-2.276-.854-2.967-1.585-.691-.772-1.179-1.788-1.463-3.089-.244-1.301-.406-2.926-.406-4.836v-21.987h-5.649v-6.096h5.649v-9.997z"/><path d="m137.609 223.889v8.494h-8.413v-8.494zm0 13.208v37.999h-8.413v-37.999z"/><path d="m167.602 247.785c-.407-1.788-1.422-3.089-2.967-3.901-1.544-.813-3.536-1.219-5.934-1.219-1.951 0-3.576.366-4.999 1.097-1.381.731-2.072 1.748-2.072 3.007 0 2.357 1.829 3.901 5.527 4.674l5.162 1.057c1.869.406 3.657.894 5.324 1.463 1.666.527 3.129 1.219 4.349 2.072s2.194 1.91 2.885 3.129c.691 1.26 1.057 2.805 1.057 4.633 0 1.992-.447 3.739-1.3 5.283-.854 1.545-2.032 2.805-3.536 3.82-1.504 1.017-3.211 1.789-5.162 2.316-1.951.529-4.023.813-6.258.813-2.438 0-4.674-.325-6.665-.976-1.992-.65-3.739-1.544-5.162-2.682-1.422-1.139-2.601-2.479-3.455-4.023-.854-1.545-1.382-3.252-1.585-5.08h8.209c.366 2.031 1.301 3.617 2.764 4.714 1.463 1.138 3.536 1.707 6.218 1.707 2.357 0 4.227-.447 5.649-1.301s2.113-2.072 2.113-3.576-.61-2.642-1.87-3.454-2.886-1.423-4.917-1.829l-5.73-1.22c-1.666-.324-3.17-.771-4.592-1.3s-2.642-1.261-3.658-2.114-1.829-1.95-2.397-3.17c-.61-1.259-.895-2.763-.895-4.47s.407-3.21 1.219-4.552c.813-1.341 1.951-2.479 3.374-3.414 1.422-.935 3.048-1.666 4.958-2.194 1.87-.528 3.901-.772 6.015-.772 1.992 0 3.861.244 5.649.691 1.789.487 3.414 1.178 4.836 2.154 1.422.975 2.642 2.154 3.658 3.617 1.016 1.423 1.707 3.129 2.073 5.04h-7.884v-.04z"/><path d="m197.025 235.958c2.357 0 4.552.285 6.543.854s3.739 1.504 5.202 2.764 2.561 2.926 3.374 4.999c.772 2.072 1.138 4.633 1.097 7.64 0 .488 0 1.098-.041 1.869-.041.772-.041 1.626-.041 2.52 0 .895 0 1.83-.041 2.805-.041.976-.041 1.869-.041 2.723 0 2.398.082 4.756.285 7.112.203 2.316.488 4.308.854 5.894h-7.722c-.122-.813-.284-1.586-.406-2.316-.122-.773-.244-1.789-.325-3.09-1.178 2.113-2.845 3.699-4.999 4.756s-4.674 1.584-7.478 1.584c-2.073 0-3.982-.284-5.689-.813s-3.211-1.301-4.471-2.316c-1.26-.975-2.194-2.194-2.885-3.576s-1.016-2.967-1.016-4.715c0-2.356.691-4.308 2.032-5.852 1.382-1.545 3.21-2.846 5.527-3.82 2.316-.976 5.04-1.748 8.128-2.275 3.088-.529 6.38-.977 9.875-1.342v-.935c0-1.585-.203-2.926-.65-3.983-.406-1.057-1.016-1.91-1.748-2.56-.731-.65-1.585-1.098-2.56-1.341-.976-.244-2.073-.406-3.251-.406-2.154 0-3.983.569-5.446 1.707s-2.235 2.845-2.316 5.162h-8.25c.122-1.951.65-3.698 1.503-5.283s1.992-2.967 3.414-4.146c1.422-1.138 3.129-2.032 5.08-2.682 1.951-.612 4.105-.938 6.462-.938zm8.006 21.296c-3.007.285-5.568.609-7.681.976s-3.861.854-5.243 1.423c-1.381.568-2.357 1.219-3.007 2.031-.65.772-.935 1.707-.935 2.805 0 1.666.65 2.926 1.91 3.901 1.26.935 2.967 1.423 5.08 1.423 3.088 0 5.527-.854 7.274-2.561s2.601-4.592 2.601-8.575v-1.423z"/><path d="m228.644 275.096h-8.413v-51.207h8.413z"/><path d="m251.931 235.958c2.356 0 4.552.285 6.543.854s3.739 1.504 5.202 2.764 2.561 2.926 3.373 4.999c.771 2.072 1.138 4.633 1.098 7.64 0 .488 0 1.098-.041 1.869-.041.772-.041 1.626-.041 2.52 0 .895 0 1.83-.041 2.805-.04.976-.04 1.869-.04 2.723 0 2.398.081 4.756.284 7.112.203 2.316.488 4.308.854 5.894h-7.722c-.123-.813-.285-1.586-.407-2.316-.122-.773-.243-1.789-.325-3.09-1.178 2.113-2.845 3.699-4.998 4.756-2.154 1.057-4.674 1.584-7.479 1.584-2.073 0-3.982-.284-5.689-.813s-3.211-1.301-4.471-2.316c-1.26-.975-2.194-2.194-2.885-3.576s-1.016-2.967-1.016-4.715c0-2.356.691-4.308 2.032-5.852 1.382-1.545 3.21-2.846 5.527-3.82 2.316-.976 5.04-1.748 8.128-2.275 3.089-.529 6.38-.977 9.876-1.342v-.935c0-1.585-.203-2.926-.65-3.983-.406-1.057-1.017-1.91-1.748-2.56s-1.585-1.098-2.561-1.341c-.975-.244-2.072-.406-3.251-.406-2.154 0-3.983.569-5.446 1.707s-2.235 2.845-2.316 5.162h-8.25c.122-1.951.65-3.698 1.503-5.283s1.992-2.967 3.414-4.146c1.422-1.138 3.129-2.032 5.08-2.682 1.951-.612 4.105-.938 6.463-.938zm8.006 21.296c-3.007.285-5.567.609-7.681.976-2.114.366-3.861.854-5.243 1.423-1.382.568-2.357 1.219-3.007 2.031-.65.772-.935 1.707-.935 2.805 0 1.666.65 2.926 1.91 3.901 1.26.935 2.967 1.423 5.08 1.423 3.088 0 5.527-.854 7.275-2.561 1.747-1.707 2.601-4.592 2.601-8.575z"/><path d="m276.152 227.059h8.412v10.038h7.641v6.096h-7.641v20.686c0 1.951.325 3.211.936 3.861.609.649 1.828.934 3.617.934h3.047v6.422h-6.218c-2.032 0-3.657-.162-4.958-.447-1.26-.325-2.275-.854-2.967-1.585-.691-.772-1.178-1.788-1.463-3.089-.244-1.301-.406-2.926-.406-4.836v-21.987h-5.649v-6.096h5.649z"/><path d="m340.201 219.418v6.543c.407-.69.936-1.178 1.626-1.544s1.504-.569 2.397-.569c.813 0 1.585.163 2.316.488.732.325 1.342.813 1.87 1.422.528.61.935 1.382 1.219 2.235.285.854.447 1.829.447 2.926s-.162 2.073-.447 2.967c-.284.853-.69 1.625-1.219 2.235-.528.61-1.138 1.098-1.87 1.423-.731.325-1.463.487-2.316.487-.894 0-1.707-.203-2.397-.569s-1.219-.894-1.626-1.544v1.788h-3.007v-18.288zm-.121 11.46c0 .772.081 1.463.284 2.073s.406 1.057.731 1.463.69.691 1.138.853c.447.204.895.285 1.382.285 1.057 0 1.869-.406 2.479-1.26.568-.813.894-1.951.894-3.414 0-1.423-.284-2.561-.894-3.374-.569-.813-1.423-1.26-2.479-1.26-.487 0-.935.082-1.382.285s-.813.487-1.138.854c-.325.366-.569.853-.731 1.463-.203.61-.284 1.26-.284 2.032z"/><path d="m351.175 242.095v-2.276h1.138c.325 0 .609 0 .854-.041s.447-.081.65-.244c.203-.122.365-.325.528-.569.162-.244.284-.61.446-1.016l.163-.325-4.918-13.493h3.292l3.089 9.713 3.089-9.713h3.089l-4.755 13.533c-.325.854-.61 1.585-.936 2.154-.284.569-.649 1.016-1.016 1.341-.406.325-.854.569-1.341.691-.528.122-1.179.203-1.91.203h-1.463v.042z"/></g></svg>