<svg width="40" height="41" viewBox="0 0 40 41" fill="none" xmlns="http://www.w3.org/2000/svg">
<rect y="0.5" width="40" height="40" rx="4" fill="white"/>
<g clip-path="url(#clip0_1927_15)">
<path d="M31.7663 20.7765C31.7663 19.9608 31.7001 19.1406 31.559 18.3381H20.2402V22.9591H26.722C26.453 24.4495 25.5888 25.7679 24.3233 26.6056V29.604H28.1903C30.4611 27.514 31.7663 24.4274 31.7663 20.7765Z" fill="#4285F4"/>
<path d="M20.2401 32.5008C23.4766 32.5008 26.2059 31.4382 28.1945 29.6039L24.3276 26.6055C23.2517 27.3375 21.8627 27.752 20.2445 27.752C17.1139 27.752 14.4595 25.6399 13.507 22.8003H9.5166V25.8912C11.5537 29.9434 15.7029 32.5008 20.2401 32.5008Z" fill="#34A853"/>
<path d="M13.5028 22.8002C13.0001 21.3099 13.0001 19.696 13.5028 18.2057V15.1147H9.51674C7.81473 18.5055 7.81473 22.5004 9.51674 25.8912L13.5028 22.8002Z" fill="#FBBC04"/>
<path d="M20.2401 13.2497C21.9509 13.2232 23.6044 13.867 24.8434 15.0487L28.2695 11.6226C26.1001 9.5855 23.2208 8.46553 20.2401 8.50081C15.7029 8.50081 11.5537 11.0582 9.5166 15.1148L13.5026 18.2058C14.4506 15.3617 17.1095 13.2497 20.2401 13.2497Z" fill="#EA4335"/>
</g>
<defs>
<clipPath id="clip0_1927_15">
<rect width="24" height="24" fill="white" transform="translate(8 8.5)"/>
</clipPath>
</defs>
</svg>
