<svg width="115" height="32" viewBox="0 0 115 32" fill="none" xmlns="http://www.w3.org/2000/svg">
<g clip-path="url(#clip0_27590_76348)">
<path d="M3.35792 5.27313C3.05418 5.09067 2.72098 5 2.29712 5C1.84266 5 1.47886 5.09067 1.20573 5.27313C0.933726 5.45446 0.78186 5.69699 0.78186 6.00072V25.9698C0.78186 26.2124 0.933726 26.4549 1.20573 26.6668C1.50946 26.8788 1.84266 27 2.26652 27C2.64619 27.0012 3.01678 26.8844 3.32732 26.6668C3.62991 26.4549 3.78178 26.2124 3.78178 25.9698V6.00072C3.81238 5.69699 3.66051 5.45446 3.35792 5.27313ZM5.87277 15.7575C5.69144 15.94 5.59964 16.1825 5.66084 16.5451C5.69144 16.9089 5.84217 17.2421 6.1459 17.5459C6.4179 17.8485 6.7511 18.0604 7.1149 18.1522C7.4787 18.2429 7.75183 18.1817 7.93316 18.0309L9.53909 17.0302V25.9698C9.53909 26.2124 9.69095 26.4549 9.96408 26.6668C10.2361 26.8788 10.5999 27 11.0237 27C11.4487 27 11.8125 26.8788 12.1151 26.6668C12.4177 26.4549 12.5696 26.2124 12.5696 25.9698V13.909C12.5696 13.6064 12.4177 13.3945 12.1151 13.212C11.8125 13.0307 11.4487 12.94 10.9943 12.94C10.5398 12.94 10.2066 13.0307 9.93349 13.212L5.87277 15.7575ZM17.8418 22.8181C17.8418 23.4244 18.0243 23.9095 18.3575 24.2121C18.6907 24.5158 19.1452 24.6971 19.6903 24.6971C20.4179 24.6971 21.1149 24.3945 21.7518 23.7882C22.4182 23.1819 22.7514 22.5155 22.7514 21.8185V20.7577H22.0238C21.1761 20.7577 20.4791 20.7883 19.9328 20.879C19.3877 20.9696 18.9026 21.1521 18.4788 21.4853C18.0549 21.7879 17.8418 22.2424 17.8418 22.8181ZM14.8125 23.1819C14.8125 21.636 15.3882 20.5764 16.5397 19.97C17.6911 19.3637 19.3276 19.0611 21.5093 19.0611H22.7514V18.5149C22.7514 17.6365 22.5089 16.9089 22.0544 16.2731C21.6 15.6362 20.8724 15.3336 19.9328 15.3336C19.1146 15.3336 18.3881 15.4855 17.7818 15.8187C17.1755 16.1213 16.8117 16.3037 16.7516 16.3037C16.4184 16.3037 16.1759 16.1519 15.9639 15.8187C15.752 15.515 15.6602 15.1512 15.6602 14.7579C15.6602 14.2728 16.1147 13.8184 17.0542 13.4546C17.9631 13.0908 18.9638 12.9095 19.994 12.9095C21.9638 12.9095 23.4178 13.4546 24.3574 14.5154C25.2969 15.5762 25.7819 16.9089 25.7819 18.5149V25.7273C25.7819 26.0004 25.6301 26.243 25.3569 26.4243C25.0849 26.6362 24.7211 26.7269 24.3268 26.7269C23.9335 26.7269 23.6298 26.6362 23.3578 26.4243C23.0846 26.2124 22.9634 26.0004 22.9634 25.7273V24.7277C21.6906 26.2124 20.2366 26.9694 18.6601 26.9694C17.5392 26.9694 16.6303 26.6362 15.9333 26.0004C15.1763 25.3635 14.8125 24.424 14.8125 23.1819ZM28.358 21.2734V18.6667C28.358 16.9701 28.8419 15.5762 29.8427 14.5154C30.8423 13.4546 32.2963 12.94 34.266 12.94C35.5093 12.94 36.5395 13.152 37.3872 13.5758C38.2361 13.9997 38.66 14.4848 38.66 15.031C38.66 15.3642 38.5398 15.6974 38.2973 16C38.0548 16.3332 37.7816 16.4851 37.4484 16.4851C37.3578 16.4851 37.0246 16.3332 36.4182 16.0612C35.8425 15.7881 35.2056 15.6362 34.4791 15.6362C32.3881 15.6362 31.3273 16.6369 31.3273 18.6667V21.2428C31.3273 23.2725 32.3881 24.2733 34.5086 24.2733C35.2362 24.2733 35.8731 24.1214 36.4783 23.8188C37.054 23.5151 37.4178 23.3632 37.5085 23.3632C37.9029 23.3632 38.2055 23.5151 38.448 23.8188C38.6906 24.1214 38.8118 24.4546 38.8118 24.7878C38.8118 25.3329 38.388 25.818 37.5085 26.2724C36.6302 26.7269 35.5694 26.9694 34.2966 26.9694C32.3269 26.9694 30.8423 26.4549 29.8427 25.3941C28.8725 24.3945 28.358 23.0005 28.358 21.2734ZM41.0241 25.7579V5.97012C41.0241 5.66753 41.1453 5.45446 41.4185 5.27313C41.6905 5.09067 42.0237 5 42.4781 5C42.9031 5 43.2964 5.09067 43.5695 5.27313C43.8721 5.45446 44.024 5.69699 44.024 5.97012V18.788L49.9932 13.2732C50.1757 13.0908 50.3876 13.0001 50.6302 13.0001C50.9634 13.0001 51.266 13.152 51.6003 13.4546C51.9335 13.7583 52.0842 14.0915 52.0842 14.4247C52.0842 14.6672 51.9936 14.8792 51.8417 15.0605L48.1448 18.3641L52.6305 24.8785C52.7518 25.0609 52.8118 25.2117 52.8118 25.3941C52.8118 25.7273 52.6305 26.0911 52.2361 26.4243C51.8417 26.7575 51.479 26.94 51.1152 26.94C50.782 26.94 50.5395 26.7881 50.3276 26.515L46.115 20.2726L44.024 22.1823V25.7885C44.024 26.0299 43.8721 26.2724 43.5695 26.4844C43.2669 26.6974 42.9031 26.7881 42.4781 26.7881C42.0543 26.7881 41.7211 26.6974 41.4479 26.4844C41.1759 26.243 41.0241 26.0004 41.0241 25.7579ZM56.9326 18.8186H61.6903C62.1153 18.8186 62.3873 18.7574 62.5392 18.6361C62.691 18.5149 62.7511 18.3029 62.7511 17.9391C62.7511 17.1821 62.4791 16.5451 61.9328 16C61.3877 15.4855 60.6907 15.2124 59.8725 15.2124C59.0848 15.2124 58.3878 15.4549 57.8121 15.9694C57.2363 16.4851 56.9632 17.1209 56.9632 17.8791V18.8186H56.9326ZM53.9327 21.2734V18.5455C53.9327 17.0302 54.5084 15.728 55.6905 14.606C56.8419 13.5158 58.2665 12.94 59.9031 12.94C61.4784 12.94 62.8123 13.4546 63.9332 14.4247C65.054 15.4243 65.6003 16.6664 65.6003 18.2123C65.6003 18.788 65.5391 19.273 65.3872 19.6368C65.266 20.0006 65.054 20.242 64.7514 20.3939C64.4783 20.5458 64.2063 20.6364 63.9638 20.667C63.7212 20.6976 63.388 20.7271 62.9936 20.7271H56.9632V21.3946C56.9632 22.3636 57.2964 23.1218 57.9934 23.6975C58.6904 24.2733 59.5699 24.5453 60.6907 24.5453C61.4784 24.5453 62.206 24.3639 62.903 24.0001C63.6 23.6363 64.0238 23.455 64.1757 23.455C64.5089 23.455 64.782 23.6057 64.994 23.9095C65.2365 24.2121 65.3272 24.5158 65.3272 24.8184C65.3272 25.3035 64.8727 25.7579 63.9638 26.2724C63.0548 26.7575 61.9328 27 60.6001 27C58.6609 27 57.0539 26.4844 55.8117 25.4247C54.539 24.3639 53.9327 22.9699 53.9327 21.2734ZM67.9939 25.7579V14.0915C67.9939 13.7878 68.1458 13.5758 68.4177 13.3945C68.6909 13.212 69.0547 13.1214 69.4785 13.1214C69.8423 13.1214 70.1755 13.212 70.4487 13.3945C70.7207 13.5758 70.8419 13.8184 70.8419 14.121V15.3937C71.1751 14.7273 71.6602 14.1516 72.3266 13.6665C72.9941 13.1826 73.6911 12.94 74.4788 12.94H75.3877C75.6903 12.94 75.9634 13.0613 76.1754 13.3333C76.4179 13.6064 76.5086 13.909 76.5086 14.2728C76.5086 14.6366 76.3873 14.9698 76.1754 15.243C75.9328 15.515 75.6903 15.6362 75.3877 15.6362H74.4788C73.5699 15.6362 72.7516 16.0306 72.0546 16.8183C71.3576 17.6059 71.0244 18.6067 71.0244 19.8488V25.7273C71.0244 25.9698 70.8725 26.2124 70.5699 26.4243C70.2662 26.6362 69.9024 26.7269 69.4785 26.7269C69.0547 26.7269 68.7215 26.6362 68.4177 26.4243C68.1152 26.243 67.9939 26.0004 67.9939 25.7579ZM79.2059 21.4853C79.2059 22.4543 79.5391 23.3337 80.2361 24.0908C80.9331 24.849 81.7819 25.2117 82.7509 25.2117C83.7517 25.2117 84.5994 24.849 85.2964 24.0908C85.9934 23.3337 86.3572 22.4849 86.3572 21.4853V18.3641C86.3572 17.4246 85.9934 16.5757 85.2964 15.8482C84.5688 15.0911 83.7517 14.7273 82.7815 14.7273C81.8114 14.7273 80.9637 15.0911 80.2667 15.8482C79.5697 16.6063 79.2365 17.4246 79.2365 18.3641V21.4853H79.2059ZM77.3574 21.4853V18.3641C77.3574 16.9089 77.9026 15.6362 78.9634 14.5754C80.0242 13.5158 81.2969 12.9695 82.7815 12.9695C84.2356 12.9695 85.5389 13.4852 86.5997 14.546C87.69 15.6068 88.2363 16.8795 88.2363 18.3335V21.4547C88.2363 22.8793 87.69 24.152 86.5997 25.2729C85.5083 26.3642 84.2356 26.94 82.7815 26.94C81.3569 26.94 80.0842 26.3937 78.994 25.2729C77.9026 24.2121 77.3574 22.9393 77.3574 21.4853ZM90.478 26.0004V13.849C90.478 13.637 90.5698 13.4852 90.7205 13.3333C90.903 13.212 91.1149 13.152 91.388 13.152C91.6294 13.152 91.8119 13.212 91.9932 13.3639C92.1757 13.5158 92.2358 13.6665 92.2358 13.849V15.1818C92.569 14.546 93.054 14.0303 93.7204 13.6064C94.388 13.1826 95.1756 12.9695 96.0539 12.9695C97.4173 12.9695 98.63 13.4852 99.6296 14.546C100.63 15.6068 101.145 16.8795 101.145 18.3335V26.0004C101.145 26.243 101.054 26.4243 100.873 26.5456C100.69 26.6668 100.448 26.7575 100.205 26.7575C99.9628 26.7575 99.7815 26.6974 99.5695 26.5456C99.3871 26.4243 99.2964 26.243 99.2964 26.0004V18.3641C99.2964 17.4246 98.9326 16.5757 98.2356 15.8482C97.5386 15.0911 96.6909 14.7273 95.7207 14.7273C94.8118 14.7273 94.0242 15.0605 93.3566 15.728C92.6608 16.3944 92.3264 17.2727 92.3264 18.3641V26.0004C92.3264 26.1818 92.2358 26.3642 92.0238 26.515C91.8425 26.6668 91.6294 26.7575 91.3574 26.7575C91.0843 26.7575 90.8724 26.6668 90.691 26.515C90.5698 26.3937 90.478 26.2124 90.478 26.0004ZM105.175 19.1212H110.903C111.479 19.1212 111.842 19.0611 112.054 18.9399C112.236 18.8186 112.326 18.5455 112.326 18.1522C112.326 17.2127 111.993 16.3638 111.296 15.6362C110.63 14.9098 109.781 14.546 108.751 14.546C107.751 14.546 106.902 14.8792 106.205 15.5762C105.508 16.2731 105.175 17.0914 105.175 18.0309V19.1212ZM103.327 21.4853V18.2723C103.327 16.8183 103.873 15.5762 104.932 14.546C105.993 13.5158 107.297 12.9695 108.781 12.9695C110.236 12.9695 111.479 13.4852 112.539 14.4553C113.599 15.4549 114.115 16.697 114.115 18.2123C114.115 18.7574 114.053 19.1824 113.933 19.5156C113.812 19.8488 113.599 20.0607 113.327 20.2126C113.054 20.3338 112.811 20.4245 112.569 20.4846C112.326 20.5152 112.024 20.5458 111.629 20.5458H105.175V21.6066C105.175 22.7274 105.569 23.6363 106.388 24.3333C107.206 24.9997 108.236 25.3635 109.509 25.3635C110.145 25.3635 110.72 25.2729 111.205 25.0609C111.601 24.9136 111.977 24.7198 112.326 24.4852C112.599 24.3027 112.782 24.1815 112.933 24.1815C113.145 24.1815 113.327 24.2733 113.478 24.4852C113.63 24.6971 113.72 24.8785 113.72 25.0609C113.72 25.4542 113.296 25.8792 112.478 26.303C111.66 26.7269 110.63 26.94 109.418 26.94C107.599 26.94 106.145 26.4243 104.994 25.4247C103.902 24.4546 103.327 23.1218 103.327 21.4853Z" fill="black"/>
</g>
<defs>
<clipPath id="clip0_27590_76348">
<rect width="113.333" height="30.9563" fill="white" transform="translate(0.78186 0.521851)"/>
</clipPath>
</defs>
</svg>
