<svg width="32" height="32" viewBox="0 0 32 32" fill="none" xmlns="http://www.w3.org/2000/svg">
<g clip-path="url(#clip0_21454_171813)">
<path d="M23.3748 23.0595C20.989 23.0595 19.055 21.1421 19.055 18.777C19.055 16.4116 20.989 14.4942 23.3748 14.4942C25.7606 14.4942 27.6946 16.4116 27.6946 18.777C27.6946 21.1421 25.7606 23.0595 23.3748 23.0595ZM24.668 10.5319V6.72206C25.671 6.25236 26.3736 5.24638 26.3736 4.07888V3.99094C26.3736 2.37964 25.0438 1.06134 23.4186 1.06134H23.3304C21.7052 1.06134 20.3755 2.37964 20.3755 3.99094V4.07888C20.3755 5.24638 21.078 6.25276 22.0812 6.72248V10.5319C20.5877 10.7608 19.2232 11.3715 18.0979 12.2702L7.54721 4.13314C7.61683 3.86808 7.66575 3.5952 7.66617 3.30838C7.66783 1.48379 6.17818 0.00234785 4.33702 -0.000119934C2.49671 -0.00217249 1.00208 1.47516 1 3.30016C0.997932 5.12514 2.48759 6.60658 4.32874 6.60864C4.9285 6.60946 5.4839 6.44056 5.97052 6.16606L16.3488 14.1708C15.4664 15.4915 14.9491 17.0737 14.9491 18.777C14.9491 20.5601 15.5173 22.2097 16.4773 23.5661L13.3214 26.6955C13.0719 26.6211 12.8133 26.5693 12.5389 26.5693C11.0264 26.5693 9.79993 27.7849 9.79993 29.2845C9.79993 30.7843 11.0264 31.9999 12.5389 31.9999C14.0517 31.9999 15.2778 30.7843 15.2778 29.2845C15.2778 29.0131 15.2255 28.7563 15.1505 28.5089L18.2724 25.4137C19.6895 26.4859 21.4544 27.1303 23.3748 27.1303C28.0282 27.1303 31.8 23.3903 31.8 18.777C31.8 14.6006 28.7054 11.1504 24.668 10.5319Z" fill="#FF7A59"/>
</g>
<defs>
<clipPath id="clip0_21454_171813">
<rect width="32" height="32" fill="white"/>
</clipPath>
</defs>
</svg>
