<svg width="177" height="32" viewBox="0 0 177 32" fill="none" xmlns="http://www.w3.org/2000/svg">
<g clip-path="url(#clip0_27590_76338)">
<path d="M14.4303 6.25001V8.25058H15.8146V19.3942H12.8868V4.71774H14.4415V2.71716H7.13982V4.71774H8.69645V19.3942H5.7368V8.25058H7.11922V6.25001H0.252075V8.25058H1.80308V21.155L4.32815 23.7307H8.69645V26.7053H7.14731V29.2828H14.4378V26.7053H12.8868V23.7307H17.2214L19.7464 21.155V8.25058H21.3031V6.25001H14.4303Z" fill="#7A1705"/>
<path d="M29.725 20.6604V12.5925H28.6442V12.1317H32.6884V12.5925H31.6151V20.6604H32.6884V21.1212H28.646V20.6604H29.7269H29.725Z" fill="#231F20"/>
<path d="M41.0166 21.213L35.6555 14.5182V19.7125C35.6555 20.1471 35.6949 20.4125 35.7736 20.5086C35.8522 20.6048 36.0452 20.6554 36.3524 20.6604H36.8862V21.1212H34.157V20.6604H34.5054C34.8126 20.6604 35.008 20.6098 35.0917 20.5086C35.1754 20.4075 35.2128 20.1421 35.2041 19.7125V12.1317H36.1782L41.3538 18.6111V13.5535C41.3538 13.1139 41.3145 12.846 41.2358 12.7499C41.1571 12.6537 40.9617 12.6031 40.6495 12.5981H40.3011V12.1317H42.8636V12.5925H42.5152C42.208 12.5925 42.015 12.6431 41.9364 12.7442C41.8577 12.8454 41.8184 13.1133 41.8184 13.5478V21.213H41.0222H41.0166Z" fill="#231F20"/>
<path d="M45.2687 20.6604V12.5925H44.1879V12.1317H48.3932C49.3148 12.1317 49.9867 12.2173 50.4088 12.3883C50.9413 12.6282 51.4122 12.9863 51.7856 13.4355C52.5211 14.2697 52.8889 15.3386 52.8889 16.6424C52.9067 17.5201 52.7004 18.3879 52.2894 19.1637C52.002 19.7198 51.5742 20.191 51.0485 20.5308C50.5228 20.8705 49.9174 21.067 49.2923 21.1006C49.0638 21.1143 48.7672 21.1212 48.4026 21.1212H44.1879V20.6604H45.2687ZM47.1588 20.6604H48.4026C48.7341 20.677 49.066 20.6371 49.3841 20.5424C49.8674 20.3488 50.2052 19.9273 50.3975 19.278C50.5599 18.7372 50.641 17.8525 50.641 16.6236C50.6633 15.7964 50.6005 14.9691 50.4537 14.1548C50.3126 13.5304 50.036 13.0889 49.6239 12.8304C49.4437 12.7137 49.2381 12.6418 49.0245 12.6206C48.8208 12.6016 48.6164 12.5929 48.4119 12.5944H47.1681V20.6604H47.1588Z" fill="#231F20"/>
<path d="M55.5526 20.6604V12.5925H54.4718V12.1317H58.5085V12.5925H57.4352V20.6604H58.5085V21.1212H54.4737V20.6604H55.5545H55.5526Z" fill="#231F20"/>
<path d="M64.7182 18.7704H61.9084L61.4251 20.1378C61.3812 20.2481 61.3504 20.3632 61.3333 20.4806C61.3333 20.5993 61.485 20.6586 61.7885 20.6586H62.4141V21.1194H59.6324V20.6605H60.0408C60.3705 20.6605 60.5903 20.6099 60.7002 20.5087C60.8269 20.3404 60.9209 20.1498 60.9774 19.9468L63.8677 12.1224H64.2967L67.3725 20.6511H68.3203V21.1119H64.2892V20.6605H65.4487L64.7182 18.7704ZM64.5796 18.3096L63.3152 14.8461L62.0676 18.3096H64.5758H64.5796Z" fill="#231F20"/>
<path d="M76.0959 21.213L70.7405 14.5182V19.7125C70.7405 20.1471 70.7798 20.4125 70.8585 20.5086C70.9372 20.6048 71.1288 20.6554 71.4336 20.6604H71.9674V21.1212H69.2325V20.6604H69.581C69.8882 20.6604 70.0836 20.6098 70.1673 20.5086C70.2509 20.4075 70.2884 20.1421 70.2797 19.7125V12.1317H71.2462L76.4219 18.6111V13.5535C76.4219 13.1139 76.3825 12.846 76.3039 12.7499C76.2252 12.6537 76.0298 12.6031 75.7176 12.5981H75.3691V12.1317H77.9317V12.5925H77.5833C77.2761 12.5925 77.0831 12.6431 77.0044 12.7442C76.9258 12.8454 76.8864 13.1133 76.8864 13.5478V21.213H76.0903H76.0959Z" fill="#231F20"/>
<path d="M83.5812 18.7704H80.7714L80.2881 20.1378C80.2442 20.2481 80.2134 20.3632 80.1963 20.4806C80.1963 20.5993 80.3481 20.6586 80.6515 20.6586H81.2772V21.1194H78.4899V20.6605H78.8982C79.2279 20.6605 79.4477 20.6099 79.5576 20.5087C79.6843 20.3404 79.7783 20.1498 79.8348 19.9468L82.7252 12.1224H83.1541L86.2318 20.6605H87.1684V21.1213H83.1523V20.6605H84.3118L83.5812 18.7704ZM83.4426 18.3096L82.1782 14.8461L80.9344 18.3096H83.4426Z" fill="#231F20"/>
<path d="M93.2825 12.5925H92.2017V12.1317H96.3845V12.5925H95.1726V18.2439C95.1641 18.6262 95.181 19.0085 95.2231 19.3885C95.2491 19.5973 95.3196 19.7982 95.4297 19.9776C95.5399 20.1569 95.6873 20.3105 95.8619 20.4281C96.2224 20.6524 96.6422 20.7628 97.0664 20.7447C97.918 20.7447 98.5175 20.4987 98.8646 20.0066C99.0125 19.7935 99.1116 19.5505 99.155 19.2948C99.2078 18.9415 99.2298 18.5842 99.2205 18.2271V13.5685C99.2205 13.1201 99.1812 12.846 99.1025 12.7461C99.0238 12.6462 98.8284 12.5956 98.5162 12.5944H98.1678V12.1317H100.73V12.5925H100.382C100.075 12.5925 99.8818 12.6431 99.8031 12.7442C99.7244 12.8454 99.6851 13.1195 99.6851 13.5666V18.2496C99.7067 18.7356 99.6645 19.2224 99.5596 19.6975C99.4716 19.9718 99.3288 20.2254 99.1397 20.4428C98.9507 20.6601 98.7195 20.8368 98.46 20.962C97.8868 21.2348 97.257 21.3676 96.6224 21.3497C95.9861 21.3559 95.3541 21.2441 94.7586 21.02C94.1092 20.7703 93.6721 20.3994 93.4473 19.9073C93.3461 19.6514 93.2928 19.379 93.29 19.1037C93.2812 18.9064 93.2769 18.6211 93.2769 18.2477V12.5925H93.2825Z" fill="#231F20"/>
<path d="M108.401 21.213L103.048 14.5182V19.7125C103.048 20.1471 103.087 20.4125 103.166 20.5086C103.244 20.6048 103.437 20.6554 103.744 20.6604H104.278V21.1212H101.538V20.6604H101.886C102.193 20.6604 102.389 20.6098 102.472 20.5086C102.556 20.4075 102.594 20.1421 102.585 19.7125V12.1317H103.559L108.735 18.6111V13.5535C108.735 13.1139 108.695 12.846 108.617 12.7499C108.538 12.6537 108.342 12.6031 108.03 12.5981H107.682V12.1317H110.244V12.5925H109.896C109.589 12.5925 109.396 12.6431 109.317 12.7442C109.238 12.8454 109.199 13.1133 109.199 13.5478V21.213H108.403H108.401Z" fill="#231F20"/>
<path d="M112.719 20.6604V12.5925H111.638V12.1317H115.682V12.5925H114.609V20.6604H115.682V21.1212H111.638V20.6604H112.719Z" fill="#231F20"/>
<path d="M119.644 12.5925L121.922 18.4725L123.696 13.1395C123.731 13.0552 123.753 12.9662 123.761 12.8754C123.763 12.8318 123.754 12.7885 123.733 12.7502C123.712 12.7119 123.681 12.68 123.643 12.6581C123.436 12.5974 123.22 12.5752 123.005 12.5925H122.709V12.1317H125.307V12.5925H125.089C124.864 12.5787 124.64 12.645 124.458 12.7798C124.3 12.9588 124.186 13.1734 124.129 13.4055L121.482 21.2991H121.092L117.662 12.5925H116.827V12.1317H120.725V12.5925H119.644Z" fill="#231F20"/>
<path d="M127.491 20.6604V12.5925H126.412V12.1317H133.504L133.715 14.4226H133.268C133.105 13.7295 132.868 13.2488 132.556 12.9803C132.333 12.7968 132.064 12.6765 131.779 12.6319C131.506 12.6001 131.231 12.5869 130.956 12.5925H129.383V16.3277H129.757C130.111 16.3516 130.465 16.2763 130.778 16.1104C130.901 16.0269 131.004 15.9188 131.083 15.793C131.161 15.6672 131.212 15.5265 131.233 15.3798C131.265 15.1884 131.282 14.995 131.286 14.801H131.734V18.4669H131.286C131.292 18.0701 131.21 17.6769 131.048 17.3148C130.854 16.9639 130.411 16.7885 129.718 16.7885H129.375V20.6604H130.627C131.158 20.683 131.689 20.6094 132.194 20.4431C132.835 20.1846 133.283 19.4603 133.538 18.2702H133.998L133.811 21.1212H126.412V20.6604H127.493H127.491Z" fill="#231F20"/>
<path d="M136.596 20.6602V12.5923H135.516V12.1315H139.395C140.038 12.1121 140.682 12.1693 141.311 12.302C141.863 12.4347 142.344 12.7688 142.662 13.2386C142.861 13.5385 142.964 13.892 142.958 14.252C142.958 14.985 142.604 15.5513 141.898 15.9509C141.567 16.1402 141.202 16.2612 140.824 16.3069C140.693 16.3243 140.491 16.3399 140.219 16.3537C140.715 16.4314 141.197 16.5757 141.654 16.7826C141.901 16.8793 142.125 17.024 142.315 17.2083C142.505 17.3925 142.657 17.6127 142.761 17.856C142.866 18.1154 142.92 18.3928 142.919 18.6727L142.887 19.3883V19.4875C142.887 19.9221 142.968 20.2343 143.13 20.4241C143.189 20.5003 143.265 20.5615 143.352 20.6028C143.439 20.6442 143.534 20.6644 143.63 20.662H143.979V21.1228H142.701C142.202 21.1228 141.841 21.0217 141.62 20.8194C141.464 20.6856 141.331 20.5274 141.225 20.3511C141.107 20.1143 141.053 19.8509 141.068 19.5868V18.3955C141.068 17.7848 140.914 17.3434 140.607 17.0711C140.39 16.8778 140.134 16.7317 139.858 16.6422C139.53 16.5676 139.193 16.5368 138.857 16.5504H138.483V20.6602H139.556V21.121H135.518V20.6602H136.598H136.596ZM138.494 16.0896H139.403C139.728 16.107 140.054 16.0625 140.363 15.9584C140.829 15.7611 141.062 15.1792 141.062 14.2126C141.062 13.6107 140.926 13.1674 140.654 12.8827C140.514 12.7465 140.334 12.6586 140.141 12.6316C139.898 12.6 139.654 12.5868 139.41 12.5923H138.494V16.0896Z" fill="#231F20"/>
<path d="M151.168 12.1316V14.5555H150.733C150.648 14.046 150.433 13.5672 150.108 13.1656C149.726 12.6661 149.159 12.4163 148.409 12.4163C147.996 12.4054 147.59 12.5126 147.236 12.7254C147.046 12.8278 146.887 12.9801 146.777 13.1659C146.667 13.3517 146.609 13.564 146.611 13.78C146.608 14.0625 146.709 14.3362 146.893 14.5499C147.078 14.7697 147.427 14.9607 147.941 15.1231L148.896 15.3872C149.585 15.5808 150.066 15.7325 150.338 15.8424C150.874 16.0467 151.315 16.4424 151.576 16.9532C151.791 17.3774 151.9 17.8472 151.893 18.3225C151.899 18.8945 151.749 19.4573 151.458 19.9503C151.171 20.4349 150.735 20.8139 150.215 21.0311C149.761 21.2348 149.269 21.3402 148.772 21.3402C147.906 21.3345 147.062 21.0574 146.361 20.5479L145.914 21.1211H145.539V18.6185H146.026C146.134 19.1425 146.379 19.6286 146.736 20.0271C146.994 20.2928 147.305 20.5016 147.648 20.64C147.992 20.7784 148.361 20.8434 148.731 20.8307C149.216 20.8372 149.69 20.6794 150.074 20.383C150.517 20.0533 150.739 19.6712 150.739 19.2366C150.736 19.0469 150.695 18.8597 150.619 18.6858C150.543 18.5118 150.434 18.3546 150.297 18.2232C150.005 17.9437 149.648 17.7421 149.257 17.6369C149.118 17.597 148.556 17.4302 147.572 17.1368C147.224 17.0481 146.888 16.918 146.571 16.749C145.878 16.3057 145.532 15.6363 145.532 14.741C145.516 14.3583 145.582 13.9766 145.725 13.6214C145.868 13.2661 146.085 12.9454 146.361 12.6804C146.908 12.1686 147.634 11.8938 148.383 11.9162C148.905 11.9176 149.419 12.0461 149.881 12.2908C150.006 12.357 150.162 12.4494 150.349 12.5681L150.81 12.1466H151.159L151.168 12.1316Z" fill="#231F20"/>
<path d="M154.504 20.6604V12.5925H153.423V12.1317H157.468V12.5925H156.394V20.6604H157.468V21.1212H153.425V20.6604H154.506H154.504Z" fill="#231F20"/>
<path d="M161.864 20.6604V12.5925H161.503C161.093 12.5671 160.682 12.637 160.304 12.7967C159.663 13.1351 159.295 13.8338 159.199 14.8928H158.751L158.912 12.1317H166.689L166.864 14.8928H166.416C166.389 14.2888 166.183 13.7065 165.824 13.22C165.614 12.9431 165.317 12.7451 164.981 12.6581C164.697 12.6001 164.407 12.5756 164.118 12.585H163.756V20.6604H164.968V21.1212H160.66V20.6604H161.872H161.864Z" fill="#231F20"/>
<path d="M171.221 20.6604V16.972L168.619 12.5925H167.796V12.1317H171.938V12.5925H170.786L172.927 16.294L174.6 13.1657C174.671 13.0515 174.718 12.9241 174.738 12.7911C174.74 12.748 174.726 12.7059 174.7 12.6718C174.673 12.6377 174.636 12.6136 174.594 12.6038C174.488 12.5851 174.38 12.5782 174.272 12.5832H173.646V12.1317H176.254V12.5925H176.01C175.797 12.5761 175.584 12.6314 175.405 12.7499C175.257 12.898 175.136 13.0719 175.049 13.2631L173.111 16.9533V20.6604H174.323V21.1212H170.001V20.6604H171.219H171.221Z" fill="#231F20"/>
</g>
<defs>
<clipPath id="clip0_27590_76338">
<rect width="176.002" height="32" fill="white" transform="translate(0.252075)"/>
</clipPath>
</defs>
</svg>
