<svg width="296" height="351" viewBox="0 0 296 351" fill="none" xmlns="http://www.w3.org/2000/svg">
<g clip-path="url(#clip0_479_2836)">
<path d="M147.99 0.74C224.023 0.733333 264.61 0.73 269.75 0.73C275.24 0.72 280.28 2.01 284.7 5.08C291.973 10.1133 295.593 17.75 295.56 27.99C295.52 39.1967 295.503 60.8567 295.51 92.97C295.51 93.1212 295.45 93.2662 295.343 93.3731C295.236 93.48 295.091 93.54 294.94 93.54C245.987 93.54 197.007 93.5433 148 93.55C98.9866 93.55 50.0033 93.55 1.04992 93.55C0.898742 93.55 0.75376 93.4899 0.646865 93.383C0.539969 93.2762 0.479916 93.1312 0.479916 92.98C0.486582 60.8667 0.469916 39.2067 0.429916 28C0.396582 17.76 4.01658 10.1233 11.2899 5.09C15.7099 2.02 20.7499 0.73 26.2299 0.73C31.3766 0.736667 71.9632 0.74 147.99 0.74ZM78.3199 26.04C78.2454 26.0399 78.1726 26.0629 78.1117 26.1059C78.0508 26.1489 78.0048 26.2097 77.9799 26.28L69.0499 51.7C69.0307 51.7543 69.0248 51.8125 69.0328 51.8696C69.0407 51.9267 69.0622 51.981 69.0956 52.0281C69.1289 52.0751 69.173 52.1135 69.2242 52.1399C69.2755 52.1663 69.3323 52.1801 69.3899 52.18H72.4599C72.5345 52.1801 72.6072 52.1571 72.6681 52.1141C72.729 52.0711 72.7751 52.0103 72.7999 51.94L81.7399 26.52C81.7591 26.4657 81.765 26.4075 81.7571 26.3504C81.7491 26.2933 81.7276 26.239 81.6943 26.1919C81.661 26.1449 81.6168 26.1065 81.5656 26.0801C81.5144 26.0537 81.4576 26.0399 81.3999 26.04H78.3199ZM42.9599 44.73C41.4799 47.62 35.3099 45.73 33.3799 44.47C33.2992 44.4189 33.2081 44.3865 33.1135 44.3752C33.0188 44.364 32.923 44.3741 32.8334 44.405C32.7439 44.4358 32.6628 44.4865 32.5963 44.5532C32.5299 44.6199 32.4798 44.7009 32.4499 44.79L31.6699 47.01C31.607 47.1904 31.6107 47.3874 31.6804 47.5653C31.7501 47.7432 31.8812 47.8903 32.0499 47.98C36.4599 50.32 46.9299 51.26 47.4999 44.03C47.6599 41.98 46.3699 39.75 44.3699 39.16C41.8966 38.4267 39.5733 37.7467 37.3999 37.12C37.1244 37.0409 36.8729 36.8945 36.6679 36.6941C36.463 36.4937 36.3111 36.2455 36.2258 35.9719C36.1405 35.6982 36.1246 35.4076 36.1794 35.1263C36.2342 34.8449 36.3581 34.5816 36.5399 34.36C38.2199 32.31 42.7699 33.53 44.8699 34.58C45.2366 34.76 45.4866 34.6567 45.6199 34.27L46.4299 31.96C46.5766 31.5533 46.4533 31.2667 46.0599 31.1C41.7199 29.26 32.6499 28.59 31.8199 35.06C31.4199 38.18 33.2699 40.2 36.1299 40.91C39.0633 41.6367 41.0599 42.1967 42.1199 42.59C42.3244 42.6656 42.5107 42.7835 42.6664 42.9359C42.8221 43.0883 42.9436 43.2717 43.023 43.474C43.1024 43.6763 43.1379 43.8929 43.127 44.1094C43.1161 44.3259 43.0592 44.5374 42.9599 44.73ZM69.8375 39.5247C69.8099 38.2052 69.5043 36.9045 68.9381 35.6967C68.372 34.489 67.5564 33.3979 66.5379 32.4858C65.5194 31.5737 64.318 30.8584 63.0022 30.3808C61.6865 29.9032 60.2821 29.6726 58.8694 29.7022C56.0163 29.762 53.3023 30.8779 51.3243 32.8045C49.3464 34.7311 48.2665 37.3105 48.3223 39.9753C48.3499 41.2948 48.6556 42.5955 49.2217 43.8033C49.7879 45.011 50.6035 46.1021 51.622 47.0142C52.6404 47.9263 53.8419 48.6416 55.1576 49.1192C56.4734 49.5968 57.8777 49.8274 59.2904 49.7978C62.1435 49.738 64.8575 48.6221 66.8355 46.6955C68.8135 44.7689 69.8933 42.1895 69.8375 39.5247ZM106.34 39.73C106.32 49.38 118.26 52.72 124.52 46.92C124.86 46.6067 124.867 46.2867 124.54 45.96L122.87 44.29C122.497 43.9167 122.093 43.8867 121.66 44.2C120.99 44.69 120.22 45.39 119.47 45.62C115.07 46.98 110.98 44.58 110.99 39.74C111 34.91 115.1 32.53 119.5 33.91C120.25 34.14 121.01 34.85 121.68 35.34C122.113 35.6533 122.517 35.6267 122.89 35.26L124.57 33.59C124.897 33.27 124.893 32.9533 124.56 32.64C118.33 26.81 106.36 30.08 106.34 39.73ZM139.65 45.04C140.937 43.96 142.54 42.4333 144.46 40.46C147.54 37.28 147.27 31.51 142.38 30.2C138.46 29.16 135.013 29.9433 132.04 32.55C131.949 32.6295 131.878 32.7296 131.834 32.8419C131.789 32.9543 131.772 33.0756 131.784 33.1958C131.796 33.3161 131.836 33.4318 131.901 33.5334C131.967 33.635 132.055 33.7195 132.16 33.78L134.19 34.95C134.59 35.1833 134.963 35.1467 135.31 34.84C136.957 33.3933 138.867 33.1 141.04 33.96C141.36 34.0867 141.593 34.31 141.74 34.63C142.36 35.99 142.15 37.24 141.11 38.38C139.73 39.88 137.077 42.3833 133.15 45.89C132.377 46.5833 132.197 47.6267 132.61 49.02C132.697 49.3267 132.903 49.48 133.23 49.48H146.53C146.724 49.48 146.909 49.4031 147.046 49.2662C147.183 49.1293 147.26 48.9436 147.26 48.75V46.78C147.26 46.2667 147.007 46.01 146.5 46.01H140C138.987 46.01 138.87 45.6867 139.65 45.04ZM172.518 49.86C173.634 49.8581 174.739 49.5946 175.769 49.0848C176.799 48.5749 177.735 47.8286 178.523 46.8884C179.31 45.9482 179.935 44.8326 180.36 43.6053C180.785 42.3779 181.002 41.0629 181 39.7352C180.998 38.4075 180.775 37.0933 180.346 35.8674C179.917 34.6415 179.289 33.5281 178.498 32.5907C177.707 31.6533 176.769 30.9102 175.736 30.4039C174.704 29.8976 173.599 29.6381 172.482 29.64C171.366 29.6419 170.261 29.9054 169.231 30.4152C168.2 30.9251 167.265 31.6714 166.477 32.6116C165.689 33.5518 165.065 34.6674 164.64 35.8947C164.215 37.1221 163.998 38.4371 164 39.7648C164.002 41.0925 164.224 42.4067 164.654 43.6326C165.083 44.8585 165.711 45.9719 166.502 46.9093C167.293 47.8467 168.231 48.5898 169.263 49.0961C170.296 49.6024 171.401 49.8619 172.518 49.86ZM190.49 49.88C192.747 49.88 194.911 48.8148 196.507 46.9188C198.103 45.0229 199 42.4513 199 39.77C199 37.0887 198.103 34.5171 196.507 32.6212C194.911 30.7252 192.747 29.66 190.49 29.66C189.372 29.66 188.266 29.9215 187.233 30.4296C186.201 30.9377 185.263 31.6824 184.472 32.6212C183.682 33.56 183.055 34.6745 182.628 35.9011C182.2 37.1277 181.98 38.4423 181.98 39.77C181.98 41.0977 182.2 42.4123 182.628 43.6389C183.055 44.8655 183.682 45.98 184.472 46.9188C185.263 47.8577 186.201 48.6023 187.233 49.1104C188.266 49.6185 189.372 49.88 190.49 49.88ZM223.15 45.04C224.437 43.9667 226.043 42.4433 227.97 40.47C231.06 37.3 230.81 31.52 225.92 30.2C222 29.1533 218.547 29.93 215.56 32.53C215.469 32.6095 215.398 32.7096 215.354 32.8219C215.309 32.9343 215.292 33.0556 215.304 33.1758C215.316 33.2961 215.356 33.4118 215.421 33.5134C215.487 33.615 215.575 33.6995 215.68 33.76L217.71 34.93C218.11 35.17 218.483 35.1367 218.83 34.83C220.483 33.3833 222.397 33.0933 224.57 33.96C224.89 34.0867 225.12 34.31 225.26 34.63C225.88 35.9967 225.667 37.2467 224.62 38.38C223.24 39.88 220.58 42.38 216.64 45.88C215.867 46.5733 215.683 47.6167 216.09 49.01C216.177 49.3167 216.383 49.47 216.71 49.47L230.02 49.5C230.214 49.5 230.399 49.4231 230.536 49.2862C230.673 49.1493 230.75 48.9636 230.75 48.77L230.76 46.8C230.76 46.2867 230.507 46.03 230 46.03L223.5 46.01C222.48 46.01 222.363 45.6867 223.15 45.04ZM239.705 49.8699C241.967 49.8778 244.14 48.8191 245.746 46.9269C247.353 45.0346 248.26 42.4637 248.27 39.7798C248.279 37.0958 247.389 34.5187 245.796 32.6152C244.203 30.7118 242.037 29.638 239.775 29.6301C237.513 29.6222 235.34 30.6809 233.733 32.5731C232.127 34.4654 231.219 37.0363 231.21 39.7202C231.201 42.4042 232.09 44.9813 233.683 46.8848C235.276 48.7882 237.442 49.862 239.705 49.8699ZM28.9599 30.56C28.9599 30.4141 28.902 30.2742 28.7988 30.1711C28.6957 30.0679 28.5558 30.01 28.4099 30.01H25.0499C24.904 30.01 24.7642 30.0679 24.661 30.1711C24.5579 30.2742 24.4999 30.4141 24.4999 30.56V48.94C24.4999 49.0122 24.5141 49.0837 24.5418 49.1505C24.5694 49.2172 24.6099 49.2778 24.661 49.3289C24.7121 49.38 24.7727 49.4205 24.8394 49.4481C24.9062 49.4758 24.9777 49.49 25.0499 49.49H28.4099C28.4821 49.49 28.5537 49.4758 28.6204 49.4481C28.6871 49.4205 28.7478 49.38 28.7988 49.3289C28.8499 49.2778 28.8904 49.2172 28.9181 49.1505C28.9457 49.0837 28.9599 49.0122 28.9599 48.94V30.56ZM86.2463 30.3339C86.2464 30.2932 86.2385 30.2529 86.2229 30.2152C86.2074 30.1776 86.1847 30.1434 86.1559 30.1145C86.1272 30.0857 86.0931 30.0628 86.0555 30.0471C86.0179 30.0315 85.9776 30.0234 85.9369 30.0233L82.1369 30.0167C82.0962 30.0166 82.0559 30.0246 82.0182 30.0401C81.9806 30.0556 81.9463 30.0784 81.9175 30.1071C81.8887 30.1359 81.8658 30.17 81.8501 30.2076C81.8345 30.2452 81.8264 30.2855 81.8263 30.3262L81.7935 49.1661C81.7934 49.2068 81.8014 49.2471 81.8169 49.2848C81.8324 49.3224 81.8552 49.3566 81.8839 49.3855C81.9126 49.4143 81.9467 49.4372 81.9843 49.4529C82.0219 49.4685 82.0622 49.4766 82.1029 49.4767L85.9029 49.4833C85.9436 49.4834 85.984 49.4754 86.0216 49.4599C86.0593 49.4444 86.0935 49.4216 86.1223 49.3929C86.1512 49.3641 86.1741 49.33 86.1897 49.2924C86.2054 49.2548 86.2135 49.2145 86.2135 49.1738L86.2463 30.3339ZM89.7699 39.73C89.8032 45.33 89.8432 48.3767 89.8899 48.87C89.9299 49.27 90.0633 49.47 90.2899 49.47L104.49 49.37C104.77 49.3633 104.91 49.22 104.91 48.94V46.41C104.91 46.0833 104.737 45.92 104.39 45.92H94.7299C94.4099 45.92 94.2499 45.7633 94.2499 45.45V42.02C94.2499 41.66 94.4266 41.48 94.7799 41.48L103.03 41.37C103.135 41.3708 103.238 41.317 103.319 41.219C103.4 41.121 103.454 40.9859 103.47 40.84C103.483 40.6867 103.49 40.29 103.49 39.65C103.483 39.0033 103.47 38.6067 103.45 38.46C103.433 38.3151 103.379 38.1807 103.298 38.0828C103.217 37.985 103.114 37.9305 103.01 37.93L94.7599 37.92C94.4066 37.9267 94.2266 37.75 94.2199 37.39L94.1799 33.96C94.1732 33.6467 94.3299 33.4867 94.6499 33.48L104.31 33.36C104.657 33.36 104.83 33.1967 104.83 32.87L104.79 30.34C104.79 30.06 104.65 29.9167 104.37 29.91L90.1699 29.99C89.9432 29.99 89.8132 30.1933 89.7799 30.6C89.7399 31.0933 89.7366 34.1367 89.7699 39.73ZM157.82 33.97L151.47 48.67C151.23 49.2233 151.41 49.5 152.01 49.5H154.86C155.54 49.5 156.017 49.1867 156.29 48.56L163.25 32.46C163.95 30.8467 163.423 30.04 161.67 30.04H148.11C147.73 30.04 147.54 30.23 147.54 30.61V35.87C147.54 36.4367 147.827 36.72 148.4 36.72H150.62C151.18 36.72 151.46 36.44 151.46 35.88V34.24C151.46 33.7133 151.723 33.45 152.25 33.45H157.48C157.542 33.4497 157.603 33.4649 157.657 33.4941C157.711 33.5234 157.758 33.5658 157.791 33.6175C157.825 33.6692 157.845 33.7286 157.85 33.7901C157.855 33.8517 157.845 33.9135 157.82 33.97ZM199.29 33.01C199.29 33.14 199.342 33.2646 199.433 33.3565C199.525 33.4484 199.65 33.5 199.78 33.5H202.54C202.67 33.5 202.795 33.5516 202.886 33.6435C202.978 33.7354 203.03 33.86 203.03 33.99V49C203.03 49.0643 203.043 49.1281 203.067 49.1875C203.092 49.247 203.128 49.301 203.173 49.3465C203.219 49.392 203.273 49.4281 203.332 49.4527C203.392 49.4773 203.456 49.49 203.52 49.49H207.25C207.314 49.49 207.378 49.4773 207.437 49.4527C207.497 49.4281 207.551 49.392 207.596 49.3465C207.642 49.301 207.678 49.247 207.703 49.1875C207.727 49.1281 207.74 49.0643 207.74 49V30.54C207.74 30.4757 207.727 30.4119 207.703 30.3525C207.678 30.293 207.642 30.239 207.596 30.1935C207.551 30.148 207.497 30.1119 207.437 30.0873C207.378 30.0627 207.314 30.05 207.25 30.05H199.78C199.716 30.05 199.652 30.0627 199.592 30.0873C199.533 30.1119 199.479 30.148 199.433 30.1935C199.388 30.239 199.352 30.293 199.327 30.3525C199.303 30.4119 199.29 30.4757 199.29 30.54V33.01ZM252.28 34.11L252.26 48.99C252.26 49.31 252.427 49.47 252.76 49.47L256.5 49.46C256.813 49.46 256.97 49.31 256.97 49.01V30.49C256.97 30.19 256.813 30.04 256.5 30.04L249.02 30.05C248.937 30.05 248.854 30.0665 248.778 30.0984C248.702 30.1303 248.633 30.1768 248.577 30.2351C248.52 30.2934 248.477 30.3622 248.45 30.4371C248.423 30.5119 248.413 30.5913 248.42 30.67L248.57 32.87C248.617 33.3433 248.877 33.57 249.35 33.55L251.59 33.45C252.043 33.43 252.273 33.65 252.28 34.11ZM268.74 37.23C270.39 35.42 273.03 33.4 272.9 30.71C272.88 30.2633 272.647 30.04 272.2 30.04H259.5C259.213 30.04 259.07 30.1833 259.07 30.47V33.13C259.07 33.37 259.19 33.49 259.43 33.49H266.53C266.604 33.4906 266.675 33.5124 266.736 33.5529C266.798 33.5934 266.846 33.6508 266.877 33.7187C266.907 33.7866 266.918 33.8622 266.908 33.9367C266.898 34.0112 266.867 34.0817 266.82 34.14C265.41 35.8 263.29 37.4 263.08 39.77C263 40.7167 263.43 41.1467 264.37 41.06C266.783 40.8333 268.28 41.36 268.86 42.64C268.985 42.9129 269.049 43.2098 269.047 43.5116C269.046 43.8133 268.98 44.1133 268.853 44.3921C268.726 44.6709 268.54 44.9224 268.309 45.1305C268.078 45.3385 267.806 45.4984 267.51 45.6C265.157 46.3933 262.69 46.0433 260.11 44.55C260.049 44.5144 259.981 44.4921 259.911 44.4845C259.841 44.4769 259.77 44.4842 259.703 44.5059C259.636 44.5276 259.575 44.5633 259.522 44.6105C259.47 44.6578 259.428 44.7155 259.4 44.78L258.34 47.25C258.277 47.3946 258.27 47.5569 258.32 47.705C258.37 47.8531 258.474 47.9762 258.61 48.05C262.92 50.43 272.41 51.08 273.44 44.42C273.92 41.2733 272.42 39.1333 268.94 38C268.473 37.8467 268.407 37.59 268.74 37.23ZM215.18 37C215.18 36.2733 214.891 35.5764 214.377 35.0625C213.864 34.5487 213.167 34.26 212.44 34.26C211.713 34.26 211.016 34.5487 210.502 35.0625C209.989 35.5764 209.7 36.2733 209.7 37C209.7 37.7267 209.989 38.4236 210.502 38.9375C211.016 39.4513 211.713 39.74 212.44 39.74C213.167 39.74 213.864 39.4513 214.377 38.9375C214.891 38.4236 215.18 37.7267 215.18 37ZM215.15 46.99C215.15 46.6315 215.079 46.2765 214.942 45.9453C214.805 45.6141 214.604 45.3131 214.35 45.0596C214.097 44.8061 213.796 44.605 213.465 44.4678C213.133 44.3306 212.778 44.26 212.42 44.26C212.061 44.26 211.706 44.3306 211.375 44.4678C211.044 44.605 210.743 44.8061 210.49 45.0596C210.236 45.3131 210.035 45.6141 209.898 45.9453C209.761 46.2765 209.69 46.6315 209.69 46.99C209.69 47.714 209.978 48.4084 210.49 48.9204C211.001 49.4324 211.696 49.72 212.42 49.72C213.144 49.72 213.838 49.4324 214.35 48.9204C214.862 48.4084 215.15 47.714 215.15 46.99ZM101.91 73.12C98.9899 73.5733 97.0766 72.9067 96.1699 71.12C93.7799 66.39 98.6399 62.31 103.05 65.22C103.61 65.5867 104.123 65.5333 104.59 65.06L105.13 64.53C105.703 63.9567 105.647 63.4533 104.96 63.02C102.26 61.3267 99.5699 61.0167 96.8899 62.09C92.7099 63.76 91.1499 68.21 93.1899 72.13C95.4699 76.53 100.96 76.76 105 74.67C105.313 74.51 105.47 74.2533 105.47 73.9V69.2C105.47 68.6867 105.217 68.43 104.71 68.43H103.28C103.078 68.43 102.885 68.5101 102.743 68.6526C102.6 68.7951 102.52 68.9884 102.52 69.19V72.41C102.52 72.8233 102.317 73.06 101.91 73.12ZM196.02 71.94C196.007 72.6533 195.513 73.1067 194.54 73.3C192.727 73.6533 190.773 73.2633 188.68 72.13C188.54 72.0567 188.447 72.0933 188.4 72.24L187.7 74.22C187.627 74.42 187.687 74.57 187.88 74.67C191.313 76.3833 194.4 76.4967 197.14 75.01C199.153 73.9167 199.667 72.0667 198.68 69.46C198.63 69.3254 198.55 69.203 198.447 69.1011C198.343 68.9993 198.218 68.9204 198.08 68.87L191.78 66.66C191.657 66.6164 191.544 66.5488 191.447 66.4613C191.35 66.3737 191.271 66.2679 191.216 66.1498C191.16 66.0318 191.128 65.9039 191.122 65.7735C191.116 65.6431 191.135 65.5128 191.18 65.39L191.3 65.03C191.408 64.7199 191.618 64.4541 191.896 64.2735C192.174 64.0929 192.506 64.0073 192.84 64.03C194.773 64.17 196.123 64.4233 196.89 64.79C197.417 65.0367 197.777 64.8867 197.97 64.34L198.31 63.36C198.503 62.8267 198.33 62.46 197.79 62.26C194.59 61.0933 191.9 61.2 189.72 62.58C187.72 63.84 187.32 65.7067 188.52 68.18C188.673 68.5 188.92 68.72 189.26 68.84L195.35 70.98C195.548 71.0493 195.72 71.1794 195.84 71.3517C195.96 71.524 196.023 71.7299 196.02 71.94ZM221.78 71.91C221.773 72.6233 221.283 73.08 220.31 73.28C218.497 73.6333 216.543 73.2467 214.45 72.12C214.31 72.0467 214.217 72.0833 214.17 72.23L213.47 74.21C213.397 74.41 213.457 74.56 213.65 74.66C217.09 76.3667 220.177 76.4733 222.91 74.98C224.917 73.8867 225.427 72.0367 224.44 69.43C224.39 69.2954 224.31 69.173 224.207 69.0711C224.103 68.9693 223.978 68.8904 223.84 68.84L217.54 66.65C217.416 66.6074 217.302 66.5406 217.204 66.4534C217.106 66.3663 217.026 66.2606 216.97 66.1425C216.913 66.0243 216.88 65.8961 216.873 65.7652C216.866 65.6343 216.886 65.5034 216.93 65.38L217.05 65.02C217.158 64.7099 217.368 64.4442 217.646 64.2635C217.924 64.0829 218.256 63.9973 218.59 64.02C220.523 64.1533 221.873 64.4033 222.64 64.77C223.167 65.0167 223.527 64.8667 223.72 64.32L224.06 63.34C224.247 62.8067 224.07 62.44 223.53 62.24C220.33 61.08 217.643 61.19 215.47 62.57C213.477 63.8367 213.08 65.7033 214.28 68.17C214.433 68.49 214.68 68.71 215.02 68.83L221.11 70.96C221.307 71.0288 221.477 71.1573 221.597 71.3276C221.717 71.498 221.781 71.7016 221.78 71.91ZM35.3399 74.32C35.6866 74.32 35.9599 74.1733 36.1599 73.88C37.2066 72.3267 38.3299 70.5633 39.5299 68.59C40.0232 67.7767 40.2699 67.8433 40.2699 68.79L40.2599 75.02C40.2599 75.5267 40.5166 75.78 41.0299 75.78H42.4199C42.9199 75.78 43.1699 75.53 43.1699 75.03L43.1999 62.35C43.1999 62.2712 43.1847 62.1932 43.155 62.1204C43.1254 62.0476 43.0819 61.9814 43.0271 61.9257C42.9723 61.87 42.9073 61.8258 42.8357 61.7957C42.7641 61.7655 42.6874 61.75 42.6099 61.75H41.1099C40.7099 61.75 40.4066 61.9233 40.1999 62.27L35.6599 69.97C35.6066 70.07 35.5332 70.1333 35.4399 70.16C35.4332 70.16 35.3999 70.16 35.3399 70.16C35.2799 70.16 35.2432 70.16 35.2299 70.16C35.1366 70.1333 35.0632 70.07 35.0099 69.97L30.4499 62.28C30.2433 61.9333 29.9399 61.76 29.5399 61.76L28.0399 61.77C27.8852 61.7726 27.7376 61.837 27.6291 61.9493C27.5206 62.0615 27.4599 62.2126 27.4599 62.37L27.5099 75.05C27.5166 75.55 27.7699 75.8 28.2699 75.8L29.6599 75.79C30.1732 75.79 30.4299 75.5367 30.4299 75.03L30.3999 68.8C30.3933 67.8533 30.6399 67.7867 31.1399 68.6C32.3399 70.5667 33.4666 72.3267 34.5199 73.88C34.7199 74.1733 34.9932 74.32 35.3399 74.32ZM52.6599 72.76C54.4399 72.76 55.3599 72.7667 55.4199 72.78C55.8532 72.8667 56.1166 73.04 56.2099 73.3L56.8299 74.98C57.0366 75.5333 57.4332 75.81 58.0199 75.81H59.7399C59.8207 75.8106 59.9003 75.7908 59.9714 75.7525C60.0424 75.7142 60.1027 75.6586 60.1466 75.5908C60.1904 75.523 60.2165 75.4452 60.2223 75.3647C60.2281 75.2841 60.2136 75.2034 60.1799 75.13L54.6399 62.56C54.4932 62.2267 54.2432 62.0133 53.8899 61.92C53.5099 61.8133 53.1032 61.76 52.6699 61.76C52.2499 61.76 51.8466 61.81 51.4599 61.91C51.1066 62.0033 50.8566 62.2167 50.7099 62.55L45.1299 75.1C45.0966 75.1726 45.082 75.2524 45.0873 75.3322C45.0927 75.4119 45.1178 75.489 45.1606 75.5566C45.2033 75.6241 45.2622 75.6799 45.3319 75.7189C45.4016 75.758 45.48 75.7789 45.5599 75.78L47.2799 75.79C47.8666 75.79 48.2666 75.5167 48.4799 74.97L49.0999 73.29C49.1999 73.03 49.4632 72.8567 49.8899 72.77C49.9566 72.7567 50.8799 72.7533 52.6599 72.76ZM67.1899 69.72C69.2999 72.29 71.4599 75.52 72.5499 75.71C73.0633 75.7967 73.5699 75.8033 74.0699 75.73C74.4566 75.67 74.6499 75.4433 74.6499 75.05V62.43C74.6499 61.9767 74.4266 61.75 73.9799 61.75H72.2399C71.7932 61.75 71.5733 61.9733 71.5799 62.42L71.6199 69.27C71.6199 69.9567 71.3699 70.0367 70.8699 69.51C70.8633 69.5033 70.3899 68.9267 69.4499 67.78C67.3499 65.21 65.1799 61.98 64.0999 61.79C63.5866 61.7033 63.0799 61.6967 62.5799 61.77C62.1933 61.83 61.9999 62.0567 61.9999 62.45V75.07C61.9999 75.5233 62.2232 75.75 62.6699 75.75H64.4099C64.8566 75.75 65.0766 75.5267 65.0699 75.08L65.0299 68.23C65.0299 67.5433 65.2799 67.4633 65.7799 67.99C65.7866 67.9967 66.2566 68.5733 67.1899 69.72ZM84.1499 72.72C85.9299 72.7267 86.8499 72.7367 86.9099 72.75C87.3433 72.83 87.6066 73 87.6999 73.26L88.3099 74.94C88.5166 75.4933 88.9132 75.77 89.4999 75.77H91.2199C91.3007 75.7706 91.3803 75.7508 91.4513 75.7125C91.5224 75.6742 91.5827 75.6186 91.6266 75.5508C91.6704 75.483 91.6965 75.4052 91.7023 75.3247C91.7082 75.2441 91.6936 75.1634 91.6599 75.09L86.1299 62.55C85.9832 62.2167 85.7366 62.0033 85.3899 61.91C85.0032 61.8033 84.5966 61.75 84.1699 61.75C83.7432 61.75 83.3399 61.8033 82.9599 61.91C82.6066 62.0033 82.3566 62.2133 82.2099 62.54L76.6399 75.06C76.6063 75.1334 76.5917 75.2141 76.5975 75.2947C76.6033 75.3752 76.6294 75.453 76.6733 75.5208C76.7171 75.5886 76.7774 75.6442 76.8485 75.6825C76.9196 75.7208 76.9992 75.7406 77.0799 75.74L78.7899 75.75C79.3766 75.75 79.7733 75.4733 79.9799 74.92L80.6099 73.25C80.7033 72.99 80.9666 72.82 81.3999 72.74C81.4599 72.7267 82.3766 72.72 84.1499 72.72ZM112.52 64.21L118.51 64.22C119.003 64.22 119.257 63.9767 119.27 63.49L119.31 62.43C119.33 61.9833 119.113 61.76 118.66 61.76L109.26 61.77C108.933 61.77 108.77 61.9367 108.77 62.27L108.8 75.14C108.8 75.5267 108.997 75.7233 109.39 75.73L118.92 75.72C119.333 75.72 119.53 75.5133 119.51 75.1L119.46 73.84C119.447 73.44 119.24 73.2433 118.84 73.25L112.52 73.29C112.167 73.29 111.993 73.1067 112 72.74V70.34C112.007 69.92 112.223 69.7133 112.65 69.72L117.77 69.75C117.965 69.7527 118.154 69.6778 118.296 69.5415C118.438 69.4051 118.522 69.218 118.53 69.02L118.57 67.99C118.573 67.8986 118.557 67.8075 118.524 67.7221C118.491 67.6367 118.442 67.5587 118.379 67.4927C118.315 67.4266 118.239 67.3738 118.156 67.3373C118.072 67.3008 117.981 67.2813 117.89 67.28L112.51 67.24C112.183 67.24 112.02 67.0767 112.02 66.75V64.71C112.02 64.3767 112.187 64.21 112.52 64.21ZM129.86 74.35C130.207 74.35 130.48 74.2 130.68 73.9C131.727 72.3467 132.847 70.5833 134.04 68.61C134.533 67.7967 134.78 67.8633 134.78 68.81V75.03C134.78 75.5367 135.037 75.79 135.55 75.79H136.94C137.44 75.79 137.69 75.54 137.69 75.04V62.37C137.69 62.2912 137.675 62.2132 137.645 62.1404C137.615 62.0676 137.572 62.0015 137.517 61.9457C137.462 61.89 137.397 61.8458 137.326 61.8157C137.254 61.7855 137.177 61.77 137.1 61.77H135.61C135.21 61.77 134.907 61.9433 134.7 62.29L130.18 70C130.127 70.1 130.053 70.16 129.96 70.18C129.947 70.1867 129.91 70.19 129.85 70.19C129.79 70.19 129.753 70.19 129.74 70.19C129.647 70.1633 129.573 70.1 129.52 70L124.95 62.32C124.743 61.9733 124.44 61.8033 124.04 61.81L122.55 61.82C122.472 61.82 122.396 61.8355 122.324 61.8656C122.253 61.8958 122.187 61.94 122.133 61.9957C122.078 62.0514 122.034 62.1176 122.005 62.1904C121.975 62.2632 121.96 62.3412 121.96 62.42L122.05 75.09C122.05 75.59 122.3 75.84 122.8 75.84L124.19 75.83C124.703 75.8233 124.96 75.5667 124.96 75.06L124.92 68.84C124.913 67.8933 125.157 67.8267 125.65 68.64C126.857 70.6067 127.99 72.3633 129.05 73.91C129.25 74.2033 129.52 74.35 129.86 74.35ZM144.96 64.23H150.95C151.443 64.23 151.697 63.9867 151.71 63.5L151.74 62.44C151.76 61.9933 151.543 61.77 151.09 61.77L141.69 61.8C141.363 61.8 141.2 61.9667 141.2 62.3L141.27 75.16C141.27 75.5467 141.467 75.74 141.86 75.74L151.38 75.72C151.793 75.7133 151.99 75.5033 151.97 75.09L151.92 73.84C151.9 73.44 151.693 73.2433 151.3 73.25L144.98 73.3C144.627 73.3 144.453 73.1167 144.46 72.75V70.35C144.46 69.93 144.673 69.7233 145.1 69.73L150.22 69.75C150.415 69.7527 150.604 69.6778 150.746 69.5415C150.888 69.4051 150.972 69.218 150.98 69.02L151.02 67.99C151.021 67.8985 151.004 67.8077 150.97 67.7229C150.936 67.638 150.886 67.5608 150.821 67.4956C150.757 67.4305 150.681 67.3788 150.596 67.3435C150.512 67.3082 150.421 67.29 150.33 67.29L144.96 67.26C144.633 67.26 144.47 67.0967 144.47 66.77V64.73C144.463 64.3967 144.627 64.23 144.96 64.23ZM159.97 69.74C162.08 72.31 164.26 75.55 165.34 75.73C165.86 75.8233 166.37 75.8333 166.87 75.76C167.257 75.7 167.45 75.47 167.45 75.07L167.43 62.44C167.43 61.98 167.207 61.7533 166.76 61.76H165.01C164.563 61.76 164.343 61.9833 164.35 62.43L164.4 69.29C164.407 69.9767 164.157 70.0567 163.65 69.53C163.643 69.5233 163.17 68.9467 162.23 67.8C160.12 65.23 157.95 62 156.86 61.81C156.347 61.7233 155.84 61.7167 155.34 61.79C154.953 61.85 154.76 62.0767 154.76 62.47L154.77 75.11C154.777 75.5633 155.003 75.79 155.45 75.79H157.19C157.637 75.79 157.857 75.5667 157.85 75.12L157.8 68.26C157.8 67.5733 158.05 67.4933 158.55 68.02C158.557 68.0267 159.03 68.6 159.97 69.74ZM175.11 75.75C175.75 75.75 176.137 75.73 176.27 75.69C176.57 75.59 176.72 75.38 176.72 75.06V64.79C176.72 64.4367 176.897 64.26 177.25 64.26H180.63C181.07 64.26 181.29 64.04 181.29 63.6V62.47C181.29 62.03 181.07 61.8067 180.63 61.8C178.65 61.7867 176.82 61.7767 175.14 61.77C173.46 61.77 171.63 61.7733 169.65 61.78C169.217 61.7867 168.997 62.01 168.99 62.45V63.58C168.99 64.02 169.21 64.24 169.65 64.24L173.03 64.25C173.383 64.25 173.557 64.4267 173.55 64.78L173.51 75.05C173.51 75.37 173.663 75.5833 173.97 75.69C174.097 75.73 174.477 75.75 175.11 75.75ZM206.39 75.75C206.823 75.75 207.157 75.7267 207.39 75.68C207.723 75.62 207.897 75.42 207.91 75.08C207.957 73.3267 207.977 72.2467 207.97 71.84C207.95 71.08 208.31 70.1 209.05 68.9C210.31 66.88 211.633 64.67 213.02 62.27C213.227 61.91 213.123 61.73 212.71 61.73H210.59C210.23 61.73 209.96 61.8867 209.78 62.2L206.7 67.54C206.64 67.64 206.563 67.7 206.47 67.72C206.457 67.7267 206.42 67.73 206.36 67.73C206.293 67.73 206.253 67.73 206.24 67.73C206.147 67.7033 206.07 67.64 206.01 67.54L202.88 62.23C202.7 61.9167 202.43 61.7633 202.07 61.77L199.95 61.79C199.537 61.79 199.437 61.97 199.65 62.33C201.057 64.7167 202.397 66.9133 203.67 68.92C204.423 70.1133 204.793 71.09 204.78 71.85C204.773 72.2567 204.803 73.3367 204.87 75.09C204.883 75.43 205.057 75.63 205.39 75.69C205.623 75.73 205.957 75.75 206.39 75.75ZM231.37 75.74C232.01 75.7333 232.397 75.71 232.53 75.67C232.837 75.57 232.987 75.36 232.98 75.04L232.95 64.78C232.95 64.4267 233.127 64.25 233.48 64.25L236.85 64.23C237.29 64.23 237.51 64.01 237.51 63.57V62.44C237.51 62 237.29 61.78 236.85 61.78C234.87 61.7733 233.04 61.77 231.36 61.77C229.687 61.7767 227.86 61.7833 225.88 61.79C225.44 61.7967 225.22 62.02 225.22 62.46V63.59C225.22 64.03 225.44 64.25 225.88 64.25H229.26C229.613 64.25 229.79 64.4267 229.79 64.78L229.78 75.04C229.78 75.36 229.933 75.57 230.24 75.67C230.367 75.7167 230.743 75.74 231.37 75.74ZM243.25 64.21L249.25 64.23C249.743 64.23 249.997 63.9867 250.01 63.5L250.05 62.44C250.07 61.9933 249.853 61.77 249.4 61.77H239.98C239.653 61.77 239.49 61.9367 239.49 62.27L239.52 75.15C239.52 75.5433 239.717 75.74 240.11 75.74H249.64C250.06 75.74 250.26 75.5333 250.24 75.12L250.19 73.86C250.177 73.46 249.97 73.2633 249.57 73.27L243.24 73.3C242.887 73.3 242.713 73.1167 242.72 72.75L242.73 70.35C242.737 69.93 242.953 69.7233 243.38 69.73L248.5 69.76C248.695 69.7627 248.884 69.6878 249.026 69.5515C249.168 69.4151 249.252 69.228 249.26 69.03L249.3 68C249.303 67.9086 249.287 67.8175 249.254 67.7321C249.221 67.6467 249.172 67.5687 249.109 67.5027C249.045 67.4366 248.969 67.3838 248.886 67.3473C248.802 67.3107 248.711 67.2913 248.62 67.29L243.24 67.25C242.913 67.25 242.75 67.0833 242.75 66.75V64.71C242.75 64.3767 242.917 64.21 243.25 64.21ZM260.61 74.32C260.957 74.32 261.23 74.17 261.43 73.87C262.477 72.3233 263.597 70.5633 264.79 68.59C265.283 67.7767 265.53 67.8433 265.53 68.79L265.52 75C265.52 75.5067 265.777 75.76 266.29 75.76H267.68C268.18 75.76 268.43 75.51 268.43 75.01V62.36C268.43 62.2812 268.415 62.2032 268.385 62.1304C268.355 62.0576 268.312 61.9915 268.257 61.9357C268.202 61.88 268.137 61.8358 268.066 61.8057C267.994 61.7755 267.917 61.76 267.84 61.76H266.36C265.96 61.76 265.657 61.9333 265.45 62.28L260.93 69.98C260.877 70.08 260.803 70.14 260.71 70.16C260.703 70.1667 260.67 70.17 260.61 70.17C260.55 70.17 260.513 70.1667 260.5 70.16C260.407 70.14 260.333 70.08 260.28 69.98L255.72 62.31C255.507 61.97 255.2 61.8 254.8 61.8L253.32 61.81C253.242 61.81 253.166 61.8255 253.094 61.8556C253.022 61.8858 252.957 61.93 252.903 61.9857C252.848 62.0414 252.804 62.1076 252.775 62.1804C252.745 62.2532 252.73 62.3312 252.73 62.41L252.81 75.06C252.817 75.56 253.07 75.81 253.57 75.81L254.95 75.8C255.463 75.7933 255.72 75.5367 255.72 75.03L255.68 68.82C255.673 67.88 255.917 67.8133 256.41 68.62C257.617 70.58 258.747 72.3333 259.8 73.88C260 74.1733 260.27 74.32 260.61 74.32Z" fill="#7F1719"/>
<path d="M78.3199 26.04H81.3999C81.4575 26.0399 81.5144 26.0537 81.5656 26.0801C81.6168 26.1065 81.6609 26.1449 81.6942 26.1919C81.7276 26.239 81.7491 26.2933 81.757 26.3504C81.765 26.4075 81.7591 26.4657 81.7399 26.52L72.7999 51.94C72.775 52.0103 72.729 52.0711 72.6681 52.1141C72.6072 52.1571 72.5344 52.1801 72.4599 52.18H69.3899C69.3322 52.1801 69.2754 52.1663 69.2242 52.1399C69.173 52.1135 69.1288 52.0751 69.0955 52.0281C69.0622 51.981 69.0407 51.9267 69.0327 51.8696C69.0248 51.8125 69.0307 51.7543 69.0499 51.7L77.9799 26.28C78.0047 26.2097 78.0508 26.1489 78.1117 26.1059C78.1726 26.0629 78.2453 26.0399 78.3199 26.04Z" fill="white"/>
<path d="M42.9596 44.73C43.0589 44.5375 43.1159 44.3259 43.1267 44.1094C43.1376 43.8929 43.1022 43.6763 43.0228 43.474C42.9434 43.2717 42.8218 43.0883 42.6661 42.9359C42.5104 42.7835 42.3242 42.6656 42.1196 42.59C41.0596 42.1967 39.063 41.6367 36.1297 40.91C33.2697 40.2 31.4196 38.18 31.8196 35.06C32.6496 28.59 41.7197 29.26 46.0597 31.1C46.453 31.2667 46.5763 31.5533 46.4297 31.96L45.6196 34.27C45.4863 34.6567 45.2363 34.76 44.8696 34.58C42.7696 33.53 38.2197 32.31 36.5397 34.36C36.3579 34.5816 36.234 34.8449 36.1791 35.1263C36.1243 35.4076 36.1402 35.6982 36.2255 35.9719C36.3108 36.2455 36.4627 36.4937 36.6677 36.6941C36.8726 36.8945 37.1241 37.0409 37.3997 37.12C39.573 37.7467 41.8963 38.4267 44.3696 39.16C46.3696 39.75 47.6596 41.98 47.4997 44.03C46.9297 51.26 36.4596 50.32 32.0496 47.98C31.8809 47.8903 31.7498 47.7433 31.6801 47.5653C31.6104 47.3874 31.6067 47.1904 31.6696 47.01L32.4497 44.79C32.4796 44.7009 32.5296 44.6199 32.5961 44.5532C32.6625 44.4865 32.7436 44.4358 32.8332 44.405C32.9228 44.3741 33.0185 44.364 33.1132 44.3753C33.2079 44.3865 33.299 44.4189 33.3797 44.47C35.3097 45.73 41.4796 47.62 42.9596 44.73Z" fill="white"/>
<path d="M69.8376 39.5247C69.8934 42.1895 68.8135 44.7689 66.8356 46.6955C64.8576 48.6221 62.1436 49.738 59.2905 49.7978C57.8778 49.8274 56.4734 49.5968 55.1577 49.1192C53.8419 48.6416 52.6405 47.9263 51.622 47.0142C50.6035 46.1021 49.7879 45.011 49.2218 43.8033C48.6556 42.5956 48.35 41.2948 48.3224 39.9753C48.2666 37.3105 49.3464 34.7311 51.3244 32.8045C53.3023 30.8779 56.0164 29.762 58.8695 29.7022C60.2822 29.6726 61.6865 29.9032 63.0023 30.3808C64.318 30.8584 65.5194 31.5737 66.5379 32.4858C67.5564 33.3979 68.372 34.489 68.9382 35.6967C69.5043 36.9045 69.8099 38.2052 69.8376 39.5247ZM65.36 39.75C65.36 38.0818 64.6973 36.4819 63.5177 35.3023C62.3381 34.1227 60.7382 33.46 59.07 33.46C57.4018 33.46 55.8019 34.1227 54.6223 35.3023C53.4427 36.4819 52.78 38.0818 52.78 39.75C52.78 41.4182 53.4427 43.0181 54.6223 44.1977C55.8019 45.3773 57.4018 46.04 59.07 46.04C60.7382 46.04 62.3381 45.3773 63.5177 44.1977C64.6973 43.0181 65.36 41.4182 65.36 39.75Z" fill="white"/>
<path d="M110.99 39.74C110.98 44.58 115.07 46.98 119.47 45.62C120.22 45.39 120.99 44.69 121.66 44.2C122.093 43.8867 122.497 43.9167 122.87 44.29L124.54 45.96C124.867 46.2867 124.86 46.6067 124.52 46.92C118.26 52.72 106.32 49.38 106.34 39.73C106.36 30.08 118.33 26.81 124.56 32.64C124.893 32.9533 124.897 33.27 124.57 33.59L122.89 35.26C122.517 35.6267 122.113 35.6533 121.68 35.34C121.01 34.85 120.25 34.14 119.5 33.91C115.1 32.53 111 34.91 110.99 39.74Z" fill="white"/>
<path d="M139.65 45.04C138.87 45.6867 138.987 46.01 140 46.01H146.5C147.007 46.01 147.26 46.2667 147.26 46.78V48.75C147.26 48.9436 147.183 49.1293 147.046 49.2662C146.909 49.4031 146.724 49.48 146.53 49.48H133.23C132.903 49.48 132.697 49.3267 132.61 49.02C132.197 47.6267 132.377 46.5833 133.15 45.89C137.077 42.3833 139.73 39.88 141.11 38.38C142.15 37.24 142.36 35.99 141.74 34.63C141.593 34.31 141.36 34.0867 141.04 33.96C138.867 33.1 136.957 33.3933 135.31 34.84C134.963 35.1467 134.59 35.1833 134.19 34.95L132.16 33.78C132.055 33.7195 131.967 33.635 131.901 33.5334C131.836 33.4318 131.796 33.3161 131.784 33.1958C131.772 33.0756 131.789 32.9543 131.834 32.8419C131.878 32.7296 131.949 32.6295 132.04 32.55C135.013 29.9433 138.46 29.16 142.38 30.2C147.27 31.51 147.54 37.28 144.46 40.46C142.54 42.4333 140.937 43.96 139.65 45.04Z" fill="white"/>
<path d="M172.518 49.86C171.401 49.8619 170.296 49.6024 169.263 49.0961C168.231 48.5898 167.293 47.8467 166.502 46.9093C165.711 45.9719 165.083 44.8585 164.654 43.6326C164.224 42.4067 164.002 41.0925 164 39.7648C163.998 38.4371 164.215 37.1221 164.64 35.8947C165.065 34.6674 165.689 33.5518 166.477 32.6116C167.265 31.6714 168.201 30.9251 169.231 30.4152C170.261 29.9054 171.366 29.6419 172.482 29.64C173.599 29.6381 174.704 29.8976 175.737 30.4039C176.769 30.9102 177.707 31.6533 178.498 32.5907C179.289 33.5281 179.917 34.6415 180.346 35.8674C180.776 37.0933 180.998 38.4075 181 39.7352C181.002 41.0629 180.785 42.3779 180.36 43.6053C179.935 44.8326 179.311 45.9482 178.523 46.8884C177.735 47.8286 176.799 48.5749 175.769 49.0848C174.739 49.5946 173.634 49.8581 172.518 49.86ZM172.467 46.23C172.991 46.2318 173.511 46.0663 173.996 45.7428C174.481 45.4194 174.923 44.9443 175.295 44.3448C175.668 43.7453 175.964 43.0331 176.168 42.2488C176.371 41.4645 176.477 40.6236 176.48 39.7739C176.483 38.9242 176.383 38.0826 176.185 37.2969C175.987 36.5112 175.696 35.7969 175.327 35.1949C174.959 34.5928 174.521 34.1147 174.038 33.7878C173.555 33.461 173.037 33.2918 172.513 33.29C171.989 33.2882 171.469 33.4537 170.984 33.7771C170.499 34.1006 170.057 34.5756 169.685 35.1752C169.312 35.7747 169.016 36.4869 168.812 37.2712C168.609 38.0555 168.503 38.8964 168.5 39.7461C168.497 40.5957 168.597 41.4374 168.795 42.2231C168.993 43.0088 169.284 43.7231 169.653 44.3251C170.021 44.9272 170.459 45.4053 170.942 45.7322C171.425 46.059 171.943 46.2282 172.467 46.23Z" fill="white"/>
<path d="M190.49 49.88C189.373 49.88 188.266 49.6185 187.234 49.1104C186.201 48.6023 185.263 47.8577 184.473 46.9189C183.683 45.9801 183.056 44.8655 182.628 43.6389C182.201 42.4123 181.98 41.0977 181.98 39.77C181.98 38.4423 182.201 37.1277 182.628 35.9011C183.056 34.6745 183.683 33.56 184.473 32.6212C185.263 31.6824 186.201 30.9377 187.234 30.4296C188.266 29.9215 189.373 29.66 190.49 29.66C192.747 29.66 194.912 30.7252 196.508 32.6212C198.104 34.5171 199 37.0887 199 39.77C199 42.4513 198.104 45.0229 196.508 46.9189C194.912 48.8148 192.747 49.88 190.49 49.88ZM190.489 46.19C191.009 46.1909 191.524 46.025 192.005 45.7017C192.486 45.3784 192.924 44.9041 193.293 44.3058C193.661 43.7075 193.954 42.9969 194.155 42.2147C194.355 41.4325 194.459 40.5939 194.46 39.7469C194.463 38.0363 194.049 36.395 193.309 35.1841C192.568 33.9732 191.562 33.2919 190.512 33.29C189.992 33.2891 189.476 33.455 188.995 33.7783C188.514 34.1016 188.077 34.576 187.708 35.1743C187.34 35.7726 187.047 36.4831 186.846 37.2653C186.646 38.0475 186.542 38.8861 186.54 39.7331C186.537 41.4437 186.952 43.085 187.692 44.2959C188.433 45.5068 189.439 46.1882 190.489 46.19Z" fill="white"/>
<path d="M223.15 45.04C222.364 45.6867 222.48 46.01 223.5 46.01L230 46.03C230.507 46.03 230.76 46.2867 230.76 46.8L230.75 48.77C230.75 48.9636 230.673 49.1493 230.537 49.2862C230.4 49.4231 230.214 49.5 230.02 49.5L216.71 49.47C216.384 49.47 216.177 49.3167 216.09 49.01C215.684 47.6167 215.867 46.5733 216.64 45.88C220.58 42.38 223.24 39.88 224.62 38.38C225.667 37.2467 225.88 35.9967 225.26 34.63C225.12 34.31 224.89 34.0867 224.57 33.96C222.397 33.0933 220.484 33.3833 218.83 34.83C218.484 35.1367 218.11 35.17 217.71 34.93L215.68 33.76C215.576 33.6995 215.487 33.615 215.422 33.5134C215.356 33.4118 215.316 33.2961 215.304 33.1758C215.293 33.0556 215.31 32.9343 215.354 32.8219C215.399 32.7096 215.469 32.6095 215.56 32.53C218.547 29.93 222 29.1533 225.92 30.2C230.81 31.52 231.06 37.3 227.97 40.47C226.044 42.4433 224.437 43.9667 223.15 45.04Z" fill="white"/>
<path d="M239.705 49.8699C237.442 49.862 235.276 48.7882 233.683 46.8848C232.09 44.9813 231.201 42.4042 231.21 39.7202C231.219 37.0363 232.127 34.4654 233.733 32.5731C235.34 30.6809 237.513 29.6222 239.775 29.6301C242.038 29.638 244.203 30.7118 245.796 32.6152C247.39 34.5187 248.279 37.0958 248.27 39.7798C248.26 42.4638 247.353 45.0346 245.747 46.9269C244.14 48.8191 241.967 49.8778 239.705 49.8699ZM239.739 46.17C240.792 46.1718 241.803 45.4951 242.549 44.2886C243.296 43.0822 243.717 41.4449 243.72 39.7369C243.721 38.8912 243.62 38.0536 243.422 37.2719C243.224 36.4902 242.933 35.7797 242.565 35.1811C242.197 34.5824 241.761 34.1073 241.28 33.7828C240.798 33.4584 240.282 33.2909 239.761 33.29C238.708 33.2882 237.697 33.9649 236.951 35.1714C236.204 36.3778 235.783 38.0151 235.78 39.7231C235.778 40.5688 235.88 41.4064 236.078 42.1881C236.276 42.9698 236.567 43.6803 236.935 44.2789C237.302 44.8776 237.739 45.3527 238.22 45.6772C238.701 46.0016 239.217 46.1691 239.739 46.17Z" fill="white"/>
<path d="M28.41 30.01H25.05C24.7462 30.01 24.5 30.2562 24.5 30.56V48.94C24.5 49.2438 24.7462 49.49 25.05 49.49H28.41C28.7138 49.49 28.96 49.2438 28.96 48.94V30.56C28.96 30.2562 28.7138 30.01 28.41 30.01Z" fill="white"/>
<path d="M85.9371 30.0233L82.1371 30.0167C81.9659 30.0164 81.8269 30.155 81.8266 30.3262L81.7937 49.1661C81.7934 49.3373 81.932 49.4764 82.1032 49.4767L85.9032 49.4833C86.0744 49.4836 86.2134 49.3451 86.2137 49.1738L86.2466 30.3339C86.2469 30.1627 86.1084 30.0236 85.9371 30.0233Z" fill="white"/>
<path d="M103.49 39.65C103.49 40.29 103.483 40.6867 103.47 40.84C103.454 40.9859 103.4 41.121 103.319 41.219C103.237 41.317 103.134 41.3708 103.03 41.37L94.7798 41.48C94.4265 41.48 94.2498 41.66 94.2498 42.02V45.45C94.2498 45.7633 94.4098 45.92 94.7298 45.92H104.39C104.736 45.92 104.91 46.0833 104.91 46.41V48.94C104.91 49.22 104.77 49.3633 104.49 49.37L90.2898 49.47C90.0631 49.47 89.9298 49.27 89.8898 48.87C89.8431 48.3767 89.8031 45.33 89.7698 39.73C89.7365 34.1367 89.7398 31.0933 89.7798 30.6C89.8131 30.1933 89.9431 29.99 90.1698 29.99L104.37 29.91C104.65 29.9167 104.79 30.06 104.79 30.34L104.83 32.87C104.83 33.1967 104.656 33.36 104.31 33.36L94.6498 33.48C94.3298 33.4867 94.1731 33.6467 94.1798 33.96L94.2198 37.39C94.2265 37.75 94.4065 37.9267 94.7598 37.92L103.01 37.93C103.114 37.9305 103.216 37.985 103.298 38.0828C103.379 38.1807 103.433 38.3151 103.45 38.46C103.47 38.6067 103.483 39.0033 103.49 39.65Z" fill="white"/>
<path d="M157.82 33.97C157.845 33.9135 157.856 33.8517 157.851 33.7901C157.846 33.7286 157.825 33.6692 157.791 33.6175C157.758 33.5658 157.711 33.5234 157.657 33.4941C157.603 33.4649 157.542 33.4497 157.48 33.45H152.25C151.723 33.45 151.46 33.7133 151.46 34.24V35.88C151.46 36.44 151.18 36.72 150.62 36.72H148.4C147.827 36.72 147.54 36.4367 147.54 35.87V30.61C147.54 30.23 147.73 30.04 148.11 30.04H161.67C163.423 30.04 163.95 30.8467 163.25 32.46L156.29 48.56C156.017 49.1867 155.54 49.5 154.86 49.5H152.01C151.41 49.5 151.23 49.2233 151.47 48.67L157.82 33.97Z" fill="white"/>
<path d="M199.29 33.01V30.54C199.29 30.4757 199.303 30.4119 199.327 30.3525C199.352 30.293 199.388 30.239 199.434 30.1935C199.479 30.148 199.533 30.1119 199.593 30.0873C199.652 30.0627 199.716 30.05 199.78 30.05H207.25C207.314 30.05 207.378 30.0627 207.438 30.0873C207.497 30.1119 207.551 30.148 207.597 30.1935C207.642 30.239 207.678 30.293 207.703 30.3525C207.727 30.4119 207.74 30.4757 207.74 30.54V49C207.74 49.0644 207.727 49.1281 207.703 49.1875C207.678 49.247 207.642 49.301 207.597 49.3465C207.551 49.392 207.497 49.4281 207.438 49.4527C207.378 49.4773 207.314 49.49 207.25 49.49H203.52C203.456 49.49 203.392 49.4773 203.333 49.4527C203.273 49.4281 203.219 49.392 203.174 49.3465C203.128 49.301 203.092 49.247 203.067 49.1875C203.043 49.1281 203.03 49.0644 203.03 49V33.99C203.03 33.86 202.978 33.7354 202.887 33.6435C202.795 33.5516 202.67 33.5 202.54 33.5H199.78C199.65 33.5 199.525 33.4484 199.434 33.3565C199.342 33.2646 199.29 33.14 199.29 33.01Z" fill="white"/>
<path d="M252.28 34.11C252.273 33.65 252.043 33.43 251.59 33.45L249.35 33.55C248.877 33.57 248.617 33.3433 248.57 32.87L248.42 30.67C248.413 30.5913 248.423 30.5119 248.451 30.4371C248.478 30.3622 248.521 30.2934 248.577 30.2351C248.633 30.1768 248.702 30.1303 248.778 30.0984C248.855 30.0665 248.937 30.05 249.02 30.05L256.5 30.04C256.813 30.04 256.97 30.19 256.97 30.49V49.01C256.97 49.31 256.813 49.46 256.5 49.46L252.76 49.47C252.427 49.47 252.26 49.31 252.26 48.99L252.28 34.11Z" fill="white"/>
<path d="M268.94 38C272.42 39.1333 273.92 41.2733 273.44 44.42C272.41 51.08 262.92 50.43 258.61 48.05C258.473 47.9762 258.37 47.8531 258.32 47.705C258.27 47.5569 258.277 47.3946 258.34 47.25L259.4 44.78C259.428 44.7155 259.47 44.6578 259.522 44.6105C259.574 44.5633 259.636 44.5276 259.703 44.5059C259.77 44.4842 259.841 44.4769 259.911 44.4845C259.981 44.4921 260.049 44.5144 260.11 44.55C262.69 46.0433 265.156 46.3933 267.51 45.6C267.805 45.4984 268.078 45.3385 268.309 45.1305C268.54 44.9224 268.725 44.6709 268.853 44.3921C268.98 44.1133 269.046 43.8133 269.047 43.5116C269.049 43.2098 268.985 42.9129 268.86 42.64C268.28 41.36 266.783 40.8333 264.37 41.06C263.43 41.1467 263 40.7167 263.08 39.77C263.29 37.4 265.41 35.8 266.82 34.14C266.867 34.0817 266.898 34.0112 266.908 33.9367C266.918 33.8622 266.907 33.7866 266.877 33.7187C266.846 33.6508 266.798 33.5934 266.736 33.5529C266.675 33.5124 266.603 33.4906 266.53 33.49H259.43C259.19 33.49 259.07 33.37 259.07 33.13V30.47C259.07 30.1833 259.213 30.04 259.5 30.04H272.2C272.646 30.04 272.88 30.2633 272.9 30.71C273.03 33.4 270.39 35.42 268.74 37.23C268.406 37.59 268.473 37.8467 268.94 38Z" fill="white"/>
<path d="M59.0703 46.04C62.5441 46.04 65.3603 43.2239 65.3603 39.75C65.3603 36.2761 62.5441 33.46 59.0703 33.46C55.5964 33.46 52.7803 36.2761 52.7803 39.75C52.7803 43.2239 55.5964 46.04 59.0703 46.04Z" fill="#7F1719"/>
<path d="M168.5 39.7461C168.488 43.3193 170.264 46.2223 172.468 46.23C174.671 46.2377 176.468 43.3472 176.48 39.7739C176.493 36.2007 174.717 33.2977 172.513 33.29C170.309 33.2824 168.513 36.1728 168.5 39.7461Z" fill="#7F1719"/>
<path d="M186.54 39.7331C186.534 43.2953 188.302 46.1862 190.489 46.19C192.676 46.1938 194.454 43.3091 194.46 39.7469C194.467 36.1847 192.699 33.2938 190.512 33.29C188.325 33.2862 186.547 36.1709 186.54 39.7331Z" fill="#7F1719"/>
<path d="M235.78 39.7231C235.774 43.2798 237.546 46.1662 239.739 46.17C241.932 46.1738 243.714 43.2936 243.72 39.7369C243.726 36.1802 241.954 33.2938 239.761 33.29C237.569 33.2862 235.786 36.1664 235.78 39.7231Z" fill="#7F1719"/>
<path d="M212.44 39.74C213.953 39.74 215.18 38.5133 215.18 37C215.18 35.4867 213.953 34.26 212.44 34.26C210.927 34.26 209.7 35.4867 209.7 37C209.7 38.5133 210.927 39.74 212.44 39.74Z" fill="white"/>
<path d="M212.42 49.72C213.928 49.72 215.15 48.4977 215.15 46.99C215.15 45.4823 213.928 44.26 212.42 44.26C210.913 44.26 209.69 45.4823 209.69 46.99C209.69 48.4977 210.913 49.72 212.42 49.72Z" fill="white"/>
<path d="M102.52 72.41V69.19C102.52 68.9884 102.6 68.7951 102.742 68.6526C102.885 68.5101 103.078 68.43 103.28 68.43H104.71C105.216 68.43 105.47 68.6867 105.47 69.2V73.9C105.47 74.2533 105.313 74.51 105 74.67C100.96 76.76 95.4695 76.53 93.1895 72.13C91.1495 68.21 92.7095 63.76 96.8895 62.09C99.5695 61.0167 102.26 61.3267 104.96 63.02C105.646 63.4533 105.703 63.9567 105.13 64.53L104.59 65.06C104.123 65.5333 103.61 65.5867 103.05 65.22C98.6395 62.31 93.7795 66.39 96.1695 71.12C97.0762 72.9067 98.9895 73.5733 101.91 73.12C102.316 73.06 102.52 72.8233 102.52 72.41Z" fill="white"/>
<path d="M196.02 71.94C196.024 71.7299 195.961 71.524 195.84 71.3517C195.72 71.1794 195.549 71.0493 195.35 70.98L189.26 68.84C188.92 68.72 188.674 68.5 188.52 68.18C187.32 65.7067 187.72 63.84 189.72 62.58C191.9 61.2 194.59 61.0933 197.79 62.26C198.33 62.46 198.504 62.8267 198.31 63.36L197.97 64.34C197.777 64.8867 197.417 65.0367 196.89 64.79C196.124 64.4233 194.774 64.17 192.84 64.03C192.506 64.0073 192.174 64.0928 191.896 64.2735C191.618 64.4541 191.409 64.7199 191.3 65.03L191.18 65.39C191.136 65.5128 191.116 65.6431 191.122 65.7735C191.128 65.9039 191.16 66.0318 191.216 66.1498C191.272 66.2679 191.35 66.3737 191.447 66.4613C191.544 66.5488 191.657 66.6164 191.78 66.66L198.08 68.87C198.218 68.9204 198.343 68.9993 198.447 69.1011C198.55 69.203 198.63 69.3254 198.68 69.46C199.667 72.0667 199.154 73.9167 197.14 75.01C194.4 76.4967 191.314 76.3833 187.88 74.67C187.687 74.57 187.627 74.42 187.7 74.22L188.4 72.24C188.447 72.0933 188.54 72.0567 188.68 72.13C190.773 73.2633 192.727 73.6533 194.54 73.3C195.514 73.1067 196.007 72.6533 196.02 71.94Z" fill="white"/>
<path d="M221.78 71.91C221.781 71.7016 221.717 71.498 221.597 71.3277C221.477 71.1573 221.306 71.0288 221.11 70.96L215.02 68.83C214.68 68.71 214.433 68.49 214.28 68.17C213.08 65.7033 213.476 63.8367 215.47 62.57C217.643 61.19 220.33 61.08 223.53 62.24C224.07 62.44 224.246 62.8067 224.06 63.34L223.72 64.32C223.526 64.8667 223.166 65.0167 222.64 64.77C221.873 64.4033 220.523 64.1533 218.59 64.02C218.256 63.9973 217.924 64.0829 217.646 64.2635C217.368 64.4442 217.158 64.7099 217.05 65.02L216.93 65.38C216.886 65.5034 216.866 65.6343 216.873 65.7652C216.88 65.8961 216.913 66.0243 216.969 66.1425C217.026 66.2606 217.106 66.3663 217.204 66.4534C217.302 66.5406 217.416 66.6074 217.54 66.65L223.84 68.84C223.978 68.8904 224.103 68.9693 224.206 69.0711C224.31 69.173 224.39 69.2954 224.44 69.43C225.426 72.0367 224.916 73.8867 222.91 74.98C220.176 76.4733 217.09 76.3667 213.65 74.66C213.456 74.56 213.396 74.41 213.47 74.21L214.17 72.23C214.216 72.0833 214.31 72.0467 214.45 72.12C216.543 73.2467 218.496 73.6333 220.31 73.28C221.283 73.08 221.773 72.6233 221.78 71.91Z" fill="white"/>
<path d="M35.34 74.32C34.9933 74.32 34.72 74.1733 34.52 73.88C33.4666 72.3267 32.34 70.5667 31.14 68.6C30.64 67.7867 30.3933 67.8533 30.4 68.8L30.43 75.03C30.43 75.5367 30.1733 75.79 29.66 75.79L28.27 75.8C27.77 75.8 27.5166 75.55 27.51 75.05L27.46 62.37C27.4599 62.2126 27.5207 62.0615 27.6292 61.9493C27.7377 61.837 27.8852 61.7726 28.04 61.77L29.54 61.76C29.94 61.76 30.2433 61.9333 30.45 62.28L35.01 69.97C35.0633 70.07 35.1366 70.1333 35.23 70.16C35.2433 70.16 35.28 70.16 35.34 70.16C35.4 70.16 35.4333 70.16 35.44 70.16C35.5333 70.1333 35.6066 70.07 35.66 69.97L40.2 62.27C40.4066 61.9233 40.71 61.75 41.11 61.75H42.61C42.6874 61.75 42.7642 61.7655 42.8358 61.7957C42.9073 61.8258 42.9724 61.87 43.0272 61.9257C43.082 61.9814 43.1254 62.0476 43.1551 62.1204C43.1847 62.1932 43.2 62.2712 43.2 62.35L43.17 75.03C43.17 75.53 42.92 75.78 42.42 75.78H41.03C40.5166 75.78 40.26 75.5267 40.26 75.02L40.27 68.79C40.27 67.8433 40.0233 67.7767 39.53 68.59C38.33 70.5633 37.2066 72.3267 36.16 73.88C35.96 74.1733 35.6866 74.32 35.34 74.32Z" fill="white"/>
<path d="M52.6696 61.76C53.1029 61.76 53.5096 61.8133 53.8896 61.92C54.2429 62.0133 54.4929 62.2267 54.6396 62.56L60.1796 75.13C60.2133 75.2034 60.2278 75.2841 60.222 75.3647C60.2162 75.4452 60.1901 75.523 60.1463 75.5908C60.1024 75.6586 60.0421 75.7142 59.971 75.7525C59.9 75.7908 59.8204 75.8106 59.7396 75.81H58.0196C57.4329 75.81 57.0363 75.5333 56.8296 74.98L56.2096 73.3C56.1163 73.04 55.8529 72.8667 55.4196 72.78C55.3596 72.7667 54.4396 72.76 52.6596 72.76C50.8796 72.7533 49.9563 72.7567 49.8896 72.77C49.4629 72.8567 49.1996 73.03 49.0996 73.29L48.4796 74.97C48.2663 75.5167 47.8663 75.79 47.2796 75.79L45.5596 75.78C45.4797 75.7789 45.4013 75.758 45.3316 75.7189C45.2619 75.6799 45.203 75.6241 45.1602 75.5566C45.1175 75.489 45.0924 75.4119 45.087 75.3322C45.0817 75.2524 45.0963 75.1726 45.1296 75.1L50.7096 62.55C50.8563 62.2167 51.1063 62.0033 51.4596 61.91C51.8463 61.81 52.2496 61.76 52.6696 61.76ZM50.6196 69.68C50.5951 69.7407 50.5858 69.8064 50.5926 69.8715C50.5994 69.9366 50.622 69.999 50.6585 70.0533C50.6951 70.1076 50.7443 70.1521 50.8021 70.1829C50.8598 70.2137 50.9242 70.2299 50.9896 70.23L54.3096 70.21C54.3763 70.2106 54.4421 70.1944 54.501 70.1631C54.5599 70.1317 54.61 70.0862 54.6467 70.0305C54.6835 69.9749 54.7058 69.9109 54.7115 69.8444C54.7173 69.778 54.7063 69.7111 54.6796 69.65L52.9896 65.77C52.9585 65.697 52.9064 65.635 52.8399 65.5917C52.7734 65.5484 52.6956 65.5258 52.6163 65.5269C52.5369 65.528 52.4597 65.5526 52.3944 65.5977C52.3292 65.6428 52.2787 65.7062 52.2496 65.78L50.6196 69.68Z" fill="white"/>
<path d="M69.45 67.78C70.39 68.9267 70.8633 69.5033 70.87 69.51C71.37 70.0367 71.62 69.9567 71.62 69.27L71.58 62.42C71.5733 61.9733 71.7933 61.75 72.24 61.75H73.98C74.4267 61.75 74.65 61.9767 74.65 62.43V75.05C74.65 75.4433 74.4567 75.67 74.07 75.73C73.57 75.8033 73.0633 75.7967 72.55 75.71C71.46 75.52 69.3 72.29 67.19 69.72C66.2567 68.5733 65.7867 67.9967 65.78 67.99C65.28 67.4633 65.03 67.5433 65.03 68.23L65.07 75.08C65.0767 75.5267 64.8567 75.75 64.41 75.75H62.67C62.2233 75.75 62 75.5233 62 75.07V62.45C62 62.0567 62.1933 61.83 62.58 61.77C63.08 61.6967 63.5867 61.7033 64.1 61.79C65.18 61.98 67.35 65.21 69.45 67.78Z" fill="white"/>
<path d="M84.1503 72.72C82.377 72.72 81.4603 72.7267 81.4003 72.74C80.967 72.82 80.7037 72.99 80.6103 73.25L79.9803 74.92C79.7737 75.4733 79.377 75.75 78.7903 75.75L77.0803 75.74C76.9996 75.7406 76.92 75.7208 76.8489 75.6825C76.7778 75.6442 76.7176 75.5886 76.6737 75.5208C76.6298 75.453 76.6038 75.3752 76.5979 75.2947C76.5921 75.2141 76.6067 75.1334 76.6403 75.06L82.2103 62.54C82.357 62.2133 82.607 62.0033 82.9603 61.91C83.3403 61.8033 83.7437 61.75 84.1703 61.75C84.597 61.75 85.0037 61.8033 85.3903 61.91C85.737 62.0033 85.9837 62.2167 86.1303 62.55L91.6603 75.09C91.694 75.1634 91.7086 75.2441 91.7027 75.3247C91.6969 75.4052 91.6709 75.483 91.627 75.5508C91.5831 75.6186 91.5229 75.6742 91.4518 75.7125C91.3807 75.7508 91.3011 75.7706 91.2203 75.77H89.5003C88.9137 75.77 88.517 75.4933 88.3103 74.94L87.7003 73.26C87.607 73 87.3437 72.83 86.9103 72.75C86.8503 72.7367 85.9303 72.7267 84.1503 72.72ZM86.3003 69.85L84.6103 66.03C84.3103 65.3367 84.007 65.3367 83.7003 66.03L82.1403 69.65C81.9737 70.03 82.097 70.22 82.5103 70.22H86.0603C86.1044 70.2208 86.148 70.2103 86.1869 70.1895C86.2259 70.1688 86.2589 70.1385 86.2829 70.1015C86.3069 70.0645 86.3211 70.022 86.3242 69.978C86.3272 69.934 86.319 69.89 86.3003 69.85Z" fill="white"/>
<path d="M112.52 64.21C112.186 64.21 112.02 64.3767 112.02 64.71V66.75C112.02 67.0767 112.183 67.24 112.51 67.24L117.89 67.28C117.981 67.2813 118.071 67.3008 118.155 67.3373C118.239 67.3738 118.315 67.4266 118.378 67.4927C118.441 67.5587 118.491 67.6367 118.524 67.7221C118.557 67.8075 118.572 67.8985 118.57 67.99L118.53 69.02C118.522 69.218 118.438 69.4051 118.296 69.5415C118.154 69.6778 117.965 69.7526 117.77 69.75L112.65 69.72C112.223 69.7133 112.006 69.92 112 70.34V72.74C111.993 73.1067 112.166 73.29 112.52 73.29L118.84 73.25C119.24 73.2433 119.446 73.44 119.46 73.84L119.51 75.1C119.53 75.5133 119.333 75.72 118.92 75.72L109.39 75.73C108.996 75.7233 108.8 75.5267 108.8 75.14L108.77 62.27C108.77 61.9367 108.933 61.77 109.26 61.77L118.66 61.76C119.113 61.76 119.33 61.9833 119.31 62.43L119.27 63.49C119.256 63.9767 119.003 64.22 118.51 64.22L112.52 64.21Z" fill="white"/>
<path d="M129.85 70.19C129.91 70.19 129.947 70.1867 129.96 70.18C130.053 70.16 130.127 70.1 130.18 70L134.7 62.29C134.907 61.9433 135.21 61.77 135.61 61.77H137.1C137.177 61.77 137.254 61.7855 137.326 61.8157C137.397 61.8458 137.462 61.89 137.517 61.9457C137.572 62.0015 137.615 62.0676 137.645 62.1404C137.675 62.2132 137.69 62.2912 137.69 62.37V75.04C137.69 75.54 137.44 75.79 136.94 75.79H135.55C135.037 75.79 134.78 75.5367 134.78 75.03V68.81C134.78 67.8633 134.533 67.7967 134.04 68.61C132.847 70.5833 131.727 72.3467 130.68 73.9C130.48 74.2 130.207 74.35 129.86 74.35C129.52 74.35 129.25 74.2033 129.05 73.91C127.99 72.3633 126.857 70.6067 125.65 68.64C125.157 67.8267 124.913 67.8933 124.92 68.84L124.96 75.06C124.96 75.5667 124.703 75.8233 124.19 75.83L122.8 75.84C122.3 75.84 122.05 75.59 122.05 75.09L121.96 62.42C121.96 62.3412 121.975 62.2632 122.005 62.1904C122.034 62.1176 122.078 62.0514 122.133 61.9957C122.188 61.94 122.253 61.8958 122.324 61.8656C122.396 61.8355 122.472 61.82 122.55 61.82L124.04 61.81C124.44 61.8033 124.743 61.9733 124.95 62.32L129.52 70C129.573 70.1 129.647 70.1633 129.74 70.19C129.753 70.19 129.79 70.19 129.85 70.19Z" fill="white"/>
<path d="M144.96 64.23C144.627 64.23 144.464 64.3967 144.47 64.73V66.77C144.47 67.0967 144.634 67.26 144.96 67.26L150.33 67.29C150.422 67.29 150.512 67.3082 150.597 67.3435C150.681 67.3788 150.757 67.4305 150.822 67.4956C150.886 67.5608 150.936 67.638 150.971 67.7229C151.005 67.8078 151.022 67.8986 151.02 67.99L150.98 69.02C150.972 69.218 150.889 69.4051 150.747 69.5415C150.605 69.6778 150.416 69.7527 150.22 69.75L145.1 69.73C144.674 69.7233 144.46 69.93 144.46 70.35V72.75C144.454 73.1167 144.627 73.3 144.98 73.3L151.3 73.25C151.694 73.2433 151.9 73.44 151.92 73.84L151.97 75.09C151.99 75.5033 151.794 75.7133 151.38 75.72L141.86 75.74C141.467 75.74 141.27 75.5467 141.27 75.16L141.2 62.3C141.2 61.9667 141.364 61.8 141.69 61.8L151.09 61.77C151.544 61.77 151.76 61.9933 151.74 62.44L151.71 63.5C151.697 63.9867 151.444 64.23 150.95 64.23H144.96Z" fill="white"/>
<path d="M159.97 69.74C159.03 68.6 158.556 68.0267 158.55 68.02C158.05 67.4933 157.8 67.5733 157.8 68.26L157.85 75.12C157.856 75.5667 157.636 75.79 157.19 75.79H155.45C155.003 75.79 154.776 75.5633 154.77 75.11L154.76 62.47C154.76 62.0767 154.953 61.85 155.34 61.79C155.84 61.7167 156.346 61.7233 156.86 61.81C157.95 62 160.12 65.23 162.23 67.8C163.17 68.9467 163.643 69.5233 163.65 69.53C164.156 70.0567 164.406 69.9767 164.4 69.29L164.35 62.43C164.343 61.9833 164.563 61.76 165.01 61.76H166.76C167.206 61.7533 167.43 61.98 167.43 62.44L167.45 75.07C167.45 75.47 167.256 75.7 166.87 75.76C166.37 75.8333 165.86 75.8233 165.34 75.73C164.26 75.55 162.08 72.31 159.97 69.74Z" fill="white"/>
<path d="M175.14 61.77C176.82 61.7767 178.65 61.7867 180.63 61.8C181.07 61.8067 181.29 62.03 181.29 62.47V63.6C181.29 64.04 181.07 64.26 180.63 64.26H177.25C176.897 64.26 176.72 64.4367 176.72 64.79V75.06C176.72 75.38 176.57 75.59 176.27 75.69C176.137 75.73 175.75 75.75 175.11 75.75C174.477 75.75 174.097 75.73 173.97 75.69C173.664 75.5833 173.51 75.37 173.51 75.05L173.55 64.78C173.557 64.4267 173.384 64.25 173.03 64.25L169.65 64.24C169.21 64.24 168.99 64.02 168.99 63.58V62.45C168.997 62.01 169.217 61.7867 169.65 61.78C171.63 61.7733 173.46 61.77 175.14 61.77Z" fill="white"/>
<path d="M206.36 67.73C206.42 67.73 206.457 67.7267 206.47 67.72C206.563 67.7 206.64 67.64 206.7 67.54L209.78 62.2C209.96 61.8867 210.23 61.73 210.59 61.73H212.71C213.123 61.73 213.227 61.91 213.02 62.27C211.633 64.67 210.31 66.88 209.05 68.9C208.31 70.1 207.95 71.08 207.97 71.84C207.977 72.2467 207.957 73.3267 207.91 75.08C207.897 75.42 207.723 75.62 207.39 75.68C207.157 75.7267 206.823 75.75 206.39 75.75C205.957 75.75 205.623 75.73 205.39 75.69C205.057 75.63 204.883 75.43 204.87 75.09C204.803 73.3367 204.773 72.2567 204.78 71.85C204.793 71.09 204.423 70.1133 203.67 68.92C202.397 66.9133 201.057 64.7167 199.65 62.33C199.437 61.97 199.537 61.79 199.95 61.79L202.07 61.77C202.43 61.7633 202.7 61.9167 202.88 62.23L206.01 67.54C206.07 67.64 206.147 67.7033 206.24 67.73C206.253 67.73 206.293 67.73 206.36 67.73Z" fill="white"/>
<path d="M231.37 75.74C230.743 75.74 230.366 75.7167 230.24 75.67C229.933 75.57 229.78 75.36 229.78 75.04L229.79 64.78C229.79 64.4267 229.613 64.25 229.26 64.25H225.88C225.44 64.25 225.22 64.03 225.22 63.59V62.46C225.22 62.02 225.44 61.7967 225.88 61.79C227.86 61.7833 229.686 61.7767 231.36 61.77C233.04 61.77 234.87 61.7733 236.85 61.78C237.29 61.78 237.51 62 237.51 62.44V63.57C237.51 64.01 237.29 64.23 236.85 64.23L233.48 64.25C233.126 64.25 232.95 64.4267 232.95 64.78L232.98 75.04C232.986 75.36 232.836 75.57 232.53 75.67C232.396 75.71 232.01 75.7333 231.37 75.74Z" fill="white"/>
<path d="M243.25 64.21C242.917 64.21 242.75 64.3767 242.75 64.71V66.75C242.75 67.0833 242.914 67.25 243.24 67.25L248.62 67.29C248.712 67.2913 248.802 67.3108 248.886 67.3473C248.97 67.3838 249.046 67.4366 249.109 67.5027C249.172 67.5687 249.222 67.6467 249.254 67.7321C249.287 67.8175 249.303 67.9086 249.3 68L249.26 69.03C249.252 69.228 249.169 69.4151 249.027 69.5515C248.885 69.6878 248.696 69.7627 248.5 69.76L243.38 69.73C242.954 69.7233 242.737 69.93 242.73 70.35L242.72 72.75C242.714 73.1167 242.887 73.3 243.24 73.3L249.57 73.27C249.97 73.2633 250.177 73.46 250.19 73.86L250.24 75.12C250.26 75.5333 250.06 75.74 249.64 75.74H240.11C239.717 75.74 239.52 75.5433 239.52 75.15L239.49 62.27C239.49 61.9367 239.654 61.77 239.98 61.77H249.4C249.854 61.77 250.07 61.9933 250.05 62.44L250.01 63.5C249.997 63.9867 249.744 64.23 249.25 64.23L243.25 64.21Z" fill="white"/>
<path d="M260.61 74.32C260.27 74.32 260 74.1733 259.8 73.88C258.747 72.3333 257.617 70.58 256.41 68.62C255.917 67.8133 255.674 67.88 255.68 68.82L255.72 75.03C255.72 75.5367 255.464 75.7933 254.95 75.8L253.57 75.81C253.07 75.81 252.817 75.56 252.81 75.06L252.73 62.41C252.73 62.3312 252.746 62.2532 252.775 62.1804C252.805 62.1076 252.848 62.0414 252.903 61.9857C252.958 61.93 253.023 61.8858 253.095 61.8556C253.166 61.8255 253.243 61.81 253.32 61.81L254.8 61.8C255.2 61.8 255.507 61.97 255.72 62.31L260.28 69.98C260.334 70.08 260.407 70.14 260.5 70.16C260.514 70.1667 260.55 70.17 260.61 70.17C260.67 70.17 260.704 70.1667 260.71 70.16C260.804 70.14 260.877 70.08 260.93 69.98L265.45 62.28C265.657 61.9333 265.96 61.76 266.36 61.76H267.84C267.918 61.76 267.995 61.7755 268.066 61.8057C268.138 61.8358 268.203 61.88 268.258 61.9357C268.312 61.9914 268.356 62.0576 268.386 62.1304C268.415 62.2032 268.43 62.2812 268.43 62.36V75.01C268.43 75.51 268.18 75.76 267.68 75.76H266.29C265.777 75.76 265.52 75.5067 265.52 75L265.53 68.79C265.53 67.8433 265.284 67.7767 264.79 68.59C263.597 70.5633 262.477 72.3233 261.43 73.87C261.23 74.17 260.957 74.32 260.61 74.32Z" fill="white"/>
<path d="M50.62 69.68L52.25 65.78C52.2791 65.7062 52.3296 65.6428 52.3948 65.5977C52.4601 65.5526 52.5373 65.528 52.6167 65.5269C52.696 65.5259 52.7738 65.5484 52.8403 65.5917C52.9068 65.635 52.9589 65.697 52.99 65.77L54.68 69.65C54.7067 69.7111 54.7177 69.778 54.7119 69.8444C54.7062 69.9109 54.6839 69.9749 54.6471 70.0305C54.6104 70.0862 54.5603 70.1317 54.5014 70.1631C54.4425 70.1944 54.3767 70.2106 54.31 70.21L50.99 70.23C50.9246 70.2299 50.8602 70.2137 50.8025 70.1829C50.7447 70.1521 50.6955 70.1076 50.6589 70.0533C50.6224 69.999 50.5998 69.9366 50.593 69.8715C50.5862 69.8064 50.5955 69.7407 50.62 69.68Z" fill="#7F1719"/>
<path d="M86.3002 69.85C86.3189 69.89 86.3271 69.934 86.324 69.978C86.321 70.022 86.3068 70.0645 86.2828 70.1015C86.2588 70.1385 86.2257 70.1688 86.1868 70.1895C86.1479 70.2103 86.1043 70.2208 86.0602 70.22H82.5102C82.0969 70.22 81.9735 70.03 82.1402 69.65L83.7002 66.03C84.0069 65.3367 84.3102 65.3367 84.6102 66.03L86.3002 69.85Z" fill="#7F1719"/>
<path d="M294.78 102.23C294.994 102.23 295.2 102.315 295.352 102.467C295.504 102.619 295.59 102.825 295.59 103.04V201.63C295.59 221.15 291.787 240.478 284.398 258.512C277.009 276.546 266.178 292.932 252.525 306.734C224.952 334.61 187.554 350.27 148.56 350.27H147.34C108.345 350.27 70.9471 334.61 43.3737 306.734C15.8002 278.859 0.30957 241.052 0.30957 201.63V103.04C0.30957 102.825 0.39491 102.619 0.546814 102.467C0.698718 102.315 0.904745 102.23 1.11957 102.23H294.78ZM109.97 131.74C107.04 130.16 107.42 126.9 110.31 125.48C114.56 123.38 121.5 125.08 125.45 127.36C125.823 127.573 126.093 127.487 126.26 127.1L128.78 121.27C129 120.77 128.863 120.393 128.37 120.14C123.57 117.693 118.28 116.71 112.5 117.19C107.39 117.61 101.94 119.72 99.7396 124.57C98.6662 126.95 98.4162 129.357 98.9896 131.79C99.8029 135.237 101.93 137.613 105.37 138.92C107.343 139.667 111.596 140.897 118.13 142.61C121.33 143.45 122.66 146.98 119.58 148.91C118.7 149.463 117.81 149.787 116.91 149.88C111.07 150.493 105.976 149.293 101.63 146.28C101.21 145.993 100.9 146.083 100.7 146.55L98.1496 152.45C98.0662 152.643 98.0557 152.86 98.12 153.061C98.1844 153.261 98.3192 153.431 98.4996 153.54C102.146 155.747 106.093 157.037 110.34 157.41C118.33 158.11 129.53 156.64 130.49 146.47C130.94 141.58 128.68 137.77 124.24 136.03C121.78 135.07 117.833 133.95 112.4 132.67C111.566 132.477 110.756 132.167 109.97 131.74ZM171.79 137.26C171.75 151.81 184.91 159.86 198.24 156.47C201.32 155.69 203.973 154.207 206.2 152.02C206.586 151.64 206.586 151.257 206.2 150.87L204.69 149.36C204.263 148.927 203.813 148.903 203.34 149.29C198.94 152.89 194.17 154.13 189.03 153.01C181.29 151.33 176.05 145.15 176.07 137.28C176.1 129.4 181.38 123.25 189.13 121.62C194.276 120.533 199.036 121.803 203.41 125.43C203.883 125.817 204.333 125.797 204.76 125.37L206.28 123.86C206.673 123.48 206.676 123.097 206.29 122.71C204.076 120.51 201.433 119.01 198.36 118.21C185.05 114.74 171.83 122.71 171.79 137.26ZM83.2396 135.1V156.4C83.2396 156.767 83.4196 156.95 83.7796 156.95H91.5096C91.8296 156.95 91.9896 156.79 91.9896 156.47V118.4C91.9896 118 91.7862 117.8 91.3796 117.8H84.5596C84.1862 117.8 83.9062 117.96 83.7196 118.28L70.4896 141.21C70.4335 141.308 70.3527 141.389 70.2552 141.445C70.1578 141.502 70.0472 141.531 69.9346 141.531C69.822 141.531 69.7114 141.502 69.6139 141.445C69.5165 141.389 69.4356 141.308 69.3796 141.21L56.1696 118.32C55.9629 117.973 55.6562 117.8 55.2496 117.8H48.2496C47.9496 117.8 47.7996 117.947 47.7996 118.24V156.52C47.7996 156.82 47.9529 156.97 48.2596 156.97H56.0196C56.3329 156.97 56.4896 156.817 56.4896 156.51V135.5C56.4896 135.187 56.6129 135.123 56.8596 135.31C56.9062 135.35 56.9796 135.403 57.0796 135.47C57.1596 135.53 57.2262 135.607 57.2796 135.7C63.3462 145.693 66.5129 150.91 66.7796 151.35C67.1013 151.875 67.5527 152.309 68.09 152.61C68.6274 152.911 69.2326 153.069 69.847 153.068C70.4615 153.067 71.0644 152.907 71.5974 152.605C72.1304 152.302 72.5755 151.866 72.8896 151.34L82.6496 134.93C83.0429 134.277 83.2396 134.333 83.2396 135.1ZM142.93 135.29C142.808 135.29 142.691 135.242 142.604 135.155C142.518 135.069 142.47 134.952 142.47 134.83V121.97C142.47 121.848 142.518 121.731 142.604 121.645C142.691 121.558 142.808 121.51 142.93 121.51H164.81C164.932 121.51 165.049 121.462 165.135 121.375C165.221 121.289 165.27 121.172 165.27 121.05V118.23C165.27 118.17 165.258 118.11 165.235 118.054C165.211 117.998 165.178 117.947 165.135 117.905C165.092 117.862 165.041 117.828 164.986 117.805C164.93 117.782 164.87 117.77 164.81 117.77H138.72C138.659 117.77 138.599 117.782 138.544 117.805C138.488 117.828 138.437 117.862 138.394 117.905C138.352 117.947 138.318 117.998 138.295 118.054C138.271 118.11 138.26 118.17 138.26 118.23V156.51C138.26 156.57 138.271 156.63 138.295 156.686C138.318 156.742 138.352 156.793 138.394 156.835C138.437 156.878 138.488 156.912 138.544 156.935C138.599 156.958 138.659 156.97 138.72 156.97H165.51C165.57 156.97 165.63 156.958 165.686 156.935C165.741 156.912 165.792 156.878 165.835 156.835C165.878 156.793 165.911 156.742 165.935 156.686C165.958 156.63 165.97 156.57 165.97 156.51V153.74C165.97 153.618 165.921 153.501 165.835 153.415C165.749 153.328 165.632 153.28 165.51 153.28H142.93C142.808 153.28 142.691 153.232 142.604 153.145C142.518 153.059 142.47 152.942 142.47 152.82V139.43C142.47 139.308 142.518 139.191 142.604 139.105C142.691 139.018 142.808 138.97 142.93 138.97H162.31C162.432 138.97 162.549 138.922 162.635 138.835C162.721 138.749 162.77 138.632 162.77 138.51V135.75C162.77 135.69 162.758 135.63 162.735 135.574C162.711 135.518 162.678 135.467 162.635 135.425C162.592 135.382 162.541 135.348 162.486 135.325C162.43 135.302 162.37 135.29 162.31 135.29H142.93ZM241.25 136.28C244.416 134.44 245.993 131.597 245.98 127.75C245.966 123.617 244 120.76 240.08 119.18C237.88 118.293 236.393 117.847 235.62 117.84C228.98 117.767 222.35 117.75 215.73 117.79C215.604 117.793 215.484 117.844 215.397 117.934C215.309 118.024 215.26 118.144 215.26 118.27V156.3C215.26 156.747 215.48 156.97 215.92 156.97C226.593 157.03 233.306 156.99 236.06 156.85C238.053 156.75 240.196 156.213 242.49 155.24C245.61 153.913 247.396 151.583 247.85 148.25C248.616 142.61 246.433 138.83 241.3 136.91C241.238 136.886 241.184 136.846 241.144 136.793C241.105 136.74 241.081 136.677 241.076 136.611C241.07 136.545 241.084 136.479 241.115 136.42C241.146 136.362 241.192 136.313 241.25 136.28ZM93.2996 179.24C93.2996 185.89 101.54 188.87 106.17 184.53C106.49 184.23 106.493 183.923 106.18 183.61L105.16 182.58C104.886 182.307 104.593 182.28 104.28 182.5C101.226 184.68 98.7629 184.217 96.8896 181.11C96.6162 180.663 96.4796 180.04 96.4796 179.24C96.4796 178.447 96.6162 177.827 96.8896 177.38C98.7696 174.28 101.236 173.82 104.29 176C104.603 176.227 104.896 176.203 105.17 175.93L106.19 174.9C106.503 174.587 106.5 174.28 106.18 173.98C101.56 169.63 93.3096 172.6 93.2996 179.24ZM112.77 177.77C112.637 177.77 112.51 177.717 112.416 177.624C112.322 177.53 112.27 177.403 112.27 177.27V175.21C112.27 175.077 112.322 174.95 112.416 174.856C112.51 174.763 112.637 174.71 112.77 174.71H119.03C119.162 174.71 119.289 174.657 119.383 174.564C119.477 174.47 119.53 174.343 119.53 174.21V172.76C119.53 172.627 119.477 172.5 119.383 172.406C119.289 172.313 119.162 172.26 119.03 172.26H109.54C109.407 172.26 109.28 172.313 109.186 172.406C109.092 172.5 109.04 172.627 109.04 172.76V185.73C109.04 185.863 109.092 185.99 109.186 186.084C109.28 186.177 109.407 186.23 109.54 186.23H119.24C119.372 186.23 119.499 186.177 119.593 186.084C119.687 185.99 119.74 185.863 119.74 185.73V184.27C119.74 184.137 119.687 184.01 119.593 183.916C119.499 183.823 119.372 183.77 119.24 183.77H112.76C112.627 183.77 112.5 183.717 112.406 183.624C112.312 183.53 112.26 183.403 112.26 183.27V180.73C112.26 180.597 112.312 180.47 112.406 180.376C112.5 180.283 112.627 180.23 112.76 180.23H118.27C118.402 180.23 118.529 180.177 118.623 180.084C118.717 179.99 118.77 179.863 118.77 179.73V178.27C118.77 178.137 118.717 178.01 118.623 177.916C118.529 177.823 118.402 177.77 118.27 177.77H112.77ZM125.63 183.13C125.71 182.789 125.899 182.5 126.175 182.296C126.45 182.092 126.8 181.983 127.182 181.98C127.564 181.978 127.962 182.084 128.329 182.284C128.696 182.484 129.015 182.771 129.25 183.11L131.09 185.8C131.303 186.107 131.596 186.26 131.97 186.26H134C134.346 186.26 134.446 186.127 134.3 185.86L132.18 182.19C132.109 182.07 132.084 181.929 132.107 181.791C132.131 181.654 132.203 181.53 132.31 181.44C134.596 179.56 135.163 177.413 134.01 175C132.26 171.32 125.97 172.24 123.04 172.24C122.673 172.24 122.49 172.423 122.49 172.79V185.62C122.49 186.02 122.69 186.22 123.09 186.22H125.24C125.323 186.22 125.405 186.201 125.48 186.166C125.556 186.131 125.622 186.079 125.676 186.016C125.729 185.952 125.768 185.877 125.789 185.797C125.811 185.716 125.814 185.632 125.8 185.55C125.593 184.357 125.536 183.55 125.63 183.13ZM141.34 186.21C141.98 186.21 142.363 186.19 142.49 186.15C142.796 186.05 142.95 185.84 142.95 185.52L142.94 175.25C142.94 174.897 143.116 174.72 143.47 174.72H146.85C147.29 174.72 147.51 174.5 147.51 174.06V172.93C147.51 172.49 147.29 172.267 146.85 172.26C144.87 172.253 143.04 172.247 141.36 172.24C139.68 172.24 137.85 172.243 135.87 172.25C135.436 172.257 135.216 172.477 135.21 172.91V174.04C135.21 174.48 135.43 174.703 135.87 174.71L139.25 174.72C139.603 174.72 139.78 174.897 139.78 175.25L139.74 185.52C139.74 185.84 139.893 186.05 140.2 186.15C140.326 186.19 140.706 186.21 141.34 186.21ZM152.531 172.633C152.531 172.579 152.521 172.526 152.5 172.476C152.48 172.426 152.449 172.381 152.411 172.343C152.373 172.305 152.328 172.274 152.279 172.254C152.229 172.233 152.176 172.222 152.122 172.222L149.662 172.218C149.553 172.218 149.449 172.261 149.372 172.337C149.295 172.414 149.251 172.518 149.251 172.627L149.228 185.807C149.228 185.861 149.238 185.914 149.259 185.964C149.28 186.014 149.31 186.059 149.348 186.097C149.386 186.135 149.431 186.166 149.481 186.186C149.53 186.207 149.584 186.218 149.637 186.218L152.097 186.222C152.206 186.222 152.31 186.179 152.387 186.103C152.464 186.026 152.508 185.922 152.508 185.813L152.531 172.633ZM158.52 186.22C158.636 186.22 158.748 186.174 158.831 186.091C158.913 186.009 158.96 185.897 158.96 185.78V181.39C158.96 181.273 159.006 181.161 159.088 181.079C159.171 180.996 159.283 180.95 159.4 180.95H165.08C165.196 180.95 165.308 180.904 165.391 180.821C165.473 180.739 165.52 180.627 165.52 180.51V178.92C165.52 178.803 165.473 178.691 165.391 178.609C165.308 178.526 165.196 178.48 165.08 178.48H159.4C159.283 178.48 159.171 178.434 159.088 178.351C159.006 178.269 158.96 178.157 158.96 178.04V175.19C158.96 175.073 159.006 174.961 159.088 174.879C159.171 174.796 159.283 174.75 159.4 174.75H165.82C165.936 174.75 166.048 174.704 166.131 174.621C166.213 174.539 166.26 174.427 166.26 174.31V172.7C166.26 172.583 166.213 172.471 166.131 172.389C166.048 172.306 165.936 172.26 165.82 172.26H156.21C156.093 172.26 155.981 172.306 155.898 172.389C155.816 172.471 155.77 172.583 155.77 172.7V185.78C155.77 185.897 155.816 186.009 155.898 186.091C155.981 186.174 156.093 186.22 156.21 186.22H158.52ZM171.992 172.686C171.993 172.627 171.981 172.568 171.959 172.513C171.936 172.459 171.903 172.409 171.862 172.367C171.82 172.325 171.771 172.292 171.716 172.269C171.662 172.246 171.603 172.234 171.544 172.234L169.264 172.226C169.205 172.226 169.146 172.237 169.092 172.26C169.037 172.282 168.987 172.315 168.945 172.357C168.903 172.398 168.87 172.448 168.847 172.502C168.825 172.557 168.813 172.615 168.812 172.675L168.767 185.794C168.766 185.854 168.778 185.912 168.8 185.967C168.823 186.021 168.856 186.071 168.897 186.113C168.939 186.155 168.988 186.188 169.043 186.211C169.098 186.234 169.156 186.246 169.215 186.246L171.495 186.254C171.554 186.254 171.613 186.243 171.667 186.22C171.722 186.198 171.772 186.165 171.814 186.123C171.856 186.082 171.889 186.032 171.912 185.978C171.935 185.923 171.946 185.865 171.947 185.806L171.992 172.686ZM178.99 174.7L184.99 174.72C185.483 174.727 185.736 174.483 185.75 173.99L185.79 172.93C185.81 172.483 185.593 172.26 185.14 172.26L175.72 172.25C175.393 172.25 175.23 172.417 175.23 172.75L175.24 185.64C175.24 186.033 175.436 186.23 175.83 186.23L185.37 186.24C185.783 186.24 185.983 186.033 185.97 185.62L185.92 184.36C185.906 183.96 185.7 183.763 185.3 183.77L178.97 183.79C178.616 183.79 178.443 183.607 178.45 183.24L178.46 180.84C178.466 180.42 178.683 180.213 179.11 180.22L184.23 180.26C184.427 180.265 184.618 180.192 184.762 180.055C184.906 179.918 184.992 179.73 185 179.53L185.04 178.5C185.042 178.409 185.027 178.318 184.994 178.232C184.961 178.147 184.911 178.069 184.848 178.003C184.785 177.937 184.709 177.884 184.625 177.847C184.541 177.811 184.451 177.791 184.36 177.79L178.97 177.74C178.643 177.733 178.48 177.567 178.48 177.24L178.49 175.2C178.49 174.867 178.656 174.7 178.99 174.7ZM188.53 172.67L188.51 185.79C188.51 185.846 188.521 185.902 188.542 185.955C188.564 186.007 188.596 186.054 188.636 186.094C188.675 186.134 188.723 186.166 188.775 186.187C188.827 186.209 188.883 186.22 188.94 186.22L195.15 186.23C196.116 186.231 197.074 186.059 197.967 185.722C198.861 185.385 199.673 184.89 200.357 184.266C201.042 183.642 201.585 182.901 201.956 182.085C202.327 181.269 202.518 180.394 202.52 179.51V178.99C202.522 177.205 201.749 175.493 200.37 174.229C198.992 172.965 197.121 172.253 195.17 172.25L188.96 172.24C188.846 172.24 188.736 172.285 188.656 172.366C188.575 172.447 188.53 172.556 188.53 172.67ZM193.79 222.75C193.93 222.617 193.93 222.48 193.79 222.34C180.09 208.74 161.71 201.63 142.55 203.36C108.09 206.46 81.7496 236.26 84.3296 271.27C85.3096 284.65 89.6596 296.23 97.3796 306.01C106.793 317.943 118.59 325.613 132.77 329.02C149.47 333.027 165.316 330.71 180.31 322.07C196.56 312.72 208.76 295.44 211.19 276.39C211.843 271.27 211.963 266.127 211.55 260.96C211.516 260.58 211.453 260.313 211.36 260.16C211.331 260.117 211.292 260.081 211.248 260.054C211.203 260.028 211.153 260.012 211.101 260.007C211.05 260.002 210.998 260.009 210.949 260.027C210.9 260.045 210.856 260.073 210.82 260.11L206.23 264.69C205.976 264.943 205.85 265.247 205.85 265.6C205.696 282.487 200.013 296.547 188.8 307.78C167.49 329.12 133.7 330.43 110.6 310.93C105.453 306.59 101.22 301.48 97.8996 295.6C92.2729 285.627 89.7762 275.13 90.4096 264.11C91.3829 247.297 98.3896 233.393 111.43 222.4C117.27 217.48 123.97 213.923 131.53 211.73C148.11 206.91 163.903 209.103 178.91 218.31C182.496 220.51 185.986 223.34 189.38 226.8C189.5 226.927 189.62 226.927 189.74 226.8L193.79 222.75ZM232.3 226.8C232.355 226.745 232.399 226.68 232.43 226.608C232.46 226.536 232.475 226.458 232.475 226.38C232.475 226.302 232.46 226.224 232.43 226.152C232.399 226.08 232.355 226.015 232.3 225.96L218.07 211.72C218.015 211.664 217.949 211.62 217.877 211.59C217.805 211.56 217.728 211.544 217.65 211.544C217.571 211.544 217.494 211.56 217.422 211.59C217.35 211.62 217.284 211.664 217.23 211.72L153.43 275.52C153.375 275.576 153.309 275.62 153.237 275.65C153.165 275.68 153.088 275.696 153.01 275.696C152.931 275.696 152.854 275.68 152.782 275.65C152.71 275.62 152.644 275.576 152.59 275.52L124.16 247.08C124.105 247.024 124.039 246.98 123.967 246.95C123.895 246.92 123.818 246.904 123.74 246.904C123.661 246.904 123.584 246.92 123.512 246.95C123.44 246.98 123.374 247.024 123.32 247.08L109.06 261.34C109.004 261.395 108.96 261.46 108.93 261.532C108.899 261.604 108.884 261.682 108.884 261.76C108.884 261.838 108.899 261.916 108.93 261.988C108.96 262.06 109.004 262.125 109.06 262.18L152.57 305.69C152.624 305.746 152.69 305.79 152.762 305.82C152.834 305.85 152.911 305.866 152.99 305.866C153.068 305.866 153.145 305.85 153.217 305.82C153.289 305.79 153.355 305.746 153.41 305.69L232.3 226.8Z" fill="#7F1719"/>
<path d="M109.97 131.74C110.757 132.167 111.567 132.477 112.4 132.67C117.834 133.95 121.78 135.07 124.24 136.03C128.68 137.77 130.94 141.58 130.49 146.47C129.53 156.64 118.33 158.11 110.34 157.41C106.094 157.037 102.147 155.747 98.5003 153.54C98.32 153.431 98.1851 153.261 98.1208 153.061C98.0564 152.86 98.0669 152.643 98.1503 152.45L100.7 146.55C100.9 146.083 101.21 145.993 101.63 146.28C105.977 149.293 111.07 150.493 116.91 149.88C117.81 149.787 118.7 149.463 119.58 148.91C122.66 146.98 121.33 143.45 118.13 142.61C111.597 140.897 107.344 139.667 105.37 138.92C101.93 137.613 99.8036 135.237 98.9903 131.79C98.417 129.357 98.667 126.95 99.7403 124.57C101.94 119.72 107.39 117.61 112.5 117.19C118.28 116.71 123.57 117.693 128.37 120.14C128.864 120.393 129 120.77 128.78 121.27L126.26 127.1C126.094 127.487 125.824 127.573 125.45 127.36C121.5 125.08 114.56 123.38 110.31 125.48C107.42 126.9 107.04 130.16 109.97 131.74Z" fill="white"/>
<path d="M176.07 137.28C176.05 145.15 181.29 151.33 189.03 153.01C194.17 154.13 198.94 152.89 203.34 149.29C203.813 148.903 204.263 148.927 204.69 149.36L206.2 150.87C206.587 151.257 206.587 151.64 206.2 152.02C203.973 154.207 201.32 155.69 198.24 156.47C184.91 159.86 171.75 151.81 171.79 137.26C171.83 122.71 185.05 114.74 198.36 118.21C201.433 119.01 204.077 120.51 206.29 122.71C206.677 123.097 206.673 123.48 206.28 123.86L204.76 125.37C204.333 125.797 203.883 125.817 203.41 125.43C199.037 121.803 194.277 120.533 189.13 121.62C181.38 123.25 176.1 129.4 176.07 137.28Z" fill="white"/>
<path d="M83.2398 135.1C83.2398 134.333 83.0431 134.277 82.6498 134.93L72.8898 151.34C72.5757 151.866 72.1306 152.302 71.5976 152.605C71.0646 152.907 70.4617 153.067 69.8473 153.068C69.2328 153.069 68.6277 152.911 68.0903 152.61C67.5529 152.309 67.1015 151.875 66.7798 151.35C66.5131 150.91 63.3465 145.693 57.2798 135.7C57.2265 135.607 57.1598 135.53 57.0798 135.47C56.9798 135.403 56.9065 135.35 56.8598 135.31C56.6131 135.123 56.4898 135.187 56.4898 135.5V156.51C56.4898 156.817 56.3331 156.97 56.0198 156.97H48.2598C47.9531 156.97 47.7998 156.82 47.7998 156.52V118.24C47.7998 117.947 47.9498 117.8 48.2498 117.8H55.2498C55.6565 117.8 55.9631 117.973 56.1698 118.32L69.3798 141.21C69.4359 141.308 69.5167 141.389 69.6142 141.445C69.7116 141.502 69.8222 141.531 69.9348 141.531C70.0474 141.531 70.158 141.502 70.2555 141.445C70.3529 141.389 70.4337 141.308 70.4898 141.21L83.7198 118.28C83.9065 117.96 84.1865 117.8 84.5598 117.8H91.3798C91.7865 117.8 91.9898 118 91.9898 118.4V156.47C91.9898 156.79 91.8298 156.95 91.5098 156.95H83.7798C83.4198 156.95 83.2398 156.767 83.2398 156.4V135.1Z" fill="white"/>
<path d="M142.93 135.29H162.31C162.37 135.29 162.43 135.302 162.486 135.325C162.542 135.348 162.592 135.382 162.635 135.425C162.678 135.467 162.712 135.518 162.735 135.574C162.758 135.63 162.77 135.69 162.77 135.75V138.51C162.77 138.632 162.721 138.749 162.635 138.835C162.549 138.922 162.432 138.97 162.31 138.97H142.93C142.808 138.97 142.691 139.018 142.605 139.105C142.518 139.191 142.47 139.308 142.47 139.43V152.82C142.47 152.942 142.518 153.059 142.605 153.145C142.691 153.232 142.808 153.28 142.93 153.28H165.51C165.632 153.28 165.749 153.328 165.835 153.415C165.921 153.501 165.97 153.618 165.97 153.74V156.51C165.97 156.57 165.958 156.63 165.935 156.686C165.912 156.742 165.878 156.793 165.835 156.835C165.792 156.878 165.742 156.912 165.686 156.935C165.63 156.958 165.57 156.97 165.51 156.97H138.72C138.659 156.97 138.6 156.958 138.544 156.935C138.488 156.912 138.437 156.878 138.395 156.835C138.352 156.793 138.318 156.742 138.295 156.686C138.272 156.63 138.26 156.57 138.26 156.51V118.23C138.26 118.17 138.272 118.11 138.295 118.054C138.318 117.998 138.352 117.947 138.395 117.905C138.437 117.862 138.488 117.828 138.544 117.805C138.6 117.782 138.659 117.77 138.72 117.77H164.81C164.87 117.77 164.93 117.782 164.986 117.805C165.042 117.828 165.092 117.862 165.135 117.905C165.178 117.947 165.212 117.998 165.235 118.054C165.258 118.11 165.27 118.17 165.27 118.23V121.05C165.27 121.172 165.221 121.289 165.135 121.375C165.049 121.462 164.932 121.51 164.81 121.51H142.93C142.808 121.51 142.691 121.558 142.605 121.645C142.518 121.731 142.47 121.848 142.47 121.97V134.83C142.47 134.952 142.518 135.069 142.605 135.155C142.691 135.242 142.808 135.29 142.93 135.29Z" fill="white"/>
<path d="M241.25 136.28C241.192 136.313 241.146 136.362 241.115 136.42C241.084 136.479 241.071 136.545 241.076 136.611C241.081 136.677 241.105 136.74 241.145 136.793C241.184 136.846 241.238 136.886 241.3 136.91C246.433 138.83 248.616 142.61 247.85 148.25C247.396 151.583 245.61 153.913 242.49 155.24C240.196 156.213 238.053 156.75 236.06 156.85C233.306 156.99 226.593 157.03 215.92 156.97C215.48 156.97 215.26 156.747 215.26 156.3V118.27C215.26 118.144 215.309 118.024 215.397 117.934C215.485 117.844 215.604 117.793 215.73 117.79C222.35 117.75 228.98 117.767 235.62 117.84C236.393 117.847 237.88 118.293 240.08 119.18C244 120.76 245.966 123.617 245.98 127.75C245.993 131.597 244.416 134.44 241.25 136.28ZM219.75 121.75L219.69 134.69C219.688 134.766 219.702 134.842 219.73 134.913C219.758 134.984 219.8 135.048 219.853 135.103C219.905 135.158 219.969 135.202 220.039 135.232C220.108 135.262 220.184 135.279 220.26 135.28L232.84 135.34C235.174 135.353 237.416 134.647 239.074 133.378C240.732 132.108 241.669 130.379 241.68 128.57V128.11C241.685 127.214 241.463 126.326 241.025 125.496C240.588 124.666 239.944 123.911 239.131 123.273C238.317 122.635 237.35 122.127 236.285 121.778C235.219 121.429 234.075 121.246 232.92 121.24L220.34 121.18C220.264 121.179 220.188 121.192 220.117 121.22C220.046 121.248 219.981 121.29 219.927 121.343C219.872 121.396 219.828 121.459 219.798 121.529C219.767 121.599 219.751 121.674 219.75 121.75ZM219.45 139.48L219.47 152.76C219.47 152.898 219.525 153.03 219.622 153.128C219.72 153.225 219.852 153.28 219.99 153.28L235.01 153.25C237.348 153.246 239.59 152.521 241.242 151.232C242.894 149.944 243.821 148.199 243.82 146.38V145.78C243.819 144.879 243.59 143.987 243.146 143.155C242.702 142.323 242.051 141.567 241.231 140.931C240.411 140.295 239.438 139.791 238.367 139.447C237.296 139.104 236.148 138.928 234.99 138.93L219.97 138.96C219.832 138.96 219.7 139.015 219.602 139.112C219.505 139.21 219.45 139.342 219.45 139.48Z" fill="white"/>
<path d="M219.75 121.75C219.751 121.674 219.767 121.599 219.797 121.529C219.828 121.459 219.872 121.396 219.926 121.343C219.981 121.29 220.046 121.248 220.117 121.22C220.188 121.192 220.263 121.179 220.34 121.18L232.92 121.24C234.075 121.246 235.219 121.429 236.284 121.778C237.35 122.127 238.317 122.635 239.131 123.273C239.944 123.911 240.588 124.666 241.025 125.496C241.463 126.326 241.685 127.214 241.68 128.11V128.57C241.669 130.379 240.731 132.108 239.074 133.378C237.416 134.647 235.173 135.353 232.84 135.34L220.26 135.28C220.183 135.279 220.108 135.262 220.038 135.232C219.968 135.202 219.905 135.158 219.852 135.103C219.799 135.048 219.758 134.984 219.73 134.913C219.702 134.842 219.688 134.766 219.69 134.69L219.75 121.75Z" fill="#7F1719"/>
<path d="M219.45 139.48C219.45 139.342 219.505 139.21 219.603 139.112C219.7 139.015 219.832 138.96 219.97 138.96L234.99 138.93C236.149 138.928 237.296 139.104 238.367 139.447C239.438 139.791 240.412 140.295 241.232 140.931C242.052 141.567 242.702 142.323 243.146 143.155C243.591 143.987 243.82 144.879 243.82 145.78V146.38C243.822 148.199 242.894 149.944 241.242 151.232C239.59 152.521 237.349 153.246 235.01 153.25L219.99 153.28C219.852 153.28 219.72 153.225 219.622 153.128C219.525 153.03 219.47 152.898 219.47 152.76L219.45 139.48Z" fill="#7F1719"/>
<path d="M96.4798 179.24C96.4798 180.04 96.6165 180.663 96.8898 181.11C98.7631 184.217 101.226 184.68 104.28 182.5C104.593 182.28 104.886 182.307 105.16 182.58L106.18 183.61C106.493 183.923 106.49 184.23 106.17 184.53C101.54 188.87 93.2998 185.89 93.2998 179.24C93.3098 172.6 101.56 169.63 106.18 173.98C106.5 174.28 106.503 174.587 106.19 174.9L105.17 175.93C104.896 176.203 104.603 176.227 104.29 176C101.236 173.82 98.7698 174.28 96.8898 177.38C96.6165 177.827 96.4798 178.447 96.4798 179.24Z" fill="white"/>
<path d="M112.77 177.77H118.27C118.403 177.77 118.53 177.823 118.624 177.916C118.717 178.01 118.77 178.137 118.77 178.27V179.73C118.77 179.863 118.717 179.99 118.624 180.084C118.53 180.177 118.403 180.23 118.27 180.23H112.76C112.627 180.23 112.5 180.283 112.406 180.376C112.313 180.47 112.26 180.597 112.26 180.73V183.27C112.26 183.403 112.313 183.53 112.406 183.624C112.5 183.717 112.627 183.77 112.76 183.77H119.24C119.373 183.77 119.5 183.823 119.594 183.916C119.687 184.01 119.74 184.137 119.74 184.27V185.73C119.74 185.863 119.687 185.99 119.594 186.084C119.5 186.177 119.373 186.23 119.24 186.23H109.54C109.407 186.23 109.28 186.177 109.186 186.084C109.093 185.99 109.04 185.863 109.04 185.73V172.76C109.04 172.627 109.093 172.5 109.186 172.406C109.28 172.313 109.407 172.26 109.54 172.26H119.03C119.163 172.26 119.29 172.313 119.384 172.406C119.477 172.5 119.53 172.627 119.53 172.76V174.21C119.53 174.343 119.477 174.47 119.384 174.564C119.29 174.657 119.163 174.71 119.03 174.71H112.77C112.637 174.71 112.51 174.763 112.416 174.856C112.323 174.95 112.27 175.077 112.27 175.21V177.27C112.27 177.403 112.323 177.53 112.416 177.624C112.51 177.717 112.637 177.77 112.77 177.77Z" fill="white"/>
<path d="M125.63 183.13C125.537 183.55 125.594 184.357 125.8 185.55C125.815 185.632 125.811 185.716 125.79 185.796C125.769 185.877 125.73 185.952 125.676 186.016C125.623 186.079 125.556 186.131 125.481 186.166C125.406 186.201 125.323 186.22 125.24 186.22H123.09C122.69 186.22 122.49 186.02 122.49 185.62V172.79C122.49 172.423 122.674 172.24 123.04 172.24C125.97 172.24 132.26 171.32 134.01 175C135.164 177.413 134.597 179.56 132.31 181.44C132.204 181.53 132.132 181.654 132.108 181.791C132.084 181.929 132.11 182.07 132.18 182.19L134.3 185.86C134.447 186.127 134.347 186.26 134 186.26H131.97C131.597 186.26 131.304 186.107 131.09 185.8L129.25 183.11C129.016 182.771 128.696 182.484 128.33 182.284C127.963 182.084 127.565 181.978 127.183 181.98C126.8 181.983 126.451 182.092 126.175 182.296C125.9 182.5 125.711 182.789 125.63 183.13ZM125.77 175.33L125.73 179.19C125.73 179.344 125.791 179.491 125.9 179.6C126.009 179.709 126.156 179.77 126.31 179.77L128.65 179.79C128.987 179.793 129.32 179.738 129.632 179.629C129.944 179.519 130.228 179.357 130.467 179.152C130.707 178.947 130.898 178.702 131.029 178.433C131.16 178.163 131.228 177.873 131.23 177.58V177.02C131.235 176.429 130.97 175.86 130.493 175.438C130.017 175.016 129.369 174.776 128.69 174.77L126.35 174.75C126.196 174.75 126.049 174.811 125.94 174.92C125.831 175.029 125.77 175.176 125.77 175.33Z" fill="white"/>
<path d="M141.34 186.21C140.707 186.21 140.327 186.19 140.2 186.15C139.893 186.05 139.74 185.84 139.74 185.52L139.78 175.25C139.78 174.897 139.603 174.72 139.25 174.72L135.87 174.71C135.43 174.703 135.21 174.48 135.21 174.04V172.91C135.217 172.477 135.437 172.257 135.87 172.25C137.85 172.243 139.68 172.24 141.36 172.24C143.04 172.247 144.87 172.253 146.85 172.26C147.29 172.267 147.51 172.49 147.51 172.93V174.06C147.51 174.5 147.29 174.72 146.85 174.72H143.47C143.117 174.72 142.94 174.897 142.94 175.25L142.95 185.52C142.95 185.84 142.797 186.05 142.49 186.15C142.363 186.19 141.98 186.21 141.34 186.21Z" fill="white"/>
<path d="M152.122 172.222L149.662 172.218C149.436 172.217 149.252 172.401 149.251 172.627L149.228 185.807C149.228 186.034 149.411 186.217 149.638 186.218L152.098 186.222C152.324 186.223 152.508 186.039 152.508 185.813L152.531 172.633C152.532 172.406 152.348 172.223 152.122 172.222Z" fill="white"/>
<path d="M158.52 186.22H156.21C156.093 186.22 155.981 186.174 155.898 186.091C155.816 186.009 155.77 185.897 155.77 185.78V172.7C155.77 172.583 155.816 172.471 155.898 172.389C155.981 172.306 156.093 172.26 156.21 172.26H165.82C165.936 172.26 166.048 172.306 166.131 172.389C166.213 172.471 166.26 172.583 166.26 172.7V174.31C166.26 174.427 166.213 174.539 166.131 174.621C166.048 174.704 165.936 174.75 165.82 174.75H159.4C159.283 174.75 159.171 174.796 159.088 174.879C159.006 174.961 158.96 175.073 158.96 175.19V178.04C158.96 178.157 159.006 178.269 159.088 178.351C159.171 178.434 159.283 178.48 159.4 178.48H165.08C165.196 178.48 165.308 178.526 165.391 178.609C165.473 178.691 165.52 178.803 165.52 178.92V180.51C165.52 180.627 165.473 180.739 165.391 180.821C165.308 180.904 165.196 180.95 165.08 180.95H159.4C159.283 180.95 159.171 180.996 159.088 181.079C159.006 181.161 158.96 181.273 158.96 181.39V185.78C158.96 185.897 158.913 186.009 158.831 186.091C158.748 186.174 158.636 186.22 158.52 186.22Z" fill="white"/>
<path d="M171.544 172.234L169.264 172.226C169.016 172.225 168.814 172.426 168.813 172.674L168.767 185.794C168.766 186.043 168.967 186.245 169.216 186.246L171.495 186.254C171.744 186.255 171.946 186.054 171.947 185.806L171.993 172.686C171.994 172.437 171.793 172.235 171.544 172.234Z" fill="white"/>
<path d="M178.99 174.7C178.657 174.7 178.49 174.867 178.49 175.2L178.48 177.24C178.48 177.567 178.644 177.733 178.97 177.74L184.36 177.79C184.452 177.791 184.542 177.811 184.626 177.847C184.71 177.884 184.786 177.937 184.849 178.003C184.912 178.069 184.962 178.147 184.995 178.232C185.028 178.317 185.043 178.409 185.04 178.5L185 179.53C184.993 179.73 184.907 179.918 184.763 180.055C184.619 180.192 184.428 180.265 184.23 180.26L179.11 180.22C178.684 180.213 178.467 180.42 178.46 180.84L178.45 183.24C178.444 183.607 178.617 183.79 178.97 183.79L185.3 183.77C185.7 183.763 185.907 183.96 185.92 184.36L185.97 185.62C185.984 186.033 185.784 186.24 185.37 186.24L175.83 186.23C175.437 186.23 175.24 186.033 175.24 185.64L175.23 172.75C175.23 172.417 175.394 172.25 175.72 172.25L185.14 172.26C185.594 172.26 185.81 172.483 185.79 172.93L185.75 173.99C185.737 174.483 185.484 174.727 184.99 174.72L178.99 174.7Z" fill="white"/>
<path d="M188.53 172.67C188.53 172.556 188.575 172.447 188.656 172.366C188.736 172.285 188.846 172.24 188.96 172.24L195.17 172.25C197.122 172.253 198.992 172.965 200.371 174.229C201.749 175.493 202.522 177.205 202.52 178.99V179.51C202.519 180.394 202.327 181.269 201.956 182.085C201.585 182.901 201.042 183.642 200.357 184.266C199.673 184.89 198.861 185.385 197.967 185.722C197.074 186.059 196.116 186.231 195.15 186.23L188.94 186.22C188.883 186.22 188.827 186.209 188.775 186.187C188.723 186.166 188.676 186.134 188.636 186.094C188.596 186.054 188.564 186.007 188.542 185.955C188.521 185.902 188.51 185.846 188.51 185.79L188.53 172.67ZM191.68 175.29L191.7 183.21C191.7 183.287 191.715 183.363 191.745 183.434C191.775 183.505 191.818 183.57 191.873 183.624C191.928 183.678 191.993 183.72 192.065 183.749C192.136 183.777 192.213 183.791 192.29 183.79L194.64 183.78C195.871 183.774 197.05 183.316 197.918 182.504C198.786 181.692 199.272 180.594 199.27 179.45V179.01C199.269 178.442 199.147 177.879 198.911 177.355C198.676 176.831 198.332 176.355 197.898 175.954C197.464 175.554 196.949 175.237 196.383 175.022C195.818 174.807 195.211 174.697 194.6 174.7L192.25 174.71C192.098 174.713 191.953 174.775 191.846 174.883C191.739 174.992 191.68 175.138 191.68 175.29Z" fill="white"/>
<path d="M125.77 175.33C125.77 175.176 125.832 175.029 125.94 174.92C126.049 174.811 126.197 174.75 126.35 174.75L128.69 174.77C129.369 174.776 130.017 175.016 130.494 175.438C130.97 175.86 131.235 176.429 131.23 177.02V177.58C131.228 177.873 131.16 178.163 131.029 178.433C130.898 178.702 130.707 178.947 130.468 179.152C130.228 179.357 129.944 179.519 129.632 179.629C129.321 179.738 128.987 179.793 128.65 179.79L126.31 179.77C126.157 179.77 126.009 179.709 125.9 179.6C125.792 179.491 125.73 179.344 125.73 179.19L125.77 175.33Z" fill="#7F1719"/>
<path d="M191.68 175.29C191.68 175.138 191.739 174.992 191.846 174.883C191.953 174.775 192.098 174.713 192.25 174.71L194.6 174.7C195.211 174.697 195.817 174.807 196.383 175.022C196.949 175.237 197.464 175.554 197.898 175.954C198.332 176.355 198.676 176.831 198.911 177.355C199.147 177.879 199.269 178.442 199.27 179.01V179.45C199.272 180.594 198.786 181.692 197.918 182.504C197.05 183.316 195.871 183.774 194.64 183.78L192.29 183.79C192.213 183.791 192.136 183.777 192.065 183.749C191.993 183.72 191.928 183.678 191.873 183.624C191.818 183.57 191.775 183.505 191.745 183.434C191.715 183.363 191.7 183.287 191.7 183.21L191.68 175.29Z" fill="#7F1719"/>
<path d="M193.79 222.75L189.74 226.8C189.62 226.927 189.5 226.927 189.38 226.8C185.986 223.34 182.496 220.51 178.91 218.31C163.903 209.103 148.11 206.91 131.53 211.73C123.97 213.923 117.27 217.48 111.43 222.4C98.3898 233.393 91.3831 247.297 90.4098 264.11C89.7765 275.13 92.2731 285.627 97.8998 295.6C101.22 301.48 105.453 306.59 110.6 310.93C133.7 330.43 167.49 329.12 188.8 307.78C200.013 296.547 205.696 282.487 205.85 265.6C205.85 265.247 205.976 264.943 206.23 264.69L210.82 260.11C210.856 260.073 210.9 260.045 210.949 260.027C210.998 260.009 211.05 260.002 211.102 260.007C211.153 260.012 211.203 260.028 211.248 260.054C211.293 260.081 211.331 260.117 211.36 260.16C211.453 260.313 211.516 260.58 211.55 260.96C211.963 266.127 211.843 271.27 211.19 276.39C208.76 295.44 196.56 312.72 180.31 322.07C165.316 330.71 149.47 333.027 132.77 329.02C118.59 325.613 106.793 317.943 97.3798 306.01C89.6598 296.23 85.3098 284.65 84.3298 271.27C81.7498 236.26 108.09 206.46 142.55 203.36C161.71 201.63 180.09 208.74 193.79 222.34C193.93 222.48 193.93 222.617 193.79 222.75Z" fill="white"/>
<path d="M232.3 226.8L153.41 305.69C153.356 305.746 153.29 305.79 153.218 305.82C153.146 305.85 153.069 305.866 152.99 305.866C152.912 305.866 152.835 305.85 152.763 305.82C152.691 305.79 152.625 305.746 152.57 305.69L109.06 262.18C109.005 262.125 108.961 262.06 108.93 261.988C108.9 261.916 108.885 261.838 108.885 261.76C108.885 261.682 108.9 261.604 108.93 261.532C108.961 261.46 109.005 261.395 109.06 261.34L123.32 247.08C123.375 247.024 123.441 246.98 123.513 246.95C123.585 246.92 123.662 246.904 123.74 246.904C123.819 246.904 123.896 246.92 123.968 246.95C124.04 246.98 124.106 247.024 124.16 247.08L152.59 275.52C152.645 275.576 152.711 275.62 152.783 275.65C152.855 275.68 152.932 275.696 153.01 275.696C153.089 275.696 153.166 275.68 153.238 275.65C153.31 275.62 153.376 275.576 153.43 275.52L217.23 211.72C217.285 211.664 217.351 211.62 217.423 211.59C217.495 211.56 217.572 211.544 217.65 211.544C217.729 211.544 217.806 211.56 217.878 211.59C217.95 211.62 218.016 211.664 218.07 211.72L232.3 225.96C232.356 226.015 232.4 226.08 232.43 226.152C232.461 226.224 232.476 226.302 232.476 226.38C232.476 226.458 232.461 226.536 232.43 226.608C232.4 226.68 232.356 226.745 232.3 226.8Z" fill="white"/>
</g>
<defs>
<clipPath id="clip0_479_2836">
<rect width="296" height="351" fill="white"/>
</clipPath>
</defs>
</svg>
