<svg width="150" height="81" viewBox="0 0 150 81" fill="none" xmlns="http://www.w3.org/2000/svg">
<path d="M36.5808 0.749396H40.0397V38.1902H30.9805V18.6675L20.686 28.3843H19.6153L9.48548 18.6675V38.1902H0.42627V0.749396H3.72053L20.1095 16.9738L36.5808 0.749396ZM106.09 24.9968C105.184 26.1557 104.36 27.1363 103.372 27.8494C103.207 27.9386 103.125 28.0277 102.96 28.1169C102.878 28.206 102.713 28.2951 102.631 28.2951C102.466 28.3843 102.219 28.4735 102.054 28.6517C101.972 28.6517 101.889 28.7409 101.807 28.7409C100.736 29.1866 99.5835 29.454 98.5128 29.454C94.1479 29.454 89.9478 26.0665 89.9478 19.4698C89.9478 12.6948 94.1479 9.48561 98.5952 9.48561C101.395 9.48561 104.195 11.0011 105.76 13.9428C105.76 14.032 105.843 14.032 105.843 14.1211L112.925 8.23756C109.631 3.06716 104.113 0.392822 98.5952 0.392822C89.7007 0.392822 81.0533 6.81125 81.0533 19.559C81.0533 32.3958 89.4536 38.636 98.4305 38.636C104.937 38.636 110.125 35.5159 113.172 30.4346L106.09 24.9968ZM136.314 17.2412L147.927 2.35402V0.749396H137.715L125.69 15.904V0.749396H116.631V38.1902H125.69V28.2951L129.973 23.2139L139.197 38.1902H149.574V36.8531L136.314 17.2412ZM44.9811 21.6984V0.749396H54.0403V21.6093C54.0403 26.958 57.2522 29.5432 61.0406 29.5432C64.829 29.5432 68.0409 27.0471 68.0409 21.8767V0.749396H77.1001V21.431C77.1001 33.4656 70.594 38.7251 60.9583 38.7251C51.2402 38.7251 44.9811 33.3764 44.9811 21.6984Z" fill="#1C456D"/>
<path d="M135.464 58.6856L148.669 43.5809V41.9528H137.002L123.344 57.3289V41.9528H113.395V79.9406H123.344V69.901L128.319 64.7455L138.63 79.9406H149.574V78.5839L135.464 58.6856ZM58.1316 41.9528H51.8003L34.7058 78.6744V79.9406H44.655L46.8257 75.4183H62.9254L65.1865 79.9406H75.4071V78.6744L58.1316 41.9528ZM59.7597 67.278H50.1723L54.3328 57.3289H55.5991L59.7597 67.278ZM102.27 66.5545C101.275 67.7303 100.371 68.7252 99.2851 69.4488C99.1042 69.5392 99.0138 69.6297 98.8329 69.7201C98.7425 69.8106 98.5616 69.901 98.4711 69.901C98.2902 69.9915 98.0189 70.0819 97.838 70.2628C97.7475 70.2628 97.6571 70.3532 97.5666 70.3532C96.3908 70.8055 95.1246 71.0768 93.9488 71.0768C89.1551 71.0768 84.5422 67.6398 84.5422 60.9467C84.5422 54.0728 89.1551 50.8167 94.0392 50.8167C97.1144 50.8167 100.19 52.3543 101.908 55.339C101.908 55.4295 101.999 55.4295 101.999 55.5199L109.777 49.5504C106.159 44.3045 100.099 41.5911 94.0392 41.5911C84.2709 41.5911 74.7739 48.1033 74.7739 61.0372C74.7739 74.0616 83.9995 80.3929 93.8583 80.3929C101.004 80.3929 106.702 77.2272 110.048 72.0718L102.27 66.5545ZM27.1082 66.5545C30.907 64.022 32.7159 59.771 32.8064 55.339C32.8064 48.646 28.3745 41.8624 19.1489 41.8624C13.5411 41.7719 5.85311 41.8624 0.42627 41.8624V79.9406H10.3755V68.1825H16.0736L21.8623 79.9406H31.9924L32.2637 78.3126L26.0228 67.0972C26.7464 66.7354 27.1082 66.5545 27.1082 66.5545ZM10.285 50.0931H18.968C21.7718 50.0931 23.1285 52.6256 23.1285 54.9772C23.1285 57.3289 21.7718 60.0423 18.968 60.0423H10.285V50.0931Z" fill="#1C456D"/>
</svg>
