<svg xmlns="http://www.w3.org/2000/svg" viewBox="0 0 94 122"><path fill="#fff" d="M8.1 89.9 47.6 110l38-20.1V11.3H8.1z"/><path fill="#f2f3f2" d="M86.4 11.6 7.3 91.3l41 20.3 38.1-19.5z"/><path fill="#dcdedc" d="M5.5 37.5v54.1l1.4.7 39.5 20.1 1.2.6 1.2-.6 38.1-20.1 1.4-.7V8.7H5.5v28.8zm2.6 52.6V11.3h77.6v78.8l-38.1 20.1L8.1 90.1z"/><path fill="#ff492c" d="M46.9 12.6c.4 0 .8 0 1.2.1L46.9 15c-1.8-.1-3.4 1.3-3.5 3.1-.1 1.8 1.3 3.4 3.1 3.5h.4c.8 0 1.6-.3 2.2-.8l1.3 2.2c-1 .7-2.2 1.1-3.5 1.1-3.2.1-5.9-2.3-6-5.5-.1-3.2 2.3-5.9 5.5-6h.5zm4.1 4.9 1.5 2.5-1.5 2.4-1.4-2.4h-2.9l1.5-2.5H51zm-2.4-.9c0-.4.1-.8.3-1.1.2-.3.6-.6.9-.8l.2-.1c.4-.2.5-.3.5-.5s-.3-.4-.5-.4c-.4 0-.7.2-.9.6l-.5-.5c.1-.2.3-.4.5-.6.3-.2.6-.2.9-.2.3 0 .7.1.9.3.2.2.4.5.4.8 0 .5-.3.9-.9 1.1l-.3.2c-.3.2-.5.3-.6.6h1.8v.7l-2.7-.1zm-1.7 12.5 9.5-5.4v-15H37.3v14.9l9.6 5.5z"/><path fill="#5a39a2" d="M90.2 64.5H3.6l-3.2 7 3.2 7h86.6l3.1-7z"/><path fill="#252530" d="M28.08 60q-.15 0-.21-.14L26 55.71q-.03-.06-.09-.06h-1.4q-.07 0-.07.08v4.09q0 .08-.05.13-.06.05-.13.05H22.5q-.07 0-.12-.05-.06-.05-.06-.13V49.68q0-.07.06-.13.05-.05.12-.05h4.29q.96 0 1.69.39T29.61 51q.39.72.39 1.67 0 1.02-.51 1.74-.51.73-1.42 1.03-.08.03-.05.1l2.04 4.25q.04.06.04.09 0 .12-.17.12h-1.85Zm-3.57-8.69q-.07 0-.07.08v2.57q0 .07.07.07h1.97q.63 0 1.03-.37.4-.38.4-.98t-.4-.98q-.4-.39-1.03-.39h-1.97Zm13.61 4.04q.09.57.06 1.27-.02.19-.2.19h-4.63q-.09 0-.06.07.04.3.16.6.39.84 1.59.84.96-.01 1.52-.78.06-.09.13-.09.05 0 .11.06l1.08 1.06q.07.08.07.14 0 .03-.06.12-.49.62-1.27.95-.78.34-1.71.34-1.29 0-2.18-.58-.9-.59-1.29-1.64-.31-.75-.31-1.96 0-.83.22-1.46.35-1.06 1.21-1.69.86-.63 2.05-.63 1.5 0 2.41.87.91.87 1.1 2.32Zm-3.5-1.36q-.94 0-1.24.88-.06.2-.11.48 0 .07.08.07h2.59q.09 0 .06-.07-.07-.43-.07-.42-.14-.45-.47-.7-.34-.24-.84-.24Zm7.83 6.11q-1 0-1.75-.28t-1.16-.79q-.42-.51-.42-1.16v-.15q0-.07.06-.13.05-.05.12-.05h1.67q.07 0 .13.05.05.06.05.13v.01q0 .34.37.57.36.23.92.23.51 0 .82-.2.32-.21.32-.5 0-.27-.27-.41-.27-.13-.89-.28-.7-.18-1.11-.35-.96-.33-1.53-.81-.57-.48-.57-1.38 0-1.11.87-1.76.86-.65 2.28-.65.96 0 1.68.3.72.31 1.12.87.4.55.4 1.26 0 .07-.05.12-.06.05-.13.05h-1.61q-.07 0-.12-.05-.06-.05-.06-.12 0-.33-.33-.56-.34-.23-.9-.23-.49 0-.81.19-.31.18-.31.49 0 .3.31.45.3.15 1.02.32l.38.09q.21.05.45.13 1.06.32 1.68.81.61.5.61 1.44 0 1.11-.87 1.73-.88.62-2.37.62Zm8.96-7.63q0-.07.05-.13.05-.05.13-.05h1.75q.08 0 .13.05.05.06.05.13v7.35q0 .08-.05.13t-.13.05h-1.75q-.08 0-.13-.05t-.05-.13v-.51q0-.04-.03-.05-.03-.01-.06.04-.6.8-1.86.8-1.14 0-1.88-.68-.73-.69-.73-1.94v-5.01q0-.07.05-.13.05-.05.13-.05h1.74q.07 0 .13.05.05.06.05.13v4.49q0 .6.32.97.32.38.89.38.52 0 .84-.31.33-.31.41-.8v-4.73ZM55.26 60q-.07 0-.12-.05-.06-.05-.06-.13V49.68q0-.07.06-.13.05-.05.12-.05h1.76q.07 0 .13.05.05.06.05.13v10.14q0 .08-.05.13-.06.05-.13.05h-1.76Zm7.91-6.19q0 .07-.05.12-.06.06-.13.06h-1.44q-.08 0-.08.07v3.18q0 .49.21.74.2.24.65.24h.49q.08 0 .13.05t.05.13v1.42q0 .17-.18.19-.63.03-.9.03-1.24 0-1.86-.41-.61-.41-.63-1.55v-4.02q0-.07-.07-.07h-.86q-.07 0-.12-.06-.06-.05-.06-.12v-1.34q0-.07.06-.13.05-.05.12-.05h.86q.07 0 .07-.08v-1.78q0-.07.06-.13.05-.05.12-.05h1.68q.08 0 .13.05.05.06.05.13v1.78q0 .08.08.08h1.44q.07 0 .13.05.05.06.05.13v1.34Zm4.35 6.29q-1.01 0-1.76-.28t-1.16-.79q-.41-.51-.41-1.16v-.15q0-.07.05-.13.05-.05.13-.05h1.66q.08 0 .13.05.05.06.05.13v.01q0 .34.37.57.37.23.92.23.51 0 .83-.2.31-.21.31-.5 0-.27-.27-.41-.27-.13-.88-.28-.71-.18-1.11-.35-.96-.33-1.53-.81-.57-.48-.57-1.38 0-1.11.86-1.76.86-.65 2.29-.65.96 0 1.68.3.72.31 1.12.87.39.55.39 1.26 0 .07-.05.12-.05.05-.13.05h-1.6q-.08 0-.13-.05t-.05-.12q0-.33-.34-.56-.34-.23-.89-.23-.5 0-.81.19-.32.18-.32.49 0 .3.31.45.31.15 1.03.32.16.04.37.09.21.05.45.13 1.07.32 1.68.81.62.5.62 1.44 0 1.11-.88 1.73-.88.62-2.36.62ZM38.17 39.53q-.09.04 0 .09 1.42.73 1.42 2.44 0 1.46-.99 2.2-.99.74-2.59.74h-3.89q-.07 0-.12-.05-.06-.05-.06-.13V34.68q0-.07.06-.13.05-.05.12-.05h3.77q3.55 0 3.55 2.88 0 1.5-1.27 2.15Zm-4.04-3.22q-.07 0-.07.08v2.34q0 .08.07.08h1.76q.7 0 1.1-.33.38-.33.38-.9 0-.59-.38-.93-.4-.34-1.1-.34h-1.76Zm1.88 6.86q.69 0 1.08-.35.39-.35.39-.97 0-.61-.39-.97-.39-.35-1.1-.35h-1.86q-.07 0-.07.08v2.48q0 .08.07.08h1.88Zm11.92-2.82q.09.57.06 1.27-.01.19-.19.19h-4.64q-.09 0-.06.07.05.3.17.6.39.84 1.59.84.96-.01 1.51-.78.06-.09.14-.09.04 0 .1.06l1.08 1.06q.08.08.08.14 0 .03-.06.12-.5.62-1.28.95-.77.34-1.71.34-1.29 0-2.18-.58-.89-.59-1.28-1.64-.32-.75-.32-1.96 0-.83.23-1.46.34-1.06 1.21-1.69.86-.63 2.04-.63 1.5 0 2.41.87.91.87 1.1 2.32Zm-3.49-1.36q-.95 0-1.25.88-.06.2-.1.48 0 .07.07.07h2.6q.09 0 .06-.07-.08-.43-.08-.42-.13-.45-.47-.7-.34-.24-.83-.24Zm7.83 6.11q-1.01 0-1.76-.28t-1.16-.79q-.41-.51-.41-1.16v-.15q0-.07.05-.13.05-.05.13-.05h1.66q.08 0 .13.05.05.06.05.13v.01q0 .34.37.57.37.23.92.23.51 0 .83-.2.31-.21.31-.5 0-.27-.27-.41-.27-.13-.88-.28-.71-.18-1.11-.35-.96-.33-1.53-.81-.57-.48-.57-1.38 0-1.11.86-1.76.86-.65 2.29-.65.96 0 1.68.3.72.31 1.12.87.39.55.39 1.26 0 .07-.05.12-.05.05-.13.05h-1.6q-.08 0-.13-.05t-.05-.12q0-.33-.34-.56-.34-.23-.89-.23-.5 0-.81.19-.32.18-.32.49 0 .3.31.45.31.15 1.03.32.16.04.37.09.21.05.45.13 1.07.32 1.68.81.62.5.62 1.44 0 1.11-.88 1.73-.88.62-2.36.62Zm8.86-6.29q0 .07-.05.12-.05.06-.13.06h-1.44q-.07 0-.07.07v3.18q0 .49.2.74.2.24.66.24h.49q.07 0 .13.05.05.05.05.13v1.42q0 .17-.18.19-.63.03-.9.03-1.25 0-1.86-.41-.62-.41-.63-1.55v-4.02q0-.07-.08-.07h-.85q-.08 0-.13-.06-.05-.05-.05-.12v-1.34q0-.07.05-.13.05-.05.13-.05h.85q.08 0 .08-.08v-1.78q0-.07.05-.13.05-.05.13-.05h1.68q.07 0 .13.05.05.06.05.13v1.78q0 .08.07.08h1.44q.08 0 .13.05.05.06.05.13v1.34Z"/><path fill="#fff" d="M16.9 75.48q-.78 0-1.36-.25-.58-.25-.9-.7-.31-.45-.31-1.06v-.25q0-.05.04-.09.03-.03.08-.03h.89q.05 0 .09.03.03.04.03.09v.19q0 .46.41.76.41.31 1.12.31.61 0 .92-.26.31-.26.31-.67 0-.28-.17-.48-.17-.19-.48-.35-.32-.16-.95-.4-.71-.26-1.15-.49-.44-.23-.73-.63-.3-.39-.3-.98 0-.88.64-1.39.64-.51 1.71-.51.75 0 1.33.26.57.26.89.73.32.46.32 1.07v.17q0 .05-.04.09-.03.03-.08.03h-.9q-.05 0-.08-.03-.04-.04-.04-.09v-.11q0-.47-.38-.79-.39-.33-1.07-.33-.55 0-.85.23-.31.23-.31.65 0 .3.16.49t.48.34q.32.16.99.4.71.27 1.14.49.42.22.73.61.3.4.3.99 0 .9-.67 1.43-.66.53-1.81.53Zm9.01-5.27q.77 0 1.21.46.43.47.43 1.3v3.31q0 .05-.03.08-.04.04-.09.04h-.91q-.05 0-.08-.04-.04-.03-.04-.08v-3.07q0-.46-.24-.73-.25-.27-.66-.27-.41 0-.67.27-.26.27-.26.72v3.08q0 .05-.03.08-.04.04-.09.04h-.91q-.05 0-.09-.04-.03-.03-.03-.08v-3.07q0-.46-.25-.73-.25-.27-.66-.27-.38 0-.63.22-.24.22-.28.6v3.25q0 .05-.03.08-.04.04-.09.04h-.92q-.05 0-.08-.04-.04-.03-.04-.08v-4.87q0-.05.04-.09.03-.03.08-.03h.92q.05 0 .09.03.03.04.03.09v.33q0 .03.02.04.02.01.04-.02.22-.28.54-.41.33-.14.73-.14.49 0 .86.2t.57.58q.03.04.07 0 .22-.4.61-.59.39-.19.87-.19Zm4.77 0q.63 0 1.11.22.48.22.74.6.26.39.26.88v3.37q0 .05-.03.08-.04.04-.09.04h-.92q-.05 0-.08-.04-.04-.03-.04-.08v-.32q0-.03-.02-.04-.02 0-.04.02-.49.54-1.42.54-.75 0-1.23-.38-.49-.38-.49-1.13 0-.78.55-1.22.54-.43 1.53-.43h1.07q.05 0 .05-.05v-.24q0-.39-.23-.61-.23-.21-.69-.21-.38 0-.61.14-.24.13-.3.37-.03.12-.14.1l-.97-.12q-.05-.01-.08-.03-.04-.03-.03-.07.08-.61.66-1 .57-.39 1.44-.39Zm-.24 4.35q.49 0 .84-.26t.35-.66v-.47q0-.05-.05-.05h-.84q-.53 0-.83.2-.31.2-.31.57 0 .32.24.49.23.18.6.18Zm3.63.84q-.05 0-.08-.04-.04-.03-.04-.08v-6.76q0-.05.04-.08.03-.04.08-.04h.92q.05 0 .09.04.03.03.03.08v6.76q0 .05-.03.08-.04.04-.09.04h-.92Zm2.39 0q-.05 0-.08-.04-.04-.03-.04-.08v-6.76q0-.05.04-.08.03-.04.08-.04h.92q.05 0 .09.04.03.03.03.08v6.76q0 .05-.03.08-.04.04-.09.04h-.92Zm8.29-3.65q-.06.03 0 .06 1.02.48 1.02 1.65 0 .95-.63 1.45-.64.49-1.66.49h-2.52q-.05 0-.08-.04-.04-.03-.04-.08v-6.76q0-.05.04-.08.03-.04.08-.04h2.44q1.09 0 1.68.47.59.47.59 1.42 0 1.05-.92 1.46Zm-2.7-2.35q-.05 0-.05.05v1.85q0 .05.05.05h1.35q.53 0 .84-.25.3-.26.3-.71 0-.46-.3-.73-.31-.26-.84-.26h-1.35Zm1.43 4.99q.52 0 .83-.28.3-.28.3-.76 0-.49-.31-.76-.31-.28-.84-.28h-1.41q-.05 0-.05.05v1.98q0 .05.05.05h1.43Zm6.4-3.98q0-.05.03-.09.04-.03.09-.03h.91q.05 0 .09.03.03.04.03.09v4.87q0 .05-.03.08-.04.04-.09.04H50q-.05 0-.09-.04-.03-.03-.03-.08v-.32q0-.03-.02-.04-.02-.01-.04.02-.41.53-1.23.53-.76 0-1.27-.44-.52-.44-.52-1.25v-3.37q0-.05.03-.09.04-.03.09-.03h.92q.05 0 .09.03.03.04.03.09v3.04q0 .47.25.75.24.28.68.28.45 0 .72-.28.27-.28.27-.75v-3.04Zm4.29 5.05q-.63 0-1.11-.19-.47-.18-.73-.51-.26-.32-.26-.72v-.09q0-.05.03-.09.04-.03.09-.03h.88q.05 0 .08.03.04.04.04.09v.02q0 .25.27.44.28.18.7.18.4 0 .65-.16.25-.17.25-.42 0-.23-.21-.35-.2-.11-.66-.24l-.38-.12q-.51-.15-.86-.32t-.59-.47q-.24-.29-.24-.75 0-.7.55-1.11.55-.42 1.45-.42.61 0 1.07.19.46.2.71.54.25.35.25.79 0 .05-.04.09-.03.03-.08.03h-.85q-.05 0-.09-.03-.03-.04-.03-.09 0-.26-.26-.43-.25-.18-.69-.18-.39 0-.64.14-.24.15-.24.41 0 .24.23.36.24.13.79.28l.22.06q.53.16.89.32.36.17.61.46.25.3.25.77 0 .71-.56 1.11-.56.41-1.49.41Zm3.69-5.87q-.31 0-.51-.2t-.2-.51q0-.31.2-.51t.51-.2q.31 0 .51.2t.2.51q0 .31-.2.51t-.51.2Zm-.48 5.81q-.05 0-.09-.04-.03-.03-.03-.08V70.4q0-.05.03-.08.04-.04.09-.04h.92q.05 0 .08.04.04.03.04.08v4.88q0 .05-.04.08-.03.04-.08.04h-.92Zm4.82-5.19q.81 0 1.29.48.49.48.49 1.31v3.28q0 .05-.04.08-.03.04-.08.04h-.92q-.05 0-.09-.04-.03-.03-.03-.08v-3.04q0-.46-.26-.75-.26-.28-.69-.28-.43 0-.7.28-.26.28-.26.74v3.05q0 .05-.04.08-.03.04-.08.04h-.92q-.05 0-.09-.04-.03-.03-.03-.08v-4.87q0-.05.03-.09.04-.03.09-.03h.92q.05 0 .08.03.04.04.04.09v.32q0 .03.02.04.02.01.03-.02.41-.54 1.24-.54Zm7.26 2.06q.04.25.04.56l-.01.31q0 .12-.12.12h-3.13q-.05 0-.05.05.03.33.09.45.24.72 1.17.73.68 0 1.08-.56.04-.06.1-.06.04 0 .07.03l.62.51q.09.07.03.16-.31.44-.83.68-.51.24-1.14.24-.78 0-1.33-.35-.54-.35-.79-.98-.23-.54-.23-1.5 0-.58.12-.94.2-.7.75-1.11.56-.4 1.34-.4 1.97 0 2.22 2.06Zm-2.22-1.06q-.37 0-.62.19-.24.18-.34.51-.06.17-.08.44-.02.05.04.05h2.03q.05 0 .05-.05-.02-.25-.06-.38-.09-.36-.36-.56-.26-.2-.66-.2Zm5.14 4.25q-.63 0-1.11-.19-.47-.18-.73-.51-.26-.32-.26-.72v-.09q0-.05.03-.09.04-.03.09-.03h.88q.05 0 .08.03.04.04.04.09v.02q0 .25.27.44.28.18.7.18.4 0 .65-.16.25-.17.25-.42 0-.23-.21-.35-.2-.11-.66-.24l-.38-.12q-.51-.15-.86-.32t-.59-.47q-.24-.29-.24-.75 0-.7.55-1.11.55-.42 1.45-.42.61 0 1.07.19.46.2.71.54.25.35.25.79 0 .05-.04.09-.03.03-.08.03h-.85q-.05 0-.09-.03-.03-.04-.03-.09 0-.26-.26-.43-.25-.18-.69-.18-.39 0-.64.14-.24.15-.24.41 0 .24.23.36.24.13.79.28l.22.06q.53.16.89.32.36.17.61.46.25.3.25.77 0 .71-.56 1.11-.56.41-1.49.41Zm4.83 0q-.63 0-1.11-.19-.47-.18-.73-.51-.26-.32-.26-.72v-.09q0-.05.03-.09.04-.03.09-.03h.88q.05 0 .08.03.04.04.04.09v.02q0 .25.27.44.28.18.7.18.4 0 .65-.16.25-.17.25-.42 0-.23-.21-.35-.2-.11-.66-.24l-.38-.12q-.51-.15-.86-.32t-.59-.47q-.24-.29-.24-.75 0-.7.55-1.11.55-.42 1.45-.42.61 0 1.07.19.46.2.71.54.25.35.25.79 0 .05-.04.09-.03.03-.08.03h-.85q-.05 0-.09-.03-.03-.04-.03-.09 0-.26-.26-.43-.25-.18-.69-.18-.39 0-.64.14-.24.15-.24.41 0 .24.23.36.24.13.79.28l.22.06q.53.16.89.32.36.17.61.46.25.3.25.77 0 .71-.56 1.11-.56.41-1.49.41Z"/><path fill="#252530" d="M40.49 83.59q0 .05-.04.08-.03.04-.08.04H37.1q-.05 0-.05.05v1.55q0 .05.05.05h2.15q.05 0 .08.03.04.04.04.09v.97q0 .05-.04.09-.03.03-.08.03H37.1q-.05 0-.05.05v2.76q0 .05-.03.08-.04.04-.09.04h-1.17q-.05 0-.08-.04-.04-.03-.04-.08v-6.76q0-.05.04-.08.03-.04.08-.04h4.61q.05 0 .08.04.04.03.04.08v.97Zm4.42 5.91q-.1 0-.13-.1l-.3-.98q-.02-.04-.05-.04h-2.46q-.03 0-.05.04l-.29.98q-.03.1-.13.1h-1.27q-.06 0-.09-.04-.03-.03-.01-.1l2.16-6.76q.03-.1.13-.1h1.57q.1 0 .13.1l2.16 6.76q.01.02.01.05 0 .09-.11.09h-1.27Zm-2.63-2.27q-.01.06.04.06h1.76q.06 0 .04-.06l-.9-2.97q-.01-.04-.03-.04-.02.01-.03.04l-.88 2.97Zm5.01 2.27q-.05 0-.08-.04-.04-.03-.04-.08v-6.76q0-.05.04-.08.03-.04.08-.04h1.17q.05 0 .09.04.03.03.03.08v5.62q0 .05.05.05h3.27q.05 0 .09.03.03.04.03.09v.97q0 .05-.03.08-.04.04-.09.04h-4.61Zm5.72 0q-.05 0-.09-.04-.03-.03-.03-.08v-6.76q0-.05.03-.08.04-.04.09-.04h1.17q.05 0 .08.04.04.03.04.08v5.62q0 .05.05.05h3.27q.05 0 .09.03.03.04.03.09v.97q0 .05-.03.08-.04.04-.09.04h-4.61ZM37.68 97.63q-.02.02-.01.04t.04.02h2.71q.05 0 .09.03.03.04.03.09v.97q0 .05-.03.08-.04.04-.09.04h-4.5q-.05 0-.09-.04-.03-.03-.03-.08v-.92q0-.09.06-.15.49-.48 1-1.04.51-.57.64-.71.28-.33.57-.63.91-1.01.91-1.5 0-.35-.25-.58-.25-.22-.65-.22t-.65.22q-.25.23-.25.6v.25q0 .05-.04.09-.03.03-.08.03h-1.18q-.05 0-.08-.03-.04-.04-.04-.09v-.47q.03-.54.34-.96.31-.41.82-.63.52-.22 1.16-.22.71 0 1.24.26.52.27.81.72.28.45.28 1 0 .42-.21.86t-.63.95q-.31.39-.67.77-.36.38-1.07 1.1l-.15.15Zm6.11 1.38q-1.1 0-1.74-.62-.64-.61-.64-1.67v-2.64q0-1.04.64-1.65.64-.61 1.74-.61t1.75.61q.64.61.64 1.65v2.64q0 1.06-.64 1.67-.65.62-1.75.62Zm0-1.21q.45 0 .72-.28.26-.27.26-.73v-2.75q0-.46-.26-.73-.27-.28-.72-.28-.44 0-.7.28-.27.27-.27.73v2.75q0 .46.27.73.26.28.7.28Zm5.19-.17q-.02.02-.01.04t.04.02h2.71q.05 0 .09.03.03.04.03.09v.97q0 .05-.03.08-.04.04-.09.04h-4.5q-.05 0-.08-.04-.04-.03-.04-.08v-.92q0-.09.06-.15.49-.48 1-1.04.51-.57.64-.71.28-.33.57-.63.91-1.01.91-1.5 0-.35-.25-.58-.25-.22-.65-.22t-.65.22q-.25.23-.25.6v.25q0 .05-.03.09-.04.03-.09.03h-1.18q-.05 0-.08-.03-.04-.04-.04-.09v-.47q.03-.54.34-.96.31-.41.83-.63.51-.22 1.15-.22.71 0 1.24.26.52.27.81.72.28.45.28 1 0 .42-.21.86t-.63.95q-.31.39-.67.77-.36.38-1.07 1.1l-.15.15Zm8.73-1.78q.05 0 .09.03.03.04.03.09v1.01q0 .05-.03.09-.04.03-.09.03h-.43q-.05 0-.05.05v1.63q0 .05-.03.08-.04.04-.09.04h-1.17q-.05 0-.08-.04-.04-.03-.04-.08v-1.63q0-.05-.05-.05H52.7q-.05 0-.08-.03-.04-.04-.04-.09v-.8q0-.06.03-.15l1.8-4.04q.04-.09.14-.09h1.25q.07 0 .1.04.02.03-.01.1l-1.67 3.75q-.01.02 0 .04t.03.02h1.52q.05 0 .05-.05v-1.24q0-.05.04-.08.03-.04.08-.04h1.17q.05 0 .09.04.03.03.03.08v1.24q0 .05.05.05h.43Z"/></svg>
