<svg width="32" height="32" viewBox="0 0 32 32" fill="none" xmlns="http://www.w3.org/2000/svg">
<g clip-path="url(#clip0_33286_193)">
<path d="M25.6839 7.36C25.6839 11.3237 22.0114 16 16.4547 16H11.1023L10.8395 17.6512L9.59082 25.6H2.93896L6.94065 0H17.7177C21.3467 0 24.2018 2.01458 25.2534 4.81422C25.5567 5.62821 25.7028 6.49197 25.6839 7.36Z" fill="#002991"/>
<path d="M29.518 14.72C29.163 16.8685 28.0519 18.8211 26.3835 20.2283C24.7152 21.6354 22.5985 22.4052 20.4123 22.4H16.6955L15.1484 32H8.53223L9.59101 25.6L10.8404 17.6512L11.1024 16H16.4549C22.0044 16 25.6841 11.3237 25.6841 7.35999C28.415 8.76372 30.0071 11.6003 29.518 14.72Z" fill="#60CDFF"/>
<path d="M25.6837 7.36002C24.5386 6.7634 23.1499 6.40002 21.6385 6.40002H12.6142L11.1021 16H16.4545C22.004 16 25.6837 11.3238 25.6837 7.36002Z" fill="#008CFF"/>
</g>
<defs>
<clipPath id="clip0_33286_193">
<rect width="26.6667" height="32" fill="white" transform="translate(2.93896)"/>
</clipPath>
</defs>
</svg>
