<svg width="112" height="32" viewBox="0 0 112 32" fill="none" xmlns="http://www.w3.org/2000/svg">
<path fill-rule="evenodd" clip-rule="evenodd" d="M87.14 20.915C90.03 20.915 92.37 18.615 92.37 15.785C92.37 12.955 90.02 10.655 87.14 10.655C84.26 10.655 81.91 12.955 81.91 15.785C81.91 18.615 84.26 20.915 87.14 20.915ZM92.38 3.03503H94.86V23.365H92.38V21.335C90.95 22.635 89.1 23.345 87.15 23.345C82.9 23.345 79.44 19.955 79.44 15.785C79.44 11.615 82.9 8.22503 87.15 8.22503C89.11 8.22503 90.95 8.93503 92.38 10.235V3.03503ZM35.71 20.825C38.6 20.825 40.94 18.525 40.94 15.695C40.94 12.865 38.59 10.565 35.71 10.565C32.83 10.565 30.48 12.865 30.48 15.695C30.48 18.525 32.83 20.825 35.71 20.825ZM30.48 10.145C31.91 8.84503 33.76 8.13503 35.71 8.13503C39.96 8.13503 43.42 11.525 43.42 15.695C43.42 19.865 39.96 23.255 35.71 23.255C33.75 23.255 31.91 22.545 30.48 21.245V28.445H28V8.11503H30.48V10.145ZM48.16 14.515C48.72 12.215 50.8 10.565 53.17 10.565C55.54 10.565 57.47 12.175 57.99 14.515H48.16ZM53.17 8.11503C48.98 8.11503 45.57 11.535 45.57 15.735C45.57 19.935 48.98 23.355 53.17 23.355C55.52 23.355 57.67 22.475 59.08 20.935L59.81 20.135L59.9 20.035L59.8 19.935L58.21 18.465L58.11 18.375L58.02 18.475L57.29 19.275C56.36 20.295 54.82 20.905 53.18 20.905C50.81 20.905 48.73 19.255 48.17 16.955H60.58V15.725C60.58 11.455 57.33 8.10503 53.18 8.10503L53.17 8.11503ZM109.52 15.735C109.52 18.585 107.17 20.905 104.29 20.905C101.41 20.905 99.06 18.585 99.06 15.735C99.06 12.885 101.41 10.565 104.29 10.565C107.17 10.565 109.52 12.885 109.52 15.735ZM104.29 8.11503C100.04 8.11503 96.58 11.535 96.58 15.735C96.58 19.935 100.04 23.355 104.29 23.355C108.54 23.355 112 19.935 112 15.735C112 11.535 108.54 8.11503 104.29 8.11503ZM69.79 8.11503C68.07 8.11503 66.43 8.77503 65.13 9.96503V8.11503H62.72V23.355H65.13V15.575C65.13 12.795 67.22 10.545 69.79 10.545C72.36 10.545 74.45 12.805 74.45 15.575V23.355H76.86V15.575C76.86 11.455 73.69 8.11503 69.79 8.11503Z" fill="#333333"/>
<path fill-rule="evenodd" clip-rule="evenodd" d="M0 17.555H11.67V28.965L23.34 17.555V6.14502H11.67L0 17.555Z" fill="#FF4876"/>
</svg>
