<svg width="32" height="32" viewBox="0 0 32 32" fill="none" xmlns="http://www.w3.org/2000/svg">
<g clip-path="url(#clip0_21044_168998)">
<mask id="mask0_21044_168998" style="mask-type:luminance" maskUnits="userSpaceOnUse" x="-1" y="5" width="33" height="23">
<path fill-rule="evenodd" clip-rule="evenodd" d="M-0.0517578 5.0177H31.9482V27.371H-0.0517578V5.0177Z" fill="white"/>
</mask>
<g mask="url(#mask0_21044_168998)">
<path fill-rule="evenodd" clip-rule="evenodd" d="M13.2354 7.46466C14.2684 6.38935 15.706 5.72346 17.2943 5.72346C19.4119 5.72346 21.2472 6.89995 22.2354 8.65292C23.1127 8.26077 24.0628 8.05831 25.0237 8.05879C28.8354 8.05879 31.9296 11.1765 31.9296 15.0236C31.9296 18.8707 28.8354 21.9884 25.0237 21.9884C24.5578 21.9884 24.1037 21.9416 23.659 21.8531C22.7943 23.3943 21.1413 24.4414 19.259 24.4414C18.4926 24.4429 17.736 24.2691 17.0472 23.9332C16.1707 25.992 14.1296 27.4391 11.7531 27.4391C9.27073 27.4391 7.16485 25.8744 6.35309 23.6744C5.99179 23.7506 5.62352 23.7889 5.25426 23.7887C2.30132 23.7887 -0.0869141 21.3651 -0.0869141 18.3886C-0.0869141 16.3886 0.98838 14.6474 2.58367 13.7062C2.24523 12.9265 2.07102 12.0855 2.07191 11.2356C2.07191 7.8002 4.86014 5.02368 8.29544 5.02368C10.3072 5.02368 12.1072 5.98252 13.2366 7.47078" fill="#00A1E0"/>
</g>
<path fill-rule="evenodd" clip-rule="evenodd" d="M4.57661 16.6414C4.55649 16.6939 4.58379 16.7049 4.59026 16.7142C4.65038 16.7577 4.71144 16.7892 4.77261 16.8246C5.09967 16.9976 5.40791 17.0482 5.73026 17.0482C6.38673 17.0482 6.79496 16.6987 6.79496 16.1364V16.1253C6.79496 15.6053 6.33379 15.4159 5.9032 15.2806L5.84685 15.2624C5.52096 15.1567 5.23979 15.0647 5.23979 14.8506V14.8396C5.23979 14.6561 5.40449 14.5208 5.65861 14.5208C5.94096 14.5208 6.27744 14.6148 6.49273 14.7338C6.49273 14.7338 6.55649 14.7749 6.57967 14.7134C6.59226 14.6801 6.70202 14.3863 6.71379 14.3534C6.72626 14.3189 6.70438 14.2929 6.68191 14.2795C6.43485 14.1289 6.09367 14.0266 5.74073 14.0266L5.6752 14.0268C5.07402 14.0268 4.65402 14.3903 4.65402 14.9104V14.9215C4.65402 15.4698 5.11755 15.6486 5.55049 15.7721L5.62014 15.7938C5.93544 15.8907 6.20838 15.975 6.20838 16.1961V16.2072C6.20838 16.4107 6.03073 16.5625 5.74602 16.5625C5.63532 16.5625 5.28249 16.5606 4.90014 16.319C4.85391 16.292 4.82755 16.2726 4.79191 16.2508C4.77308 16.2394 4.72602 16.2188 4.70555 16.2805L4.57614 16.6405M14.1879 16.6405C14.1678 16.693 14.1951 16.7039 14.2018 16.7132C14.2617 16.7567 14.323 16.7883 14.3841 16.8237C14.7112 16.9966 15.0194 17.0472 15.3418 17.0472C15.9983 17.0472 16.4065 16.6978 16.4065 16.1354V16.1244C16.4065 15.6044 15.9465 15.415 15.5147 15.2797L15.4584 15.2614C15.1325 15.1558 14.8513 15.0638 14.8513 14.8496V14.8387C14.8513 14.6552 15.016 14.5199 15.2701 14.5199C15.5525 14.5199 15.8878 14.6139 16.1043 14.7328C16.1043 14.7328 16.168 14.774 16.1913 14.7125C16.2038 14.6792 16.3137 14.3854 16.3243 14.3525C16.3368 14.318 16.3148 14.292 16.2925 14.2786C16.0454 14.128 15.7043 14.0256 15.3513 14.0256L15.2857 14.0259C14.6845 14.0259 14.2645 14.3894 14.2645 14.9094V14.9206C14.2645 15.4688 14.728 15.6477 15.161 15.7712L15.2305 15.7928C15.547 15.8898 15.8187 15.974 15.8187 16.1952V16.2063C15.8187 16.4098 15.6411 16.5616 15.3564 16.5616C15.2454 16.5616 14.8917 16.5597 14.5105 16.318C14.4643 16.2911 14.4372 16.2725 14.4021 16.2499C14.3903 16.2424 14.3348 16.2207 14.3159 16.2796L14.1865 16.6396M20.7512 15.5384C20.7512 15.856 20.6919 16.1066 20.5759 16.2843C20.4601 16.4596 20.2853 16.5454 20.0418 16.5454C19.7983 16.5454 19.6241 16.4603 19.51 16.2854C19.3951 16.109 19.3371 15.8572 19.3371 15.5395C19.3371 15.2219 19.3954 14.9725 19.51 14.7972C19.6239 14.6231 19.7971 14.5395 20.0418 14.5395C20.2865 14.5395 20.4606 14.6239 20.5759 14.7972C20.6926 14.9725 20.7512 15.2219 20.7512 15.5395M21.2994 14.9501C21.2454 14.7678 21.1618 14.6078 21.05 14.4736C20.9381 14.3395 20.7971 14.2313 20.6288 14.1536C20.4618 14.0754 20.2641 14.036 20.0406 14.036C19.8171 14.036 19.6206 14.0756 19.4524 14.1536C19.2853 14.2318 19.143 14.3395 19.0312 14.4736C18.9197 14.6078 18.8359 14.7678 18.7818 14.9501C18.7283 15.1313 18.7011 15.329 18.7011 15.5395C18.7011 15.7501 18.7283 15.9478 18.7818 16.129C18.8356 16.3113 18.9194 16.4713 19.0312 16.6054C19.1431 16.7396 19.2853 16.8466 19.4524 16.9231C19.6206 16.9993 19.8183 17.0382 20.0406 17.0382C20.263 17.0382 20.4606 16.9993 20.6277 16.9231C20.7947 16.8469 20.9371 16.7396 21.0488 16.6054C21.1605 16.4713 21.2441 16.3113 21.2983 16.129C21.3517 15.9478 21.3788 15.7501 21.3788 15.5395C21.3788 15.3301 21.3517 15.1313 21.2983 14.9501M25.8041 16.456C25.7861 16.4027 25.7341 16.4229 25.7341 16.4229C25.6545 16.4533 25.5694 16.4816 25.4788 16.4957C25.3876 16.51 25.2859 16.5172 25.1788 16.5172C24.9141 16.5172 24.7024 16.4383 24.5518 16.2819C24.4 16.1254 24.3153 15.8737 24.3165 15.5325C24.3173 15.2219 24.3924 14.9889 24.5271 14.8101C24.66 14.6336 24.8647 14.5419 25.1353 14.5419C25.3612 14.5419 25.5341 14.5681 25.7153 14.6248C25.7153 14.6248 25.7583 14.6435 25.7788 14.5869C25.827 14.454 25.8625 14.3587 25.9141 14.2128C25.9287 14.171 25.893 14.1534 25.8799 14.1483C25.8088 14.1206 25.6411 14.075 25.514 14.0559C25.3952 14.0378 25.2576 14.0283 25.1023 14.0283C24.8717 14.0283 24.667 14.0678 24.4917 14.1459C24.3164 14.2239 24.1681 14.3318 24.0505 14.4659C23.9328 14.6 23.8434 14.76 23.7834 14.9424C23.724 15.1235 23.694 15.3224 23.694 15.533C23.694 15.9871 23.8164 16.3553 24.0587 16.6247C24.3011 16.8953 24.6658 17.0318 25.1411 17.0318C25.4223 17.0318 25.7105 16.975 25.9176 16.893C25.9176 16.893 25.9571 16.8739 25.9399 16.8278L25.8046 16.456M26.7634 15.2325C26.7897 15.056 26.838 14.9089 26.914 14.7948C27.0278 14.6207 27.2011 14.5254 27.4446 14.5254C27.6881 14.5254 27.8493 14.6212 27.9646 14.7948C28.0411 14.9095 28.0745 15.0619 28.087 15.2325L26.7576 15.2322L26.7634 15.2325ZM28.6105 14.8442C28.5638 14.6689 28.4481 14.4913 28.3728 14.4101C28.2528 14.2819 28.1364 14.1913 28.0199 14.1419C27.8518 14.0704 27.6709 14.0337 27.4881 14.034C27.2564 14.034 27.0458 14.0732 26.8752 14.1528C26.7046 14.2331 26.5611 14.3422 26.4481 14.4787C26.3353 14.6152 26.2505 14.7764 26.1964 14.9611C26.1423 15.1434 26.115 15.3434 26.115 15.5528C26.115 15.767 26.1433 15.9658 26.1991 16.1458C26.2554 16.327 26.3461 16.4858 26.4685 16.6176C26.5908 16.7505 26.7473 16.854 26.9356 16.927C27.1226 16.9993 27.3497 17.0369 27.6097 17.036C28.1461 17.0343 28.4285 16.9149 28.5438 16.8502C28.5644 16.8386 28.5838 16.8187 28.5596 16.7614L28.4384 16.4214C28.4198 16.3707 28.3685 16.3891 28.3685 16.3891C28.2356 16.4387 28.0473 16.5279 27.6061 16.5267C27.3179 16.5263 27.105 16.4412 26.9708 16.3079C26.8344 16.1714 26.7661 15.9726 26.7556 15.6903L28.6144 15.6917C28.6144 15.6917 28.6633 15.6912 28.6684 15.6434C28.6704 15.6237 28.732 15.2622 28.613 14.8446L28.6105 14.8442ZM11.9046 15.2325C11.9308 15.056 11.9793 14.9089 12.0552 14.7948C12.1691 14.6207 12.3423 14.5254 12.5858 14.5254C12.8293 14.5254 12.9905 14.6212 13.1058 14.7948C13.1821 14.9095 13.2156 15.0619 13.2281 15.2325L11.8987 15.2322L11.9046 15.2325ZM13.7517 14.8442C13.7051 14.6689 13.5893 14.4913 13.514 14.4101C13.394 14.2819 13.2776 14.1913 13.1611 14.1419C12.9929 14.0704 12.812 14.0337 12.6293 14.034C12.3976 14.034 12.187 14.0732 12.0164 14.1528C11.8458 14.2331 11.7023 14.3422 11.5893 14.4787C11.4767 14.6152 11.3917 14.7764 11.3376 14.9611C11.2836 15.1434 11.2564 15.3434 11.2564 15.5528C11.2564 15.767 11.2845 15.9658 11.3406 16.1458C11.3968 16.327 11.4877 16.4858 11.6088 16.6176C11.7312 16.7505 11.8877 16.854 12.0759 16.927C12.263 16.9993 12.4888 17.0369 12.75 17.036C13.2865 17.0343 13.5688 16.9149 13.6841 16.8502C13.7046 16.8386 13.7241 16.8187 13.6998 16.7614L13.5786 16.4214C13.5599 16.3707 13.5086 16.3891 13.5086 16.3891C13.3757 16.4387 13.1874 16.5279 12.7463 16.5267C12.4592 16.5263 12.2451 16.4412 12.111 16.3079C11.9745 16.1714 11.9063 15.9726 11.8957 15.6903L13.7545 15.6917C13.7545 15.6917 13.8034 15.6912 13.8085 15.6434C13.8105 15.6237 13.8721 15.2622 13.753 14.8446L13.7517 14.8442ZM7.89285 16.4443C7.82002 16.3861 7.80991 16.3719 7.78579 16.3341C7.74896 16.2773 7.73014 16.1965 7.73014 16.093C7.73014 15.9306 7.78426 15.813 7.89602 15.7341C7.89485 15.7344 8.05602 15.5953 8.43485 15.6C8.60346 15.603 8.77168 15.6174 8.93838 15.643V16.4865H8.93861C8.93861 16.4865 8.70332 16.5372 8.43744 16.5532C8.05979 16.5759 7.89273 16.4445 7.89391 16.4449L7.89285 16.4443ZM8.63167 15.1384C8.55638 15.1328 8.45873 15.1301 8.34226 15.1301C8.18343 15.1301 8.02932 15.1499 7.88579 15.1887C7.74108 15.2278 7.61049 15.2882 7.49873 15.3687C7.38666 15.4487 7.29448 15.5533 7.22932 15.6746C7.16355 15.797 7.13002 15.9405 7.13002 16.1028C7.13002 16.2676 7.15861 16.4099 7.21508 16.5264C7.27042 16.6419 7.35372 16.7418 7.45744 16.817C7.56061 16.892 7.68802 16.9476 7.83508 16.9805C7.98096 17.0138 8.14567 17.0306 8.32685 17.0306C8.51744 17.0306 8.70685 17.0146 8.89038 16.9837C9.04669 16.9567 9.20241 16.9264 9.35744 16.8929C9.41932 16.8786 9.48802 16.8599 9.48802 16.8599C9.53391 16.8483 9.53038 16.7992 9.53038 16.7992L9.52932 15.1051C9.52932 14.7333 9.43002 14.4568 9.23402 14.2862C9.03873 14.1156 8.75285 14.0298 8.38226 14.0298C8.24344 14.0298 8.01873 14.0486 7.88461 14.0755C7.88461 14.0755 7.47991 14.1541 7.31285 14.2849C7.31285 14.2849 7.27614 14.3075 7.29614 14.3587L7.42791 14.7116C7.44426 14.7574 7.48885 14.7418 7.48885 14.7418C7.48885 14.7418 7.50285 14.7362 7.51932 14.7265C7.87579 14.5323 8.32755 14.5382 8.32755 14.5382C8.52755 14.5382 8.68285 14.5788 8.78638 14.6582C8.88767 14.736 8.93932 14.8535 8.93932 15.1006V15.1791C8.78049 15.156 8.63344 15.1427 8.63344 15.1427L8.63167 15.1384ZM23.5728 14.1819C23.5755 14.1757 23.5769 14.169 23.577 14.1622C23.577 14.1555 23.5757 14.1488 23.5731 14.1425C23.5705 14.1363 23.5666 14.1307 23.5618 14.1259C23.557 14.1212 23.5513 14.1175 23.545 14.115C23.5133 14.103 23.3556 14.0698 23.2344 14.0622C23.0014 14.0476 22.872 14.0869 22.7556 14.1392C22.6405 14.191 22.5132 14.2745 22.4426 14.3709L22.4424 14.145C22.4424 14.114 22.4204 14.0889 22.3891 14.0889H21.9138C21.883 14.0889 21.8606 14.114 21.8606 14.145V16.9098C21.8606 16.9247 21.8666 16.9391 21.8772 16.9496C21.8877 16.9602 21.902 16.9661 21.917 16.9662H22.404C22.4189 16.9661 22.4333 16.9602 22.4438 16.9496C22.4543 16.939 22.4603 16.9247 22.4603 16.9098V15.5215C22.4603 15.3357 22.4807 15.1509 22.5216 15.0345C22.5618 14.9193 22.6165 14.8274 22.6839 14.7615C22.7482 14.6979 22.8269 14.6507 22.9133 14.6239C22.9944 14.6006 23.0784 14.5888 23.1627 14.5888C23.2598 14.5888 23.3663 14.6138 23.3663 14.6138C23.402 14.6178 23.4219 14.5959 23.434 14.5636C23.4659 14.4788 23.5564 14.2248 23.574 14.1742" fill="#FFFFFE"/>
<path fill-rule="evenodd" clip-rule="evenodd" d="M19.0239 12.9058C18.9637 12.8876 18.9025 12.8731 18.8405 12.8623C18.7572 12.8484 18.6728 12.8418 18.5883 12.8427C18.2526 12.8427 17.988 12.9376 17.8023 13.1249C17.6178 13.3107 17.4923 13.5939 17.4293 13.9665L17.4066 14.0923H16.9853C16.9853 14.0923 16.9339 14.0902 16.9231 14.1463L16.8539 14.5322C16.8491 14.5691 16.865 14.5922 16.9144 14.5919H17.3245L16.9084 16.9147C16.8758 17.1017 16.8385 17.2556 16.7972 17.3722C16.7565 17.4873 16.7167 17.5735 16.6678 17.6361C16.6204 17.6967 16.5755 17.7413 16.4979 17.7673C16.4339 17.7888 16.3603 17.7987 16.2796 17.7987C16.2346 17.7987 16.1749 17.7912 16.1307 17.7823C16.0866 17.7736 16.0637 17.7638 16.0306 17.7499C16.0306 17.7499 15.9825 17.7315 15.9636 17.7798C15.9482 17.8192 15.8389 18.1198 15.8259 18.1569C15.8127 18.1936 15.8312 18.2226 15.8545 18.2309C15.9091 18.2505 15.9497 18.2629 16.024 18.2805C16.1273 18.3048 16.2144 18.3064 16.2959 18.3064C16.4667 18.3064 16.6224 18.2824 16.7515 18.2358C16.8813 18.1888 16.9944 18.1071 17.0944 17.9964C17.2025 17.8769 17.2705 17.7519 17.3356 17.5813C17.3999 17.4122 17.4547 17.2023 17.4986 16.9577L17.9167 14.5919H18.528C18.528 14.5919 18.5796 14.5938 18.5903 14.5379L18.6595 14.1521C18.6643 14.1151 18.6485 14.0921 18.5989 14.0923H18.0056C18.0085 14.0789 18.0355 13.8702 18.1036 13.6737C18.1326 13.5898 18.1873 13.5222 18.2337 13.4757C18.277 13.4314 18.3303 13.3983 18.3891 13.379C18.4536 13.359 18.5208 13.3494 18.5883 13.3503C18.6442 13.3503 18.699 13.357 18.7407 13.3657C18.7983 13.3779 18.8206 13.3844 18.8357 13.3889C18.8962 13.4073 18.9043 13.3895 18.9162 13.3602L19.058 12.9705C19.0726 12.9286 19.0371 12.911 19.0239 12.9058ZM10.7329 16.9196C10.7329 16.9507 10.7107 16.976 10.6797 16.976H10.1876C10.1564 16.976 10.1343 16.9507 10.1343 16.9196V12.9586C10.1343 12.9277 10.1564 12.9026 10.1876 12.9026H10.6797C10.7107 12.9026 10.7329 12.9277 10.7329 12.9586V16.9196Z" fill="#FFFFFE"/>
</g>
<defs>
<clipPath id="clip0_21044_168998">
<rect width="32" height="32" fill="white"/>
</clipPath>
</defs>
</svg>
