<svg width="124" height="32" viewBox="0 0 124 32" fill="none" xmlns="http://www.w3.org/2000/svg">
<g clip-path="url(#clip0_29372_4702)">
<path d="M52.9026 12.4502C54.0662 12.4502 55.0244 11.4914 55.0244 10.3955C55.0244 9.26544 54.0662 8.30657 52.9026 8.30657C51.8418 8.30657 50.8835 9.26544 50.8835 10.3955C50.8492 11.5256 51.8075 12.4502 52.9026 12.4502Z" fill="#F0612D"/>
<path d="M83.9753 13.8883C82.5723 13.8883 81.2719 14.3335 80.1084 16.1826L76.7548 21.4904V17.5181L79.2186 14.5389C80.8613 12.587 82.8803 10.6352 82.8803 8.10115C82.8803 5.63562 81.135 4.12891 78.4316 4.12891C75.386 4.12891 73.7433 5.94381 73.7433 8.88875V15.9429L67.9259 23.4422C67.3441 24.1271 66.6597 24.7435 66.3175 24.7435C65.9068 24.7435 65.4619 24.4353 65.4619 23.6477V17.1414H69.7737V14.1965H65.4619V9.57362H62.3136V14.5732L55.1616 24.0586C54.9905 24.3668 54.922 24.4011 54.7852 24.4011C54.5798 24.4011 54.5113 24.2641 54.5113 23.9901V14.1965H51.3973V15.3265L45.4087 22.6547V17.6893C45.4087 15.395 44.3136 13.8883 42.0551 13.8883C40.6521 13.8883 39.2832 14.3335 38.1197 16.1826L35.0398 21.2164V17.6893C35.0398 15.395 33.9448 13.8883 31.6863 13.8883C30.2832 13.8883 28.9828 14.3335 27.8193 16.1826L24.6368 21.2849V14.1965H21.4885V15.2922L16.4922 21.1137C16.3896 20.874 16.3212 20.6342 16.2185 20.3945L13.5493 14.1622H10.2641V15.2238L0.613892 27.4829H4.20705L11.633 17.8606L13.2071 21.5245C13.5835 22.5176 14.131 23.7847 13.0702 24.6065C11.9751 25.4626 9.95611 24.6065 9.34015 23.0998L7.56068 25.2914C8.31353 26.8665 10.3325 27.9966 12.42 27.8596C13.823 27.7569 14.9865 27.2775 15.8078 26.5242L15.8421 26.4899C16.0474 26.3187 16.2185 26.1132 16.3554 25.9078L21.4543 19.9152V27.4829H24.4314L30.3174 17.8263C30.6596 17.2442 30.865 17.0045 31.2414 17.0045C31.5836 17.0045 31.7888 17.1414 31.7888 17.929V27.5172H34.7319L40.7205 17.8263C41.0627 17.2442 41.268 17.0045 41.6444 17.0045C42.0208 17.0045 42.192 17.1414 42.192 17.929V27.5172H45.1349L51.363 19.9837V24.675C51.363 26.2844 52.1843 27.7569 54.3061 27.7569C55.6748 27.7569 56.77 27.3803 57.7281 25.8393L62.2453 19.8124V24.2641C62.2453 26.0447 63.3061 27.8254 66.078 27.8254C67.7548 27.8254 69.2605 26.9693 70.5266 25.0517L71.0399 24.2983L73.7091 20.8397V27.5172H76.6179L82.7091 17.8263C83.0856 17.2442 83.2567 17.0045 83.6331 17.0045C83.9753 17.0045 84.1806 17.1414 84.1806 17.929V27.5172H87.3289V17.6893C87.3289 15.395 86.2339 13.8883 83.9753 13.8883ZM76.7206 8.68329C76.7206 7.69023 77.3023 6.97112 78.2605 6.97112C78.9107 6.97112 79.6293 7.34779 79.6293 8.37509C79.6293 8.95724 79.3898 9.71059 78.5685 10.7721L76.7206 13.1692V8.68329Z" fill="#F0612D"/>
<path d="M91.3326 23.6133C90.2711 23.6133 89.3133 24.5379 89.3133 25.7023C89.3133 26.7982 90.2373 27.757 91.3326 27.757C92.4964 27.757 93.4546 26.8324 93.4546 25.7023C93.4546 24.5379 92.4964 23.6133 91.3326 23.6133Z" fill="#F0612D"/>
<path d="M115.321 12.5187C116.484 12.5187 117.443 11.5941 117.443 10.464C117.443 9.33392 116.519 8.37505 115.321 8.37505C114.26 8.37505 113.302 9.29967 113.302 10.464C113.302 11.5941 114.26 12.5187 115.321 12.5187Z" fill="#F0612D"/>
<path d="M119.976 20.4976L117.649 24.1275C117.477 24.4357 117.409 24.4357 117.272 24.4357C117.067 24.4357 116.998 24.2986 116.998 24.0247V14.3681H113.919V15.1899L108.306 24.0932C108.135 24.4014 108.066 24.4014 107.93 24.4014C107.725 24.4014 107.656 24.2644 107.656 23.9905V14.2653H104.748L104.713 15.3611C103.755 14.5735 102.557 14.0599 101.12 14.0599C97.1848 14.0599 94.3103 17.0391 94.3103 20.9085C94.3103 24.9493 97.1162 27.7572 99.9907 27.7572C102.317 27.7572 103.413 26.2505 104.063 25.0862C104.234 24.8123 104.371 24.5383 104.508 24.2644V24.4699C104.508 26.0451 105.569 27.723 107.416 27.723C108.785 27.723 109.847 27.3463 110.805 25.8054L113.815 21.0113V24.7439C113.815 26.319 114.637 27.7915 116.725 27.7915C118.093 27.7915 119.154 27.4149 120.112 25.8739L123.5 20.5319H119.976V20.4976ZM102.18 23.2371C101.565 24.2986 100.983 24.9493 100.333 24.9493C99.1349 24.9493 97.3896 23.8535 97.3896 20.977C97.3896 18.443 99.1696 16.8678 101.155 16.8678C103.139 16.8678 104.269 18.2376 104.577 18.9224C104.165 19.7101 103.413 21.1483 102.18 23.2371Z" fill="#F0612D"/>
</g>
<defs>
<clipPath id="clip0_29372_4702">
<rect width="122.886" height="32" fill="white" transform="translate(0.613892)"/>
</clipPath>
</defs>
</svg>
