<svg width="32" height="33" viewBox="0 0 32 33" fill="none" xmlns="http://www.w3.org/2000/svg">
<g clip-path="url(#clip0_21454_171856)">
<path d="M11.6313 21.9523C11.0282 22.5554 11.0282 23.5329 11.6313 24.1361C12.2345 24.7392 13.212 24.7392 13.8151 24.1361L23.6388 14.3123C24.8445 13.1067 26.7995 13.1067 28.0051 14.3123C29.2107 15.518 29.2107 17.4729 28.0051 18.6786L18.3707 28.3123C19.5751 29.518 21.5288 29.5192 22.7345 28.3148L22.737 28.3123L30.1901 20.8598C32.602 18.4479 32.602 14.5386 30.1901 12.1273C27.7782 9.71545 23.8682 9.71545 21.4576 12.1273L11.6313 21.9523ZM26.9145 15.4023C26.3113 14.7992 25.3338 14.7992 24.7313 15.4023L14.9063 25.2261C13.702 26.4317 11.7482 26.4329 10.5426 25.2292L10.5395 25.2261C9.93697 24.6236 8.9601 24.6229 8.35697 25.2254L8.35635 25.2261C7.75322 25.8286 7.7526 26.8061 8.3551 27.4092L8.35635 27.4104C10.7676 29.8211 14.6776 29.8211 17.0888 27.4104L26.9138 17.5854C27.517 16.9823 27.517 16.0048 26.9145 15.4023ZM10.5401 20.8604L20.3638 11.0367C20.9663 10.4336 20.9663 9.45607 20.3638 8.85295C19.7613 8.25045 18.7845 8.25045 18.182 8.85295L8.35635 18.6767C7.15135 19.8823 5.19635 19.8829 3.99072 18.6773L3.9901 18.6767C2.78447 17.4717 2.78322 15.5179 3.98822 14.3117L3.9901 14.3098L13.6257 4.6742C12.4207 3.46857 10.4663 3.46795 9.2601 4.67295L9.25885 4.6742L1.80697 12.1273C-0.604277 14.5392 -0.604277 18.4486 1.80697 20.8598C4.21947 23.2717 8.1276 23.2717 10.5401 20.8604ZM5.08197 17.5854C5.68447 18.1879 6.66135 18.1879 7.26385 17.5854L17.0895 7.76107C18.2945 6.55545 20.2488 6.55482 21.4545 7.75982L21.4557 7.76107C22.0588 8.3642 23.0363 8.3642 23.6388 7.76107C24.242 7.15795 24.242 6.18045 23.6388 5.57795C21.227 3.16607 17.3182 3.16607 14.9063 5.57795L5.08197 15.4023C4.47885 16.0048 4.47885 16.9823 5.08135 17.5854H5.08197Z" fill="black"/>
</g>
<defs>
<clipPath id="clip0_21454_171856">
<rect width="32" height="32" fill="white" transform="translate(-0.000976562 0.493652)"/>
</clipPath>
</defs>
</svg>
