<svg width="32" height="32" viewBox="0 0 32 32" fill="none" xmlns="http://www.w3.org/2000/svg">
<rect width="32" height="32" rx="4" fill="#635BFF"/>
<path fill-rule="evenodd" clip-rule="evenodd" d="M14.4872 11.2793C14.4872 10.3757 15.3077 10.0281 16.6667 10.0281C18.6154 10.0281 21.0769 10.561 23.0256 11.5111V6.06587C20.8974 5.30122 18.7949 5 16.6667 5C11.4615 5 8 7.45613 8 11.5574C8 17.9526 17.7436 16.9331 17.7436 19.6904C17.7436 20.7563 16.7179 21.1039 15.2821 21.1039C13.1538 21.1039 10.4359 20.3161 8.28205 19.2502V24.7649C10.6667 25.6917 13.0769 26.0856 15.2821 26.0856C20.6154 26.0856 24.2821 23.699 24.2821 19.5514C24.2564 12.6464 14.4872 13.8745 14.4872 11.2793Z" fill="white"/>
</svg>
