<?xml version="1.0" encoding="UTF-8"?>
<svg width="232px" height="28px" viewBox="0 0 232 28" version="1.1" xmlns="http://www.w3.org/2000/svg" xmlns:xlink="http://www.w3.org/1999/xlink">
    <title>logo/dark</title>
    <g id="logo/dark" stroke="none" stroke-width="1" fill="none" fill-rule="evenodd">
        <line x1="32.5" y1="0.5" x2="32.5" y2="0.5" id="Path" stroke="#6CADDF" stroke-width="0.54" stroke-linecap="round" stroke-linejoin="round"></line>
        <path d="M10.828125,5.62162162 C7.328125,4.75675676 4.921875,4 3.5,4 C1.421875,4 0,5.51351351 0,7.56756757 C0,10.4864865 3.28125,12.6486486 8.859375,12.6486486 C9.734375,12.6486486 10.828125,12.5405405 11.8125,12.4324324 C12.90625,10.8108108 13.5625,9.62162162 14.65625,9.08108108 L17.828125,7.45945946 L17.9375,7.56756757 C17.171875,8.43243243 16.078125,9.94594595 14.65625,12 C16.296875,11.7837838 20.015625,10.8108108 20.125,10.8108108 C20.5625,10.7027027 20.890625,11.2432432 20.234375,11.4594595 C19.796875,11.5675676 16.734375,12.5405405 14,12.8648649 C11.921875,16.4324324 10.828125,19.5675676 10.828125,22.2702703 C10.828125,25.7297297 12.796875,27.7837838 15.75,27.7837838 C17.71875,27.7837838 19.6875,26.8108108 21.21875,24.8648649 C22.53125,23.3513514 23.1875,21.5135135 23.1875,19.7837838 C23.1875,18.2702703 22.421875,17.4054054 21.21875,17.4054054 C19.140625,17.4054054 16.625,19.3513514 15.203125,22.8108108 C15.203125,22.8108108 15.09375,23.1351351 14.765625,23.027027 C14.546875,22.9189189 14.546875,22.7027027 14.546875,22.7027027 C15.75,19.027027 18.703125,16.7567568 21,16.7567568 C23.078125,16.7567568 24.390625,18.1621622 24.390625,20.4324324 C24.390625,22.4864865 23.078125,24.972973 20.671875,26.8108108 C20.015625,27.2432432 19.90625,27.3513514 18.484375,28 L28,28 L28,4.43243243 C25.265625,6.16216216 22.203125,7.02702703 18.59375,7.02702703 C15.859375,7.02702703 13.234375,6.27027027 10.828125,5.62162162" id="Path" fill="#002D6A" fill-rule="nonzero"></path>
        <path d="M8.8442623,21.2631579 C8.8442623,18.9473684 9.69672131,16.2105263 11.4016393,13.6842105 C10.442623,13.7894737 9.59016393,13.7894737 8.95081967,13.7894737 C4.1557377,13.6842105 1.06557377,12.3157895 0,10 L0,28 L13,28 C10.442623,26.9473684 8.8442623,24.4210526 8.8442623,21.2631579" id="Path" fill="#002D6A" fill-rule="nonzero"></path>
        <path d="M5.57854406,2.60377358 C7.50957854,2.60377358 9.8697318,3.28301887 12.6590038,4.0754717 C16.8429119,5.20754717 19.8467433,6 21.7777778,6 C23.816092,6 25.8544061,5.32075472 28,4.0754717 L28,0 L0,0 L0,6 C0.750957854,4.18867925 2.89655172,2.60377358 5.57854406,2.60377358" id="Path" fill="#6CADDF" fill-rule="nonzero"></path>
        <path d="M21.7777778,5.26359833 C19.8467433,5.26359833 16.8429119,4.61087866 12.6590038,3.41422594 C9.8697318,2.65271967 7.61685824,2 5.57854406,2 C2.89655172,2 0.750957854,3.52301255 0,5.26359833 L0,9.39748954 C1.07279693,11.790795 4.18390805,13.3138075 9.01149425,13.3138075 C9.76245211,13.3138075 10.6206897,13.3138075 11.4789272,13.2050209 C9.76245211,15.9246862 8.90421456,18.6443515 8.90421456,21.0376569 C8.90421456,24.4100418 10.51341,26.9121339 12.9808429,28 L18.6666667,28 C19.954023,27.4560669 20.1685824,27.3472803 20.8122605,26.8033473 C23.1724138,24.9539749 24.4597701,22.4518828 24.4597701,20.3849372 C24.4597701,18.209205 23.1724138,16.6861925 21.1340996,16.6861925 C18.7739464,16.6861925 15.9846743,18.9707113 14.8045977,22.6694561 C14.8045977,22.6694561 14.8045977,22.9958159 15.0191571,22.9958159 C15.3409962,23.1046025 15.4482759,22.7782427 15.4482759,22.7782427 C16.8429119,19.2970711 19.3103448,17.3389121 21.348659,17.3389121 C22.5287356,17.3389121 23.2796935,18.209205 23.2796935,19.7322176 C23.2796935,21.3640167 22.6360153,23.2133891 21.348659,24.8451883 C19.7394636,26.8033473 17.9157088,27.7824268 15.9846743,27.7824268 C13.0881226,27.7824268 11.1570881,25.7154812 11.1570881,22.2343096 C11.1570881,19.5146444 12.2298851,16.3598326 14.2681992,12.7698745 C16.9501916,12.334728 19.954023,11.4644351 20.3831418,11.3556485 C21.0268199,11.1380753 20.7049808,10.5941423 20.2758621,10.7029289 C20.1685824,10.7029289 16.5210728,11.6820084 14.9118774,11.8995816 C16.3065134,9.83263598 17.3793103,8.30962343 18.1302682,7.43933054 L18.0229885,7.33054393 L14.9118774,8.9623431 C13.8390805,9.50627615 13.1954023,10.7029289 12.1226054,12.334728 C11.0498084,12.4435146 10.0842912,12.5523013 9.22605364,12.5523013 C3.75478927,12.5523013 0.536398467,10.376569 0.536398467,7.43933054 C0.32183908,5.37238494 1.7164751,3.84937238 3.75478927,3.84937238 C5.14942529,3.84937238 7.50957854,4.61087866 10.9425287,5.48117155 C13.302682,6.13389121 15.8773946,6.78661088 18.7739464,6.78661088 C22.3141762,6.78661088 25.3180077,5.91631799 28,4.17573222 L28,3.41422594 C25.8544061,4.71966527 23.816092,5.26359833 21.7777778,5.26359833" id="Path" fill="#FFFFFF" fill-rule="nonzero"></path>
        <polygon id="Path" fill="#002D6A" fill-rule="nonzero" points="40 6.90588235 34 6.90588235 34 5 48 5 48 6.90588235 42 6.90588235 42 23 40 23"></polygon>
        <path d="M57.7142857,14.3214286 C60.3928571,14.3214286 62.4285714,12.9285714 62.4285714,10.5714286 L62.4285714,10.5714286 C62.4285714,8.32142857 60.7142857,7.03571429 57.8214286,7.03571429 L52.25,7.03571429 L52.25,14.3214286 L57.7142857,14.3214286 Z M50,5 L57.8214286,5 C60.0714286,5 61.8928571,5.64285714 62.9642857,6.82142857 C63.8214286,7.67857143 64.3571429,8.96428571 64.3571429,10.3571429 L64.3571429,10.3571429 C64.3571429,13.3571429 62.3214286,15.1785714 59.4285714,15.6071429 L65,23 L62.5357143,23 L57.2857143,15.9285714 L52.1428571,15.9285714 L52.1428571,23 L50.1071429,23 L50.1071429,5 L50,5 Z" id="Shape" fill="#002D6A" fill-rule="nonzero"></path>
        <path d="M78.8081395,16.4736842 L74.5,7.42105263 L70.1918605,16.4736842 L78.8081395,16.4736842 Z M73.505814,5 L75.494186,5 L84,23 L81.7906977,23 L79.5813953,18.2631579 L69.4186047,18.2631579 L67.2093023,23 L65,23 L73.505814,5 Z" id="Shape" fill="#002D6A" fill-rule="nonzero"></path>
        <polygon id="Path" fill="#002D6A" fill-rule="nonzero" points="86 5 88 5 99.8888889 19.4 99.8888889 5 102 5 102 23 100.222222 23 88.1111111 8.28235294 88.1111111 23 86 23"></polygon>
        <path d="M104,20.9425287 L105.3125,19.4137931 C107.28125,21.1609195 109.140625,22.0344828 111.65625,22.0344828 C114.171875,22.0344828 115.8125,20.7241379 115.8125,18.8678161 L115.8125,18.8678161 C115.8125,17.1206897 114.9375,16.137931 111,15.3735632 C106.734375,14.5 104.765625,13.0804598 104.765625,10.0229885 L104.765625,10.0229885 C104.765625,7.07471264 107.28125,5 110.890625,5 C113.625,5 115.484375,5.76436782 117.453125,7.29310345 L116.25,8.93103448 C114.5,7.51149425 112.859375,6.96551724 110.890625,6.96551724 C108.484375,6.96551724 106.953125,8.27586207 106.953125,9.9137931 L106.953125,9.9137931 C106.953125,11.6609195 107.9375,12.6436782 111.984375,13.5172414 C116.140625,14.3908046 118,15.9195402 118,18.7586207 L118,18.7586207 C118,21.9252874 115.375,24 111.65625,24 C108.59375,23.8908046 106.1875,22.908046 104,20.9425287" id="Path" fill="#002D6A" fill-rule="nonzero"></path>
        <path d="M126.834646,14.7988166 C129.92126,14.7988166 132.015748,13.2011834 132.015748,10.8579882 L132.015748,10.8579882 C132.015748,8.30177515 130.031496,6.91715976 126.944882,6.91715976 L122.204724,6.91715976 L122.204724,14.9053254 L126.834646,14.9053254 L126.834646,14.7988166 Z M120.110236,5 L127.055118,5 C131.244094,5 134,7.13017751 134,10.7514793 L134,10.7514793 C134,14.6923077 130.582677,16.6094675 126.614173,16.6094675 L122.094488,16.6094675 L122.094488,23 L120,23 L120,5 L120.110236,5 Z" id="Shape" fill="#002D6A" fill-rule="nonzero"></path>
        <polygon id="Path" fill="#002D6A" fill-rule="nonzero" points="136 5 148.895161 5 148.895161 6.90588235 137.991935 6.90588235 137.991935 13.0470588 147.741935 13.0470588 147.741935 14.8470588 137.991935 14.8470588 137.991935 21.0941176 149 21.0941176 149 23 136 23"></polygon>
        <path d="M159.607143,14.3214286 C162.285714,14.3214286 164.321429,12.9285714 164.321429,10.5714286 L164.321429,10.5714286 C164.321429,8.32142857 162.607143,7.03571429 159.714286,7.03571429 L154.142857,7.03571429 L154.142857,14.3214286 L159.607143,14.3214286 Z M152,5 L159.821429,5 C162.071429,5 163.892857,5.64285714 164.964286,6.82142857 C165.821429,7.67857143 166.357143,8.96428571 166.357143,10.3571429 L166.357143,10.3571429 C166.357143,13.3571429 164.321429,15.1785714 161.428571,15.6071429 L167,23 L164.535714,23 L159.285714,15.9285714 L154.142857,15.9285714 L154.142857,23 L152.107143,23 L152.107143,5 L152,5 Z" id="Shape" fill="#002D6A" fill-rule="nonzero"></path>
        <polygon id="Path" fill="#002D6A" fill-rule="nonzero" points="169 5 182 5 182 6.90588235 171.02459 6.90588235 171.02459 13.2588235 180.827869 13.2588235 180.827869 15.1647059 171.02459 15.1647059 171.02459 23 169 23"></polygon>
        <polygon id="Path" fill="#002D6A" fill-rule="nonzero" points="185 5 197.895161 5 197.895161 6.90588235 186.991935 6.90588235 186.991935 13.0470588 196.741935 13.0470588 196.741935 14.8470588 186.991935 14.8470588 186.991935 21.0941176 198 21.0941176 198 23 185 23"></polygon>
        <path d="M199,13.5 L199,13.5 C199,8.31818182 202.974026,4 208.493506,4 C211.915584,4 213.902597,5.1875 215.779221,6.91477273 L214.344156,8.42613636 C212.798701,6.91477273 211.032468,5.94318182 208.493506,5.94318182 C204.298701,5.94318182 201.207792,9.28977273 201.207792,13.5 L201.207792,13.5 C201.207792,17.7102273 204.298701,21.0568182 208.493506,21.0568182 C211.032468,21.0568182 212.798701,20.0852273 214.564935,18.4659091 L216,19.7613636 C214.012987,21.7045455 211.915584,23 208.493506,23 C202.974026,23 199,18.7897727 199,13.5" id="Path" fill="#002D6A" fill-rule="nonzero"></path>
        <polygon id="Path" fill="#002D6A" fill-rule="nonzero" points="222.955224 6.90588235 217 6.90588235 217 5 231 5 231 6.90588235 225.044776 6.90588235 225.044776 23 222.955224 23"></polygon>
        <line x1="28.5" y1="0.5" x2="28.5" y2="0.5" id="Path" stroke="#6CADDF" stroke-width="0.54" stroke-linecap="round" stroke-linejoin="round"></line>
    </g>
</svg>