<svg width="32" height="33" viewBox="0 0 32 33" fill="none" xmlns="http://www.w3.org/2000/svg">
<g clip-path="url(#clip0_21454_171855)">
<path d="M2.27441 16.4932C2.27441 21.9262 5.43176 26.6214 10.0102 28.8463L3.46276 10.9072C2.70117 12.6143 2.27441 14.5034 2.27441 16.4932Z" fill="#464342"/>
<path d="M25.2659 15.8007C25.2659 14.1044 24.6566 12.9296 24.134 12.0152C23.4382 10.8846 22.7861 9.92715 22.7861 8.79652C22.7861 7.53478 23.743 6.36027 25.0909 6.36027C25.1518 6.36027 25.2095 6.36785 25.2688 6.37124C22.8268 4.13401 19.5734 2.76807 16 2.76807C11.2048 2.76807 6.986 5.22834 4.53174 8.95479C4.85377 8.96445 5.15725 8.97124 5.41503 8.97124C6.85072 8.97124 9.07306 8.79704 9.07306 8.79704C9.81297 8.75342 9.9002 9.84017 9.16107 9.92767C9.16107 9.92767 8.41751 10.0152 7.5901 10.0585L12.5885 24.9259L15.5923 15.9172L13.4538 10.058C12.7146 10.0146 12.0144 9.92715 12.0144 9.92715C11.2748 9.88379 11.3615 8.7529 12.1011 8.79652C12.1011 8.79652 14.3679 8.97072 15.7166 8.97072C17.152 8.97072 19.3746 8.79652 19.3746 8.79652C20.115 8.7529 20.202 9.83965 19.4626 9.92715C19.4626 9.92715 18.7175 10.0146 17.8916 10.058L22.8519 24.8128L24.221 20.2378C24.8144 18.3393 25.2659 16.9757 25.2659 15.8007Z" fill="#464342"/>
<path d="M16.2408 17.6938L12.1226 29.6606C13.3522 30.0221 14.6526 30.2198 16 30.2198C17.5984 30.2198 19.1312 29.9435 20.558 29.4418C20.5212 29.383 20.4877 29.3206 20.4603 29.2527L16.2408 17.6938Z" fill="#464342"/>
<path d="M28.0438 9.90796C28.1028 10.3452 28.1362 10.8145 28.1362 11.3194C28.1362 12.7122 27.8761 14.2779 27.0926 16.2357L22.8999 28.3577C26.9805 25.9781 29.7252 21.5572 29.7252 16.4935C29.7255 14.1071 29.1159 11.8631 28.0438 9.90796Z" fill="#464342"/>
<path d="M16.0001 0.493652C7.17789 0.493652 0 7.67101 0 16.4933C0 25.3166 7.17789 32.4937 16.0001 32.4937C24.8221 32.4937 32.001 25.3166 32.001 16.4933C32.0008 7.67101 24.8221 0.493652 16.0001 0.493652ZM16.0001 31.7603C7.58245 31.7603 0.733642 24.9115 0.733642 16.4933C0.733642 8.07558 7.58219 1.22729 16.0001 1.22729C24.4176 1.22729 31.2658 8.07558 31.2658 16.4933C31.2658 24.9115 24.4176 31.7603 16.0001 31.7603Z" fill="#464342"/>
</g>
<defs>
<clipPath id="clip0_21454_171855">
<rect width="31.9992" height="32" fill="white" transform="translate(0 0.493652)"/>
</clipPath>
</defs>
</svg>
